<svg id="romano" xmlns="http://www.w3.org/2000/svg" width="151.724" height="178.563" viewBox="0 0 151.724 178.563">
  <g id="Grupo_53814" data-name="Grupo 53814" transform="translate(61.792 22.794)">
    <path id="Trazado_101782" data-name="Trazado 101782" d="M95.86,63.915a69.229,69.229,0,0,1,51.224,44.549l-20.779,6.179c-7.179-16.588-18.746-26.522-36.624-30.9Z" transform="translate(-86.591 -60.828)" fill="#ffa726"/>
    <path id="Trazado_101783" data-name="Trazado 101783" d="M125.4,116.823a3.194,3.194,0,0,0,.881-.127l20.779-6.179a3.091,3.091,0,0,0,2.031-4A72.538,72.538,0,0,0,95.57,59.981,3.091,3.091,0,0,0,92,62.087L85.821,81.919a3.1,3.1,0,0,0,2.218,3.922c16.722,4.088,27.693,13.341,34.52,29.121a3.092,3.092,0,0,0,2.836,1.861Zm16.7-11.278-15,4.459C119.839,94.8,108.8,85.39,92.678,80.686L97.05,66.65a66.394,66.394,0,0,1,45.043,38.894Z" transform="translate(-85.682 -59.918)"/>
  </g>
  <g id="Grupo_53815" data-name="Grupo 53815" transform="translate(0 39.534)">
    <path id="Trazado_101784" data-name="Trazado 101784" d="M87.044,138.062v-.1a52.37,52.37,0,0,1,104.74,0v19.852a60.744,60.744,0,0,0,13.731,38.465l2.522,3.083s-47.888-2.546-57.157-30.352c0,0-3.481,45.821-64.88,49.433,0,0,3.09-40.164,3.09-46.343,0,0,40.164-6.179,43.254-33.985Z" transform="translate(-82.909 -82.502)" fill="#fdd835"/>
    <path id="Trazado_101785" data-name="Trazado 101785" d="M85.092,220.621c.06,0,.12,0,.181-.006,46.446-2.73,61.2-29.29,65.783-43.467,14.967,21.94,54.073,24.291,55.909,24.39a3.051,3.051,0,0,0,2.92-1.69,3.088,3.088,0,0,0-.365-3.352L207,193.412A57.812,57.812,0,0,1,193.964,156.9V137.052a55.46,55.46,0,1,0-110.919,0,3.178,3.178,0,0,0,3.086,3.189l41.615.048c-5.624,22.29-39.675,27.79-40.037,27.845a3.091,3.091,0,0,0-2.619,3.053c0,5.992-3.05,45.707-3.08,46.1a3.088,3.088,0,0,0,3.082,3.329Zm64.883-55.612a2.8,2.8,0,0,0-.383.024,3.089,3.089,0,0,0-2.7,2.83c-.139,1.72-3.995,41.479-58.448,46.322.676-8.909,2.374-31.737,2.751-40.417,9.289-1.937,40.433-10.334,43.311-36.223a3.094,3.094,0,0,0-3.069-3.43l-42.122-.048a49.281,49.281,0,0,1,98.471,2.987V156.9a64.028,64.028,0,0,0,12.3,37.666c-13.267-1.931-40.767-8.2-47.182-27.447A3.086,3.086,0,0,0,149.975,165.009ZM86.136,137.152h-.03Z" transform="translate(-82 -81.591)"/>
  </g>
  <g id="Grupo_53817" data-name="Grupo 53817" transform="translate(12.359 0)">
    <g id="Grupo_53816" data-name="Grupo 53816">
      <path id="Trazado_101786" data-name="Trazado 101786" d="M75.844,38.979l4.792,12.778,1.632-14.686a85.2,85.2,0,0,1,81.68,22.581l-3.226,16.13,13.255-3.976A85.585,85.585,0,0,1,186.21,140.58l-27.78-5.849a59.69,59.69,0,0,0-91.206-64.4L55.566,49A85.119,85.119,0,0,1,75.844,38.979Z" transform="translate(-52.476 -31.317)" fill="#f57c00"/>
      <path id="Trazado_101787" data-name="Trazado 101787" d="M185.3,142.759a3.09,3.09,0,0,0,2.995-2.341A88.672,88.672,0,0,0,175.621,69.16a3.1,3.1,0,0,0-3.443-1.222l-8.327,2.5,2.216-11.085a3.085,3.085,0,0,0-.837-2.782,87.887,87.887,0,0,0-62.812-26.161A88.957,88.957,0,0,0,80.6,33.164a3.093,3.093,0,0,0-2.311,2.655l-.205,1.844-.253-.678a3.081,3.081,0,0,0-3.889-1.841A88.339,88.339,0,0,0,52.929,45.524a3.091,3.091,0,0,0-.983,4.043L63.6,70.91a3.093,3.093,0,0,0,4.444,1.077,56.518,56.518,0,0,1,86.483,61.063,3.09,3.09,0,0,0,2.355,3.8l27.779,5.847a3.05,3.05,0,0,0,.638.066ZM171.756,74.516a81.881,81.881,0,0,1,13,44.406,82.77,82.77,0,0,1-1.782,17.1l-21.724-4.574a61.744,61.744,0,0,0,1.315-12.527A62.825,62.825,0,0,0,67.441,65.045l-8.7-15.927a82.3,82.3,0,0,1,14.373-7.111l3.72,9.927a3.129,3.129,0,0,0,3.276,1.982A3.09,3.09,0,0,0,82.8,51.19l1.391-12.533a82.093,82.093,0,0,1,75.494,21.114l-2.9,14.5a3.091,3.091,0,0,0,3.918,3.566Z" transform="translate(-51.567 -30.407)"/>
    </g>
  </g>
  <path id="Trazado_101788" data-name="Trazado 101788" d="M55.586,131.624h.006l11.295-.021a3.09,3.09,0,0,0-.006-6.179h-.006l-11.295.021a3.09,3.09,0,0,0,.006,6.179Z" transform="translate(81.036 -52.034)"/>
  <path id="Trazado_101789" data-name="Trazado 101789" d="M120.019,61.947a3.091,3.091,0,0,0,2.759-1.692l6.906-13.619a3.09,3.09,0,0,0-5.513-2.794l-6.906,13.619a3.091,3.091,0,0,0,2.754,4.486Z" transform="translate(-28.781 -33.079)"/>
  <path id="Trazado_101790" data-name="Trazado 101790" d="M132.413,50.03a3.089,3.089,0,0,0,2.893-2.007l2.675-7.154a3.089,3.089,0,0,0-5.787-2.166l-2.675,7.154a3.091,3.091,0,0,0,2.893,4.172Z" transform="translate(-46.512 -31.839)"/>
  <g id="Grupo_53818" data-name="Grupo 53818" transform="translate(52.524 113.683)">
    <ellipse id="Elipse_4078" data-name="Elipse 4078" cx="12.358" cy="12.358" rx="12.358" ry="12.358" transform="translate(3.09 3.09)" fill="#f57c00"/>
    <path id="Trazado_101791" data-name="Trazado 101791" d="M155.448,208.487A15.448,15.448,0,1,0,140,193.04,15.466,15.466,0,0,0,155.448,208.487Zm0-24.716a9.269,9.269,0,1,1-9.269,9.269A9.279,9.279,0,0,1,155.448,183.771Z" transform="translate(-140 -177.592)"/>
  </g>
  <ellipse id="Elipse_4079" data-name="Elipse 4079" cx="3.09" cy="3.09" rx="3.09" ry="3.09" transform="translate(64.882 126.041)" fill="#fdd835"/>
  <path id="Trazado_101792" data-name="Trazado 101792" d="M195.089,132.487a3.092,3.092,0,0,0,2.93-2.106c.057-.172,5.98-17.173,22.765-22.77a3.089,3.089,0,1,0-1.956-5.859c-19.775,6.589-26.4,25.851-26.668,26.668a3.091,3.091,0,0,0,2.93,4.067Z" transform="translate(-179.64 -46.61)" fill="#fff"/>
  <path id="Trazado_101793" data-name="Trazado 101793" d="M211.091,254.308a3.073,3.073,0,0,0,1.85-.619l24.716-18.537a3.089,3.089,0,0,0-3.705-4.942l-24.716,18.537a3.09,3.09,0,0,0,1.855,5.561Z" transform="translate(-207.997 -75.745)"/>
</svg>
