<svg xmlns="http://www.w3.org/2000/svg" width="138.586" height="138.586" viewBox="0 0 138.586 138.586">
  <g id="Grupo_53851" data-name="Grupo 53851" transform="translate(-1136.137 -1205.852)">
    <g id="cruz-bizantina" transform="translate(1136.137 1205.852)">
      <g id="Grupo_53849" data-name="Grupo 53849" transform="translate(2.235 2.235)">
        <g id="Grupo_53824" data-name="Grupo 53824" transform="translate(40.235 125.174)">
          <path id="Trazado_101804" data-name="Trazado 101804" d="M72.646,59.235v4.471a2.242,2.242,0,0,1-2.235,2.235H21.235A2.242,2.242,0,0,1,19,63.706V59.235A2.242,2.242,0,0,1,21.235,57H70.411A2.242,2.242,0,0,1,72.646,59.235Z" transform="translate(-19 -57)" fill="#d3a06c"/>
        </g>
        <g id="Grupo_53825" data-name="Grupo 53825" transform="translate(116.233 79.687)">
          <path id="Trazado_101805" data-name="Trazado 101805" d="M61.941,36.65v7.488a6.716,6.716,0,0,1-6.706,6.706A2.242,2.242,0,0,1,53,48.609V36.65a13.164,13.164,0,0,0,8.941,0Z" transform="translate(-53 -36.65)" fill="#d3a06c"/>
        </g>
        <g id="Grupo_53826" data-name="Grupo 53826" transform="translate(116.233 40.235)">
          <path id="Trazado_101806" data-name="Trazado 101806" d="M61.941,25.706v7.488a13.164,13.164,0,0,0-8.941,0V21.235A2.242,2.242,0,0,1,55.235,19,6.7,6.7,0,0,1,61.941,25.706Z" transform="translate(-53 -19)" fill="#d3a06c"/>
        </g>
        <g id="Grupo_53827" data-name="Grupo 53827" transform="translate(79.687 8.941)">
          <path id="Trazado_101807" data-name="Trazado 101807" d="M46.373,13.941H36.65A13.164,13.164,0,0,0,36.65,5h7.488a6.716,6.716,0,0,1,6.706,6.706,2.242,2.242,0,0,1-2.235,2.235Z" transform="translate(-36.65 -5)" fill="#d3a06c"/>
        </g>
        <g id="Grupo_53828" data-name="Grupo 53828" transform="translate(40.235 8.941)">
          <path id="Trazado_101808" data-name="Trazado 101808" d="M25.706,5h7.488a13.164,13.164,0,0,0,0,8.941H21.235A2.242,2.242,0,0,1,19,11.706,6.7,6.7,0,0,1,25.706,5Z" transform="translate(-19 -5)" fill="#d3a06c"/>
        </g>
        <g id="Grupo_53829" data-name="Grupo 53829" transform="translate(8.941 79.687)">
          <path id="Trazado_101809" data-name="Trazado 101809" d="M13.941,46.373v2.235a2.242,2.242,0,0,1-2.235,2.235A6.7,6.7,0,0,1,5,44.138V36.65a13.164,13.164,0,0,0,8.941,0Z" transform="translate(-5 -36.65)" fill="#d3a06c"/>
        </g>
        <g id="Grupo_53830" data-name="Grupo 53830" transform="translate(8.941 40.235)">
          <path id="Trazado_101810" data-name="Trazado 101810" d="M13.941,23.471v9.723a13.164,13.164,0,0,0-8.941,0V25.706A6.716,6.716,0,0,1,11.706,19a2.242,2.242,0,0,1,2.235,2.235Z" transform="translate(-5 -19)" fill="#d3a06c"/>
        </g>
        <g id="Grupo_53831" data-name="Grupo 53831" transform="translate(44.705 88.047)">
          <path id="Trazado_101811" data-name="Trazado 101811" d="M43.353,77.518H21L26.633,40.39a26.65,26.65,0,0,0,16.72,5.834,8.935,8.935,0,0,0-5.879,15.669,8.9,8.9,0,0,0,5.879,15.624Z" transform="translate(-21 -40.39)" fill="#cf9e76"/>
        </g>
        <g id="Grupo_53832" data-name="Grupo 53832" transform="translate(67.058 88.047)">
          <path id="Trazado_101812" data-name="Trazado 101812" d="M47.72,40.39l5.633,37.128H31a8.9,8.9,0,0,0,5.879-15.624A8.935,8.935,0,0,0,31,46.224,26.65,26.65,0,0,0,47.72,40.39Z" transform="translate(-31 -40.39)" fill="#cf9e76"/>
        </g>
        <g id="Grupo_53833" data-name="Grupo 53833" transform="translate(88.047 67.058)">
          <path id="Trazado_101813" data-name="Trazado 101813" d="M59.636,31a13.369,13.369,0,0,0,8.941,12.629v9.723L40.39,47.72A26.829,26.829,0,0,0,46.224,31a6.706,6.706,0,1,0,13.412,0Z" transform="translate(-40.39 -31)" fill="#cf9e76"/>
        </g>
        <g id="Grupo_53834" data-name="Grupo 53834" transform="translate(88.047 44.705)">
          <path id="Trazado_101814" data-name="Trazado 101814" d="M68.577,21v9.723a13.369,13.369,0,0,0-8.941,12.629,6.706,6.706,0,1,0-13.412,0,26.65,26.65,0,0,0-5.834-16.72Z" transform="translate(-40.39 -21)" fill="#cf9e76"/>
        </g>
        <g id="Grupo_53835" data-name="Grupo 53835" transform="translate(67.058 17.882)">
          <path id="Trazado_101815" data-name="Trazado 101815" d="M53.353,9,47.72,37.187A26.65,26.65,0,0,0,31,31.353a6.706,6.706,0,1,0,0-13.412A13.369,13.369,0,0,0,43.629,9Z" transform="translate(-31 -9)" fill="#cf9e76"/>
        </g>
        <g id="Grupo_53836" data-name="Grupo 53836" transform="translate(44.705 17.882)">
          <path id="Trazado_101816" data-name="Trazado 101816" d="M43.353,17.941a6.706,6.706,0,1,0,0,13.412,26.65,26.65,0,0,0-16.72,5.834L21,9h9.723a13.369,13.369,0,0,0,12.629,8.941Z" transform="translate(-21 -9)" fill="#cf9e76"/>
        </g>
        <g id="Grupo_53837" data-name="Grupo 53837" transform="translate(17.882 67.058)">
          <path id="Trazado_101817" data-name="Trazado 101817" d="M24.647,37.706A6.7,6.7,0,0,0,31.353,31a26.829,26.829,0,0,0,5.834,16.72L9,53.353V43.629A13.369,13.369,0,0,0,17.941,31,6.7,6.7,0,0,0,24.647,37.706Z" transform="translate(-9 -31)" fill="#cf9e76"/>
        </g>
        <g id="Grupo_53838" data-name="Grupo 53838" transform="translate(17.882 44.705)">
          <path id="Trazado_101818" data-name="Trazado 101818" d="M9,21l28.187,5.633a26.65,26.65,0,0,0-5.834,16.72,6.706,6.706,0,1,0-13.412,0A13.369,13.369,0,0,0,9,30.723Z" transform="translate(-9 -21)" fill="#cf9e76"/>
        </g>
        <g id="Grupo_53839" data-name="Grupo 53839" transform="translate(58.117 109.55)">
          <path id="Trazado_101819" data-name="Trazado 101819" d="M44.882,56.693a8.941,8.941,0,1,1-14.82-6.683,8.915,8.915,0,0,0,11.757,0A8.876,8.876,0,0,1,44.882,56.693Z" transform="translate(-27 -50.01)" fill="#fdd835"/>
        </g>
        <g id="Grupo_53840" data-name="Grupo 53840" transform="translate(58.117 93.881)">
          <path id="Trazado_101820" data-name="Trazado 101820" d="M41.82,58.669a8.935,8.935,0,1,1,3.062-6.728A8.907,8.907,0,0,1,41.82,58.669Z" transform="translate(-27 -43)" fill="#fdd835"/>
        </g>
        <g id="Grupo_53841" data-name="Grupo 53841" transform="translate(107.292 53.646)">
          <path id="Trazado_101821" data-name="Trazado 101821" d="M66.882,25.782a13.39,13.39,0,0,1,0,25.258,13.164,13.164,0,0,1-8.941,0,13.39,13.39,0,0,1,0-25.258,13.164,13.164,0,0,1,8.941,0Zm0,12.629a4.471,4.471,0,1,0-4.471,4.471A4.484,4.484,0,0,0,66.882,38.412Z" transform="translate(-49 -25)" fill="#fdd835"/>
        </g>
        <g id="Grupo_53842" data-name="Grupo 53842" transform="translate(93.806 60.423)">
          <circle id="Elipse_4081" data-name="Elipse 4081" cx="7.003" cy="7.003" r="7.003" transform="translate(0 0)" fill="#fdd835"/>
        </g>
        <g id="Grupo_53843" data-name="Grupo 53843" transform="translate(53.646)">
          <path id="Trazado_101822" data-name="Trazado 101822" d="M51.041,9.941a13.164,13.164,0,0,1,0,8.941,13.39,13.39,0,0,1-25.258,0,13.164,13.164,0,0,1,0-8.941,13.39,13.39,0,0,1,25.258,0Zm-8.159,4.471a4.471,4.471,0,1,0-4.471,4.471A4.484,4.484,0,0,0,42.882,14.412Z" transform="translate(-25 -1)" fill="#fdd835"/>
        </g>
        <g id="Grupo_53844" data-name="Grupo 53844" transform="translate(59.896 26.514)">
          <ellipse id="Elipse_4082" data-name="Elipse 4082" cx="6.634" cy="7.003" rx="6.634" ry="7.003" transform="translate(0 0)" fill="#fdd835"/>
        </g>
        <g id="Grupo_53845" data-name="Grupo 53845" transform="translate(0 53.646)">
          <path id="Trazado_101823" data-name="Trazado 101823" d="M27.823,38.412a13.369,13.369,0,0,1-8.941,12.629,13.164,13.164,0,0,1-8.941,0,13.39,13.39,0,0,1,0-25.258,13.164,13.164,0,0,1,8.941,0A13.369,13.369,0,0,1,27.823,38.412Zm-8.941,0a4.471,4.471,0,1,0-4.471,4.471A4.484,4.484,0,0,0,18.882,38.412Z" transform="translate(-1 -25)" fill="#fdd835"/>
        </g>
        <g id="Grupo_53846" data-name="Grupo 53846" transform="translate(26.724 60.423)">
          <circle id="Elipse_4083" data-name="Elipse 4083" cx="7.003" cy="7.003" r="7.003" transform="translate(0 0)" fill="#fdd835"/>
        </g>
        <g id="Grupo_53847" data-name="Grupo 53847" transform="translate(40.235 40.55)">
          <path id="Trazado_101824" data-name="Trazado 101824" d="M72.015,45.507A26.513,26.513,0,0,1,66.25,62.03h-.022a25.149,25.149,0,0,1-4.2,4.2v.022a26.559,26.559,0,0,1-33.046,0v-.022a25.149,25.149,0,0,1-4.2-4.2h-.022a26.559,26.559,0,0,1,0-33.046h.022a25.149,25.149,0,0,1,4.2-4.2v-.022a26.559,26.559,0,0,1,33.046,0v.022a25.149,25.149,0,0,1,4.2,4.2h.022A26.337,26.337,0,0,1,72.015,45.507Z" transform="translate(-19 -19)" fill="#f57c00"/>
        </g>
        <g id="Grupo_53848" data-name="Grupo 53848" transform="translate(49.576 48.629)">
          <ellipse id="Elipse_4084" data-name="Elipse 4084" cx="17.692" cy="18.06" rx="17.692" ry="18.06" transform="translate(0 0)" fill="#ffeaa7"/>
        </g>
      </g>
      <g id="Grupo_53850" data-name="Grupo 53850" transform="translate(0)">
        <path id="Trazado_101825" data-name="Trazado 101825" d="M42.117,22A20.117,20.117,0,1,0,62.235,42.117,20.139,20.139,0,0,0,42.117,22Zm0,35.764A15.647,15.647,0,1,1,57.764,42.117,15.667,15.667,0,0,1,42.117,57.764Z" transform="translate(27.176 27.176)"/>
        <path id="Trazado_101826" data-name="Trazado 101826" d="M36.941,26H32.471v4.471H28v4.471h4.471V48.353h4.471V34.941h4.471V30.471H36.941Z" transform="translate(34.587 32.117)"/>
        <path id="Trazado_101827" data-name="Trazado 101827" d="M34.706,17.412A6.706,6.706,0,1,0,28,10.706,6.714,6.714,0,0,0,34.706,17.412Zm0-8.941a2.235,2.235,0,1,1-2.235,2.235A2.236,2.236,0,0,1,34.706,8.471Z" transform="translate(34.587 4.941)"/>
        <path id="Trazado_101828" data-name="Trazado 101828" d="M17.412,34.706a6.706,6.706,0,1,0-6.706,6.706A6.714,6.714,0,0,0,17.412,34.706Zm-8.941,0a2.235,2.235,0,1,1,2.235,2.235A2.236,2.236,0,0,1,8.471,34.706Z" transform="translate(4.941 34.587)"/>
        <path id="Trazado_101829" data-name="Trazado 101829" d="M138.586,69.293a15.653,15.653,0,0,0-8.941-14.116v-6a8.95,8.95,0,0,0-8.941-8.941,4.475,4.475,0,0,0-4.471,4.471v.4L91.087,50.137A29.374,29.374,0,0,0,88.449,47.5l5.029-25.147h.4a4.475,4.475,0,0,0,4.471-4.471A8.95,8.95,0,0,0,89.41,8.941h-6a15.613,15.613,0,0,0-28.231,0h-6a8.95,8.95,0,0,0-8.941,8.941,4.475,4.475,0,0,0,4.471,4.471h.4L50.137,47.5A29.374,29.374,0,0,0,47.5,50.137L22.353,45.107v-.4a4.475,4.475,0,0,0-4.471-4.471,8.95,8.95,0,0,0-8.941,8.941v6a15.613,15.613,0,0,0,0,28.231v6a8.95,8.95,0,0,0,8.941,8.941,4.475,4.475,0,0,0,4.471-4.471v-.4L47.5,88.449a29.052,29.052,0,0,0,2.691,2.685l-5.17,34.041h-.315a4.475,4.475,0,0,0-4.471,4.471v4.471a4.475,4.475,0,0,0,4.471,4.471H93.881a4.475,4.475,0,0,0,4.471-4.471v-4.471a4.475,4.475,0,0,0-4.471-4.471h-.315L88.4,91.134a29.617,29.617,0,0,0,2.691-2.685l25.147,5.029v.4a4.475,4.475,0,0,0,4.471,4.471,8.95,8.95,0,0,0,8.941-8.941v-6A15.653,15.653,0,0,0,138.586,69.293ZM125.174,49.176v4.649a14.06,14.06,0,0,0-4.471,0v-9.12A4.475,4.475,0,0,1,125.174,49.176Zm-8.941.492v5.51a15.721,15.721,0,0,0-7.452,7.5A8.785,8.785,0,0,0,97.439,62.2a28.909,28.909,0,0,0-3.418-8.092Zm-8.941,19.626a4.471,4.471,0,1,1-4.471-4.471A4.475,4.475,0,0,1,107.292,69.293Zm-38,24.588A24.588,24.588,0,1,1,93.881,69.293,24.617,24.617,0,0,1,69.293,93.881Zm-6.706,24.588a6.5,6.5,0,0,1,1.2-3.746,10.785,10.785,0,0,0,11.011,0,6.5,6.5,0,0,1,1.2,3.746,6.706,6.706,0,0,1-13.412,0ZM76,105.057a6.706,6.706,0,1,1-6.706-6.706A6.714,6.714,0,0,1,76,105.057ZM64.822,35.764a4.471,4.471,0,1,1,4.471,4.471A4.475,4.475,0,0,1,64.822,35.764Zm19.655,8.8a28.908,28.908,0,0,0-8.092-3.418A8.782,8.782,0,0,0,75.909,29.8a15.721,15.721,0,0,0,7.5-7.452h5.51ZM89.41,13.412a4.475,4.475,0,0,1,4.471,4.471h-9.12a15.7,15.7,0,0,0,.179-2.235,15.7,15.7,0,0,0-.179-2.235ZM69.293,4.471A11.176,11.176,0,1,1,58.117,15.647,11.189,11.189,0,0,1,69.293,4.471ZM49.176,13.412h4.649a15.7,15.7,0,0,0-.179,2.235,15.7,15.7,0,0,0,.179,2.235h-9.12A4.475,4.475,0,0,1,49.176,13.412Zm.492,8.941h5.51a15.721,15.721,0,0,0,7.5,7.452A8.785,8.785,0,0,0,62.2,41.147a28.908,28.908,0,0,0-8.092,3.418Zm-5.1,31.756A28.908,28.908,0,0,0,41.147,62.2a8.782,8.782,0,0,0-11.342.476,15.721,15.721,0,0,0-7.452-7.5V49.667Zm-4.33,15.184a4.471,4.471,0,1,1-4.471-4.471A4.475,4.475,0,0,1,40.235,69.293ZM13.412,49.176a4.475,4.475,0,0,1,4.471-4.471v9.12a15.7,15.7,0,0,0-2.235-.179,15.7,15.7,0,0,0-2.235.179ZM4.471,69.293A11.176,11.176,0,1,1,15.647,80.469,11.189,11.189,0,0,1,4.471,69.293ZM13.412,89.41V84.761a15.7,15.7,0,0,0,2.235.179,15.7,15.7,0,0,0,2.235-.179v9.12A4.475,4.475,0,0,1,13.412,89.41Zm8.941-.492v-5.51a15.721,15.721,0,0,0,7.452-7.5,8.785,8.785,0,0,0,11.342.474,28.908,28.908,0,0,0,3.418,8.092Zm31.9,5.192a28.88,28.88,0,0,0,7.086,3.107,11.059,11.059,0,0,0-.939,14.54,10.97,10.97,0,0,0,.007,13.416H49.54Zm39.629,40H44.705v-4.471H93.881Zm-4.839-8.941H78.176a10.973,10.973,0,0,0,.007-13.418,11.053,11.053,0,0,0-.941-14.538,28.928,28.928,0,0,0,7.086-3.107Zm4.976-40.7a28.909,28.909,0,0,0,3.418-8.092,8.782,8.782,0,0,0,11.342-.476,15.721,15.721,0,0,0,7.452,7.5v5.51Zm31.153,4.933a4.475,4.475,0,0,1-4.471,4.471v-9.12a14.059,14.059,0,0,0,4.471,0Zm-2.235-8.941a11.176,11.176,0,1,1,11.176-11.176A11.189,11.189,0,0,1,122.939,80.469Z" transform="translate(0)"/>
        <path id="Trazado_101830" data-name="Trazado 101830" d="M58.706,28a6.706,6.706,0,1,0,6.706,6.706A6.714,6.714,0,0,0,58.706,28Zm0,8.941a2.235,2.235,0,1,1,2.235-2.235A2.236,2.236,0,0,1,58.706,36.941Z" transform="translate(64.233 34.587)"/>
      </g>
    </g>
  </g>
</svg>
