<svg xmlns="http://www.w3.org/2000/svg" width="156.534" height="160.554" viewBox="0 0 156.534 160.554">
  <path id="cubo-3d" d="M159.991,37.332c-.006-.044-.013-.088-.02-.132a4.275,4.275,0,0,0-.1-.479c-.006-.024-.012-.048-.018-.072a4.282,4.282,0,0,0-.2-.527c-.013-.029-.028-.056-.041-.085a4.307,4.307,0,0,0-.232-.427c-.017-.028-.033-.056-.05-.083A4.261,4.261,0,0,0,159,35.09c-.023-.027-.048-.052-.072-.079a4.43,4.43,0,0,0-.328-.33c-.029-.026-.058-.054-.087-.079a4.356,4.356,0,0,0-.441-.332L158,34.226a4.32,4.32,0,0,0-.457-.249c-.016-.007-.03-.018-.047-.025L83.544.386a4.308,4.308,0,0,0-3.565,0l-51.1,23.193a4.313,4.313,0,1,0,3.565,7.854L81.762,9.049l63.38,28.767L81.762,65.669,9.542,33.931l-.016-.006c-.106-.046-.215-.086-.325-.124l-.083-.03c-.09-.029-.183-.051-.276-.074-.049-.012-.1-.027-.147-.037s-.12-.02-.181-.03c-.084-.014-.168-.029-.252-.039-.039,0-.08,0-.12-.007-.105-.008-.21-.015-.315-.016H7.807c-.041,0-.081.005-.121.006-.093,0-.186.005-.278.014-.072.006-.142.018-.213.028s-.131.017-.194.03c-.088.017-.174.039-.26.06-.047.012-.093.022-.139.036-.093.027-.184.059-.274.092-.039.014-.078.027-.117.043-.089.036-.176.075-.262.117-.04.02-.081.037-.12.058-.078.04-.155.085-.23.13-.047.028-.093.055-.138.084-.065.042-.128.087-.19.133s-.1.076-.155.116-.1.087-.155.132-.11.1-.162.147-.089.091-.132.137-.1.11-.153.168-.085.107-.127.161-.085.109-.125.167-.091.141-.135.213c-.028.047-.058.092-.085.14-.052.093-.1.189-.143.286-.013.028-.028.052-.04.081,0,.005,0,.011-.006.016-.046.106-.086.214-.123.324-.01.028-.022.056-.031.084-.028.089-.051.181-.073.273-.013.051-.028.1-.039.152s-.018.114-.028.171c-.015.087-.031.175-.04.263,0,.035,0,.069-.006.1-.009.11-.016.221-.017.332,0,.006,0,.012,0,.019v84.2A4.313,4.313,0,0,0,6,126l73.954,34.157.015.006c.032.014.064.024.1.037a4.306,4.306,0,0,0,.435.16c.051.016.1.029.155.043q.21.056.42.09c.043.007.086.016.13.021a4.306,4.306,0,0,0,.555.04c.018,0,.036,0,.055,0a4.205,4.205,0,0,0,.488-.035c.06-.007.118-.019.177-.029.126-.021.251-.048.376-.081.058-.015.115-.03.172-.048a4.238,4.238,0,0,0,.406-.148c.037-.016.075-.028.112-.045l.026-.01L157.525,126a4.313,4.313,0,0,0,2.5-3.915v-84.2A4.3,4.3,0,0,0,159.991,37.332ZM86.075,149.5V91.585a4.313,4.313,0,1,0-8.626,0V149.5L12.12,119.324V44.486L80.027,74.328a4.313,4.313,0,0,0,3.471,0L151.4,44.486v74.838Z" transform="translate(-3.495 0)" fill="#26ccda"/>
</svg>
