<svg xmlns="http://www.w3.org/2000/svg" width="278" height="105.287" viewBox="0 0 278 105.287">
  <g id="Grupo_56596" data-name="Grupo 56596" transform="translate(-922 -5024.313)">
    <g id="Grupo_39587" data-name="Grupo 39587" transform="translate(922 5024.313)">
      <g id="Grupo_39584" data-name="Grupo 39584" transform="translate(0 17.389)">
        <path id="Trazado_63700" data-name="Trazado 63700" d="M-99.054-153.085c-22.116,0-36.839-14.212-47.975-24.957-4.595-4.435-8.563-8.264-11.9-9.886-1.163-.564-2.455-1.168-3.827-1.809-5.121-2.393-11.493-5.371-16.68-8.881h0a17.881,17.881,0,0,1-7.682-12.139,17.494,17.494,0,0,1,3.787-13.728c6-7.394,17.022-15.318,35.476-11.107a60.927,60.927,0,0,1,22.98,10.144c7.451,5.012,11.946,8.035,32.844,1.569a18.235,18.235,0,0,1,19.022,4.788c9.211,9.225,12.61,27.594,7.9,42.728-3.811,12.257-12.266,20.183-23.808,22.323A55.7,55.7,0,0,1-99.054-153.085ZM-157.6-232.307a27.758,27.758,0,0,0-22.285,10.621,13.1,13.1,0,0,0-2.841,10.279,13.252,13.252,0,0,0,5.775,9.114h0c4.9,3.312,11.094,6.208,16.07,8.534,1.394.653,2.706,1.263,3.887,1.838,3.975,1.929,8.179,5.986,13.049,10.685,12.059,11.64,28.569,27.59,54.221,22.829,9.842-1.825,17.08-8.67,20.376-19.275,4.182-13.451,1.192-30.262-6.808-38.273a13.63,13.63,0,0,0-14.567-3.682c-22.926,7.092-28.675,3.225-36.633-2.129a56.34,56.34,0,0,0-21.49-9.5A39.274,39.274,0,0,0-157.6-232.307Z" transform="translate(187.315 236.765)" fill="#ffa726"/>
      </g>
      <g id="Grupo_39585" data-name="Grupo 39585" transform="translate(126.107 2.015)">
        <path id="Trazado_63701" data-name="Trazado 63701" d="M-95.5-159.591a3.435,3.435,0,0,1-1.962-.777c-5.3-3.86-36.89-38.435-32.648-62.28,1.674-9.409,8.508-15.884,20.314-19.242,17.724-5.038,31.33.6,37.327,15.489,8.193,20.336-.326,55.031-21.95,66.533h0A2.269,2.269,0,0,1-95.5-159.591Zm-2.324-79.666a39.574,39.574,0,0,0-10.758,1.638c-10.623,3.023-16.288,8.517-17.315,16.8-2.57,20.718,24.988,51.708,30.484,56.425,18.585-10.92,26.052-42.41,18.827-60.345C-80.434-234.3-87.81-239.257-97.823-239.257Z" transform="translate(130.5 243.692)" fill="#ffa726"/>
      </g>
      <g id="Grupo_39586" data-name="Grupo 39586" transform="translate(187.454)">
        <path id="Trazado_63702" data-name="Trazado 63702" d="M-81.743-139.313a17.662,17.662,0,0,1-11.768-4.022c-6.652-5.48-10.17-14.942-9.187-24.7.879-8.692,5.221-15.908,11.615-19.3l1.516-.8c12.632-6.677,23.539-12.443,24.771-29.035.863-11.691,10.932-20.931,20.527-24.9,9.433-3.906,18.525-3.254,24.32,1.745a20.943,20.943,0,0,1,7.542,15.375c.342,9.309-4.894,17.968-9.482,22.556-1.116,1.116-2.157,2.1-3.11,3-5.416,5.125-6.7,6.341-3.341,13.027,1.547,3.074,3.891,4.805,6.373,6.637,4.524,3.341,9.651,7.127,9.651,19.022l-.033.382c-.062.36-1.62,8.83-9.054,13.886-5.167,3.514-11.786,4.475-19.664,2.852-10.1-2.08-19.053.093-26.957,2.009C-72.767-140.432-77.377-139.315-81.743-139.313Zm49.3-100.855a26.759,26.759,0,0,0-10.124,2.2c-8.337,3.454-17.073,11.324-17.8,21.128-1.412,19.042-14.481,25.95-27.121,32.633l-1.509.8c-5.083,2.7-8.552,8.614-9.28,15.828-.837,8.3,2.071,16.274,7.591,20.824,5.727,4.721,12.743,3.019,21.621.863,8.352-2.024,17.821-4.319,28.9-2.042,6.654,1.37,12.132.637,16.274-2.175a18.473,18.473,0,0,0,7.143-10.812c-.053-9.48-3.669-12.148-7.849-15.235-2.661-1.964-5.678-4.191-7.7-8.215-4.848-9.633-1.225-13.06,4.257-18.245.923-.872,1.938-1.829,3.021-2.914,4.268-4.271,8.457-11.879,8.184-19.255a16.383,16.383,0,0,0-6.006-12.175A14.41,14.41,0,0,0-32.448-240.168Z" transform="translate(102.861 244.6)" fill="#ffa726"/>
      </g>
    </g>
  </g>
</svg>
