<svg xmlns="http://www.w3.org/2000/svg" width="278" height="96.84" viewBox="0 0 278 96.84">
  <g id="Grupo_39596" data-name="Grupo 39596" transform="translate(0)">
    <g id="Grupo_39594" data-name="Grupo 39594">
      <path id="Trazado_63706" data-name="Trazado 63706" d="M-25.682-371.8h-40.04l-55.807-33.243L-37-468.635l56.153,8.693-25.837,80.82-2.334-5.487c-.062-.148-6.47-14.9-15.818-11.031a5.5,5.5,0,0,0-3.368,3.481c-1.7,5.2,2.608,14.033,4.411,17l2.046,3.365Zm-38.82-4.428h35.132c-2.05-4.249-4.882-11.666-3.042-17.3a9.825,9.825,0,0,1,5.883-6.2c8.372-3.47,15.145,2.641,19.033,8.617l20.857-65.244-49.187-7.614-77.767,58.506Z" transform="translate(121.53 468.635)" fill="#ffa726"/>
    </g>
    <g id="Grupo_39595" data-name="Grupo 39595" transform="translate(156.468 4.506)">
      <path id="Trazado_63707" data-name="Trazado 63707" d="M-50.862-374.266-9.146-444.89l.773-.266c.793-.272,19.52-6.6,29.08.3,2.839,2.05,7.453,2.181,12.669.359,7.271-2.544,13.4-8.09,14.914-13.491L50.7-466.6,70.67-374.266ZM-6.17-441.219-43.1-378.694H65.183L49.576-450.84a32.057,32.057,0,0,1-14.737,10.521c-6.6,2.307-12.694,1.962-16.723-.95C12.039-445.656-.8-442.915-6.17-441.219Z" transform="translate(50.862 466.6)" fill="#ffa726"/>
    </g>
  </g>
</svg>
