<svg xmlns="http://www.w3.org/2000/svg" width="604" height="193.345" viewBox="0 0 604 193.345">
  <g id="Grupo_56595" data-name="Grupo 56595" transform="translate(-492 -1565.001)">
    <g id="Grupo_39563" data-name="Grupo 39563" transform="translate(464.719 1619.977)">
      <g id="Grupo_39555" data-name="Grupo 39555" transform="translate(27.281 4.273)">
        <path id="Trazado_63689" data-name="Trazado 63689" d="M102.128,32.972H27.281V-41.875h74.847Zm-65.8-9.045H93.083V-32.83H36.326Z" transform="translate(-27.281 41.875)" fill="#26ccda"/>
      </g>
      <g id="Grupo_39556" data-name="Grupo 39556" transform="translate(37.84 14.833)">
        <circle id="Elipse_797" data-name="Elipse 797" cx="26.864" cy="26.864" r="26.864" fill="#26ccda"/>
      </g>
      <g id="Grupo_39557" data-name="Grupo 39557" transform="translate(120.421 -16.11)">
        <path id="Trazado_63690" data-name="Trazado 63690" d="M163.493,69.235H47.876V-46.382H163.493ZM56.921,60.19h97.527V-37.337H56.921Z" transform="translate(-47.876 46.382)" fill="#26ccda"/>
      </g>
      <g id="Grupo_39558" data-name="Grupo 39558" transform="translate(151.671 14.833)">
        <circle id="Elipse_798" data-name="Elipse 798" cx="26.864" cy="26.864" r="26.864" fill="#26ccda"/>
      </g>
      <g id="Grupo_39559" data-name="Grupo 39559" transform="translate(260.37 -34.923)">
        <path id="Trazado_63691" data-name="Trazado 63691" d="M232.056,102.7H78.821V-50.542H232.056ZM87.866,93.653H223.011V-41.5H87.866Z" transform="translate(-78.821 50.542)" fill="#26ccda"/>
      </g>
      <g id="Grupo_39560" data-name="Grupo 39560" transform="translate(310.124 14.833)">
        <circle id="Elipse_799" data-name="Elipse 799" cx="26.864" cy="26.864" r="26.864" fill="#26ccda"/>
      </g>
      <g id="Grupo_39561" data-name="Grupo 39561" transform="translate(437.936 -54.976)">
        <path id="Trazado_63692" data-name="Trazado 63692" d="M311.429,138.369H118.084V-54.976H311.429Zm-184.3-9.045H302.384V-45.931H127.129Z" transform="translate(-118.084 54.976)" fill="#26ccda"/>
      </g>
      <g id="Grupo_39562" data-name="Grupo 39562" transform="translate(507.745 14.833)">
        <circle id="Elipse_800" data-name="Elipse 800" cx="26.864" cy="26.864" r="26.864" fill="#26ccda"/>
      </g>
    </g>
  </g>
</svg>
