<svg xmlns="http://www.w3.org/2000/svg" width="84" height="84" viewBox="0 0 84 84">
  <g id="Filled_outline" data-name="Filled outline" transform="translate(-16 -16)">
    <path id="Trazado_100504" data-name="Trazado 100504" d="M72,56h47.6v54.6H72Z" transform="translate(-46.2 -33)" fill="#ffa726"/>
    <path id="Trazado_100505" data-name="Trazado 100505" d="M96,432h30.8v5.6H96Z" transform="translate(-66 -343.2)" fill="#633a2c"/>
    <path id="Trazado_100506" data-name="Trazado 100506" d="M40,56H87.6v54.6H40Z" transform="translate(-19.8 -33)" fill="#fdd835"/>
    <g id="Grupo_53565" data-name="Grupo 53565" transform="translate(16 17.4)">
      <path id="Trazado_100507" data-name="Trazado 100507" d="M176,24h5.6v5.6H176Z" transform="translate(-148 -24)" fill="#844e3a"/>
      <path id="Trazado_100508" data-name="Trazado 100508" d="M16,368H74.8v5.6H16Z" transform="translate(-16 -307.8)" fill="#844e3a"/>
      <path id="Trazado_100509" data-name="Trazado 100509" d="M76.6,400l-1.528,4.2L71,415.4H64l4.072-11.2L69.6,400Z" transform="translate(-55.6 -334.2)" fill="#844e3a"/>
      <path id="Trazado_100510" data-name="Trazado 100510" d="M244.6,415.4h-7l-4.072-11.2L232,400h7l1.528,4.2Z" transform="translate(-194.2 -334.2)" fill="#844e3a"/>
    </g>
    <path id="Trazado_100511" data-name="Trazado 100511" d="M88.8,400h7l-1.528,4.2h-7Z" transform="translate(-58.798 -316.8)" fill="#784533"/>
    <path id="Trazado_100512" data-name="Trazado 100512" d="M240.528,404.2h-7L232,400h7Z" transform="translate(-178.2 -316.8)" fill="#784533"/>
    <path id="Trazado_100513" data-name="Trazado 100513" d="M133,98.5v28.7H112V98.5a10.5,10.5,0,0,1,21,0Z" transform="translate(-79.2 -59.4)" fill="#7d4935"/>
    <path id="Trazado_100514" data-name="Trazado 100514" d="M110.8,231.572V242.6H80V231.572a5.6,5.6,0,0,1,4.242-5.432l4.837-1.209a2.8,2.8,0,0,0,2.121-2.716V216h8.4v1.4a8.963,8.963,0,0,0,6.794,8.7l.164.042a5.6,5.6,0,0,1,4.242,5.432Z" transform="translate(-52.8 -165)" fill="#fdc8a2"/>
    <path id="Trazado_100515" data-name="Trazado 100515" d="M152.848,220.2H146.8a8.378,8.378,0,0,1-2.8-.478V216h8.4v1.4A8.927,8.927,0,0,0,152.848,220.2Z" transform="translate(-105.6 -165)" fill="#fdb683"/>
    <path id="Trazado_100516" data-name="Trazado 100516" d="M110.8,277.771V288.8H80V277.771a5.6,5.6,0,0,1,4.242-5.432L85.6,272v2.8a4.2,4.2,0,0,0,4.2,4.2h12.6a4.2,4.2,0,0,0,4.2-4.2v-2.448a5.6,5.6,0,0,1,4.2,5.42Z" transform="translate(-52.8 -211.2)" fill="#26ccda"/>
    <path id="Trazado_100517" data-name="Trazado 100517" d="M126,120v18.2h-5.6a8.4,8.4,0,0,1-8.4-8.4v-4.9a10.434,10.434,0,0,1,1.213-4.9Z" transform="translate(-79.2 -85.8)" fill="#fdc8a2"/>
    <path id="Trazado_100518" data-name="Trazado 100518" d="M138.717,98.489v22.05a9.241,9.241,0,0,1-7-8.965V93.589H118.93a10.5,10.5,0,0,1,19.787,4.9Z" transform="translate(-84.917 -59.389)" fill="#844e3a"/>
    <path id="Trazado_100519" data-name="Trazado 100519" d="M259.875,272C247.794,272,238,279.835,238,289.5s9.794,17.5,21.875,17.5a26.835,26.835,0,0,0,7.061-.933,4.483,4.483,0,0,0,2.008-7.5l-1.048-1.048a3.094,3.094,0,0,1-.041-4.333,3.16,3.16,0,0,1,4.474.015l.16.16a5.31,5.31,0,0,0,7.154.324l.237-.2a5.2,5.2,0,0,0,1.871-3.99C281.75,279.835,271.956,272,259.875,272Zm2.275,30.8a2.8,2.8,0,1,1,2.8-2.8A2.8,2.8,0,0,1,262.15,302.8Z" transform="translate(-183.15 -211.2)" fill="#f1ddc1"/>
    <circle id="Elipse_4021" data-name="Elipse 4021" cx="4" cy="4" r="4" transform="translate(82 68)" fill="#96b268"/>
    <ellipse id="Elipse_4022" data-name="Elipse 4022" cx="4.5" cy="5" rx="4.5" ry="5" transform="translate(69 65)" fill="#de5540"/>
    <ellipse id="Elipse_4023" data-name="Elipse 4023" cx="4.5" cy="5" rx="4.5" ry="5" transform="translate(59 70)" fill="#4db6e4"/>
    <ellipse id="Elipse_4024" data-name="Elipse 4024" cx="4.5" cy="4" rx="4.5" ry="4" transform="translate(65 81)" fill="#348ed8"/>
    <path id="Trazado_100520" data-name="Trazado 100520" d="M356,26.9v.28A2.9,2.9,0,0,1,355.364,29l-14.3,17.872L333.6,56.2,328,50.6l7.933-8.867,15-16.765A2.9,2.9,0,0,1,356,26.9Z" transform="translate(-257.4 -6.6)" fill="#844e3a"/>
    <path id="Trazado_100521" data-name="Trazado 100521" d="M287.4,175l-2.117,3.528a7.136,7.136,0,0,1-2.608,2.544,7.036,7.036,0,0,1-.875.418,7.15,7.15,0,0,1-9.8-6.641V168l2.52,3.36a2.8,2.8,0,0,0,3.92.56l.182-.136L281.8,169.4Z" transform="translate(-211.2 -125.4)" fill="#f1ddc1"/>
    <path id="Trazado_100522" data-name="Trazado 100522" d="M281.8,181.179v.312a7.15,7.15,0,0,1-9.8-6.641V168l2.52,3.36a2.8,2.8,0,0,0,3.92.56l.182-.136a4.788,4.788,0,0,1,.378,1.864v.774a4.78,4.78,0,0,0,1.4,3.379A4.781,4.781,0,0,1,281.8,181.179Z" transform="translate(-211.2 -125.4)" fill="#844e3a"/>
    <path id="Trazado_100523" data-name="Trazado 100523" d="M341.067,130.464,333.6,139.8l-5.6-5.6,7.933-8.867Z" transform="translate(-257.4 -90.197)" fill="#ffb431"/>
    <path id="Trazado_100524" data-name="Trazado 100524" d="M95.7,16a4.307,4.307,0,0,0-3.206,1.433L69.649,42.963,66.4,45.4a1.4,1.4,0,0,1-1.96-.28l-2.52-3.36a1.4,1.4,0,0,0-2.52.84v6.849a8.55,8.55,0,0,0,15.883,4.4L77.352,50.4,99.057,23.269A4.319,4.319,0,0,0,100,20.582V20.3A4.307,4.307,0,0,0,95.7,16ZM67.95,55.2a5.758,5.758,0,0,1-5.75-5.751V46.8a4.211,4.211,0,0,0,4.2,1.6v.624a6.18,6.18,0,0,0,1.809,4.369,3.4,3.4,0,0,1,.914,1.689,5.746,5.746,0,0,1-1.173.121Zm4.931-2.791a5.753,5.753,0,0,1-1.2,1.42A6.207,6.207,0,0,0,70.19,51.41a3.38,3.38,0,0,1-.99-2.389v-.773a6.161,6.161,0,0,0-.148-1.337l1.416-1.062,3.968,3.968Zm3.2-4.9-3.558-3.558.505-.565,5.558-6.213,3.2,3.2ZM97.2,20.582a1.507,1.507,0,0,1-.329.938L83.55,38.171,80.459,35.08,94.578,19.3a1.5,1.5,0,0,1,2.622,1ZM21.6,24.4H66.4V39.8h2.8V24.4H72V34.571h2.8V23a1.4,1.4,0,0,0-1.4-1.4H51V17.4A1.4,1.4,0,0,0,49.6,16H44a1.4,1.4,0,0,0-1.4,1.4v4.2H20.2A1.4,1.4,0,0,0,18.8,23v7h2.8Zm23.8-5.6h2.8v2.8H45.4Zm-28,65.8h12L24.484,98.122A1.4,1.4,0,0,0,25.8,100h7a1.4,1.4,0,0,0,1.316-.922L35.308,95.8H58.292l1.193,3.279A1.4,1.4,0,0,0,60.8,100h7V97.2H61.78l-1.193-3.279A1.4,1.4,0,0,0,59.272,93H36.326l1.018-2.8H53.8V87.4H38.362l1.018-2.8H51V81.8H18.8V79H51V76.2H35.6V72H32.8v4.2H30V66.571a4.191,4.191,0,0,1,2.8-3.958V63.6a5.606,5.606,0,0,0,5.6,5.6H51a5.606,5.606,0,0,0,5.6-5.6v-.158a4.214,4.214,0,0,1,.76.9l2.372-1.488a6.965,6.965,0,0,0-3.132-2.7V39.1a11.9,11.9,0,1,0-23.8,0V59.707l-.3.074a6.988,6.988,0,0,0-5.3,6.79V76.2H21.6V32.8H18.8V76.2H17.4A1.4,1.4,0,0,0,16,77.6v5.6a1.4,1.4,0,0,0,1.4,1.4Zm19,0L31.82,97.2H27.8L32.38,84.6ZM44.7,30a9.1,9.1,0,0,1,9.1,9.1V59.176A7.553,7.553,0,0,1,49.6,52.4V34.2a1.4,1.4,0,0,0-1.4-1.4H38.131A9.078,9.078,0,0,1,44.7,30Zm-9.1,9.1a9.116,9.116,0,0,1,.7-3.5H46.8v2.923a2.1,2.1,0,1,0,0,3.955V51H42.6a7.008,7.008,0,0,1-7-7Zm0,11.749a9.844,9.844,0,0,0,2.8,2v4.362a1.4,1.4,0,0,1-1.061,1.358l-1.739.435Zm0,11.044,2.418-.6A4.194,4.194,0,0,0,41.2,57.214V53.7a9.825,9.825,0,0,0,1.4.1h4.3a10.346,10.346,0,0,0,6.9,8.4v1.4A2.8,2.8,0,0,1,51,66.4H38.4a2.8,2.8,0,0,1-2.8-2.8ZM27.2,30H24.4V27.2h2.8Zm-2.8,2.8h2.8V44H24.4Zm14.7,9.8a2.1,2.1,0,1,1,2.1-2.1A2.1,2.1,0,0,1,39.1,42.6ZM99.519,74.456A15.647,15.647,0,0,1,100,78.3a6.584,6.584,0,0,1-2.375,5.065l-.237.2a6.677,6.677,0,0,1-9.04-.41l-.159-.159a1.855,1.855,0,0,0-1.3-.525,1.636,1.636,0,0,0-1.177.492,1.7,1.7,0,0,0,.023,2.372l1.048,1.048a5.883,5.883,0,0,1-2.629,9.839,28.235,28.235,0,0,1-7.43.981,26.153,26.153,0,0,1-16.343-5.432C55.912,88.191,53.45,83.408,53.45,78.3s2.462-9.891,6.932-13.468A26.153,26.153,0,0,1,76.725,59.4a27.051,27.051,0,0,1,13.267,3.361,20.022,20.022,0,0,1,8.475,8.768l-2.533,1.194C92.967,66.429,85.248,62.2,76.725,62.2c-11.29,0-20.475,7.222-20.475,16.1s9.185,16.1,20.475,16.1a25.427,25.427,0,0,0,6.693-.884A3.083,3.083,0,0,0,84.8,88.359l-1.048-1.048a4.516,4.516,0,0,1-.06-6.294,4.416,4.416,0,0,1,3.167-1.349,4.637,4.637,0,0,1,3.305,1.346l.159.16a3.891,3.891,0,0,0,5.268.239l.237-.2A3.79,3.79,0,0,0,97.2,78.3a12.839,12.839,0,0,0-.395-3.154ZM76.2,88.8A2.8,2.8,0,1,1,79,91.6a2.8,2.8,0,0,1-2.8-2.8ZM81.8,72A4.2,4.2,0,1,0,86,67.8,4.2,4.2,0,0,0,81.8,72Zm5.6,0A1.4,1.4,0,1,1,86,70.6,1.4,1.4,0,0,1,87.4,72ZM79,69.9a4.9,4.9,0,1,0-4.9,4.9A4.9,4.9,0,0,0,79,69.9Zm-7,0A2.1,2.1,0,1,1,74.1,72,2.1,2.1,0,0,1,72,69.9Zm-4.2,4.9A4.2,4.2,0,1,0,63.6,79,4.2,4.2,0,0,0,67.8,74.8Zm-4.2,1.4A1.4,1.4,0,1,1,65,74.8a1.4,1.4,0,0,1-1.4,1.4Zm5.6,12.6A4.2,4.2,0,1,0,65,84.6a4.2,4.2,0,0,0,4.2,4.2Zm0-5.6a1.4,1.4,0,1,1-1.4,1.4A1.4,1.4,0,0,1,69.2,83.2ZM41.2,44h.82a3.358,3.358,0,0,0,2.39-.99l1.98,1.98a6.139,6.139,0,0,1-4.37,1.81H41.2Z" transform="translate(0)"/>
  </g>
</svg>
