<svg xmlns="http://www.w3.org/2000/svg" width="97.926" height="100.274" viewBox="0 0 97.926 100.274">
  <g id="desplazarse" transform="translate(-5.996)">
    <path id="Trazado_101744" data-name="Trazado 101744" d="M31.746,34.46H14.862a1.37,1.37,0,0,1-1.37-1.37V16.629A9.127,9.127,0,0,1,22.619,7.5h0a9.127,9.127,0,0,1,9.127,9.127V34.46Z" transform="translate(-6.028 -6.033)" fill="#dda33c"/>
    <path id="Trazado_101745" data-name="Trazado 101745" d="M57.945,16.631V34.463H52.453V16.631a9.13,9.13,0,0,0-6.381-8.7,9.128,9.128,0,0,1,11.873,8.7Z" transform="translate(-32.227 -6.036)" fill="#bc802a"/>
    <path id="Trazado_101746" data-name="Trazado 101746" d="M80.126,7.5H60.091a8.916,8.916,0,0,1,6.455,2.792,9.726,9.726,0,0,1,2.673,6.741V42.719l3.131,5.71a.782.782,0,0,1-.115.912l-2.8,2.991a.783.783,0,0,0-.212.536l.015,41.022a10.723,10.723,0,0,0,10.483,10.944h49.517V33.73a.783.783,0,0,0-.27-.591l-2.9-2.517a.783.783,0,0,1,.09-1.25l2.72-1.749a.783.783,0,0,0,.36-.659V16.007A8.336,8.336,0,0,0,121.085,7.5H80.126Z" transform="translate(-43.501 -6.028)" fill="#fdd835"/>
    <path id="Trazado_101747" data-name="Trazado 101747" d="M346.575,30.622l2.9,2.517a.78.78,0,0,1,.27.591v71.1h-7.289V33.73a.78.78,0,0,0-.27-.591l-2.9-2.517a.783.783,0,0,1,.09-1.251l2.719-1.748a.781.781,0,0,0,.36-.658V16.007A8.336,8.336,0,0,0,334.306,7.5H341.6a8.336,8.336,0,0,1,8.148,8.511V26.966a.784.784,0,0,1-.358.658l-2.721,1.748A.785.785,0,0,0,346.575,30.622Z" transform="translate(-264.011 -6.028)" fill="#e6c532"/>
    <path id="Trazado_101748" data-name="Trazado 101748" d="M224.333,407.164a1.37,1.37,0,0,1,1.37,1.37v8.322a9.179,9.179,0,0,1-8.973,9.371H159.262a9.338,9.338,0,0,0,9.128-9.533v-8.161a1.37,1.37,0,0,1,1.37-1.37h54.573Z" transform="translate(-123.249 -327.421)" fill="#dda33c"/>
    <path id="Trazado_101749" data-name="Trazado 101749" d="M434.983,407.165a1.37,1.37,0,0,1,1.37,1.37v8.323a9.18,9.18,0,0,1-8.974,9.372h-6.164a9.18,9.18,0,0,0,8.973-9.372v-9.693Z" transform="translate(-333.899 -327.422)" fill="#bc802a"/>
    <path id="Trazado_101750" data-name="Trazado 101750" d="M101.084,78.275H87.2V27.7a2.25,2.25,0,0,0-.775-1.7l-2.209-1.918,1.951-1.254A2.243,2.243,0,0,0,87.2,20.937V9.979A9.814,9.814,0,0,0,77.584,0H45.858a1.468,1.468,0,0,0,0,2.936H77.584a6.8,6.8,0,0,1,6.575,5.8H76.48a1.468,1.468,0,1,0,0,2.936h7.785v1.8H79.24a1.468,1.468,0,0,0,0,2.936h5.025v4.147L81.86,22.11A2.251,2.251,0,0,0,81.6,25.7l2.664,2.312v50.26H46.511a2.842,2.842,0,0,0-2.838,2.838v8.161a7.884,7.884,0,0,1-7.559,8.062A9.273,9.273,0,0,1,27.2,87.862l0-7.874h8.815a1.468,1.468,0,0,0,0-2.936H27.2V74.7h3.873a1.468,1.468,0,0,0,0-2.936H27.194l-.009-24.656L29.8,44.317a2.246,2.246,0,0,0,.331-2.621l-2.95-5.381V11c0-.011,0-.022,0-.033V10.6A10.563,10.563,0,0,0,23.9,2.937H36.625a1.468,1.468,0,0,0,0-2.936H16.582A10.607,10.607,0,0,0,6,10.6v2.026a1.468,1.468,0,1,0,2.936,0V10.6a7.667,7.667,0,0,1,7.659-7.659c.128,0,.255,0,.381.01a7.443,7.443,0,0,1,5.012,2.328,8.233,8.233,0,0,1,2.265,5.694v15.99H8.932V21.626a1.468,1.468,0,1,0-2.936,0v5.431A2.842,2.842,0,0,0,8.834,29.9H24.25v6.8a1.468,1.468,0,0,0,.181.706l2.892,5.275L24.859,45.3a2.243,2.243,0,0,0-.609,1.54l.015,41.023a12.22,12.22,0,0,0,11.584,12.4,1.462,1.462,0,0,0,.164.01H93.481a10.658,10.658,0,0,0,10.441-10.839V81.113A2.841,2.841,0,0,0,101.084,78.275Zm-.1,11.161a7.721,7.721,0,0,1-7.505,7.9H43.212a11.169,11.169,0,0,0,3.4-8.065V81.211h54.377v8.224Z"/>
    <path id="Trazado_101751" data-name="Trazado 101751" d="M190.184,126.693h26.55a1.468,1.468,0,0,0,0-2.936h-26.55a1.468,1.468,0,0,0,0,2.936Z" transform="translate(-146.935 -99.519)"/>
    <path id="Trazado_101752" data-name="Trazado 101752" d="M162.937,170.02a1.468,1.468,0,0,0,1.468,1.468H181.86a1.468,1.468,0,1,0,0-2.936H164.405A1.468,1.468,0,0,0,162.937,170.02Z" transform="translate(-126.204 -135.541)"/>
    <path id="Trazado_101753" data-name="Trazado 101753" d="M297.824,168.553h-13.08a1.468,1.468,0,1,0,0,2.936h13.08a1.468,1.468,0,0,0,0-2.936Z" transform="translate(-222.975 -135.542)"/>
    <path id="Trazado_101754" data-name="Trazado 101754" d="M164.4,200.471h7.2a1.468,1.468,0,0,0,0-2.936h-7.2a1.468,1.468,0,0,0,0,2.936Z" transform="translate(-126.204 -158.848)"/>
    <path id="Trazado_101755" data-name="Trazado 101755" d="M315.672,197.536h-8.733a1.468,1.468,0,1,0,0,2.936h8.733a1.468,1.468,0,0,0,0-2.936Z" transform="translate(-240.823 -158.849)"/>
    <path id="Trazado_101756" data-name="Trazado 101756" d="M164.4,229.454H174.9a1.468,1.468,0,1,0,0-2.936H164.4a1.468,1.468,0,1,0,0,2.936Z" transform="translate(-126.204 -182.155)"/>
    <path id="Trazado_101757" data-name="Trazado 101757" d="M269.863,226.519h-19.89a1.468,1.468,0,0,0,0,2.936h19.89a1.468,1.468,0,1,0,0-2.936Z" transform="translate(-195.014 -182.156)"/>
    <path id="Trazado_101758" data-name="Trazado 101758" d="M164.4,258.438h3.6a1.468,1.468,0,1,0,0-2.936h-3.6a1.468,1.468,0,1,0,0,2.936Z" transform="translate(-126.204 -205.462)"/>
    <path id="Trazado_101759" data-name="Trazado 101759" d="M315.672,255.5h-8.733a1.468,1.468,0,1,0,0,2.936h8.733a1.468,1.468,0,0,0,0-2.936Z" transform="translate(-240.823 -205.462)"/>
    <path id="Trazado_101760" data-name="Trazado 101760" d="M183.328,285.953a1.468,1.468,0,0,0-1.468-1.468H164.405a1.468,1.468,0,0,0,0,2.936H181.86A1.468,1.468,0,0,0,183.328,285.953Z" transform="translate(-126.204 -228.769)"/>
    <path id="Trazado_101761" data-name="Trazado 101761" d="M297.824,284.486h-13.08a1.468,1.468,0,1,0,0,2.936h13.08a1.468,1.468,0,0,0,0-2.936Z" transform="translate(-222.975 -228.77)"/>
    <path id="Trazado_101762" data-name="Trazado 101762" d="M164.4,313.469a1.468,1.468,0,1,0,0,2.936h7.2a1.468,1.468,0,1,0,0-2.936Z" transform="translate(-126.204 -252.077)"/>
    <path id="Trazado_101763" data-name="Trazado 101763" d="M239.36,316.4h21.968a1.468,1.468,0,1,0,0-2.936H239.36a1.468,1.468,0,0,0,0,2.936Z" transform="translate(-186.479 -252.076)"/>
    <path id="Trazado_101764" data-name="Trazado 101764" d="M230.584,200.471h9.735a1.468,1.468,0,1,0,0-2.936h-9.735a1.468,1.468,0,0,0,0,2.936Z" transform="translate(-179.422 -158.848)"/>
    <path id="Trazado_101765" data-name="Trazado 101765" d="M207.5,256.97a1.468,1.468,0,0,0,1.468,1.468h11.9a1.468,1.468,0,1,0,0-2.936h-11.9A1.468,1.468,0,0,0,207.5,256.97Z" transform="translate(-162.04 -205.462)"/>
  </g>
</svg>
