<svg xmlns="http://www.w3.org/2000/svg" width="51.516" height="62.5" viewBox="0 0 51.516 62.5">
  <g id="cavernicola" transform="translate(-7.734 -0.75)">
    <circle id="Elipse_4062" data-name="Elipse 4062" cx="1" cy="1" r="1" transform="translate(27 16)" fill="#26ccda" stroke="#36c6d5" stroke-width="0.5"/>
    <circle id="Elipse_4063" data-name="Elipse 4063" cx="1" cy="1" r="1" transform="translate(35 16)" fill="#26ccda" stroke="#36c6d5" stroke-width="0.5"/>
    <path id="Trazado_100659" data-name="Trazado 100659" d="M57.877,33.77l-.93-1.627a8.221,8.221,0,0,0-12.694-1.982l-.506.464c-.285-.083-.568-.172-.857-.242l-4.049-.97a3.575,3.575,0,0,0,.106-.474A3.647,3.647,0,0,0,41.07,27.75l3.837-.48a3.532,3.532,0,0,0,2.5-5.463l-.318-.477a1,1,0,0,1,.385-1.45l2.536-1.268A3.6,3.6,0,0,0,50.4,12.4L47.7,10.6a1.582,1.582,0,0,1-.438-2.191l.2-.307a3.171,3.171,0,0,0-1.22-4.6A23.855,23.855,0,0,0,35.634,1H28.365A23.848,23.848,0,0,0,17.753,3.505a3.172,3.172,0,0,0-1.22,4.6l.2.306A1.582,1.582,0,0,1,16.3,10.6L13.6,12.4a3.6,3.6,0,0,0,.387,6.219l2.536,1.268a1,1,0,0,1,.386,1.449l-.319.478a3.528,3.528,0,0,0,2.5,5.46l3.837.48a3.642,3.642,0,0,0,2.123,1.189,3.554,3.554,0,0,0,.106.475l-4.048.97a18.824,18.824,0,0,0-10.644,6.993l-.188.251a11.29,11.29,0,0,0-2.3,6.875v.156a11.859,11.859,0,0,0,6.263,10.427l-.645.387A3.32,3.32,0,0,0,12,58.3a3.283,3.283,0,0,0,.555,1.831l.882,1.324A3.456,3.456,0,0,0,16.318,63H49.21l-.227-1.188c-.216-1.13-.728-4.016-.865-5.592A8.4,8.4,0,0,0,53,48.605V46.181l.773-.324a8.521,8.521,0,0,0,4.1-12.087ZM35.806,37.9c-5.857-1.881-8.706-4.839-9.947-6.6l.481-.115A3.555,3.555,0,0,0,28.586,32a4.382,4.382,0,0,0,3.121-1.293A4.5,4.5,0,0,0,32,30.351a4.5,4.5,0,0,0,.293.356A4.382,4.382,0,0,0,35.414,32a3.546,3.546,0,0,0,2.246-.814L42,32.227ZM25.265,21.294l-.289-.579A9.275,9.275,0,0,1,24,16.582v-.339a9.179,9.179,0,0,1,1.59-5.182,3.946,3.946,0,0,0,5.476,1.347A11.151,11.151,0,0,0,38.243,15H39a4.985,4.985,0,0,0,.892-.087A9.258,9.258,0,0,1,40,16.243v.339a9.283,9.283,0,0,1-.976,4.134l-.289.578A12.071,12.071,0,0,0,33.333,20H30.666a12.07,12.07,0,0,0-5.4,1.294Zm-5.924,3.991a1.532,1.532,0,0,1-1.085-2.368l.319-.478a3,3,0,0,0-1.154-4.348l-2.536-1.268a1.6,1.6,0,0,1-.172-2.764l2.695-1.8A3.583,3.583,0,0,0,18.4,7.3l-.2-.306a1.172,1.172,0,0,1,.451-1.7A21.839,21.839,0,0,1,28.366,3h7.269a21.842,21.842,0,0,1,9.718,2.294,1.172,1.172,0,0,1,.45,1.7l-.2.306a3.583,3.583,0,0,0,.993,4.964l2.695,1.8a1.6,1.6,0,0,1-.172,2.767l-2.536,1.268a3,3,0,0,0-1.154,4.349l.317.476a1.514,1.514,0,0,1,.258.848,1.533,1.533,0,0,1-1.341,1.519l-2.688.336c.008-.1.029-.189.029-.288A3.681,3.681,0,0,0,40.533,22.4c-.028-.021-.058-.038-.086-.059l.366-.732A11.3,11.3,0,0,0,42,16.582v-.339a11.273,11.273,0,0,0-.212-2.1,4.988,4.988,0,0,0,2.08-5.311,4.951,4.951,0,0,0-3.7-3.7,5.033,5.033,0,0,0-4.281.957A4.979,4.979,0,0,0,34,10h2a3,3,0,1,1,3,3h-.757a9.167,9.167,0,0,1-5.78-2.034,3.945,3.945,0,0,0-.482-4.633l-1.49,1.334a2,2,0,1,1-2.824-.158l-1.334-1.49a3.991,3.991,0,0,0-1.287,2.546A11.156,11.156,0,0,0,22,16.243v.339a11.3,11.3,0,0,0,1.187,5.027l.366.732c-.028.021-.058.038-.085.059A3.679,3.679,0,0,0,22,25.333c0,.1.021.191.029.287ZM24,25.333A1.671,1.671,0,0,1,24.667,24a10.058,10.058,0,0,1,6-2h2.667a10.063,10.063,0,0,1,6,2,1.662,1.662,0,0,1-.6,2.945,4.373,4.373,0,0,0-1.026-1.653l-1-1-1.414,1.414,1,1A2.44,2.44,0,0,1,37,28.414,1.587,1.587,0,0,1,35.414,30,2.414,2.414,0,0,1,33,27.586V26H31v1.586A2.414,2.414,0,0,1,28.586,30,1.587,1.587,0,0,1,27,28.414a2.432,2.432,0,0,1,.707-1.707l1-1-1.414-1.414-1,1a4.373,4.373,0,0,0-1.026,1.653A1.665,1.665,0,0,1,24,25.333Zm-2.422,7,2.212-.53c1.185,1.951,4.05,5.378,10.332,7.651L23.964,48.76A21,21,0,0,1,21,48.112V43.831a22.051,22.051,0,0,0-2.6-10.375,16.768,16.768,0,0,1,3.183-1.128ZM19,43.831v3.487a2.47,2.47,0,0,1-.545-3.435l.522-.731C18.985,43.379,19,43.6,19,43.831Zm-9.015.819v-.156a9.3,9.3,0,0,1,1.895-5.666l.188-.251a16.776,16.776,0,0,1,4.571-4.168,20.066,20.066,0,0,1,2.015,5.757l-1.826,2.556A4.488,4.488,0,0,0,18.9,49.533,23.055,23.055,0,0,0,27.02,51h.1A2.885,2.885,0,0,1,30,53.882v.24A2.9,2.9,0,0,1,27.09,57H26.9A14,14,0,0,1,21.677,56l-5.456-2.183A9.879,9.879,0,0,1,9.985,44.65Zm5.116,15.7-.883-1.325a1.3,1.3,0,0,1,.414-1.837l1.857-1.114,4.445,1.778c.217.087.439.151.658.228l-4.521,2.713a1.5,1.5,0,0,1-1.97-.443ZM46.8,61H34V57H32v4H20.61l3.7-2.223A16.086,16.086,0,0,0,26.9,59h.193a4.907,4.907,0,0,0,4.821-3.974l4.8-2.013a8.848,8.848,0,0,0,2.239,2.154l.329.219A9.561,9.561,0,0,0,42,56.628V59h2V56.956c.2.012.4.044.6.044a8.416,8.416,0,0,0,1.566-.152c.144,1.312.429,3.021.629,4.152Zm4.2-12.4A6.4,6.4,0,0,1,44.6,55a7.584,7.584,0,0,1-4.218-1.277l-.329-.219A6.854,6.854,0,0,1,37,47.79a2.791,2.791,0,0,1,5.536-.5l.472,3.833,1.985-.244-.157-1.271L51,47.02Zm2-4.593-8.419,3.532L44.514,47A4.79,4.79,0,0,0,35,47.79a8.843,8.843,0,0,0,.719,3.47l-3.827,1.6A4.888,4.888,0,0,0,27.12,49h-.1c-.114,0-.227-.013-.341-.015l18.926-17.35a6.222,6.222,0,0,1,9.606,1.5l.93,1.627A6.522,6.522,0,0,1,53,44.012Z" fill="#26ccda" stroke="#36c6d5" stroke-width="0.5"/>
    <path id="Trazado_100660" data-name="Trazado 100660" d="M45.293,40.293l1.414,1.414A5.789,5.789,0,0,1,50.829,40H51V38h-.171a7.774,7.774,0,0,0-5.536,2.293Z" fill="#26ccda" stroke="#36c6d5" stroke-width="0.5"/>
    <path id="Trazado_100661" data-name="Trazado 100661" d="M39.1,37.5h7.81v2H39.1Z" transform="matrix(0.768, -0.64, 0.64, 0.768, -14.681, 36.451)" fill="#26ccda" stroke="#36c6d5" stroke-width="0.5"/>
    <path id="Trazado_100662" data-name="Trazado 100662" d="M47,32h2v2H47Z" fill="#26ccda" stroke="#36c6d5" stroke-width="0.5"/>
    <path id="Trazado_100663" data-name="Trazado 100663" d="M21,34h2v2H21Z" fill="#26ccda" stroke="#36c6d5" stroke-width="0.5"/>
    <path id="Trazado_100664" data-name="Trazado 100664" d="M25,37h2v4H25Z" fill="#26ccda" stroke="#36c6d5" stroke-width="0.5"/>
    <path id="Trazado_100665" data-name="Trazado 100665" d="M23,43h2v4H23Z" fill="#26ccda" stroke="#36c6d5" stroke-width="0.5"/>
    <path id="Trazado_100666" data-name="Trazado 100666" d="M36,57h2v2H36Z" fill="#26ccda" stroke="#36c6d5" stroke-width="0.5"/>
  </g>
</svg>
