<svg xmlns="http://www.w3.org/2000/svg" width="64.161" height="62" viewBox="0 0 64.161 62">
  <g id="antorcha" transform="translate(0 -8.623)">
    <g id="Grupo_53614" data-name="Grupo 53614" transform="translate(0 8.623)">
      <g id="Grupo_53613" data-name="Grupo 53613">
        <path id="Trazado_100655" data-name="Trazado 100655" d="M62.9,9.37a12.494,12.494,0,0,0-11.67,1.717,25.961,25.961,0,0,0-6.567,6.893,8.568,8.568,0,0,1,.619-4.277,1.88,1.88,0,0,0-1.223-2.369c-6.541-2.065-13.335,1.1-17.64,6.465a20.538,20.538,0,0,0-4.383,9.949,17.467,17.467,0,0,0,1.107,9.094L2.2,57.788A7.517,7.517,0,0,0,12.829,68.42l21.33-21.33a20.872,20.872,0,0,0,18.147-2.535c5.473-3.9,7.66-10.112,7.391-16.933-.109-2.776.912-11.135,4.086-15.347A1.88,1.88,0,0,0,62.9,9.37ZM10.172,65.762a3.759,3.759,0,0,1-5.316-5.316L24.275,41.027l3.544,7.088ZM32.329,43.6l-.012.012-1.7,1.7-2.431-4.862,6.078,1.216Zm7.253-7.253-2.121,2.121L28.6,36.7l2.121-2.121Zm-5.665-4.966,2.833-2.833a3.759,3.759,0,0,1,5.89,4.577Zm22.024-3.616c.24,6.1-1.771,10.843-5.816,13.724A17.106,17.106,0,0,1,37.245,44l7.478-7.478A7.517,7.517,0,1,0,34.092,25.895l-8,8c-1.46-5.222.534-10.346,3.26-13.744,3.229-4.024,7.7-6.1,11.8-5.614-.842,3.717-.018,5.684,1.944,8.231a1.881,1.881,0,0,0,3.112-.2,25.558,25.558,0,0,1,7.139-8.375A9.168,9.168,0,0,1,59.3,12.411C56.529,17.832,55.844,25.287,55.941,27.769Z" transform="translate(0 -8.623)" fill="#26ccda"/>
      </g>
    </g>
    <g id="Grupo_53616" data-name="Grupo 53616" transform="translate(22.701 10.329)">
      <g id="Grupo_53615" data-name="Grupo 53615">
        <circle id="Elipse_4059" data-name="Elipse 4059" cx="1.879" cy="1.879" r="1.879" fill="#26ccda"/>
      </g>
    </g>
    <g id="Grupo_53618" data-name="Grupo 53618" transform="translate(15.184 21.605)">
      <g id="Grupo_53617" data-name="Grupo 53617" transform="translate(0 0)">
        <circle id="Elipse_4060" data-name="Elipse 4060" cx="1.879" cy="1.879" r="1.879" fill="#26ccda"/>
      </g>
    </g>
    <g id="Grupo_53620" data-name="Grupo 53620" transform="translate(56.53 44.157)">
      <g id="Grupo_53619" data-name="Grupo 53619" transform="translate(0 0)">
        <circle id="Elipse_4061" data-name="Elipse 4061" cx="1.879" cy="1.879" r="1.879" fill="#26ccda"/>
      </g>
    </g>
  </g>
</svg>
