<svg xmlns="http://www.w3.org/2000/svg" width="137.524" height="128.784" viewBox="0 0 137.524 128.784">
  <g id="escala-de-justicia" transform="translate(0 -16.269)">
    <g id="Grupo_53789" data-name="Grupo 53789" transform="translate(4.129 18.284)">
      <g id="Grupo_53788" data-name="Grupo 53788">
        <g id="Grupo_53786" data-name="Grupo 53786">
          <g id="Grupo_53785" data-name="Grupo 53785">
            <g id="Grupo_53776" data-name="Grupo 53776" transform="translate(52.611)">
              <path id="Trazado_101694" data-name="Trazado 101694" d="M235.285,188.407H211.239l7.683-104.951.889-2.188h6.83l.961,2.188Z" transform="translate(-211.239 -65.823)" fill="#fdd835"/>
              <path id="Trazado_101695" data-name="Trazado 101695" d="M232.212,24.083,226.052,31.1a6.572,6.572,0,0,0,1.045,9.632l1.46,1.074h8.686l1.462-1.075a6.572,6.572,0,0,0,1.046-9.631l-6.156-7.013A.92.92,0,0,0,232.212,24.083Z" transform="translate(-220.878 -23.77)" fill="#fdd835"/>
            </g>
            <g id="Grupo_53784" data-name="Grupo 53784" transform="translate(0 23.613)">
              <g id="Grupo_53783" data-name="Grupo 53783" transform="translate(1.854 46.756)">
                <g id="Grupo_53779" data-name="Grupo 53779">
                  <g id="Grupo_53778" data-name="Grupo 53778">
                    <g id="Grupo_53777" data-name="Grupo 53777" transform="translate(0 0)">
                      <path id="Trazado_101696" data-name="Trazado 101696" d="M22.272,285.753a18.956,18.956,0,0,0,36.239,0Z" transform="translate(-22.272 -285.753)" fill="#ffa726"/>
                    </g>
                    <path id="Trazado_101697" data-name="Trazado 101697" d="M68.876,285.753a19,19,0,0,1-9.868,11.5,18.961,18.961,0,0,0,26.372-11.5Z" transform="translate(-49.141 -285.753)" fill="#f57c00"/>
                  </g>
                </g>
                <g id="Grupo_53782" data-name="Grupo 53782" transform="translate(89.32 0)">
                  <g id="Grupo_53781" data-name="Grupo 53781">
                    <g id="Grupo_53780" data-name="Grupo 53780">
                      <path id="Trazado_101698" data-name="Trazado 101698" d="M354.81,285.753a18.956,18.956,0,0,0,36.239,0Z" transform="translate(-354.81 -285.753)" fill="#ffa726"/>
                    </g>
                    <path id="Trazado_101699" data-name="Trazado 101699" d="M401.279,285.753a19,19,0,0,1-9.839,11.485,18.96,18.96,0,0,0,26.4-11.485Z" transform="translate(-381.601 -285.753)" fill="#f57c00"/>
                  </g>
                </g>
              </g>
              <path id="Trazado_101700" data-name="Trazado 101700" d="M144.636,118.089a6.212,6.212,0,0,0-4.559-6.227,6.056,6.056,0,0,0-7.414,4.916,1.546,1.546,0,0,1-1.619,1.269,11.575,11.575,0,0,1-4.911-1.455,43.186,43.186,0,0,0-29.48-3.87l-10.7,2.4a27.365,27.365,0,0,1-11.909,0l-10.7-2.4a44.245,44.245,0,0,0-29.784,4.033,11.308,11.308,0,0,1-4.608,1.292,1.543,1.543,0,0,1-1.609-1.278A6.079,6.079,0,0,0,20.92,111.7a6.154,6.154,0,0,0-5.493,5.374,6.314,6.314,0,0,0,3.139,6.375,19.06,19.06,0,0,0,18.54.38,35.518,35.518,0,0,1,24.608-3.319l10.7,2.4a34.851,34.851,0,0,0,15.171,0l10.7-2.4a36.125,36.125,0,0,1,24.61,3.32,18.927,18.927,0,0,0,8.938,2.22C136.331,126.05,144.5,124.169,144.636,118.089Z" transform="translate(-15.371 -111.68)" fill="#26ccda"/>
            </g>
          </g>
        </g>
        <g id="Grupo_53787" data-name="Grupo 53787" transform="translate(30.564 111.634)">
          <path id="Trazado_101701" data-name="Trazado 101701" d="M188.194,439.38h-49.93a9.1,9.1,0,0,0-9.1,9.1,4.017,4.017,0,0,0,4.016,4.016h60.106a4.017,4.017,0,0,0,4.016-4.016A9.1,9.1,0,0,0,188.194,439.38Z" transform="translate(-129.16 -439.38)" fill="#fdd835"/>
        </g>
        <path id="Trazado_101702" data-name="Trazado 101702" d="M304,439.38H287.5a9.1,9.1,0,0,1,9.1,9.1V452.5h12.488a4.016,4.016,0,0,0,4.016-4.016A9.1,9.1,0,0,0,304,439.38Z" transform="translate(-214.405 -327.746)" fill="#ffa726"/>
        <path id="Trazado_101703" data-name="Trazado 101703" d="M219.45,407.7H195.413a5.818,5.818,0,0,1,0-11.635H219.45a5.818,5.818,0,1,1,0,11.635Z" transform="translate(-142.798 -296.064)" fill="#fdd835"/>
        <path id="Trazado_101704" data-name="Trazado 101704" d="M255.805,396.062H239.3a5.818,5.818,0,0,1,5.818,5.818V407.7h10.687a5.818,5.818,0,1,0,0-11.635Z" transform="translate(-179.153 -296.064)" fill="#ffa726"/>
      </g>
    </g>
    <g id="Grupo_53791" data-name="Grupo 53791" transform="translate(0 16.269)">
      <g id="Grupo_53790" data-name="Grupo 53790" transform="translate(0 0)">
        <path id="Trazado_101705" data-name="Trazado 101705" d="M135.508,86.637h-2.743l-14.8-28.517a21.274,21.274,0,0,0,2.626.163c5.866,0,14.654-2.645,14.819-9.931a8.056,8.056,0,0,0-12.354-7.194,8.285,8.285,0,0,0-3.531,5.059,9.813,9.813,0,0,1-3.718-1.2,45.234,45.234,0,0,0-30.836-4.04L75.64,43.066,75.2,37.279l.561-.412a8.594,8.594,0,0,0,1.367-12.585l-6.156-7.013a2.937,2.937,0,0,0-2.206-1h0a2.937,2.937,0,0,0-2.206,1L60.4,24.281a8.594,8.594,0,0,0,1.365,12.586l.559.412-.44,5.789-9.339-2.1A46.433,46.433,0,0,0,21.366,45.2,9.251,9.251,0,0,1,18,46.216c-2.053-8.843-14.63-8.228-15.814.814a8.286,8.286,0,0,0,4.132,8.384,20.765,20.765,0,0,0,10.6,2.886,21.108,21.108,0,0,0,2.635-.167L4.759,86.637H2.016a2.016,2.016,0,0,0,0,4.032H4.554a20.982,20.982,0,0,0,27.165,11.96,2.016,2.016,0,0,0-1.466-3.756,16.963,16.963,0,0,1-21.3-8.2h30.3a16.9,16.9,0,0,1-2.118,3.243,2.016,2.016,0,0,0,3.1,2.579,20.827,20.827,0,0,0,3.422-5.821h2.54a2.016,2.016,0,0,0,0-4.032H43.446L27.314,55.557A33.851,33.851,0,0,1,50.03,52.694l10.7,2.4c.087.02.176.036.263.055l-4.474,61.12A7.826,7.826,0,0,0,49.9,127.9H43.8a11.133,11.133,0,0,0-11.12,11.12,6.039,6.039,0,0,0,6.033,6.032H98.814a6.039,6.039,0,0,0,6.032-6.032,11.133,11.133,0,0,0-11.12-11.12h-6.1a7.826,7.826,0,0,0-6.621-11.629L76.531,55.149c.084-.018.168-.034.252-.053l10.7-2.4a34.065,34.065,0,0,1,22.723,2.868L94.077,86.636H91.334a2.016,2.016,0,1,0,0,4.032h2.538a20.98,20.98,0,0,0,27.689,11.748,2.016,2.016,0,0,0-1.567-3.715,16.961,16.961,0,0,1-21.727-8.033h30.3a16.918,16.918,0,0,1-1.831,2.887A2.016,2.016,0,1,0,129.9,96.05a20.846,20.846,0,0,0,3.067-5.382h2.54a2.016,2.016,0,0,0,0-4.032ZM63.429,26.942l5.335-6.075L74.1,26.941a4.554,4.554,0,0,1-.725,6.677l-.929.683H65.08l-.927-.682A4.553,4.553,0,0,1,63.429,26.942Zm8.225,16.872a25.461,25.461,0,0,1-5.782,0l.417-5.482h4.948ZM38.9,86.637H9.3L24.1,58.121Zm54.822,45.3a7.1,7.1,0,0,1,7.088,7.088,2,2,0,0,1-2,2H38.71a2,2,0,0,1-2-2,7.1,7.1,0,0,1,7.088-7.088H93.727ZM84.582,124.1a3.806,3.806,0,0,1-3.8,3.8H56.744a3.8,3.8,0,1,1,0-7.6H80.781A3.806,3.806,0,0,1,84.582,124.1Zm-7.619-7.834h-16.4l4.427-60.48a37.051,37.051,0,0,0,7.546,0ZM86.6,48.76l-10.7,2.4a32.821,32.821,0,0,1-14.287,0l-10.7-2.4a37.4,37.4,0,0,0-26,3.51,17.126,17.126,0,0,1-16.554-.335L8.3,51.9a4.276,4.276,0,0,1-2.116-4.35,4,4,0,0,1,7.933-.208,3.559,3.559,0,0,0,3.724,2.931,13.39,13.39,0,0,0,5.4-1.513,42.176,42.176,0,0,1,28.415-3.857l10.7,2.4a29.488,29.488,0,0,0,12.792,0l10.7-2.4A41.167,41.167,0,0,1,114,48.615a13.459,13.459,0,0,0,5.676,1.661,3.558,3.558,0,0,0,3.734-2.924,4.247,4.247,0,0,1,1.844-2.812,4.02,4.02,0,0,1,6.128,3.72c-.042,1.869-1.256,3.377-3.607,4.481a18.127,18.127,0,0,1-7.18,1.51,17.453,17.453,0,0,1-8.087-2.034A38.194,38.194,0,0,0,86.6,48.76ZM98.62,86.637l14.8-28.516,14.8,28.516Z" transform="translate(0 -16.269)"/>
      </g>
    </g>
  </g>
</svg>
