<svg xmlns="http://www.w3.org/2000/svg" width="114.264" height="114.266" viewBox="0 0 114.264 114.266">
  <g id="media-monitor-screen-Digital_Marketing" data-name="media-monitor-screen-Digital Marketing" transform="translate(-2 -1.999)">
    <path id="Trazado_104181" data-name="Trazado 104181" d="M6.809,16H109.646a3.809,3.809,0,0,1,3.809,3.809V76.941H3V19.809A3.809,3.809,0,0,1,6.809,16Z" transform="translate(0.904 12.662)" fill="#26ccda"/>
    <path id="Trazado_104182" data-name="Trazado 104182" d="M7,28H56.514V58.47H7Z" transform="translate(4.522 23.515)" fill="#ffa726"/>
    <path id="Trazado_104183" data-name="Trazado 104183" d="M60.088,57v7.618H22V57H60.088Z" transform="translate(18.088 49.743)" fill="#e8e5fb"/>
    <path id="Trazado_104184" data-name="Trazado 104184" d="M29,51H40.426V62.426H29Z" transform="translate(24.419 44.316)" fill="#8e95a3"/>
    <path id="Trazado_104185" data-name="Trazado 104185" d="M113.455,49.9v1.9a3.82,3.82,0,0,1-3.809,3.809H6.809A3.82,3.82,0,0,1,3,51.809V48H113.455Z" transform="translate(0.904 41.603)" fill="#e8e5fb"/>
    <path id="Trazado_104186" data-name="Trazado 104186" d="M27.426,16.713,16,22.426V11Z" transform="translate(12.662 8.14)" fill="#f57c00"/>
    <path id="Trazado_104187" data-name="Trazado 104187" d="M8,25.044V6H46.088V36.47H8Zm15.235,1.9,11.426-5.713L23.235,15.522Z" transform="translate(5.426 3.618)" fill="#26ccda"/>
    <path id="Trazado_104188" data-name="Trazado 104188" d="M56.514,28,31.757,43.235,7,28Z" transform="translate(4.522 23.515)" fill="#fdd835"/>
    <path id="Trazado_104189" data-name="Trazado 104189" d="M36,7H49.331V22.235H36Z" transform="translate(30.749 4.523)" fill="#e8e5fb"/>
    <path id="Trazado_104190" data-name="Trazado 104190" d="M44.618,15l-1.9,13.331H37V15Z" transform="translate(31.654 11.758)" fill="#c7bec5"/>
    <path id="Trazado_104191" data-name="Trazado 104191" d="M62.494,10.124a3.723,3.723,0,0,1,1.124,2.685,3.82,3.82,0,0,1-3.809,3.809H56V9h3.809a3.723,3.723,0,0,1,2.685,1.124Z" transform="translate(48.837 6.332)" fill="#ffa726"/>
    <path id="Trazado_104192" data-name="Trazado 104192" d="M67.757,3V33.47L43,25.853V10.618Z" transform="translate(37.08 0.905)" fill="#fdd835"/>
    <path id="Trazado_104193" data-name="Trazado 104193" d="M33,9h5.713v7.618H33Z" transform="translate(28.036 6.332)" fill="#ffa726"/>
    <path id="Trazado_104194" data-name="Trazado 104194" d="M37,26H71.279V48.853H37Z" transform="translate(31.654 21.706)" fill="#fdd835"/>
    <path id="Trazado_104195" data-name="Trazado 104195" d="M72.375,30V52.853H40V30H72.375Z" transform="translate(34.367 25.324)" fill="#f57c00"/>
    <path id="Trazado_104196" data-name="Trazado 104196" d="M110.551,26.758h-3.809v-1.9h1.9a5.713,5.713,0,1,0,0-11.426h-1.9V3.905a1.843,1.843,0,0,0-.781-1.524,1.887,1.887,0,0,0-1.676-.3L79.795,9.618H66.749a1.9,1.9,0,0,0-1.9,1.9v1.9H61.036a1.9,1.9,0,0,0-1.9,1.9v7.618a1.9,1.9,0,0,0,1.9,1.9h3.809v1.9H53.419V9.618a1.9,1.9,0,0,0-1.9-1.9H13.426a1.9,1.9,0,0,0-1.9,1.9v17.14H7.713A5.73,5.73,0,0,0,2,32.471V93.412a5.73,5.73,0,0,0,5.713,5.713h43.8v5.713H40.088a1.9,1.9,0,0,0-1.9,1.9v7.618a1.9,1.9,0,0,0,1.9,1.9H78.176a1.9,1.9,0,0,0,1.9-1.9v-7.618a1.9,1.9,0,0,0-1.9-1.9H66.749V99.125h43.8a5.73,5.73,0,0,0,5.713-5.713V32.471A5.73,5.73,0,0,0,110.551,26.758Zm-3.809-9.522h1.9a1.9,1.9,0,0,1,0,3.809h-1.9Zm-24.757-4.3,20.948-6.456V31.8L81.985,25.349Zm-13.331.5h9.522V24.854H68.654Zm5.428,15.235L72.71,38.184H70.558V28.662ZM62.941,21.045V17.236h1.9v3.809Zm-47.61-9.522H49.61V38.184H15.331Zm60.941,97.124v3.809H41.992v-3.809Zm-20.948-3.809V99.125h7.618v5.713Zm57.132-11.426a1.9,1.9,0,0,1-1.9,1.9H7.713a1.9,1.9,0,0,1-1.9-1.9v-1.9H112.455Zm0-5.713H5.809V32.471a1.9,1.9,0,0,1,1.9-1.9h3.809v9.522a1.9,1.9,0,0,0,1.9,1.9H51.514a1.9,1.9,0,0,0,1.9-1.9V30.567H66.749v9.522a1.9,1.9,0,0,0,1.9,1.9h5.713a1.9,1.9,0,0,0,1.885-1.638l1.676-11.693h1.866L104.285,36.2a1.762,1.762,0,0,0,.552.076,1.933,1.933,0,0,0,1.9-1.9V30.567h3.809a1.9,1.9,0,0,1,1.9,1.9Z"/>
    <path id="Trazado_104197" data-name="Trazado 104197" d="M7.9,61.279H57.419a1.9,1.9,0,0,0,1.9-1.9V28.9a1.9,1.9,0,0,0-1.9-1.9H7.9A1.9,1.9,0,0,0,6,28.9v30.47A1.9,1.9,0,0,0,7.9,61.279Zm1.9-3.809V32.311L31.664,45.762a1.9,1.9,0,0,0,2,0L55.514,32.311V57.47Zm4.824-26.662H50.69L32.662,41.9Z" transform="translate(3.618 22.611)"/>
    <path id="Trazado_104198" data-name="Trazado 104198" d="M37.9,51.662h3.809v5.713a1.9,1.9,0,0,0,1.9,1.9H75.992a1.9,1.9,0,0,0,1.9-1.9V34.522a1.9,1.9,0,0,0-1.9-1.9h-1.9V26.9a1.9,1.9,0,0,0-1.9-1.9H37.9A1.9,1.9,0,0,0,36,26.9V49.757A1.9,1.9,0,0,0,37.9,51.662ZM74.088,55.47H45.522V36.426H74.088ZM39.809,28.809h30.47v3.809H43.618a1.9,1.9,0,0,0-1.9,1.9V47.853h-1.9Z" transform="translate(30.749 20.802)"/>
    <path id="Trazado_104199" data-name="Trazado 104199" d="M43,33h3.809v3.809H43Z" transform="translate(37.08 28.037)"/>
    <path id="Trazado_104200" data-name="Trazado 104200" d="M47,33H60.331v3.809H47Z" transform="translate(40.698 28.037)"/>
    <path id="Trazado_104201" data-name="Trazado 104201" d="M43,37h7.618v3.809H43Z" transform="translate(37.08 31.655)"/>
    <path id="Trazado_104202" data-name="Trazado 104202" d="M49,37h9.522v3.809H49Z" transform="translate(42.507 31.655)"/>
    <path id="Trazado_104203" data-name="Trazado 104203" d="M15.9,24.952a1.9,1.9,0,0,0,1.853.084l11.426-5.713a1.9,1.9,0,0,0,0-3.409L17.756,10.2A1.9,1.9,0,0,0,15,11.9V23.331A1.9,1.9,0,0,0,15.9,24.952Zm2.906-9.966,5.264,2.632L18.809,20.25Z" transform="translate(11.757 7.236)"/>
  </g>
</svg>
