<svg xmlns="http://www.w3.org/2000/svg" width="127.908" height="123.491" viewBox="0 0 127.908 123.491">
  <g id="megafono" transform="translate(0 -8.288)">
    <path id="Trazado_102299" data-name="Trazado 102299" d="M115.708,76.8a6.791,6.791,0,0,1-5.617,10.182,133.424,133.424,0,0,0-55.6,14.561l-5.929,3.422c0,.027-.082-.14,14.353,24.964a4.8,4.8,0,0,1-1.756,6.558l-4.677,2.7a4.8,4.8,0,0,1-6.555-1.759l-14.4-24.937-2.337,1.351a9.6,9.6,0,0,1-13.114-3.515l-10.8-18.7A9.6,9.6,0,0,1,12.79,78.507l21.3-12.3A133.444,133.444,0,0,0,74.5,25.336a6.791,6.791,0,0,1,11.627.227l9.239,16a11.1,11.1,0,1,1,11.1,19.224Z" transform="translate(-5.859 -10.18)" fill="#e8e8e8"/>
    <path id="Trazado_102300" data-name="Trazado 102300" d="M351.049,94.939a11.1,11.1,0,0,1-4.064,15.16l-11.1-19.224A11.1,11.1,0,0,1,351.049,94.939Z" transform="translate(-246.378 -59.488)" fill="#26ccda"/>
    <path id="Trazado_102301" data-name="Trazado 102301" d="M86.128,25.563a6.724,6.724,0,0,1-.218,7.078A156.353,156.353,0,0,1,40.616,77.359L15.66,91.767a11.2,11.2,0,0,0-4.019,3.949l-2.366-4.1A9.6,9.6,0,0,1,12.79,78.507l21.3-12.3A133.444,133.444,0,0,0,74.5,25.336a6.791,6.791,0,0,1,11.627.227Z" transform="translate(-5.859 -10.18)" fill="#e8e8e8" style="mix-blend-mode: multiply;isolation: isolate"/>
    <path id="Trazado_102302" data-name="Trazado 102302" d="M34.09,187.442l20.4,35.33c-4.087,2.359-17.218,9.939-21.3,12.3a9.6,9.6,0,0,1-13.114-3.515l-10.8-18.7A9.6,9.6,0,0,1,12.79,199.74Z" transform="translate(-5.859 -131.413)" fill="#f57c00"/>
    <path id="Trazado_102303" data-name="Trazado 102303" d="M40.548,198.631c-27.1,15.646-25.306,14.558-26.181,15.238a3.448,3.448,0,0,1-5.094-1.016,9.6,9.6,0,0,1,3.515-13.114l21.3-12.3Z" transform="translate(-5.859 -131.412)" fill="#ffa726"/>
    <path id="Trazado_102304" data-name="Trazado 102304" d="M128.232,339.622c-7.583,4.391-2,1.159-13.02,7.517l-3.9-6.745,13.034-7.523Z" transform="translate(-81.652 -238.088)" fill="#afafaf"/>
    <path id="Trazado_102305" data-name="Trazado 102305" d="M350.385,107.237a10.976,10.976,0,0,1-3.4,3.049l-11.1-19.224a11.009,11.009,0,0,1,4.341-1.42Z" transform="translate(-246.378 -59.674)" fill="#26ccda" style="mix-blend-mode: multiply;isolation: isolate"/>
    <path id="Trazado_102306" data-name="Trazado 102306" d="M103.432,51.241A13.229,13.229,0,0,0,90.375,28.626l-8.26-14.308a8.924,8.924,0,0,0-15.278-.3A131.272,131.272,0,0,1,27.072,54.241a2.133,2.133,0,0,0-.713,2.807c.087.159,13.77,23.855,13.86,24.012a2.132,2.132,0,1,0,3.692-2.132L31.08,56.7A135.468,135.468,0,0,0,70.444,16.292a4.659,4.659,0,0,1,7.978.158L108,67.681a4.66,4.66,0,0,1-3.853,6.988A135.54,135.54,0,0,0,47.656,89.461c-.075.038-20.023,11.557-21.4,12.35a7.474,7.474,0,0,1-10.2-2.733l-10.8-18.7a7.475,7.475,0,0,1,2.733-10.2l13-7.5a2.132,2.132,0,1,0-2.132-3.692l-13,7.5A11.743,11.743,0,0,0,1.57,82.506l10.8,18.7A11.744,11.744,0,0,0,28.392,105.5l.492-.284,13.332,23.091a6.927,6.927,0,0,0,9.468,2.537l4.676-2.7A6.927,6.927,0,0,0,58.9,118.68l-9.449-16.365a2.132,2.132,0,0,0-3.692,2.132L55.2,120.812a2.666,2.666,0,0,1-.976,3.644l-4.676,2.7a2.666,2.666,0,0,1-3.644-.976L32.576,103.088l17.069-9.855a131.267,131.267,0,0,1,54.669-14.3,8.923,8.923,0,0,0,7.379-13.381Zm-.609-14.724a8.981,8.981,0,0,1-1.565,10.959l-8.71-15.086A8.964,8.964,0,0,1,102.823,36.516Zm20.851-9.478-5.516,3.185a2.132,2.132,0,0,1-2.132-3.692l5.516-3.185a2.132,2.132,0,1,1,2.132,3.692ZM99.953,14.888,101.3,9.868a2.132,2.132,0,1,1,4.118,1.1l-1.345,5.019a2.132,2.132,0,1,1-4.118-1.1ZM127.835,49.8a2.133,2.133,0,0,1-2.058,1.581c-.386,0-.116.044-5.573-1.418a2.132,2.132,0,1,1,1.1-4.118l5.02,1.345A2.132,2.132,0,0,1,127.835,49.8Z" transform="translate(0)"/>
  </g>
</svg>
