<svg xmlns="http://www.w3.org/2000/svg" width="158.505" height="154.785" viewBox="0 0 158.505 154.785">
  <g id="monasterio" transform="translate(0 -0.001)">
    <path id="Trazado_101831" data-name="Trazado 101831" d="M29.352,152H56.613v63.983H29.352Zm0,0" transform="translate(-20.265 -104.943)" fill="#fdd835"/>
    <path id="Trazado_101832" data-name="Trazado 101832" d="M394.59,152h27.261v63.983H394.59Zm0,0" transform="translate(-272.433 -104.943)" fill="#fdd835"/>
    <g id="Grupo_53854" data-name="Grupo 53854" transform="translate(9.087 72.821)">
      <path id="Trazado_101833" data-name="Trazado 101833" d="M29.352,358.676h46.94v40.651H29.352Zm0,0" transform="translate(-29.352 -320.457)" fill="#ffa726"/>
      <path id="Trazado_101834" data-name="Trazado 101834" d="M359.2,399.289v.034h18.757V358.672H331.02v40.651Zm0,0" transform="translate(-237.629 -320.454)" fill="#ffa726"/>
      <path id="Trazado_101835" data-name="Trazado 101835" d="M227.428,263.709H180.977v-5.322a23.164,23.164,0,0,1,23.164-23.164h.123a23.164,23.164,0,0,1,23.164,23.164Zm0,0" transform="translate(-134.036 -235.223)" fill="#ffa726"/>
      <path id="Trazado_101836" data-name="Trazado 101836" d="M227.43,327.242v50.381H214.474V358.348a9.817,9.817,0,0,0-9.815-9.813h-.052a9.814,9.814,0,0,0-9.813,9.813v19.275H180.98V327.242Zm0,0" transform="translate(-134.039 -298.755)" fill="#ffa726"/>
    </g>
    <path id="Trazado_101837" data-name="Trazado 101837" d="M203.219,45.282v72.659h-19.68V102.89a23.164,23.164,0,0,0-23.163-23.167h-.123A23.164,23.164,0,0,0,137.09,102.89v15.052H117.41V45.282L160.315,10Zm0,0" transform="translate(-81.062 -6.904)" fill="#e8e7e9"/>
    <path id="Trazado_101838" data-name="Trazado 101838" d="M246.269,92.644a7.91,7.91,0,1,1-7.91-7.91A7.91,7.91,0,0,1,246.269,92.644Zm0,0" transform="translate(-159.107 -58.502)" fill="#ffcb7c"/>
    <path id="Trazado_101839" data-name="Trazado 101839" d="M155.409,29.5h-2.9V27a3.1,3.1,0,1,0-6.192,0v2.5h-2.9a3.1,3.1,0,1,0,0,6.192h2.9v8.27h-21.07V38.379a3.1,3.1,0,0,0-1.129-2.391L81.219.706a3.1,3.1,0,0,0-3.933,0l-42.9,35.282a3.1,3.1,0,0,0-1.129,2.391v5.582H12.182v-8.27h2.9a3.1,3.1,0,1,0,0-6.192h-2.9V27a3.1,3.1,0,1,0-6.192,0v2.5H3.1a3.1,3.1,0,1,0,0,6.192h2.9v116a3.1,3.1,0,0,0,3.1,3.1h93.39a3.1,3.1,0,0,0,3.1-3.1V114.133h40.751v34.459s-15.616-.041-15.831-.03a3.1,3.1,0,0,0-2.928,3.141c0,.024,0,.048,0,.069a3.1,3.1,0,0,0,3.095,3.011H149.42a3.1,3.1,0,0,0,3.1-3.1v-116h2.9a3.1,3.1,0,1,0,0-6.19Zm-9.087,20.654v57.79h-21.07V50.153Zm-78,28.977a19.945,19.945,0,0,1,10.872-3.213h.123a20.1,20.1,0,0,1,20.067,20.07v2.225H59.124V95.986A20.066,20.066,0,0,1,68.319,79.13ZM33.252,107.944H12.182V50.153h21.07Zm19.679,40.651H12.182V114.135H52.931Zm33.494,0H72.938v-16.18a6.722,6.722,0,0,1,6.716-6.716h.052a6.726,6.726,0,0,1,6.719,6.718ZM79.707,119.5h-.052a12.93,12.93,0,0,0-12.91,12.91v16.178H59.124V104.4H99.381v44.189H92.618V132.414A12.924,12.924,0,0,0,79.707,119.5Zm25.867-46.684a3.1,3.1,0,1,0-6.192,0v6.253A26.528,26.528,0,0,0,95,74.938a26.119,26.119,0,0,0-12.653-5.033v-7.73h2.9a3.1,3.1,0,0,0,0-6.192h-2.9V54.23a3.1,3.1,0,1,0-6.192,0v1.753h-2.9a3.1,3.1,0,1,0,0,6.192h2.9v7.73A26.119,26.119,0,0,0,63.5,74.938a26.528,26.528,0,0,0-4.381,4.136V72.821a3.1,3.1,0,1,0-6.192,0v35.12H39.444v-68.1L79.253,7.1l39.809,32.737v68.1H105.573Zm0,0" transform="translate(0 0)"/>
    <path id="Trazado_101840" data-name="Trazado 101840" d="M231.455,74.734A11.005,11.005,0,1,0,242.461,85.74,11.018,11.018,0,0,0,231.455,74.734Zm0,15.819a4.814,4.814,0,1,1,4.814-4.813A4.82,4.82,0,0,1,231.455,90.553Zm0,0" transform="translate(-152.203 -51.597)"/>
    <path id="Trazado_101841" data-name="Trazado 101841" d="M431.951,190.435a3.1,3.1,0,0,0,3.1-3.1v-5.161a3.1,3.1,0,0,0-6.192,0v5.161A3.1,3.1,0,0,0,431.951,190.435Zm0,0" transform="translate(-296.09 -123.641)"/>
    <path id="Trazado_101842" data-name="Trazado 101842" d="M431.951,244.618a3.1,3.1,0,0,0,3.1-3.1v-5.161a3.1,3.1,0,0,0-6.192,0v5.161A3.1,3.1,0,0,0,431.951,244.618Zm0,0" transform="translate(-296.09 -161.051)"/>
    <path id="Trazado_101843" data-name="Trazado 101843" d="M431.951,300.947a3.1,3.1,0,0,0,3.1-3.1V292.69a3.1,3.1,0,0,0-6.192,0v5.161A3.1,3.1,0,0,0,431.951,300.947Zm0,0" transform="translate(-296.09 -199.941)"/>
    <path id="Trazado_101844" data-name="Trazado 101844" d="M66.479,190.435a3.1,3.1,0,0,0,3.1-3.1v-5.161a3.1,3.1,0,0,0-6.192,0v5.161A3.1,3.1,0,0,0,66.479,190.435Zm0,0" transform="translate(-43.761 -123.641)"/>
    <path id="Trazado_101845" data-name="Trazado 101845" d="M66.479,244.618a3.1,3.1,0,0,0,3.1-3.1v-5.161a3.1,3.1,0,0,0-6.192,0v5.161A3.1,3.1,0,0,0,66.479,244.618Zm0,0" transform="translate(-43.761 -161.051)"/>
    <path id="Trazado_101846" data-name="Trazado 101846" d="M66.479,300.947a3.1,3.1,0,0,0,3.1-3.1V292.69a3.1,3.1,0,0,0-6.192,0v5.161A3.1,3.1,0,0,0,66.479,300.947Zm0,0" transform="translate(-43.761 -199.941)"/>
    <path id="Trazado_101847" data-name="Trazado 101847" d="M372.688,481.9a3.094,3.094,0,1,0-1.139,3.757A3.115,3.115,0,0,0,372.688,481.9Zm0,0" transform="translate(-253.202 -331.394)"/>
    <path id="Trazado_101848" data-name="Trazado 101848" d="M174.072,152.219a3.1,3.1,0,0,0-3.1,3.1v6.149a3.1,3.1,0,0,0,6.192,0v-6.149A3.1,3.1,0,0,0,174.072,152.219Zm0,0" transform="translate(-118.046 -105.094)"/>
    <path id="Trazado_101849" data-name="Trazado 101849" d="M325.674,152.219a3.1,3.1,0,0,0-3.1,3.1v6.149a3.1,3.1,0,0,0,6.192,0v-6.149A3.1,3.1,0,0,0,325.674,152.219Zm0,0" transform="translate(-222.714 -105.094)"/>
  </g>
</svg>
