<svg xmlns="http://www.w3.org/2000/svg" width="116.323" height="138.643" viewBox="0 0 116.323 138.643">
  <g id="briefing" transform="translate(-0.5)">
    <path id="Trazado_102410" data-name="Trazado 102410" d="M95.09,171.34H12.615a4.6,4.6,0,0,1-4.6-4.6V52.232a4.6,4.6,0,0,1,4.6-4.6H95.09a4.6,4.6,0,0,1,4.6,4.6v114.5A4.6,4.6,0,0,1,95.09,171.34Zm0,0" transform="translate(-5.478 -34.732)" fill="#f6f6f6"/>
    <path id="Trazado_102411" data-name="Trazado 102411" d="M95.042,47.629H90.171V156.94a4.65,4.65,0,0,1-4.651,4.65H8.012v5.1a4.65,4.65,0,0,0,4.65,4.65h82.38a4.65,4.65,0,0,0,4.651-4.65V52.28A4.65,4.65,0,0,0,95.042,47.629Zm0,0" transform="translate(-5.478 -34.732)" fill="#e8e8e8"/>
    <path id="Trazado_102412" data-name="Trazado 102412" d="M143.786,26.384H112.809a2.708,2.708,0,0,1-2.708-2.708V14.011a6.5,6.5,0,0,1,6.5-6.5h23.394a6.5,6.5,0,0,1,6.5,6.5v9.666A2.708,2.708,0,0,1,143.786,26.384Zm0,0" transform="translate(-79.923 -5.478)" fill="#f57c00"/>
    <path id="Trazado_102413" data-name="Trazado 102413" d="M139.928,7.512h-1.675a6.589,6.589,0,0,1,.209,1.651v9.572a2.736,2.736,0,0,1-2.735,2.735H110.1v2.179a2.736,2.736,0,0,0,2.735,2.735h30.921a2.736,2.736,0,0,0,2.735-2.735V14.077A6.566,6.566,0,0,0,139.928,7.512Zm0,0" transform="translate(-79.923 -5.478)" fill="#ed500a"/>
    <path id="Trazado_102414" data-name="Trazado 102414" d="M279.862,101.124a23.8,23.8,0,1,1-23.8-23.8A23.8,23.8,0,0,1,279.862,101.124Zm0,0" transform="translate(-168.998 -56.383)" fill="#fdd835"/>
    <path id="Trazado_102415" data-name="Trazado 102415" d="M281.951,83.473A23.81,23.81,0,0,1,255.742,121.8a23.805,23.805,0,1,0,26.209-38.332Zm0,0" transform="translate(-186.126 -60.869)" fill="#ffa726"/>
    <path id="Trazado_102416" data-name="Trazado 102416" d="M272.348,113.386a4.652,4.652,0,0,1-3.289-1.361l-11.388-11.388a4.651,4.651,0,1,1,6.577-6.577l8.1,8.1L293.39,81.117a4.65,4.65,0,0,1,6.576,6.577l-24.33,24.331A4.653,4.653,0,0,1,272.348,113.386Zm0,0" transform="translate(-186.54 -58.158)" fill="#26ccda"/>
    <path id="Trazado_102417" data-name="Trazado 102417" d="M325.8,81.62a4.628,4.628,0,0,0-1.982-1.175,4.648,4.648,0,0,1-1.176,4.593l-24.331,24.331a4.649,4.649,0,0,1-6.576,0l3.158,3.16a4.653,4.653,0,0,0,6.577,0L325.8,88.2A4.651,4.651,0,0,0,325.8,81.62Zm0,0" transform="translate(-212.369 -58.662)" fill="#26ccda" style="mix-blend-mode: multiply;isolation: isolate"/>
    <g id="Grupo_54750" data-name="Grupo 54750" transform="translate(11.472 30.06)">
      <path id="Trazado_102418" data-name="Trazado 102418" d="M132.72,192.615H107.935a2.034,2.034,0,0,1,0-4.068H132.72a2.034,2.034,0,0,1,0,4.068Zm0,0" transform="translate(-88.333 -167.551)" fill="#0882bf"/>
      <path id="Trazado_102419" data-name="Trazado 102419" d="M56.74,115.08H43.054a2.034,2.034,0,0,1,0-4.068H56.74a2.034,2.034,0,1,1,0,4.068Zm0,0" transform="translate(-41.02 -111.012)" fill="#0882bf"/>
      <path id="Trazado_102420" data-name="Trazado 102420" d="M132.72,227.462H107.935a2.034,2.034,0,0,1,0-4.067H132.72a2.034,2.034,0,1,1,0,4.067Zm0,0" transform="translate(-88.333 -192.963)" fill="#0882bf"/>
      <path id="Trazado_102421" data-name="Trazado 102421" d="M141.281,283.717H107.935a2.034,2.034,0,0,1,0-4.068h33.346a2.034,2.034,0,0,1,0,4.068Zm0,0" transform="translate(-88.333 -233.984)" fill="#0882bf"/>
      <path id="Trazado_102422" data-name="Trazado 102422" d="M124.609,318.564H107.935a2.034,2.034,0,0,1,0-4.068h16.673a2.034,2.034,0,0,1,0,4.068Zm0,0" transform="translate(-88.333 -259.395)" fill="#0882bf"/>
      <path id="Trazado_102423" data-name="Trazado 102423" d="M132.72,374.916H107.935a2.034,2.034,0,0,1,0-4.068H132.72a2.034,2.034,0,1,1,0,4.068Zm0,0" transform="translate(-88.333 -300.488)" fill="#0882bf"/>
      <path id="Trazado_102424" data-name="Trazado 102424" d="M141.281,409.762H107.935a2.034,2.034,0,0,1,0-4.067h33.346a2.034,2.034,0,1,1,0,4.067Zm0,0" transform="translate(-88.333 -325.899)" fill="#0882bf"/>
    </g>
    <path id="Trazado_102425" data-name="Trazado 102425" d="M54.008,195.728a6.182,6.182,0,1,1-6.182-6.182A6.181,6.181,0,0,1,54.008,195.728Zm0,0" transform="translate(-30.003 -138.22)" fill="#26ccda"/>
    <path id="Trazado_102426" data-name="Trazado 102426" d="M54.008,287.939a6.182,6.182,0,1,1-6.182-6.182A6.181,6.181,0,0,1,54.008,287.939Zm0,0" transform="translate(-30.003 -205.462)" fill="#26ccda"/>
    <path id="Trazado_102427" data-name="Trazado 102427" d="M54.008,379.135a6.182,6.182,0,1,1-6.182-6.182A6.182,6.182,0,0,1,54.008,379.135Zm0,0" transform="translate(-30.003 -271.963)" fill="#26ccda"/>
    <path id="Trazado_102428" data-name="Trazado 102428" d="M132.72,192.615H107.935a2.034,2.034,0,0,1,0-4.068H132.72a2.034,2.034,0,0,1,0,4.068Zm0,0" transform="translate(-76.861 -137.491)"/>
    <path id="Trazado_102429" data-name="Trazado 102429" d="M56.74,115.08H43.054a2.034,2.034,0,0,1,0-4.068H56.74a2.034,2.034,0,1,1,0,4.068Zm0,0" transform="translate(-29.547 -80.951)"/>
    <path id="Trazado_102430" data-name="Trazado 102430" d="M132.72,227.462H107.935a2.034,2.034,0,0,1,0-4.067H132.72a2.034,2.034,0,1,1,0,4.067Zm0,0" transform="translate(-76.861 -162.902)"/>
    <path id="Trazado_102431" data-name="Trazado 102431" d="M141.281,283.717H107.935a2.034,2.034,0,0,1,0-4.068h33.346a2.034,2.034,0,0,1,0,4.068Zm0,0" transform="translate(-76.861 -203.923)"/>
    <path id="Trazado_102432" data-name="Trazado 102432" d="M124.609,318.564H107.935a2.034,2.034,0,0,1,0-4.068h16.673a2.034,2.034,0,0,1,0,4.068Zm0,0" transform="translate(-76.861 -229.335)"/>
    <path id="Trazado_102433" data-name="Trazado 102433" d="M132.72,374.916H107.935a2.034,2.034,0,0,1,0-4.068H132.72a2.034,2.034,0,1,1,0,4.068Zm0,0" transform="translate(-76.861 -270.427)"/>
    <path id="Trazado_102434" data-name="Trazado 102434" d="M141.281,409.762H107.935a2.034,2.034,0,0,1,0-4.067h33.346a2.034,2.034,0,1,1,0,4.067Zm0,0" transform="translate(-76.861 -295.839)"/>
    <path id="Trazado_102435" data-name="Trazado 102435" d="M42.348,198.466a8.216,8.216,0,1,1,8.216-8.216A8.225,8.225,0,0,1,42.348,198.466Zm0-12.363a4.147,4.147,0,1,0,4.147,4.147A4.152,4.152,0,0,0,42.348,186.1Zm0,0" transform="translate(-24.526 -132.743)"/>
    <path id="Trazado_102436" data-name="Trazado 102436" d="M42.348,290.673a8.216,8.216,0,1,1,8.216-8.216A8.225,8.225,0,0,1,42.348,290.673Zm0-12.363a4.148,4.148,0,1,0,4.147,4.148A4.152,4.152,0,0,0,42.348,278.31Zm0,0" transform="translate(-24.526 -199.981)"/>
    <path id="Trazado_102437" data-name="Trazado 102437" d="M42.348,381.873a8.216,8.216,0,1,1,8.216-8.216A8.225,8.225,0,0,1,42.348,381.873Zm0-12.363a4.147,4.147,0,1,0,4.147,4.147A4.152,4.152,0,0,0,42.348,369.51Zm0,0" transform="translate(-24.526 -266.485)"/>
    <path id="Trazado_102438" data-name="Trazado 102438" d="M79.148,34.463a6.685,6.685,0,1,0-9.454,9.453L81.081,55.3a6.684,6.684,0,0,0,9.453,0l24.331-24.331a6.684,6.684,0,1,0-9.453-9.453L102.729,24.2a25.839,25.839,0,0,0-6.48-3.613V17.548a6.692,6.692,0,0,0-6.684-6.685H68.6V8.542A8.552,8.552,0,0,0,60.062,0H36.687a8.552,8.552,0,0,0-8.542,8.542v9.652a4.752,4.752,0,0,0,4.746,4.746H63.859A4.752,4.752,0,0,0,68.6,18.195V14.931H89.564a2.62,2.62,0,0,1,2.617,2.617v1.873a25.834,25.834,0,1,0,0,50.648v61.889a2.619,2.619,0,0,1-2.617,2.616H7.184a2.618,2.618,0,0,1-2.616-2.616V17.548a2.619,2.619,0,0,1,2.616-2.617H20.705a2.034,2.034,0,1,0,0-4.068H7.184A6.692,6.692,0,0,0,.5,17.548v114.41a6.692,6.692,0,0,0,6.684,6.684H89.565a6.692,6.692,0,0,0,6.684-6.684V68.893a25.851,25.851,0,0,0,16.633-23.25,2.034,2.034,0,1,0-4.066-.14A21.661,21.661,0,0,1,93.749,65.472a1.932,1.932,0,0,0-.34.111,21.778,21.778,0,1,1-6.35-42.612,21.732,21.732,0,0,1,12.764,4.137L85.808,41.125ZM64.537,18.195a.678.678,0,0,1-.678.678H32.891a.678.678,0,0,1-.678-.678V8.542a4.479,4.479,0,0,1,4.474-4.474H60.062a4.479,4.479,0,0,1,4.474,4.474Zm43.752,6.2a2.616,2.616,0,1,1,3.7,3.7L87.657,52.428a2.615,2.615,0,0,1-3.7,0L72.569,41.04a2.617,2.617,0,1,1,3.7-3.7l8.1,8.1a2.033,2.033,0,0,0,2.876,0Zm0,0"/>
  </g>
</svg>
