<svg xmlns="http://www.w3.org/2000/svg" width="416" height="258.378" viewBox="0 0 416 258.378">
  <g id="Grupo_56470" data-name="Grupo 56470" transform="translate(-131.92 -150.285)">
    <g id="Grupo_56323" data-name="Grupo 56323" transform="translate(463.043 243.005)">
      <g id="Grupo_56319" data-name="Grupo 56319" transform="translate(75.776 87.329)">
        <g id="Grupo_56318" data-name="Grupo 56318">
          <g id="Grupo_56317" data-name="Grupo 56317">
            <path id="Trazado_103179" data-name="Trazado 103179" d="M2812.788,1334.521s-.3,1.619-1.206,1.858a5.271,5.271,0,0,0-1.887,1.276c-.352.337-1.815.971-1.394,1.418s2.464-.928,2.949-1.131-.21,2.046-.013,2.558,3.988,1.453,4.287-.146-.437-3.505-.329-3.776a10.02,10.02,0,0,0,.264-1.155Z" transform="translate(-2808.225 -1334.521)" fill="#eea886"/>
          </g>
        </g>
      </g>
      <g id="Grupo_56322" data-name="Grupo 56322" transform="translate(78.36 92.918)">
        <g id="Grupo_56321" data-name="Grupo 56321">
          <g id="Grupo_56320" data-name="Grupo 56320">
            <path id="Trazado_103180" data-name="Trazado 103180" d="M2825.628,1371.281s-.59,4.957-.353,5.32.508.379.582-.082.709-4.772.709-4.772.288,5.984.416,6.324c.076.2.6.261.661.018s.117-6.19.117-6.19.278,5.587.471,5.839a.385.385,0,0,0,.67-.258c.008-.416.042-5.615.042-5.615s.458,4.053.747,4.171c.177.072.625.146.475-.9s-.25-3.538-.25-3.538Z" transform="translate(-2825.219 -1371.281)" fill="#eea886"/>
          </g>
        </g>
      </g>
      <rect id="Rectángulo_9409" data-name="Rectángulo 9409" width="23.772" height="23.772" transform="matrix(0.997, -0.072, 0.072, 0.997, 0, 1.718)" fill="#fdd835"/>
      <path id="Trazado_103181" data-name="Trazado 103181" d="M2429.335,881.38a13.619,13.619,0,0,1-1.093-2.734,7.082,7.082,0,0,0-2.409-3.213c-.617-.383-5.089-3.587-5.607-3.587s-.217.994.23,1.284,4.08,3.119,4.08,3.119-4.52-3.118-4.992-3.033-.808.684-.3,1.3a.846.846,0,0,0,.044,1.5l2.135,1.651s-1.257-.653-.79.356c.249.537,2.875,2.105,3.3,2.584a28.516,28.516,0,0,0,3.735,2.094Z" transform="translate(-2402.229 -854.862)" fill="#eea886"/>
      <path id="Trazado_103182" data-name="Trazado 103182" d="M2570.9,1781.586h-1.12s.374-4.231-.664-4.273-3.608,3.443-5.144,3.983-9.416.995-9.457-.457,3.027-2.033,3.982-2.447,5.6-4.937,6.43-5.476,2.2-3.277,2.2-3.277h4.23s.464,2.3.731,4.152a16.262,16.262,0,0,1,.182,1.738C2572.309,1777.106,2570.9,1781.586,2570.9,1781.586Z" transform="translate(-2517.311 -1616.156)" fill="#eea886"/>
      <path id="Trazado_103183" data-name="Trazado 103183" d="M2713.036,1771.077h-.934v-3.938c-.778.065-3.392,2.539-4.2,3.255s-1.918.683-5.325.9-3.728-1.823-3.189-2.517,2.282-1,3.189-1.431,4.486-4.469,5.44-5.424,1.535-3.688,1.535-3.688l3.982.347a24.4,24.4,0,0,0,.428,4.6h0a.1.1,0,0,1,0,.016q.058.269.127.525C2714.684,1765.9,2713.036,1771.077,2713.036,1771.077Z" transform="translate(-2639.981 -1606.484)" fill="#eea886"/>
      <path id="Trazado_103184" data-name="Trazado 103184" d="M2729.048,957.8s1.944,4.1.906,7.454c0,0,5.98-.815,6.158-1.515s-.749-6.987-.059-8.915S2729.048,957.8,2729.048,957.8Z" transform="translate(-2665.31 -924.846)" fill="#eea886"/>
      <path id="Trazado_103185" data-name="Trazado 103185" d="M2676.44,1012.323s-3.461,1.486-5.04,1.943-4.824,2.248-4.129,8.054a118.814,118.814,0,0,0,2.608,13.262,51.532,51.532,0,0,1,.412,12,46.319,46.319,0,0,0,18.523-1.342s-2.157-5.151-2.211-6.519,5-13.035,5.147-14.83.761-9.708-2.05-11.244-4.979-1.149-6.172-1.84S2678.06,1011.648,2676.44,1012.323Z" transform="translate(-2612.843 -973.27)" fill="#f57c00"/>
      <path id="Trazado_103186" data-name="Trazado 103186" d="M2507.8,949.781s1.329-6.973-5.431-6.962c-5.942.01-11.556-1.116-12.5-1.639s-4.576-2.31-6.485-4.273-12.25-9.827-12.25-9.827l-2.858,2.891s10.909,11.846,12.668,13,16.527,9.4,18.4,9.662S2506.482,954.325,2507.8,949.781Z" transform="translate(-2444.187 -901.698)" fill="#f57c00"/>
      <path id="Trazado_103187" data-name="Trazado 103187" d="M2807.941,1057.8c.2,2.456-1.134,19.411-1.134,19.411l-4.808.554s.342-16.746.611-20.609a19.42,19.42,0,0,0-.595-4.773h0c-.26-1.2-.581-2.461-.911-3.664-.909-3.322-1.889-6.207-1.889-6.207s-5.384-14,1.37-13.437a16.288,16.288,0,0,1,3.573,6.834,83.748,83.748,0,0,1,2.325,13.145C2806.531,1051.587,2807.793,1055.992,2807.941,1057.8Z" transform="translate(-2723.085 -988.168)" fill="#f57c00"/>
      <path id="Trazado_103188" data-name="Trazado 103188" d="M2643.381,1231.58a41.074,41.074,0,0,0-1.688,4.595c-.137.927-5,13.035-5.339,16.578-.342,3.582-1.369,13.142-1.734,14.511s.821,7.483,1,8.852.091,23.728-1.552,34.771c0,0,3.833,1.643,6.753,0,0,0,4.837-17.248,4.563-27.2s-1.536-14.146.008-18.161,10.579-16.062,11.491-17.34,6.629-8.338,1.216-15.988S2643.381,1231.58,2643.381,1231.58Z" transform="translate(-2584.774 -1157.403)" fill="#f6f6f6"/>
      <path id="Trazado_103189" data-name="Trazado 103189" d="M2729.731,1261.478c-.48,3.2.025,7.392,1.028,19.075s-1.756,25.826-1.756,25.826a14.016,14.016,0,0,1-7.461,0c.092-.821,0-28.474,0-30.937s-.708-5.261-.889-8.089a57.7,57.7,0,0,0-2.03-9.109c-.3-1.087-.615-2.18-.919-3.238h0c-.171-.593-.338-1.176-.5-1.74-1.421-4.928-3.332-23.958-3.332-23.958s10.591-8.531,15.748-.5,2.509,13.871,2.328,14.875S2730.212,1258.284,2729.731,1261.478Z" transform="translate(-2652.44 -1154.63)" fill="#e8e8e8"/>
      <path id="Trazado_103190" data-name="Trazado 103190" d="M2672.744,1060.978s.942,15.12-1.874,23.628c0,0,11.185,1.865,25.453-2.943,0,0-3.925-10.163-3.789-11.752s4.265-20.095,2.283-24.235S2673.448,1047.412,2672.744,1060.978Z" transform="translate(-2615.977 -1001.156)" fill="#f57c00"/>
      <path id="Trazado_103191" data-name="Trazado 103191" d="M2698.558,866c-2.557-.1-9.086.887-7.87,10.727s4.769,8.988,8.288,7.68,7.244-9.263,7.1-11.311S2705.854,866.3,2698.558,866Z" transform="translate(-2632.655 -849.902)" fill="#eea886"/>
      <path id="Trazado_103192" data-name="Trazado 103192" d="M2691.713,866.832s3.121,3.437,6.057,4.1c0,0,2.5,3.794,6.428,4.522,0,0,7.657-8.463.31-13.879S2691.449,863.816,2691.713,866.832Z" transform="translate(-2633.643 -844.552)" fill="#454442"/>
      <path id="Trazado_103193" data-name="Trazado 103193" d="M2727.16,919.039a1.244,1.244,0,0,1,2.188-.57c1.012,1.162-.464,4.151-1.1,4.2S2726.944,921.113,2727.16,919.039Z" transform="translate(-2663.673 -893.977)" fill="#eea886"/>
      <path id="Trazado_103194" data-name="Trazado 103194" d="M2746.716,1350.022c-.082.182-5.36,11.9-6.717,13.927-.3-1.087-.615-2.179-.919-3.237v0S2746.54,1350.279,2746.716,1350.022Z" transform="translate(-2673.816 -1260.336)" fill="#c9b9b3"/>
      <path id="Trazado_103195" data-name="Trazado 103195" d="M2824.129,1103.5a85.114,85.114,0,0,1-.236,12.007c-.26-1.2-.581-2.461-.911-3.665C2823.008,1111.67,2824.031,1104.673,2824.129,1103.5Z" transform="translate(-2744.962 -1051.293)" fill="#f57c00"/>
      <path id="Trazado_103196" data-name="Trazado 103196" d="M2704.679,860.858s8.9-.2,7.561,15.084c-1.028,11.751,3.293,17.556,2.685,19.269s-2.7,4.575-7.366,1.994-1.6-16.048-4.106-21.289-8.018-7.669-8.018-7.669S2696.4,859.323,2704.679,860.858Z" transform="translate(-2636.806 -845.393)" fill="#454442"/>
      <path id="Trazado_103197" data-name="Trazado 103197" d="M2661.365,1065.476s-2.288,8.167-2.771,9.881c-.628,2.227,2.542,5.507,5.122,4.22S2661.365,1065.476,2661.365,1065.476Z" transform="translate(-2605.499 -1019.052)" fill="#f57c00"/>
      <path id="Trazado_103198" data-name="Trazado 103198" d="M2713.036,1794.467h-.934v-3.939c-.778.065-3.392,2.539-4.2,3.255s-1.918.684-5.325.9-3.728-1.823-3.189-2.517,2.282-1,3.189-1.431c3.645.195,8.092-4.929,10.227-4.919,1.134.006,1.124.634,1.158.753h0a.107.107,0,0,1,0,.016q.058.269.127.525C2714.684,1789.292,2713.036,1794.467,2713.036,1794.467Z" transform="translate(-2639.981 -1629.873)" fill="#f57c00"/>
      <path id="Trazado_103199" data-name="Trazado 103199" d="M2570.9,1804.021h-1.12s.374-4.231-.664-4.273-3.608,3.443-5.144,3.982-9.416.995-9.457-.457,3.027-2.033,3.982-2.447c3.25-.008,8.537-3.586,10.177-4.311a5.918,5.918,0,0,1,3.413-.29,16.265,16.265,0,0,1,.182,1.738C2572.309,1799.541,2570.9,1804.021,2570.9,1804.021Z" transform="translate(-2517.311 -1638.591)" fill="#f57c00"/>
    </g>
    <g id="Grupo_56362" data-name="Grupo 56362" transform="translate(197.863 191.226)">
      <g id="Grupo_56361" data-name="Grupo 56361" transform="translate(0)">
        <g id="Grupo_56324" data-name="Grupo 56324" transform="translate(65.17 161.046)">
          <path id="Trazado_103200" data-name="Trazado 103200" d="M999.222,1478.816s2.405,2.158,3.928,3.342,8.03,2.182,8.289,2.533c.364.492,1.443,2.968-3,3.264s-5.458-.8-7.7-.973-4.612.127-5.924-.889.272-7.1.272-7.1Z" transform="translate(-994.294 -1478.816)" fill="#323657"/>
        </g>
        <g id="Grupo_56325" data-name="Grupo 56325" transform="translate(65.519 167.402)">
          <path id="Trazado_103201" data-name="Trazado 103201" d="M1008.359,1522.857a10.841,10.841,0,0,0,4.742-1.048.117.117,0,0,0-.112-.2,10.921,10.921,0,0,1-7.915.51,20.759,20.759,0,0,0-5.7-.908c-1.227-.057-2.114-.1-2.591-.547a.117.117,0,1,0-.16.17c.541.509,1.463.552,2.741.611a20.532,20.532,0,0,1,5.639.9A11.053,11.053,0,0,0,1008.359,1522.857Z" transform="translate(-996.585 -1520.627)" fill="#646aac"/>
        </g>
        <g id="Grupo_56326" data-name="Grupo 56326" transform="translate(69.539 162.706)">
          <path id="Trazado_103202" data-name="Trazado 103202" d="M1023.142,1491.132a.117.117,0,0,0,.069-.023l1.566-1.164a.117.117,0,1,0-.139-.187l-1.566,1.164a.117.117,0,0,0,.07.211Z" transform="translate(-1023.025 -1489.735)" fill="#646aac"/>
        </g>
        <g id="Grupo_56327" data-name="Grupo 56327" transform="translate(70.602 163.288)">
          <path id="Trazado_103203" data-name="Trazado 103203" d="M1030.134,1494.752a.119.119,0,0,0,.07-.023l1.285-.956a.117.117,0,1,0-.139-.187l-1.285.955a.117.117,0,0,0,.07.211Z" transform="translate(-1030.017 -1493.563)" fill="#646aac"/>
        </g>
        <g id="Grupo_56328" data-name="Grupo 56328" transform="translate(71.806 163.869)">
          <path id="Trazado_103204" data-name="Trazado 103204" d="M1038.053,1498.265a.12.12,0,0,0,.069-.023l.865-.643a.117.117,0,0,0-.139-.187l-.865.643a.117.117,0,0,0,.07.21Z" transform="translate(-1037.936 -1497.389)" fill="#646aac"/>
        </g>
        <g id="Grupo_56329" data-name="Grupo 56329" transform="translate(23.12 161.046)">
          <path id="Trazado_103205" data-name="Trazado 103205" d="M722.614,1478.822s2.431,2.157,3.955,3.341,8.03,2.182,8.289,2.533c.365.492,1.443,2.968-3,3.264s-5.459-.8-7.7-.973-4.612.127-5.924-.889.3-7.1.3-7.1Z" transform="translate(-717.718 -1478.822)" fill="#323657"/>
        </g>
        <g id="Grupo_56330" data-name="Grupo 56330" transform="translate(17.848 74.918)">
          <path id="Trazado_103206" data-name="Trazado 103206" d="M710.917,921.106s3.568,9.958,4.974,13.44c1.137,2.817,6.854,21.325,7.616,25.609s2.094,9.14,2.38,12.281,8.378,24.181,9.33,25.7-2.573,1.886-4.191,1.029c0,0-9.738-13.318-12.023-21.125s-1.208-11.225-2.541-13.605-16.36-27.72-17.216-30-1.634,9.441-1.919,15.058-2,16.375-2.57,17.993-2.091,27.671-1.523,30.18c.512,2.262-3.614,2.251-3.91,1.542-.608-1.454-4.972-17.46-3.544-25.456a62.388,62.388,0,0,0-.068-21.5c-1.047-6.378-5.112-18.123-.557-33.623S710.917,921.106,710.917,921.106Z" transform="translate(-683.041 -912.33)" fill="#f57c00"/>
        </g>
        <g id="Grupo_56331" data-name="Grupo 56331" transform="translate(24.238 11.234)">
          <path id="Trazado_103207" data-name="Trazado 103207" d="M727.016,493.5a9.44,9.44,0,0,1,9.965,6.664c4.792,13.963-.539,20.215.476,23.453s.605,3.332.605,3.332l-4.43-4.633S720.161,503.59,727.016,493.5Z" transform="translate(-725.072 -493.458)" fill="#1c4154"/>
        </g>
        <g id="Grupo_56332" data-name="Grupo 56332" transform="translate(26.678 30.655)">
          <path id="Trazado_103208" data-name="Trazado 103208" d="M748.827,624.2s-.7,5.214,1.008,8.016-8.651-.686-8.651-.686.876-5.236,0-9S748.827,624.2,748.827,624.2Z" transform="translate(-741.121 -621.199)" fill="#eea886"/>
        </g>
        <g id="Grupo_56333" data-name="Grupo 56333" transform="translate(64.155 25.989)">
          <path id="Trazado_103209" data-name="Trazado 103209" d="M990.356,594.842s.86-3.149.273-4.164-3.015,2.888-3.015,2.888Z" transform="translate(-987.614 -590.51)" fill="#eea886"/>
        </g>
        <g id="Grupo_56336" data-name="Grupo 56336" transform="translate(16.738 83.027)">
          <g id="Grupo_56334" data-name="Grupo 56334">
            <path id="Trazado_103210" data-name="Trazado 103210" d="M677.576,965.786a1.665,1.665,0,0,0,.962.4c.754-.073,1.526-.916,2.392-.289s-.459,3.738-1.018,4.138-2.043.45-3.681-1.066S677.576,965.786,677.576,965.786Z" transform="translate(-675.74 -965.664)" fill="#eea886"/>
          </g>
          <g id="Grupo_56335" data-name="Grupo 56335" transform="translate(2.511 0.032)">
            <path id="Trazado_103211" data-name="Trazado 103211" d="M694.591,965.875s1.579.37,3.3.971c1.506.528,3.153,1.407,3.166,1.733.015.362-1.589-.315-3.119-.744-1.409-.395-2.729-.667-2.729-.667a25.764,25.764,0,0,1,2.923,1.2c1.557.765,3.072,1.7,3.042,2.084-.015.188-.618.07-1.446-.182.624.288,1.03.536.964.672-.344.7-4.575-.674-5.557-.988.752.245,3.037,1.089,2.528,1.388-.582.343-3.775-.825-5.095-.914S694.591,965.875,694.591,965.875Z" transform="translate(-692.256 -965.875)" fill="#eea886"/>
          </g>
        </g>
        <g id="Grupo_56337" data-name="Grupo 56337" transform="translate(56.669 4.007)">
          <path id="Trazado_103212" data-name="Trazado 103212" d="M941.508,458.444a2.907,2.907,0,1,0-1.467-5.081l1.105-7.439,18.642,2.769-1.12,7.539a2.908,2.908,0,1,0-.529,3.564l-1.12,7.539-18.643-2.769,1.1-7.439A2.9,2.9,0,0,0,941.508,458.444Z" transform="translate(-938.377 -445.924)" fill="#26ccda"/>
        </g>
        <g id="Grupo_56338" data-name="Grupo 56338" transform="translate(62.707 23.651)">
          <path id="Trazado_103213" data-name="Trazado 103213" d="M978.125,577.611a2.907,2.907,0,1,0,3.3-2.449A2.908,2.908,0,0,0,978.125,577.611Z" transform="translate(-978.093 -575.13)" fill="#26ccda"/>
        </g>
        <g id="Grupo_56339" data-name="Grupo 56339" transform="translate(66.22)">
          <path id="Trazado_103214" data-name="Trazado 103214" d="M1001.231,422.05a2.907,2.907,0,1,0,3.3-2.448A2.907,2.907,0,0,0,1001.231,422.05Z" transform="translate(-1001.199 -419.57)" fill="#26ccda"/>
        </g>
        <g id="Grupo_56340" data-name="Grupo 56340" transform="translate(20.428 12.737)">
          <path id="Trazado_103215" data-name="Trazado 103215" d="M713.338,506.556a22.407,22.407,0,0,1,3.47,12.229c-.042,7.32-6.22,6.347-9.521,4.485s-7.236-9.224-7.278-13.117S707.88,499.194,713.338,506.556Z" transform="translate(-700.009 -503.344)" fill="#eea886"/>
        </g>
        <g id="Grupo_56341" data-name="Grupo 56341" transform="translate(0 34.948)">
          <path id="Trazado_103216" data-name="Trazado 103216" d="M602.495,656.291s8.315,3.3,10.6,4.888,9.013,8.188,10.156,7.49,3.047-18.279,3.428-19.232l4.57,1.015s-.508,26.214-1.523,27.484-4.887.19-10.473-2.793a45.1,45.1,0,0,1-8.917-6.125,14,14,0,0,1-.115,7.161c-1.7,4.709-1.885,5.206-1.334,9.353.462,3.481,2.863,12.017,2.489,12.652s-13.639,2.475-25.762-2.475c0,0-.7-.381,0-2.412s3.427-5.839,2.158-11.869-2.707-12.906-4.273-11.255c-.586.618-9.183,10.684-9.564,12.715s10.346,14.218,10.346,14.6-1.38,1.862-2.095,3.428c0,0-15.677-13.519-16.5-16.312s14.281-22.977,15.487-24.373,9.267-4.633,10.346-4.761S602.495,656.291,602.495,656.291Z" transform="translate(-565.649 -649.436)" fill="#e6c532"/>
        </g>
        <g id="Grupo_56342" data-name="Grupo 56342" transform="translate(60.546 23.791)">
          <path id="Trazado_103217" data-name="Trazado 103217" d="M964.772,587.3s.8-3.8.18-4.28c-.963-.741-1.44-2.562-.738-3.3,1.4-1.47,1.682-2.519,2.475-3.438.693-.8.7.577-.352,2.946-.569,1.286,2.452,2.343,3.594,2.639s-.894,2.422-1,3.438-.381,2.835-.381,2.835Z" transform="translate(-963.879 -576.051)" fill="#eea886"/>
        </g>
        <g id="Grupo_56343" data-name="Grupo 56343" transform="translate(20.154 12.304)">
          <path id="Trazado_103218" data-name="Trazado 103218" d="M707.92,504.733a12.81,12.81,0,0,1-6.915,10.513s-3.833-1.945-2.522-8.99,9.627-5.649,10.008-5.649,5.585,4.316,6.22,8a27.029,27.029,0,0,1,.572,3.935S712.553,506.319,707.92,504.733Z" transform="translate(-698.21 -500.494)" fill="#1c4154"/>
        </g>
        <g id="Grupo_56344" data-name="Grupo 56344" transform="translate(64.615 29.016)">
          <path id="Trazado_103219" data-name="Trazado 103219" d="M991.714,612.172l.154-.022a3.158,3.158,0,0,0-1.132-1.733l-.1.123A3.061,3.061,0,0,1,991.714,612.172Z" transform="translate(-990.641 -610.417)" fill="#bc856b"/>
        </g>
        <g id="Grupo_56345" data-name="Grupo 56345" transform="translate(25.776 37.467)">
          <path id="Trazado_103220" data-name="Trazado 103220" d="M746.255,670.337s.234-2.285.381-2.708-5.53-1-6.877-1.227c-1.3-.22-4.4-.635-4.528-.233a28.018,28.018,0,0,0,.042,3.343S743.886,671.9,746.255,670.337Z" transform="translate(-735.185 -666.001)" fill="#cbdacd"/>
        </g>
        <g id="Grupo_56346" data-name="Grupo 56346" transform="translate(16.598 11.274)">
          <path id="Trazado_103221" data-name="Trazado 103221" d="M684.4,493.722s-8.058,1.015-6.028,12.821-4.762,18.47-3.365,22.469,6.03,3.11,8.061,0-.088-3.613,1.892-5.583,1.669-7.027-.432-9.672S679.58,509.082,684.4,493.722Z" transform="translate(-674.819 -493.722)" fill="#1c4154"/>
        </g>
        <g id="Grupo_56347" data-name="Grupo 56347" transform="translate(23.464 167.402)">
          <path id="Trazado_103222" data-name="Trazado 103222" d="M731.75,1522.857a10.842,10.842,0,0,0,4.741-1.048.117.117,0,0,0-.112-.2,10.92,10.92,0,0,1-7.915.51,20.76,20.76,0,0,0-5.7-.908c-1.228-.057-2.115-.1-2.592-.547a.117.117,0,1,0-.16.17c.54.509,1.464.552,2.741.611a20.532,20.532,0,0,1,5.639.9A11.053,11.053,0,0,0,731.75,1522.857Z" transform="translate(-719.976 -1520.627)" fill="#646aac"/>
        </g>
        <g id="Grupo_56348" data-name="Grupo 56348" transform="translate(27.483 162.706)">
          <path id="Trazado_103223" data-name="Trazado 103223" d="M746.533,1491.132a.116.116,0,0,0,.069-.023l1.566-1.164a.117.117,0,1,0-.139-.187l-1.566,1.164a.117.117,0,0,0,.07.211Z" transform="translate(-746.416 -1489.735)" fill="#646aac"/>
        </g>
        <g id="Grupo_56349" data-name="Grupo 56349" transform="translate(28.547 163.288)">
          <path id="Trazado_103224" data-name="Trazado 103224" d="M753.525,1494.752a.117.117,0,0,0,.069-.023l1.285-.956a.117.117,0,1,0-.139-.187l-1.285.955a.117.117,0,0,0,.07.211Z" transform="translate(-753.408 -1493.563)" fill="#646aac"/>
        </g>
        <g id="Grupo_56350" data-name="Grupo 56350" transform="translate(29.75 163.869)">
          <path id="Trazado_103225" data-name="Trazado 103225" d="M761.443,1498.265a.119.119,0,0,0,.069-.023l.864-.643a.117.117,0,1,0-.139-.187l-.864.643a.117.117,0,0,0-.024.163A.118.118,0,0,0,761.443,1498.265Z" transform="translate(-761.326 -1497.389)" fill="#646aac"/>
        </g>
        <g id="Grupo_56351" data-name="Grupo 56351" transform="translate(34.516 86.997)">
          <path id="Trazado_103226" data-name="Trazado 103226" d="M792.76,1001.189c2.959-.9,5.245-3.379,6.642-5.3a23.572,23.572,0,0,0,2.341-3.989l-.286-.124c-.032.074-3.275,7.443-8.788,9.116Z" transform="translate(-792.669 -991.774)" fill="#f57c00"/>
        </g>
        <g id="Grupo_56352" data-name="Grupo 56352" transform="translate(35.498 88.858)">
          <path id="Trazado_103227" data-name="Trazado 103227" d="M799.354,1011.135c.183-.185,4.489-4.572,5.169-7.036l-.3-.083c-.659,2.387-5.046,6.856-5.091,6.9Z" transform="translate(-799.132 -1004.015)" fill="#f57c00"/>
        </g>
        <g id="Grupo_56353" data-name="Grupo 56353" transform="translate(41.968 48.425)">
          <path id="Trazado_103228" data-name="Trazado 103228" d="M843.943,743.545l.307-.056c-.027-.147-.673-3.62-2.335-5.41l-.228.212C843.288,740.015,843.937,743.509,843.943,743.545Z" transform="translate(-841.687 -738.079)" fill="#c7ab2d"/>
        </g>
        <g id="Grupo_56354" data-name="Grupo 56354" transform="translate(41.412 49.586)">
          <path id="Trazado_103229" data-name="Trazado 103229" d="M840.688,749.3l.271-.153a14.353,14.353,0,0,0-2.733-3.439l-.2.24A14.319,14.319,0,0,1,840.688,749.3Z" transform="translate(-838.028 -745.71)" fill="#c7ab2d"/>
        </g>
        <g id="Grupo_56355" data-name="Grupo 56355" transform="translate(25.257 62.377)">
          <path id="Trazado_103230" data-name="Trazado 103230" d="M731.911,832.1c5.763-2.835,15.231-1.742,15.326-1.731l.037-.31c-.1-.011-9.655-1.114-15.5,1.761Z" transform="translate(-731.774 -829.843)" fill="#c7ab2d"/>
        </g>
        <g id="Grupo_56356" data-name="Grupo 56356" transform="translate(27.042 63.23)">
          <path id="Trazado_103231" data-name="Trazado 103231" d="M743.563,836.161c.057-.01,5.8-.887,10.041,0l.063-.3c-4.294-.9-10.095-.011-10.153,0Z" transform="translate(-743.515 -835.453)" fill="#c7ab2d"/>
        </g>
        <g id="Grupo_56357" data-name="Grupo 56357" transform="translate(4.336 67.796)">
          <path id="Trazado_103232" data-name="Trazado 103232" d="M594.362,866.313c.992-.794,3.113-.437,3.134-.433l.053-.307c-.093-.016-2.282-.383-3.382.5Z" transform="translate(-594.167 -865.484)" fill="#c7ab2d"/>
        </g>
        <g id="Grupo_56358" data-name="Grupo 56358" transform="translate(5.084 67.815)">
          <path id="Trazado_103233" data-name="Trazado 103233" d="M599.4,867.938a3.616,3.616,0,0,1,1.729-2.051l-.146-.275a3.862,3.862,0,0,0-1.889,2.267Z" transform="translate(-599.09 -865.612)" fill="#c7ab2d"/>
        </g>
        <g id="Grupo_56359" data-name="Grupo 56359" transform="translate(27.431 32.43)">
          <path id="Trazado_103234" data-name="Trazado 103234" d="M751.1,634.582a4.179,4.179,0,0,0,1.507-.225l-.09-.216c-.023.009-2.349.924-6.331-1.269l-.113.2A10.509,10.509,0,0,0,751.1,634.582Z" transform="translate(-746.071 -632.872)" fill="#1c4154"/>
        </g>
        <g id="Grupo_56360" data-name="Grupo 56360" transform="translate(62.222 26.758)">
          <path id="Trazado_103235" data-name="Trazado 103235" d="M975.777,595.568a8.539,8.539,0,0,1,.763,2.224c-.065.468-1.635-1.35-1.635-1.35Z" transform="translate(-974.905 -595.568)" fill="#eea886"/>
        </g>
      </g>
    </g>
    <g id="Grupo_56392" data-name="Grupo 56392" transform="translate(256.684 150.285)">
      <g id="Grupo_56391" data-name="Grupo 56391" transform="translate(0 0)">
        <g id="Grupo_56363" data-name="Grupo 56363" transform="translate(43.735 78.435)">
          <path id="Trazado_103236" data-name="Trazado 103236" d="M1311.3,715.713a11.183,11.183,0,1,1,8.13-18.86v-30.68h-33.036a11.182,11.182,0,1,1-13.167,0H1240.19v76.713h33.216a11.182,11.182,0,1,1,12.805,0h33.217V712.208A11.151,11.151,0,0,1,1311.3,715.713Z" transform="translate(-1240.19 -666.174)" fill="#26ccda"/>
        </g>
        <g id="Grupo_56364" data-name="Grupo 56364" transform="translate(26.166 105.609)">
          <path id="Trazado_103237" data-name="Trazado 103237" d="M1147,856.088a11.182,11.182,0,1,1-11.183-11.182A11.183,11.183,0,0,1,1147,856.088Z" transform="translate(-1124.635 -844.906)" fill="#26ccda"/>
        </g>
        <g id="Grupo_56365" data-name="Grupo 56365" transform="translate(95.509 73.908)">
          <path id="Trazado_103238" data-name="Trazado 103238" d="M1585.229,638.287s.015,0,.758.127,2.653-.545,3.353-.3,4.714,2.222,4.9,2.71-8.488.469-10.517-.217c-1.412-.478-2.069-2.232-2.919-3.781C1579.982,635.32,1585.229,638.287,1585.229,638.287Z" transform="translate(-1580.72 -636.401)" fill="#eea886"/>
        </g>
        <g id="Grupo_56366" data-name="Grupo 56366" transform="translate(27.932 29.79)">
          <path id="Trazado_103239" data-name="Trazado 103239" d="M1140.267,347.37l-1.387-1.146s-2.8.8-2.626,2.706l2.088,2.506Z" transform="translate(-1136.247 -346.224)" fill="#eea886"/>
        </g>
        <g id="Grupo_56367" data-name="Grupo 56367" transform="translate(34.129 112.202)">
          <path id="Trazado_103240" data-name="Trazado 103240" d="M1186.824,888.387a34.55,34.55,0,0,1-2.745,4.665c-1.33,1.754-6.96,2.773-7.073,4.017s7.186,1.287,9.818.241,5.913-.184,6.055-1.542-1.471-7.5-1.471-7.5Z" transform="translate(-1177.005 -888.27)" fill="#272a45"/>
        </g>
        <g id="Grupo_56368" data-name="Grupo 56368" transform="translate(55.409 112.23)">
          <path id="Trazado_103241" data-name="Trazado 103241" d="M1324.172,890.379s-.71,2.648-1.5,4.7-5.922,4.589-5.687,5.817,7.724-.887,9.963-2.62,5.17-1.675,4.931-3.019-3.487-6.8-3.487-6.8Z" transform="translate(-1316.974 -888.459)" fill="#323657"/>
        </g>
        <g id="Grupo_56369" data-name="Grupo 56369" transform="translate(43.948 111.076)">
          <path id="Trazado_103242" data-name="Trazado 103242" d="M1241.587,880.868v1.242s2.738.987,4.584-.117l-.132-1.125Z" transform="translate(-1241.587 -880.868)" fill="#eea886"/>
        </g>
        <g id="Grupo_56370" data-name="Grupo 56370" transform="translate(62.108 111.185)">
          <path id="Trazado_103243" data-name="Trazado 103243" d="M1361.032,882.814l.5,1.734a5.453,5.453,0,0,0,4.218-1.92l-.438-1.045Z" transform="translate(-1361.032 -881.583)" fill="#eea886"/>
        </g>
        <g id="Grupo_56371" data-name="Grupo 56371" transform="translate(35.94 62.182)">
          <path id="Trazado_103244" data-name="Trazado 103244" d="M1210.9,559.288s-21.869,8.669-21.982,10.933,8.092,34.462,7.639,37.8a6.428,6.428,0,0,0,5.149,0s-.565-15.561-1.131-21.616a33.9,33.9,0,0,1,.509-10.355l27.425-12.5S1222.526,558.993,1210.9,559.288Z" transform="translate(-1188.916 -559.274)" fill="#e8e8e8"/>
        </g>
        <g id="Grupo_56372" data-name="Grupo 56372" transform="translate(45.636 60.297)">
          <path id="Trazado_103245" data-name="Trazado 103245" d="M1284.277,546.878a14.174,14.174,0,0,1,3.48,11.53c-.849,7.413-11.43,6.564-11.43,6.564h-11.487a60.654,60.654,0,0,1,4.357,14.373c.905,6.79,4.583,18.5,4.583,18.5s-2.433,2.207-4.754,1.98c0,0-11.769-25.8-12.674-27.388s-4.98-11.487-3.226-12.959,12.506-8.072,17.711-9.242S1284.277,546.878,1284.277,546.878Z" transform="translate(-1252.693 -546.878)" fill="#f6f6f6"/>
        </g>
        <g id="Grupo_56373" data-name="Grupo 56373" transform="translate(58.395)">
          <path id="Trazado_103246" data-name="Trazado 103246" d="M1348.28,150.359s5.093-.622,6.565,4.018,2.207,15.958,4.414,17.429-6.522,1.941-9.882.263-11.07.567-11.975.793S1333.851,148.775,1348.28,150.359Z" transform="translate(-1336.613 -150.285)" fill="#1c4154"/>
        </g>
        <g id="Grupo_56374" data-name="Grupo 56374" transform="translate(20.673 25.465)">
          <path id="Trazado_103247" data-name="Trazado 103247" d="M1090.979,321.107s-2.358-1.881-2.473-2.959,3.823.512,3.823.512Z" transform="translate(-1088.503 -317.774)" fill="#eea886"/>
        </g>
        <g id="Grupo_56375" data-name="Grupo 56375" transform="translate(0 2.702)">
          <path id="Trazado_103248" data-name="Trazado 103248" d="M973.445,178.628a2.961,2.961,0,1,1-1.807-5.074l-5.336-5.5L952.53,181.431,957.938,187a2.962,2.962,0,1,1,2.556,2.633L965.9,195.2l13.77-13.372-5.336-5.495A2.952,2.952,0,0,1,973.445,178.628Z" transform="translate(-952.53 -168.059)" fill="#fdd835"/>
        </g>
        <g id="Grupo_56376" data-name="Grupo 56376" transform="translate(19.109 22.063)">
          <path id="Trazado_103249" data-name="Trazado 103249" d="M1083.3,296.3a2.961,2.961,0,1,1-4.187-.061A2.962,2.962,0,0,1,1083.3,296.3Z" transform="translate(-1078.213 -295.402)" fill="#fdd835"/>
        </g>
        <g id="Grupo_56377" data-name="Grupo 56377" transform="translate(2.143 4.593)">
          <path id="Trazado_103250" data-name="Trazado 103250" d="M971.712,181.394a2.961,2.961,0,1,1-4.188-.061A2.961,2.961,0,0,1,971.712,181.394Z" transform="translate(-966.626 -180.496)" fill="#fdd835"/>
        </g>
        <g id="Grupo_56378" data-name="Grupo 56378" transform="translate(21.976 21.547)">
          <path id="Trazado_103251" data-name="Trazado 103251" d="M1105.664,300.252s-2.478-2.15-2.247-2.914c.355-1.185-.779-3.729-1.8-3.922-2.028-.386-2.888-1.083-4.09-1.372-1.051-.252-.233.89,2.042,2.227,1.235.726-.635,3.395-1.4,4.319s2.179,1.472,2.87,2.248,2,2.119,2,2.119Z" transform="translate(-1097.075 -292.009)" fill="#eea886"/>
        </g>
        <g id="Grupo_56379" data-name="Grupo 56379" transform="translate(24.147 26.52)">
          <path id="Trazado_103252" data-name="Trazado 103252" d="M1111.583,326.816a3.206,3.206,0,0,1-.094-2.1l.138.041a3.126,3.126,0,0,0,.084,1.993Z" transform="translate(-1111.35 -324.716)" fill="#bc856b"/>
        </g>
        <g id="Grupo_56380" data-name="Grupo 56380" transform="translate(60.215 1.436)">
          <path id="Trazado_103253" data-name="Trazado 103253" d="M1351.638,162.5s-5.6,5.545-1.641,15.109,12.11-4.64,13.185-7.639S1361.541,154.181,1351.638,162.5Z" transform="translate(-1348.58 -159.73)" fill="#eea886"/>
        </g>
        <g id="Grupo_56381" data-name="Grupo 56381" transform="translate(28.967 24.124)">
          <path id="Trazado_103254" data-name="Trazado 103254" d="M1178.361,309.235s-6.912,2.121-10.185,5.76c-3.036,3.375-10.907,11.416-11.714,11.332s-9.888-10.921-10.1-10.878-3.311,4-3.311,4,12.958,15.434,14.274,15.307,9.7-7.922,9.7-7.922a27.578,27.578,0,0,0,2.928,6.154,31.372,31.372,0,0,0,1.1,4.88c.6,1.486.217,8.657.812,9.209s16.419,2.293,19.432-1.951c0,0-2.164-2.589-2.334-4.287s.892-11.034,3.989-13.75c0,0,4.485,12.251,5.107,13.779s11.074,19.24,11.527,19.579,5.126.315,5.069-.194-10.371-19.838-10.823-21.366-6.829-23.364-8.432-25.125-9.564-4.81-9.564-4.81Z" transform="translate(-1143.052 -308.954)" fill="#f57c00"/>
        </g>
        <g id="Grupo_56382" data-name="Grupo 56382" transform="translate(63.647 16.128)">
          <path id="Trazado_103255" data-name="Trazado 103255" d="M1371.363,262.482a4.872,4.872,0,0,1,.424,2.159s-1.062,7.882-.424,8.688,7.626-6.479,7.908-8.969a9.247,9.247,0,0,1,0-6.953C1380.743,253.339,1371.363,262.482,1371.363,262.482Z" transform="translate(-1371.159 -256.364)" fill="#eea886"/>
        </g>
        <g id="Grupo_56383" data-name="Grupo 56383" transform="translate(59.65 0.533)">
          <path id="Trazado_103256" data-name="Trazado 103256" d="M1347.585,161.6s-.622,2.984,7.3,3.67a3.861,3.861,0,0,1,2.993,3.8c.232,3.343,3.539-3.68,2.779-8.088-.849-4.923-3.522-7.586-7.243-7.13-8.487,1.039-8.545,11.685-8.545,11.685A46.165,46.165,0,0,0,1347.585,161.6Z" transform="translate(-1344.869 -153.792)" fill="#1c4154"/>
        </g>
        <g id="Grupo_56384" data-name="Grupo 56384" transform="translate(52.805 74.043)">
          <path id="Trazado_103257" data-name="Trazado 103257" d="M1304.361,641.188a10.614,10.614,0,0,0-4.517-3.636l.111-.266a10.924,10.924,0,0,1,4.65,3.748Z" transform="translate(-1299.844 -637.286)" fill="#b3c1b5"/>
        </g>
        <g id="Grupo_56385" data-name="Grupo 56385" transform="translate(55.043 73.403)">
          <path id="Trazado_103258" data-name="Trazado 103258" d="M1316.513,637.05l-.138-.052.111-.091-.032-.139a.135.135,0,0,0-.1.094c0-.012.086-1.392-1.792-3.6l.219-.187c1.859,2.183,1.914,3.686,1.846,3.872A.149.149,0,0,1,1316.513,637.05Z" transform="translate(-1314.563 -633.079)" fill="#b3c1b5"/>
        </g>
        <g id="Grupo_56386" data-name="Grupo 56386" transform="translate(58.669 46.204)">
          <path id="Trazado_103259" data-name="Trazado 103259" d="M1338.6,455.4l-.181-.224c.066-.054,1.731-1.3,12.022-.923l-.011.288C1340.241,454.165,1338.612,455.388,1338.6,455.4Z" transform="translate(-1338.415 -454.181)" fill="#f57c00"/>
        </g>
        <g id="Grupo_56387" data-name="Grupo 56387" transform="translate(60.547 45.615)">
          <path id="Trazado_103260" data-name="Trazado 103260" d="M1360.029,451.228a41.635,41.635,0,0,0-9.245-.564l-.019-.287a41.945,41.945,0,0,1,9.318.568Z" transform="translate(-1350.765 -450.31)" fill="#f57c00"/>
        </g>
        <g id="Grupo_56388" data-name="Grupo 56388" transform="translate(52.303 34.954)">
          <path id="Trazado_103261" data-name="Trazado 103261" d="M1297,386.851c-.043-.156-1.019-3.853,0-6.665l.271.1c-.991,2.725-.006,6.454,0,6.492Z" transform="translate(-1296.54 -380.186)" fill="#f57c00"/>
        </g>
        <g id="Grupo_56389" data-name="Grupo 56389" transform="translate(52.591 36.777)">
          <path id="Trazado_103262" data-name="Trazado 103262" d="M1298.725,396.234l-.287-.027c.012-.13.307-3.195,1.008-4.026l.22.185C1299.024,393.129,1298.727,396.2,1298.725,396.234Z" transform="translate(-1298.438 -392.181)" fill="#f57c00"/>
        </g>
        <g id="Grupo_56390" data-name="Grupo 56390" transform="translate(65.035 18.819)">
          <path id="Trazado_103263" data-name="Trazado 103263" d="M1380.565,277.946a1.608,1.608,0,0,1-.281-.019l.039-.212c.026.005,2.557.412,5.318-3.652l.179.122a8.821,8.821,0,0,1-3.828,3.456A3.87,3.87,0,0,1,1380.565,277.946Z" transform="translate(-1380.284 -274.062)" fill="#c58c71"/>
        </g>
      </g>
    </g>
    <g id="Grupo_56439" data-name="Grupo 56439" transform="translate(374.855 193.362)">
      <g id="Grupo_56438" data-name="Grupo 56438">
        <g id="Grupo_56393" data-name="Grupo 56393" transform="translate(74.256 10.203)">
          <path id="Trazado_103264" data-name="Trazado 103264" d="M2218.65,500.9s5.393-1.175,6.928,2.522c1.42,3.42-.075,8.288-4.524,7.681S2218.65,500.9,2218.65,500.9Z" transform="translate(-2218.18 -500.726)" fill="#454442"/>
        </g>
        <g id="Grupo_56394" data-name="Grupo 56394" transform="translate(26.699 67.43)">
          <path id="Trazado_103265" data-name="Trazado 103265" d="M1931.953,883.567s-5.25,18.28-6.93,20.948-7.115,22.137-7.906,26.583-2.174,9.487-2.471,12.748-8.1,23.844-9.087,25.425,2.493,1.525,4.173.636c0,0,9.5-11.441,11.873-19.545s1.442-12.347,2.826-14.817,16.982-28.774,17.871-31.146,1.7,9.8,1.992,15.631,2.076,17,2.669,18.677,2.182,13.655.69,29.057c-.233,2.4,3.184,2.905,3.492,2.169.631-1.509,6.411-20.252,4.929-28.553s-.81-11.864.277-18.485,4.636-22.269-.093-38.359S1931.953,883.567,1931.953,883.567Z" transform="translate(-1905.385 -877.125)" fill="#eea886"/>
        </g>
        <g id="Grupo_56395" data-name="Grupo 56395" transform="translate(42.055 73.39)">
          <path id="Trazado_103266" data-name="Trazado 103266" d="M2041.4,916.323s7.227,15.857,1.407,39.381c0,0-27.087-5.417-36.423-7.236l10.995-31.339Z" transform="translate(-2006.385 -916.323)" fill="#24a8b4"/>
        </g>
        <g id="Grupo_56397" data-name="Grupo 56397" transform="translate(92.864)">
          <g id="Grupo_56396" data-name="Grupo 56396">
            <path id="Trazado_103267" data-name="Trazado 103267" d="M2341.988,445.437s.944-2.042.639-2.627a19.254,19.254,0,0,1-.879-2.35c-.186-.579-1.179-1.983-1.177-2.633a18.623,18.623,0,0,0,.521-2.405c-.051-.544-.271-1.637.142-1.65s.844.92.844.92-.019-.5.334-.636a.924.924,0,0,1,1.033.1s.27-.505.585-.534a1.223,1.223,0,0,1,1.021.307s.492-.331.79-.183c.881.44.84.75.84.75s.778-.074.985.378a4.984,4.984,0,0,1,.283,1.267,17.823,17.823,0,0,1-1.352,6.337,12.646,12.646,0,0,0-1.13,4.663Z" transform="translate(-2340.57 -433.617)" fill="#eea886"/>
          </g>
        </g>
        <g id="Grupo_56399" data-name="Grupo 56399" transform="translate(94.326 1.402)">
          <g id="Grupo_56398" data-name="Grupo 56398">
            <path id="Trazado_103268" data-name="Trazado 103268" d="M2351.1,446.638a.466.466,0,0,1-.411-.082c-.351-.256-.483-1.287-.5-1.4v-.01l.025-2.306.155,0-.025,2.3c.036.3.184,1.11.434,1.292a.308.308,0,0,0,.335.035.375.375,0,0,0,.208-.251l.155,0a.52.52,0,0,1-.294.385A.586.586,0,0,1,2351.1,446.638Z" transform="translate(-2350.191 -442.836)" fill="#f57c00"/>
          </g>
        </g>
        <g id="Grupo_56401" data-name="Grupo 56401" transform="translate(95.345 1.101)">
          <g id="Grupo_56400" data-name="Grupo 56400">
            <path id="Trazado_103269" data-name="Trazado 103269" d="M2357.881,445.092a.6.6,0,0,1-.149.022.7.7,0,0,1-.546-.24,6.3,6.3,0,0,1-.3-1.752,21.311,21.311,0,0,1,.408-2.262l.151.034a22.43,22.43,0,0,0-.405,2.223,6.545,6.545,0,0,0,.265,1.663.55.55,0,0,0,.418.178.436.436,0,0,0,.364-.21l.128.087A.6.6,0,0,1,2357.881,445.092Z" transform="translate(-2356.89 -440.86)" fill="#f57c00"/>
          </g>
        </g>
        <g id="Grupo_56403" data-name="Grupo 56403" transform="translate(96.564 1.019)">
          <g id="Grupo_56402" data-name="Grupo 56402">
            <path id="Trazado_103270" data-name="Trazado 103270" d="M2365.578,444.624a.591.591,0,0,1-.34-.013c-.464-.143-.335-.926-.25-1.444a2.5,2.5,0,0,0,.04-.3c0-.292.43-2.456.448-2.548l.152.03c-.153.774-.442,2.3-.444,2.519a2.766,2.766,0,0,1-.043.321c-.067.408-.192,1.167.141,1.27.419.129.614-.283.763-.747a9.448,9.448,0,0,0,.223-1.311l.006-.021.543-1.354.145.058-.54,1.344a9.321,9.321,0,0,1-.228,1.331C2366.116,444.009,2365.953,444.518,2365.578,444.624Z" transform="translate(-2364.905 -440.322)" fill="#f57c00"/>
          </g>
        </g>
        <g id="Grupo_56405" data-name="Grupo 56405" transform="translate(97.734 1.896)">
          <g id="Grupo_56404" data-name="Grupo 56404">
            <path id="Trazado_103271" data-name="Trazado 103271" d="M2373.044,448.869a.31.31,0,0,1-.254-.027.478.478,0,0,1-.187-.316l.154-.023-.077.011.077-.011a.323.323,0,0,0,.115.206.165.165,0,0,0,.144.006c.245-.082.507-.775.548-1.034a9.9,9.9,0,0,1,.876-1.492l.069-.1.061.107a2.67,2.67,0,0,1,.232,1.364l-.156-.005a3.019,3.019,0,0,0-.156-1.16,8.865,8.865,0,0,0-.774,1.313c-.037.239-.305,1.041-.651,1.157Z" transform="translate(-2372.604 -446.087)" fill="#f57c00"/>
          </g>
        </g>
        <g id="Grupo_56407" data-name="Grupo 56407" transform="translate(95.421 4.889)">
          <g id="Grupo_56406" data-name="Grupo 56406">
            <path id="Trazado_103272" data-name="Trazado 103272" d="M2359,467.555a5.652,5.652,0,0,0-1.605-1.651l.085-.129a5.712,5.712,0,0,1,1.659,1.708Z" transform="translate(-2357.39 -465.775)" fill="#f57c00"/>
          </g>
        </g>
        <g id="Grupo_56409" data-name="Grupo 56409" transform="translate(94.017 3.037)">
          <g id="Grupo_56408" data-name="Grupo 56408">
            <path id="Trazado_103273" data-name="Trazado 103273" d="M2348.279,454.311l-.121-.1a1.415,1.415,0,0,0,.316-.622h.155A1.589,1.589,0,0,1,2348.279,454.311Z" transform="translate(-2348.158 -453.591)" fill="#f57c00"/>
          </g>
        </g>
        <g id="Grupo_56411" data-name="Grupo 56411" transform="translate(94.61 3.05)">
          <g id="Grupo_56410" data-name="Grupo 56410">
            <path id="Trazado_103274" data-name="Trazado 103274" d="M2352.717,453.964l-.662-.137.032-.152.663.137Z" transform="translate(-2352.055 -453.675)" fill="#f57c00"/>
          </g>
        </g>
        <g id="Grupo_56413" data-name="Grupo 56413" transform="translate(95.686 3.344)">
          <g id="Grupo_56412" data-name="Grupo 56412">
            <path id="Trazado_103275" data-name="Trazado 103275" d="M2360.022,455.784l-.891-.02,0-.156.889.02Z" transform="translate(-2359.132 -455.608)" fill="#f57c00"/>
          </g>
        </g>
        <g id="Grupo_56415" data-name="Grupo 56415" transform="translate(97.006 3.255)">
          <g id="Grupo_56414" data-name="Grupo 56414" transform="translate(0 0)">
            <rect id="Rectángulo_9410" data-name="Rectángulo 9410" width="0.155" height="0.733" transform="translate(0 0.155) rotate(-85.356)" fill="#f57c00"/>
          </g>
        </g>
        <g id="Grupo_56417" data-name="Grupo 56417" transform="translate(98.116 3.14)">
          <g id="Grupo_56416" data-name="Grupo 56416" transform="translate(0 0)">
            <rect id="Rectángulo_9411" data-name="Rectángulo 9411" width="0.155" height="0.548" transform="translate(0 0.151) rotate(-76.575)" fill="#f57c00"/>
          </g>
        </g>
        <g id="Grupo_56418" data-name="Grupo 56418" transform="translate(25.024 10.067)">
          <path id="Trazado_103276" data-name="Trazado 103276" d="M1931.568,527s-8.017,2.062-10.389,3.709-11.478,10.005-12.664,9.28-9.75-17.409-10.145-18.4l-4,1.563s8.27,23.8,9.324,25.115,3.177,1.537,8.974-1.56a46.838,46.838,0,0,0,9.257-6.358s-1.08,4.118.12,7.433c1.767,4.887,1.956,5.4,1.385,9.708-.479,3.613-1.422,5.8-1.034,6.459s11.441,4.338,24.024-.8c0,0,.5-.455-.22-2.563s-1.709-1.871-1.16-4.72c1.212-6.281,2.695-17.718,4.142-18.976.667-.58,13.137-11.406,15.445-13.234,1.68-1.331,3.536-23.074,3.418-23.14-.2-.108-1.7-1.32-4.689-.269,0,0-1.844,17.144-4.364,18.81-4.195,2.771-10.652,6.677-12.5,7.167a13.785,13.785,0,0,1-5.026.058C1940.339,526.158,1931.568,527,1931.568,527Z" transform="translate(-1894.368 -499.828)" fill="#e8e8e8"/>
        </g>
        <g id="Grupo_56419" data-name="Grupo 56419" transform="translate(6.323 1.263)">
          <path id="Trazado_103277" data-name="Trazado 103277" d="M1796.955,459.753a4.025,4.025,0,1,1,2.926-6.787V441.925h-11.889a4.024,4.024,0,1,1-4.739,0h-11.889v27.608h11.954a4.024,4.024,0,1,1,4.609,0h11.954V458.492A4.013,4.013,0,0,1,1796.955,459.753Z" transform="translate(-1771.364 -441.925)" fill="#f57c00"/>
        </g>
        <g id="Grupo_56420" data-name="Grupo 56420" transform="translate(0 11.042)">
          <path id="Trazado_103278" data-name="Trazado 103278" d="M1737.826,510.271a4.025,4.025,0,1,1-4.025-4.025A4.024,4.024,0,0,1,1737.826,510.271Z" transform="translate(-1729.777 -506.246)" fill="#f57c00"/>
        </g>
        <g id="Grupo_56421" data-name="Grupo 56421" transform="translate(14.325 160.132)">
          <path id="Trazado_103279" data-name="Trazado 103279" d="M1828.868,1490.605s-4.686.891-4.852,1.864.869,1.925,2.008,2.277,6.747.415,7.575-.165,4.678-4.429,5.278-3.6.393,3.684.393,3.684,1.035.331,1.469-.1a14.172,14.172,0,0,1,.249-3.312,7.568,7.568,0,0,0-.249-4.285C1840.264,1486.115,1828.868,1490.605,1828.868,1490.605Z" transform="translate(-1823.999 -1486.856)" fill="#515154"/>
        </g>
        <g id="Grupo_56422" data-name="Grupo 56422" transform="translate(62.027 25.812)">
          <path id="Trazado_103280" data-name="Trazado 103280" d="M2138.992,606.5s.725,5.411-1.048,8.32,8.981-.712,8.981-.712-.91-5.436,0-9.341S2138.992,606.5,2138.992,606.5Z" transform="translate(-2137.747 -603.393)" fill="#eea886"/>
        </g>
        <g id="Grupo_56423" data-name="Grupo 56423" transform="translate(60.32 9.097)">
          <path id="Trazado_103281" data-name="Trazado 103281" d="M2130.121,496.787a23.267,23.267,0,0,0-3.6,12.694c.044,7.6,6.457,6.589,9.883,4.656s7.511-9.575,7.555-13.616S2135.787,489.145,2130.121,496.787Z" transform="translate(-2126.519 -493.453)" fill="#eea886"/>
        </g>
        <g id="Grupo_56424" data-name="Grupo 56424" transform="translate(53.72 84.298)">
          <path id="Trazado_103282" data-name="Trazado 103282" d="M2092.431,997.838c-3.071-.932-5.444-3.507-6.892-5.5a24.563,24.563,0,0,1-2.431-4.14l.288-.125a24.233,24.233,0,0,0,2.4,4.085c1.421,1.955,3.74,4.475,6.725,5.38Z" transform="translate(-2083.108 -988.071)" fill="#515154"/>
        </g>
        <g id="Grupo_56425" data-name="Grupo 56425" transform="translate(56.524 86.229)">
          <path id="Trazado_103283" data-name="Trazado 103283" d="M2106.917,1008.159c-.189-.192-4.659-4.745-5.364-7.3l.3-.083c.684,2.479,5.24,7.119,5.285,7.166Z" transform="translate(-2101.553 -1000.773)" fill="#515154"/>
        </g>
        <g id="Grupo_56426" data-name="Grupo 56426" transform="translate(52.782 44.288)">
          <path id="Trazado_103284" data-name="Trazado 103284" d="M2077.171,730.549l-.232-.043c.028-.152.7-3.745,2.413-5.594l.172.16C2077.855,726.871,2077.177,730.512,2077.171,730.549Z" transform="translate(-2076.939 -724.913)" fill="#5a619e"/>
        </g>
        <g id="Grupo_56427" data-name="Grupo 56427" transform="translate(52.972 45.496)">
          <path id="Trazado_103285" data-name="Trazado 103285" d="M2078.4,736.533l-.205-.116a15.155,15.155,0,0,1,2.827-3.558l.149.181A14.9,14.9,0,0,0,2078.4,736.533Z" transform="translate(-2078.192 -732.859)" fill="#5a619e"/>
        </g>
        <g id="Grupo_56428" data-name="Grupo 56428" transform="translate(56.661 58.784)">
          <path id="Trazado_103286" data-name="Trazado 103286" d="M2118.417,822.516c-5.993-2.948-15.834-1.812-15.933-1.8l-.028-.234c.1-.012,10.01-1.156,16.065,1.823Z" transform="translate(-2102.456 -820.255)" fill="#5a619e"/>
        </g>
        <g id="Grupo_56429" data-name="Grupo 56429" transform="translate(60.362 59.669)">
          <path id="Trazado_103287" data-name="Trazado 103287" d="M2137.284,826.728c-.06-.009-6.031-.922-10.439,0l-.049-.23c4.45-.929,10.463-.01,10.524,0Z" transform="translate(-2126.797 -826.081)" fill="#5a619e"/>
        </g>
        <g id="Grupo_56430" data-name="Grupo 56430" transform="translate(63.709 29.542)">
          <path id="Trazado_103288" data-name="Trazado 103288" d="M2150.373,629.695a4.34,4.34,0,0,1-1.564-.234l.091-.217-.046.109.046-.109c.024.01,2.439.96,6.574-1.317l.114.207A10.91,10.91,0,0,1,2150.373,629.695Z" transform="translate(-2148.809 -627.926)" fill="#c58c71"/>
        </g>
        <g id="Grupo_56431" data-name="Grupo 56431" transform="translate(13.555 28.583)">
          <path id="Trazado_103289" data-name="Trazado 103289" d="M1833.98,625.033s-.13-2.914-1.424-3.237-13.2-.16-13.519.109.1,1.363,1.177,1.436,8.515,1.258,9.054,1.527a9.407,9.407,0,0,1,1.589,1.384Z" transform="translate(-1818.931 -621.617)" fill="#eea886"/>
        </g>
        <g id="Grupo_56432" data-name="Grupo 56432" transform="translate(18.275 158.07)">
          <path id="Trazado_103290" data-name="Trazado 103290" d="M1859.277,1473.29s-2.854,2.473-3.71,3.111a26.213,26.213,0,0,1-4.671,2.7s-2.537,1.826.818,1.26,8.466-4.456,11.033-4.93v-.041Z" transform="translate(-1849.977 -1473.29)" fill="#eea886"/>
        </g>
        <g id="Grupo_56433" data-name="Grupo 56433" transform="translate(55.716 160.132)">
          <path id="Trazado_103291" data-name="Trazado 103291" d="M2101.109,1490.605s-4.686.891-4.852,1.864.87,1.925,2.008,2.277,6.747.415,7.575-.165,4.678-4.429,5.278-3.6.394,3.684.394,3.684,1.034.331,1.469-.1a14.172,14.172,0,0,1,.249-3.312,7.566,7.566,0,0,0-.249-4.285C2112.506,1486.115,2101.109,1490.605,2101.109,1490.605Z" transform="translate(-2096.24 -1486.856)" fill="#515154"/>
        </g>
        <g id="Grupo_56434" data-name="Grupo 56434" transform="translate(59.666 157.636)">
          <path id="Trazado_103292" data-name="Trazado 103292" d="M2132.025,1470.438s-3.362,2.906-4.218,3.544a26.229,26.229,0,0,1-4.671,2.7s-2.537,1.826.818,1.26,8.862-4.083,11.055-4.9l-.033-.106Z" transform="translate(-2122.217 -1470.438)" fill="#eea886"/>
        </g>
        <g id="Grupo_56435" data-name="Grupo 56435" transform="translate(76.178 11.587)">
          <path id="Trazado_103293" data-name="Trazado 103293" d="M2230.823,509.826s3.171.467,3.332,3.256a4.058,4.058,0,0,1-1.666,3.84Z" transform="translate(-2230.823 -509.826)" fill="#f57c00"/>
        </g>
        <g id="Grupo_56436" data-name="Grupo 56436" transform="translate(61.356 8.811)">
          <path id="Trazado_103294" data-name="Trazado 103294" d="M2133.333,500.807s2.822,1.876,9.559.582a2.449,2.449,0,0,1,2.431,1.186c.856,1.455,1.881,3.423,2.178,3.436s4.5-6.346,1.643-10.469-8.65-5.228-12.153-2.4S2133.333,500.807,2133.333,500.807Z" transform="translate(-2133.333 -491.572)" fill="#454442"/>
        </g>
        <g id="Grupo_56437" data-name="Grupo 56437" transform="translate(71.667 17.917)">
          <path id="Trazado_103295" data-name="Trazado 103295" d="M2201.478,552.833c.431-1.442,2.951-2.062,3.031-.283s-1.617,4.245-2.586,4.245S2201.011,554.392,2201.478,552.833Z" transform="translate(-2201.151 -551.46)" fill="#eea886"/>
        </g>
      </g>
    </g>
    <g id="Grupo_56469" data-name="Grupo 56469" transform="translate(131.92 195.095)">
      <g id="Grupo_56468" data-name="Grupo 56468" transform="translate(0)">
        <g id="Grupo_56440" data-name="Grupo 56440" transform="translate(58.045 204.526)">
          <path id="Trazado_103296" data-name="Trazado 103296" d="M520.981,1791.179s3.142,2.359,4.582,3.266,7.332,1.773,7.855,2.393.114,2.364-.887,2.436-8.261-.073-10.6-.9-6.927-.379-7.883-.826.277-5.733.794-6.892S520.981,1791.179,520.981,1791.179Z" transform="translate(-513.698 -1790.25)" fill="#323657"/>
        </g>
        <g id="Grupo_56441" data-name="Grupo 56441" transform="translate(58.583 210.746)">
          <path id="Trazado_103297" data-name="Trazado 103297" d="M535.28,1833.335l.006-.234c-.079,0-7.985-.219-10.388-1.139-2.444-.936-7.446-.8-7.658-.79l.008.235c.051,0,5.166-.145,7.566.774C527.255,1833.115,534.953,1833.327,535.28,1833.335Z" transform="translate(-517.24 -1831.16)" fill="#5a619e"/>
        </g>
        <g id="Grupo_56442" data-name="Grupo 56442" transform="translate(18.421 204.317)">
          <path id="Trazado_103298" data-name="Trazado 103298" d="M260.366,1789.8s3.142,2.36,4.583,3.267,7.332,1.773,7.855,2.393.113,2.364-.887,2.436-8.261-.073-10.6-.9-6.927-.378-7.883-.826.277-5.732.794-6.892S260.366,1789.8,260.366,1789.8Z" transform="translate(-253.082 -1788.875)" fill="#323657"/>
        </g>
        <g id="Grupo_56443" data-name="Grupo 56443" transform="translate(59.106 202.862)">
          <path id="Trazado_103299" data-name="Trazado 103299" d="M526.646,1779.3l.295,2.624s-4.647.391-6.263-.339l.26-1.922Z" transform="translate(-520.678 -1779.301)" fill="#cbdacd"/>
        </g>
        <g id="Grupo_56444" data-name="Grupo 56444" transform="translate(19.568 202.249)">
          <path id="Trazado_103300" data-name="Trazado 103300" d="M266.955,1776l-.193,2.271s-4.588.344-6.136-.521l.382-2.476Z" transform="translate(-260.626 -1775.272)" fill="#cbdacd"/>
        </g>
        <g id="Grupo_56445" data-name="Grupo 56445" transform="translate(18.96 210.537)">
          <path id="Trazado_103301" data-name="Trazado 103301" d="M274.667,1831.961l.006-.235c-.08,0-7.985-.219-10.389-1.139-2.444-.936-7.445-.8-7.657-.79l.007.234c.051,0,5.166-.144,7.566.775C266.642,1831.741,274.341,1831.953,274.667,1831.961Z" transform="translate(-256.628 -1829.786)" fill="#5a619e"/>
        </g>
        <g id="Grupo_56446" data-name="Grupo 56446" transform="translate(18.333 123.535)">
          <path id="Trazado_103302" data-name="Trazado 103302" d="M255.71,1299.345c-.077,1.593-2.19,36.961-2.19,36.961.08.626,6.883,1.073,6.883,1.073s6.515-35.168,6.749-36.575.445-23.464.525-24.794.39-1.877,1.876-1.484,13.423,22.473,13.815,26.539,8.63,35.712,9.254,36.1,7.039.156,7.353,0-3.629-28.241-4.019-29.648-1.016-9.309-2.346-12.122c-1.128-2.387-9.431-25.238-11.927-32.13-.449-1.236-.71-1.958-.71-1.958s-27.748-7.806-28.311-.937c-.055.658-.093,1.35-.121,2.072C252.069,1275.373,255.786,1297.836,255.71,1299.345Z" transform="translate(-252.499 -1257.543)" fill="#727997"/>
        </g>
        <g id="Grupo_56447" data-name="Grupo 56447" transform="translate(18.374 126.362)">
          <path id="Trazado_103303" data-name="Trazado 103303" d="M252.771,1278.214a216.077,216.077,0,0,0,29.142.823c-.449-1.236-.71-1.958-.71-1.958l-28.311-.937C252.837,1276.8,252.8,1277.492,252.771,1278.214Z" transform="translate(-252.771 -1276.142)" fill="#cbdacd"/>
        </g>
        <g id="Grupo_56448" data-name="Grupo 56448" transform="translate(7.514)">
          <path id="Trazado_103304" data-name="Trazado 103304" d="M185.562,470.716a5.8,5.8,0,1,0-4.218-9.784V445.017h17.137a5.8,5.8,0,1,0,6.83,0h17.137v39.8H205.218a5.8,5.8,0,1,0-6.643,0H181.344V468.9A5.783,5.783,0,0,0,185.562,470.716Z" transform="translate(-181.344 -445.017)" fill="#ffa726"/>
        </g>
        <g id="Grupo_56449" data-name="Grupo 56449" transform="translate(9.8 36.774)">
          <path id="Trazado_103305" data-name="Trazado 103305" d="M200.41,695.438s-.253-2.158.607-3.177,2.254-3.118,2.065-4.835-1.461,1.173-2.019,2.007-4.248.293-4.469.48a4.2,4.2,0,0,0,.013,2.548,3.046,3.046,0,0,1-.227,1.983S196.562,695.57,200.41,695.438Z" transform="translate(-196.38 -686.891)" fill="#eea886"/>
        </g>
        <g id="Grupo_56450" data-name="Grupo 56450" transform="translate(11.23 39.821)">
          <path id="Trazado_103306" data-name="Trazado 103306" d="M205.913,708.012c.394-.627,2.081-.925,2.1-.929l-.027-.154c-.072.012-1.773.313-2.2,1Z" transform="translate(-205.781 -706.929)" fill="#c58c71"/>
        </g>
        <g id="Grupo_56451" data-name="Grupo 56451" transform="translate(38.54 36.774)">
          <path id="Trazado_103307" data-name="Trazado 103307" d="M388.1,695.438s.253-2.158-.607-3.177-2.255-3.118-2.065-4.835,1.461,1.173,2.019,2.007,4.26.293,4.48.48a4.223,4.223,0,0,1-.024,2.548,3.044,3.044,0,0,0,.227,1.983S391.949,695.57,388.1,695.438Z" transform="translate(-385.411 -686.891)" fill="#eea886"/>
        </g>
        <g id="Grupo_56452" data-name="Grupo 56452" transform="translate(41.603 39.82)">
          <path id="Trazado_103308" data-name="Trazado 103308" d="M407.624,708.087l.147-.054c-.306-.836-2.116-1.1-2.193-1.106l-.021.154C405.575,707.084,407.351,707.339,407.624,708.087Z" transform="translate(-405.557 -706.927)" fill="#c58c71"/>
        </g>
        <g id="Grupo_56453" data-name="Grupo 56453" transform="translate(45.741 14.487)">
          <path id="Trazado_103309" data-name="Trazado 103309" d="M432.77,546.106a5.8,5.8,0,1,0,5.8-5.8A5.8,5.8,0,0,0,432.77,546.106Z" transform="translate(-432.77 -540.305)" fill="#ffa726"/>
        </g>
        <g id="Grupo_56454" data-name="Grupo 56454" transform="translate(0 43.664)">
          <path id="Trazado_103310" data-name="Trazado 103310" d="M141.365,732.21c-2.815,5.161-9.723,17.075-9.436,20.281.26,2.905,14.4,22.458,14.4,22.458s3.035,4.679,4.628,21.659c.107,1.134-.861,18.143-.547,18.3s28.233,1.485,28.311.938-1.33-20.332-.861-22.053,2.265-19.089,2.49-20.321c.321-1.755,6.259-16.859,6.786-20.511.469-3.254-9.48-20.437-9.48-20.437l-5.222.522s7.117,19.642,6.569,19.72-5.641,10.3-6.569,10.675c-.834.338-8.285,1-8.285,1L156.2,764s-6.833-1.678-7.225-1.6-8.957-10.584-9.038-11.148c-.294-2.069,6.639-18.257,6.639-18.257Z" transform="translate(-131.92 -732.21)" fill="#24a8b4"/>
        </g>
        <g id="Grupo_56455" data-name="Grupo 56455" transform="translate(19.542 50.563)">
          <path id="Trazado_103311" data-name="Trazado 103311" d="M268.346,777.6s7.405-.782,8.265,12.356-9.775,8.6-12.747,5.318S256.248,776.979,268.346,777.6Z" transform="translate(-260.454 -777.585)" fill="#eea886"/>
        </g>
        <g id="Grupo_56456" data-name="Grupo 56456" transform="translate(17.886 49.24)">
          <path id="Trazado_103312" data-name="Trazado 103312" d="M253.547,786.314s-.978-3.082,1.419-4.333l2.657.846s-1.251-3.817-.261-4.13,7.646.718,9.245-1.075-1.787-12.9-13.258-7.059c0,0-4.872,1.143-3.569,7.035S253.547,786.314,253.547,786.314Z" transform="translate(-249.559 -768.883)" fill="#1c4154"/>
        </g>
        <g id="Grupo_56457" data-name="Grupo 56457" transform="translate(21.519 59.987)">
          <path id="Trazado_103313" data-name="Trazado 103313" d="M276.533,840.992c-.626-1.835-3.493-2.1-3.024.407s2.242,3.91,3.024,3.546S276.989,842.33,276.533,840.992Z" transform="translate(-273.457 -839.569)" fill="#eea886"/>
        </g>
        <g id="Grupo_56458" data-name="Grupo 56458" transform="translate(23.578 68.59)">
          <path id="Trazado_103314" data-name="Trazado 103314" d="M295.654,899.072a18.184,18.184,0,0,0,0,4.387l-.848,6.193-7.1-6.634s-.058-5.139-.674-6.558S295.654,899.072,295.654,899.072Z" transform="translate(-286.999 -896.157)" fill="#eea886"/>
        </g>
        <g id="Grupo_56459" data-name="Grupo 56459" transform="translate(36.124 130.722)">
          <path id="Trazado_103315" data-name="Trazado 103315" d="M369.766,1313.691a48.425,48.425,0,0,0,4.87-8.752l-.288-.123a48.039,48.039,0,0,1-4.827,8.681Z" transform="translate(-369.521 -1304.816)" fill="#12263f"/>
        </g>
        <g id="Grupo_56460" data-name="Grupo 56460" transform="translate(36.658 133.822)">
          <path id="Trazado_103316" data-name="Trazado 103316" d="M373.245,1330.289a33.248,33.248,0,0,0,4.356-4.909l-.261-.173a32.905,32.905,0,0,1-4.307,4.851Z" transform="translate(-373.033 -1325.207)" fill="#12263f"/>
        </g>
        <g id="Grupo_56461" data-name="Grupo 56461" transform="translate(24.711 69.225)">
          <path id="Trazado_103317" data-name="Trazado 103317" d="M300.362,902.751a5.371,5.371,0,0,0,.6-.028l-.03-.232a8.616,8.616,0,0,1-6.319-2.16l-.158.174A8.886,8.886,0,0,0,300.362,902.751Z" transform="translate(-294.454 -900.331)" fill="#c58c71"/>
        </g>
        <g id="Grupo_56462" data-name="Grupo 56462" transform="translate(40.518 43.967)">
          <path id="Trazado_103318" data-name="Trazado 103318" d="M398.921,736.12l5.494-.556-.773-1.355s-3.841-.13-5.223.522Z" transform="translate(-398.42 -734.199)" fill="#e0dcda"/>
        </g>
        <g id="Grupo_56463" data-name="Grupo 56463" transform="translate(8.737 43.632)">
          <path id="Trazado_103319" data-name="Trazado 103319" d="M195.306,732.814a11.333,11.333,0,0,0-5.214-.782l-.708,1.288,5.294.977Z" transform="translate(-189.384 -732)" fill="#e0dcda"/>
        </g>
        <g id="Grupo_56464" data-name="Grupo 56464" transform="translate(22.551 74.161)">
          <path id="Trazado_103320" data-name="Trazado 103320" d="M281.943,932.8l6.652,6.4-1.6,3.99-6.745-9.522Z" transform="translate(-280.247 -932.797)" fill="#cbdacd"/>
        </g>
        <g id="Grupo_56465" data-name="Grupo 56465" transform="translate(30.899 74.928)">
          <path id="Trazado_103321" data-name="Trazado 103321" d="M336.355,937.84l-1.2,5.636,2.951,2.7v-7.526Z" transform="translate(-335.153 -937.84)" fill="#cbdacd"/>
        </g>
        <g id="Grupo_56466" data-name="Grupo 56466" transform="translate(29.968 80.564)">
          <path id="Trazado_103322" data-name="Trazado 103322" d="M329.029,977.227l2.079.989.744-1.571-1.892-1.735Z" transform="translate(-329.029 -974.909)" fill="#b9c7bd"/>
        </g>
        <g id="Grupo_56467" data-name="Grupo 56467" transform="translate(31.261 82.315)">
          <path id="Trazado_103323" data-name="Trazado 103323" d="M341.5,1031.3l.251.009a18.224,18.224,0,0,1-1.26-5.4,36.545,36.545,0,0,1,.044-8.847,88.9,88.9,0,0,0,.478-11.372c-.155-12.033-3.237-19.2-3.268-19.271l-.215.095c.031.07,3.094,7.2,3.248,19.179a88.779,88.779,0,0,1-.477,11.345,36.728,36.728,0,0,0-.043,8.894A17.432,17.432,0,0,0,341.5,1031.3Z" transform="translate(-337.532 -986.428)" fill="#b9c7bd"/>
        </g>
      </g>
    </g>
  </g>
</svg>
