<svg xmlns="http://www.w3.org/2000/svg" xmlns:xlink="http://www.w3.org/1999/xlink" width="396" height="603.506" viewBox="0 0 396 603.506">
  <defs>
    <clipPath id="clip-path">
      <rect id="Rectángulo_9015" data-name="Rectángulo 9015" width="332" height="531" transform="translate(940.141 2136.707)" fill="#fff" stroke="#707070" stroke-width="1"/>
    </clipPath>
  </defs>
  <g id="Grupo_56621" data-name="Grupo 56621" transform="translate(-908 -2115.207)">
    <path id="Trazado_104202" data-name="Trazado 104202" d="M0,0H396V145.01H0Z" transform="translate(908 2573.703)" fill="#26ccda"/>
    <path id="Trazado_104203" data-name="Trazado 104203" d="M7.126,11.209H2.659L1.655,14H.205L4.277,3.336h1.23L9.587,14H8.145ZM3.083,10.06H6.709L4.893,5.072ZM11.265,14V7.123H10.012V6.075h1.252V5.4a2.753,2.753,0,0,1,.758-2.065,2.94,2.94,0,0,1,2.142-.74,6.451,6.451,0,0,1,2.073.447l-.227,1.143a4.7,4.7,0,0,0-1.743-.366,1.705,1.705,0,0,0-1.256.392,1.615,1.615,0,0,0-.385,1.176v.688h1.619V7.123H12.627V14Zm5.647,0H15.549V6.075h1.362Zm5.383-.959a1.952,1.952,0,0,0,1.267-.439,1.546,1.546,0,0,0,.6-1.1h1.282a2.457,2.457,0,0,1-.469,1.3,3.087,3.087,0,0,1-1.154.981,3.329,3.329,0,0,1-1.527.366,3.265,3.265,0,0,1-2.574-1.08,4.3,4.3,0,0,1-.956-2.955V9.884a4.771,4.771,0,0,1,.425-2.058,3.236,3.236,0,0,1,1.219-1.4,3.464,3.464,0,0,1,1.879-.5,3.178,3.178,0,0,1,2.216.8A2.853,2.853,0,0,1,25.444,8.8H24.163a1.867,1.867,0,0,0-.582-1.263,1.811,1.811,0,0,0-1.293-.494,1.9,1.9,0,0,0-1.6.743,3.491,3.491,0,0,0-.568,2.15v.256a3.422,3.422,0,0,0,.564,2.109A1.906,1.906,0,0,0,22.295,13.041Zm6.028-6.006a2.881,2.881,0,0,1,2.344-1.106q2.512,0,2.534,2.834V14H31.846V8.756a1.824,1.824,0,0,0-.392-1.267,1.57,1.57,0,0,0-1.2-.41A1.956,1.956,0,0,0,29.1,7.43a2.387,2.387,0,0,0-.776.923V14H26.968V2.75h1.355Zm10.2,7.112A3.463,3.463,0,0,1,35.9,13.088a3.928,3.928,0,0,1-1.011-2.831v-.249a4.756,4.756,0,0,1,.45-2.106,3.514,3.514,0,0,1,1.26-1.45,3.167,3.167,0,0,1,1.754-.524,2.968,2.968,0,0,1,2.4,1.018,4.408,4.408,0,0,1,.857,2.915v.564H36.24a2.817,2.817,0,0,0,.685,1.893,2.153,2.153,0,0,0,1.666.721,2.36,2.36,0,0,0,1.216-.293,3.055,3.055,0,0,0,.872-.776l.828.645A3.328,3.328,0,0,1,38.518,14.146Zm-.168-7.1a1.807,1.807,0,0,0-1.377.6,2.9,2.9,0,0,0-.688,1.674h3.97v-.1a2.581,2.581,0,0,0-.557-1.6A1.7,1.7,0,0,0,38.35,7.042Zm11.719,6a1.952,1.952,0,0,0,1.267-.439,1.546,1.546,0,0,0,.6-1.1h1.282a2.457,2.457,0,0,1-.469,1.3,3.087,3.087,0,0,1-1.154.981,3.329,3.329,0,0,1-1.527.366,3.265,3.265,0,0,1-2.574-1.08,4.3,4.3,0,0,1-.956-2.955V9.884a4.771,4.771,0,0,1,.425-2.058,3.236,3.236,0,0,1,1.219-1.4,3.464,3.464,0,0,1,1.879-.5,3.178,3.178,0,0,1,2.216.8A2.853,2.853,0,0,1,53.218,8.8H51.936a1.867,1.867,0,0,0-.582-1.263,1.811,1.811,0,0,0-1.293-.494,1.9,1.9,0,0,0-1.6.743,3.491,3.491,0,0,0-.568,2.15v.256a3.422,3.422,0,0,0,.564,2.109A1.906,1.906,0,0,0,50.068,13.041Zm4.314-3.076A4.681,4.681,0,0,1,54.84,7.87a3.415,3.415,0,0,1,1.274-1.436,3.469,3.469,0,0,1,1.864-.505A3.342,3.342,0,0,1,60.6,7.049a4.311,4.311,0,0,1,1,2.981v.1a4.722,4.722,0,0,1-.443,2.076,3.365,3.365,0,0,1-1.267,1.432,3.509,3.509,0,0,1-1.893.513,3.334,3.334,0,0,1-2.611-1.121,4.29,4.29,0,0,1-1-2.966Zm1.362.161a3.39,3.39,0,0,0,.612,2.117,2.072,2.072,0,0,0,3.278-.011,3.707,3.707,0,0,0,.608-2.267,3.384,3.384,0,0,0-.619-2.113,1.968,1.968,0,0,0-1.644-.809,1.946,1.946,0,0,0-1.619.8A3.68,3.68,0,0,0,55.745,10.125Zm8.833-4.05.044,1a2.888,2.888,0,0,1,2.373-1.143q2.512,0,2.534,2.834V14H68.174V8.756a1.824,1.824,0,0,0-.392-1.267,1.57,1.57,0,0,0-1.2-.41,1.956,1.956,0,0,0-1.157.352,2.387,2.387,0,0,0-.776.923V14H63.3V6.075ZM76.187,11.9a1,1,0,0,0-.414-.853,3.983,3.983,0,0,0-1.443-.524A6.822,6.822,0,0,1,72.7,9.994a2.324,2.324,0,0,1-.894-.732,1.752,1.752,0,0,1-.289-1.011A2.056,2.056,0,0,1,72.338,6.6a3.218,3.218,0,0,1,2.106-.674,3.311,3.311,0,0,1,2.186.7,2.21,2.21,0,0,1,.839,1.78H76.106a1.223,1.223,0,0,0-.472-.959,1.77,1.77,0,0,0-1.19-.4,1.852,1.852,0,0,0-1.157.322,1.014,1.014,0,0,0-.417.842.822.822,0,0,0,.388.74,4.776,4.776,0,0,0,1.4.476,7.308,7.308,0,0,1,1.644.542,2.4,2.4,0,0,1,.934.758,1.864,1.864,0,0,1,.3,1.08,2.028,2.028,0,0,1-.85,1.7,3.564,3.564,0,0,1-2.2.641A3.991,3.991,0,0,1,72.8,13.81a2.74,2.74,0,0,1-1.146-.941,2.268,2.268,0,0,1-.414-1.307H72.6a1.4,1.4,0,0,0,.546,1.08,2.117,2.117,0,0,0,1.344.4,2.185,2.185,0,0,0,1.234-.311A.956.956,0,0,0,76.187,11.9Zm4.958-7.742V6.075h1.479V7.123H81.145v4.921a1.1,1.1,0,0,0,.2.715.832.832,0,0,0,.674.238,3.281,3.281,0,0,0,.645-.088V14a3.951,3.951,0,0,1-1.04.146,1.687,1.687,0,0,1-1.37-.549,2.36,2.36,0,0,1-.461-1.56V7.123H78.347V6.075H79.79V4.156Zm6.892,3.135a4.061,4.061,0,0,0-.667-.051,1.786,1.786,0,0,0-1.809,1.135V14H84.207V6.075h1.318l.022.916a2.11,2.11,0,0,1,1.89-1.062,1.384,1.384,0,0,1,.6.1Zm6.138,5.925a2.878,2.878,0,0,1-2.322.93,2.464,2.464,0,0,1-1.93-.736,3.186,3.186,0,0,1-.67-2.179V6.075h1.355v5.12q0,1.8,1.465,1.8a2.028,2.028,0,0,0,2.065-1.157V6.075h1.355V14H94.2Zm6.555-.176A1.952,1.952,0,0,0,102,12.6a1.546,1.546,0,0,0,.6-1.1h1.282a2.457,2.457,0,0,1-.469,1.3,3.087,3.087,0,0,1-1.154.981,3.329,3.329,0,0,1-1.527.366,3.265,3.265,0,0,1-2.574-1.08,4.3,4.3,0,0,1-.956-2.955V9.884a4.771,4.771,0,0,1,.425-2.058,3.236,3.236,0,0,1,1.219-1.4,3.464,3.464,0,0,1,1.879-.5,3.178,3.178,0,0,1,2.216.8,2.853,2.853,0,0,1,.941,2.073H102.6a1.867,1.867,0,0,0-.582-1.263,1.811,1.811,0,0,0-1.293-.494,1.9,1.9,0,0,0-1.6.743,3.491,3.491,0,0,0-.568,2.15v.256a3.422,3.422,0,0,0,.564,2.109A1.906,1.906,0,0,0,100.73,13.041Zm6.511-8.884V6.075h1.479V7.123h-1.479v4.921a1.1,1.1,0,0,0,.2.715.832.832,0,0,0,.674.238,3.281,3.281,0,0,0,.645-.088V14a3.951,3.951,0,0,1-1.04.146,1.687,1.687,0,0,1-1.37-.549,2.36,2.36,0,0,1-.461-1.56V7.123h-1.443V6.075h1.443V4.156ZM111.775,14H110.42V6.075h1.355ZM110.31,3.973a.809.809,0,0,1,.2-.557.756.756,0,0,1,.6-.227.768.768,0,0,1,.6.227.8.8,0,0,1,.205.557.774.774,0,0,1-.205.549.782.782,0,0,1-.6.22.77.77,0,0,1-.6-.22A.782.782,0,0,1,110.31,3.973Zm6.248,8.188,1.963-6.086H119.9L117.063,14H116.03l-2.871-7.925h1.384ZM122.681,14h-1.355V6.075h1.355ZM121.216,3.973a.809.809,0,0,1,.2-.557.756.756,0,0,1,.6-.227.768.768,0,0,1,.6.227.8.8,0,0,1,.205.557.774.774,0,0,1-.205.549.782.782,0,0,1-.6.22.77.77,0,0,1-.6-.22A.782.782,0,0,1,121.216,3.973Zm8.247,7.925a1,1,0,0,0-.414-.853,3.983,3.983,0,0,0-1.443-.524,6.822,6.822,0,0,1-1.633-.527,2.324,2.324,0,0,1-.894-.732,1.752,1.752,0,0,1-.289-1.011,2.056,2.056,0,0,1,.824-1.648,3.218,3.218,0,0,1,2.106-.674,3.311,3.311,0,0,1,2.186.7,2.21,2.21,0,0,1,.839,1.78h-1.362a1.223,1.223,0,0,0-.472-.959,1.77,1.77,0,0,0-1.19-.4,1.852,1.852,0,0,0-1.157.322,1.014,1.014,0,0,0-.417.842.822.822,0,0,0,.388.74,4.776,4.776,0,0,0,1.4.476,7.308,7.308,0,0,1,1.644.542,2.4,2.4,0,0,1,.934.758,1.864,1.864,0,0,1,.3,1.08,2.028,2.028,0,0,1-.85,1.7,3.564,3.564,0,0,1-2.2.641,3.991,3.991,0,0,1-1.685-.337,2.74,2.74,0,0,1-1.146-.941,2.268,2.268,0,0,1-.414-1.307h1.355a1.4,1.4,0,0,0,.546,1.08,2.117,2.117,0,0,0,1.344.4A2.185,2.185,0,0,0,129,12.729.956.956,0,0,0,129.463,11.9Zm4.958-7.742V6.075H135.9V7.123h-1.479v4.921a1.1,1.1,0,0,0,.2.715.832.832,0,0,0,.674.238,3.281,3.281,0,0,0,.645-.088V14a3.951,3.951,0,0,1-1.04.146,1.687,1.687,0,0,1-1.37-.549,2.36,2.36,0,0,1-.461-1.56V7.123h-1.443V6.075h1.443V4.156ZM142.375,14a2.846,2.846,0,0,1-.19-.835,3.023,3.023,0,0,1-2.256.981,2.8,2.8,0,0,1-1.923-.663,2.145,2.145,0,0,1-.751-1.681A2.24,2.24,0,0,1,138.2,9.88a4.437,4.437,0,0,1,2.648-.685h1.318V8.573a1.522,1.522,0,0,0-.425-1.132,1.707,1.707,0,0,0-1.252-.421,1.976,1.976,0,0,0-1.216.366,1.079,1.079,0,0,0-.491.886h-1.362a1.87,1.87,0,0,1,.421-1.146,2.874,2.874,0,0,1,1.143-.875,3.844,3.844,0,0,1,1.586-.322,3.133,3.133,0,0,1,2.146.685,2.47,2.47,0,0,1,.806,1.886v3.647a4.459,4.459,0,0,0,.278,1.736V14Zm-2.249-1.033a2.381,2.381,0,0,0,1.208-.33,1.994,1.994,0,0,0,.828-.857V10.155H141.1q-2.49,0-2.49,1.458a1.234,1.234,0,0,0,.425,1A1.633,1.633,0,0,0,140.127,12.967Zm5.471,3.157-.769-.527a3.534,3.534,0,0,0,.718-1.978V12.4h1.326v1.062a3.336,3.336,0,0,1-.363,1.479A3.464,3.464,0,0,1,145.6,16.124ZM156.914,11.9a1,1,0,0,0-.414-.853,3.983,3.983,0,0,0-1.443-.524,6.822,6.822,0,0,1-1.633-.527,2.324,2.324,0,0,1-.894-.732,1.752,1.752,0,0,1-.289-1.011,2.056,2.056,0,0,1,.824-1.648,3.218,3.218,0,0,1,2.106-.674,3.311,3.311,0,0,1,2.186.7A2.21,2.21,0,0,1,158.2,8.4h-1.362a1.223,1.223,0,0,0-.472-.959,1.77,1.77,0,0,0-1.19-.4,1.852,1.852,0,0,0-1.157.322,1.014,1.014,0,0,0-.417.842.822.822,0,0,0,.388.74,4.776,4.776,0,0,0,1.4.476,7.308,7.308,0,0,1,1.644.542,2.4,2.4,0,0,1,.934.758,1.864,1.864,0,0,1,.3,1.08,2.028,2.028,0,0,1-.85,1.7,3.564,3.564,0,0,1-2.2.641,3.991,3.991,0,0,1-1.685-.337,2.74,2.74,0,0,1-1.146-.941,2.268,2.268,0,0,1-.414-1.307h1.355a1.4,1.4,0,0,0,.546,1.08,2.117,2.117,0,0,0,1.344.4,2.185,2.185,0,0,0,1.234-.311A.956.956,0,0,0,156.914,11.9Zm4.592,2.1h-1.355V6.075h1.355ZM160.042,3.973a.809.809,0,0,1,.2-.557.756.756,0,0,1,.6-.227.768.768,0,0,1,.6.227.8.8,0,0,1,.205.557.774.774,0,0,1-.205.549.782.782,0,0,1-.6.22.77.77,0,0,1-.6-.22A.782.782,0,0,1,160.042,3.973Zm4.907,2.1.037.879a2.927,2.927,0,0,1,2.351-1.025A2.266,2.266,0,0,1,169.6,7.2a3,3,0,0,1,1.029-.923,3.039,3.039,0,0,1,1.5-.352q2.607,0,2.651,2.761V14h-1.355V8.771a1.82,1.82,0,0,0-.388-1.271,1.71,1.71,0,0,0-1.3-.421,1.8,1.8,0,0,0-1.252.45,1.827,1.827,0,0,0-.579,1.212V14h-1.362V8.807a1.512,1.512,0,0,0-1.692-1.729,1.813,1.813,0,0,0-1.824,1.135V14h-1.355V6.075Zm18.582,4.05a4.712,4.712,0,0,1-.835,2.919,2.668,2.668,0,0,1-2.241,1.1,2.763,2.763,0,0,1-2.322-1.062l-.066.916h-1.245V2.75h1.355v4.2a2.747,2.747,0,0,1,2.263-1.018,2.684,2.684,0,0,1,2.267,1.091,4.853,4.853,0,0,1,.824,2.988Zm-1.355-.154a3.662,3.662,0,0,0-.535-2.139,1.77,1.77,0,0,0-1.538-.754,1.989,1.989,0,0,0-1.926,1.245v3.428A2.045,2.045,0,0,0,180.117,13a1.76,1.76,0,0,0,1.516-.754A3.894,3.894,0,0,0,182.175,9.972Zm2.7-.007a4.681,4.681,0,0,1,.458-2.095,3.415,3.415,0,0,1,1.274-1.436,3.469,3.469,0,0,1,1.864-.505,3.342,3.342,0,0,1,2.618,1.121,4.311,4.311,0,0,1,1,2.981v.1a4.722,4.722,0,0,1-.443,2.076,3.365,3.365,0,0,1-1.267,1.432,3.509,3.509,0,0,1-1.893.513,3.334,3.334,0,0,1-2.611-1.121,4.29,4.29,0,0,1-1-2.966Zm1.362.161a3.39,3.39,0,0,0,.612,2.117,2.072,2.072,0,0,0,3.278-.011,3.707,3.707,0,0,0,.608-2.267,3.384,3.384,0,0,0-.619-2.113,1.968,1.968,0,0,0-1.644-.809,1.946,1.946,0,0,0-1.619.8A3.68,3.68,0,0,0,186.24,10.125ZM195.264,14h-1.355V2.75h1.355Zm3.64,0h-1.355V6.075H198.9ZM197.439,3.973a.809.809,0,0,1,.2-.557.756.756,0,0,1,.6-.227.768.768,0,0,1,.6.227.8.8,0,0,1,.205.557.774.774,0,0,1-.205.549.782.782,0,0,1-.6.22.77.77,0,0,1-.6-.22A.782.782,0,0,1,197.439,3.973Zm4.907,8.921h4.636V14h-6.292V13L205.063,7.2h-4.307V6.075h6.006v.959ZM213.4,14a2.846,2.846,0,0,1-.19-.835,3.023,3.023,0,0,1-2.256.981,2.8,2.8,0,0,1-1.923-.663,2.145,2.145,0,0,1-.751-1.681,2.24,2.24,0,0,1,.941-1.923,4.437,4.437,0,0,1,2.648-.685h1.318V8.573a1.522,1.522,0,0,0-.425-1.132,1.707,1.707,0,0,0-1.252-.421,1.976,1.976,0,0,0-1.216.366,1.079,1.079,0,0,0-.491.886H208.44a1.87,1.87,0,0,1,.421-1.146A2.874,2.874,0,0,1,210,6.251a3.844,3.844,0,0,1,1.586-.322,3.133,3.133,0,0,1,2.146.685,2.47,2.47,0,0,1,.806,1.886v3.647a4.459,4.459,0,0,0,.278,1.736V14Zm-2.249-1.033a2.381,2.381,0,0,0,1.208-.33,1.994,1.994,0,0,0,.828-.857V10.155h-1.062q-2.49,0-2.49,1.458a1.234,1.234,0,0,0,.425,1A1.633,1.633,0,0,0,211.15,12.967ZM221.851,14H220.5V2.75h1.355Zm7.061,0a2.846,2.846,0,0,1-.19-.835,3.023,3.023,0,0,1-2.256.981,2.8,2.8,0,0,1-1.923-.663,2.145,2.145,0,0,1-.751-1.681,2.24,2.24,0,0,1,.941-1.923A4.437,4.437,0,0,1,227.38,9.2H228.7V8.573a1.522,1.522,0,0,0-.425-1.132,1.707,1.707,0,0,0-1.252-.421,1.976,1.976,0,0,0-1.216.366,1.079,1.079,0,0,0-.491.886h-1.362a1.87,1.87,0,0,1,.421-1.146,2.874,2.874,0,0,1,1.143-.875,3.844,3.844,0,0,1,1.586-.322,3.133,3.133,0,0,1,2.146.685,2.47,2.47,0,0,1,.806,1.886v3.647a4.459,4.459,0,0,0,.278,1.736V14Zm-2.249-1.033a2.381,2.381,0,0,0,1.208-.33,1.994,1.994,0,0,0,.828-.857V10.155h-1.062q-2.49,0-2.49,1.458a1.234,1.234,0,0,0,.425,1A1.633,1.633,0,0,0,226.663,12.967Zm14.121.249a2.878,2.878,0,0,1-2.322.93,2.464,2.464,0,0,1-1.93-.736,3.186,3.186,0,0,1-.67-2.179V6.075h1.355v5.12q0,1.8,1.465,1.8a2.028,2.028,0,0,0,2.065-1.157V6.075H242.1V14h-1.289Zm4.658-7.141.044,1a2.888,2.888,0,0,1,2.373-1.143q2.512,0,2.534,2.834V14h-1.355V8.756a1.824,1.824,0,0,0-.392-1.267,1.57,1.57,0,0,0-1.2-.41,1.956,1.956,0,0,0-1.157.352,2.387,2.387,0,0,0-.776.923V14H244.16V6.075ZM253.909,14h-1.355V6.075h1.355ZM252.444,3.973a.809.809,0,0,1,.2-.557.756.756,0,0,1,.6-.227.768.768,0,0,1,.6.227.8.8,0,0,1,.205.557.774.774,0,0,1-.205.549.782.782,0,0,1-.6.22.77.77,0,0,1-.6-.22A.782.782,0,0,1,252.444,3.973Zm3.3,6a4.642,4.642,0,0,1,.864-2.933,2.941,2.941,0,0,1,4.468-.157V2.75h1.355V14h-1.245l-.066-.85a2.759,2.759,0,0,1-2.263,1,2.707,2.707,0,0,1-2.245-1.128,4.7,4.7,0,0,1-.868-2.944Zm1.355.154a3.515,3.515,0,0,0,.557,2.109A1.8,1.8,0,0,0,259.2,13a1.977,1.977,0,0,0,1.882-1.157V8.2a1.992,1.992,0,0,0-1.868-1.121,1.808,1.808,0,0,0-1.553.769A3.87,3.87,0,0,0,257.1,10.125ZM269.429,14a2.846,2.846,0,0,1-.19-.835,3.023,3.023,0,0,1-2.256.981,2.8,2.8,0,0,1-1.923-.663,2.145,2.145,0,0,1-.751-1.681,2.24,2.24,0,0,1,.941-1.923A4.437,4.437,0,0,1,267.9,9.2h1.318V8.573a1.522,1.522,0,0,0-.425-1.132,1.707,1.707,0,0,0-1.252-.421,1.976,1.976,0,0,0-1.216.366,1.079,1.079,0,0,0-.491.886H264.47a1.87,1.87,0,0,1,.421-1.146,2.874,2.874,0,0,1,1.143-.875,3.844,3.844,0,0,1,1.586-.322,3.133,3.133,0,0,1,2.146.685,2.47,2.47,0,0,1,.806,1.886v3.647a4.459,4.459,0,0,0,.278,1.736V14Zm-2.249-1.033a2.381,2.381,0,0,0,1.208-.33,1.994,1.994,0,0,0,.828-.857V10.155h-1.062q-2.49,0-2.49,1.458a1.234,1.234,0,0,0,.425,1A1.633,1.633,0,0,0,267.18,12.967Zm5.186-3a4.642,4.642,0,0,1,.864-2.933,2.941,2.941,0,0,1,4.468-.157V2.75h1.355V14h-1.245l-.066-.85a2.759,2.759,0,0,1-2.263,1,2.707,2.707,0,0,1-2.245-1.128,4.7,4.7,0,0,1-.868-2.944Zm1.355.154a3.515,3.515,0,0,0,.557,2.109,1.8,1.8,0,0,0,1.538.762,1.977,1.977,0,0,0,1.882-1.157V8.2a1.992,1.992,0,0,0-1.868-1.121,1.808,1.808,0,0,0-1.553.769A3.87,3.87,0,0,0,273.721,10.125Zm13.74,1.89,1.846-5.94h1.45l-3.186,9.148q-.74,1.978-2.351,1.978l-.256-.022-.505-.1v-1.1l.366.029a1.8,1.8,0,0,0,1.073-.278,2.014,2.014,0,0,0,.634-1.018l.3-.806L284,6.075h1.479ZM5.64,31.9a1,1,0,0,0-.414-.853,3.983,3.983,0,0,0-1.443-.524,6.822,6.822,0,0,1-1.633-.527,2.324,2.324,0,0,1-.894-.732A1.752,1.752,0,0,1,.967,28.25,2.056,2.056,0,0,1,1.791,26.6,3.218,3.218,0,0,1,3.9,25.929a3.311,3.311,0,0,1,2.186.7,2.21,2.21,0,0,1,.839,1.78H5.559a1.223,1.223,0,0,0-.472-.959,1.77,1.77,0,0,0-1.19-.4,1.852,1.852,0,0,0-1.157.322,1.014,1.014,0,0,0-.417.842.822.822,0,0,0,.388.74,4.776,4.776,0,0,0,1.4.476,7.308,7.308,0,0,1,1.644.542,2.4,2.4,0,0,1,.934.758,1.864,1.864,0,0,1,.3,1.08,2.028,2.028,0,0,1-.85,1.7,3.564,3.564,0,0,1-2.2.641,3.991,3.991,0,0,1-1.685-.337,2.74,2.74,0,0,1-1.146-.941A2.268,2.268,0,0,1,.7,31.561H2.051a1.4,1.4,0,0,0,.546,1.08,2.117,2.117,0,0,0,1.344.4,2.185,2.185,0,0,0,1.234-.311A.956.956,0,0,0,5.64,31.9ZM8.4,29.964a4.681,4.681,0,0,1,.458-2.095,3.415,3.415,0,0,1,1.274-1.436A3.469,3.469,0,0,1,12,25.929a3.342,3.342,0,0,1,2.618,1.121,4.311,4.311,0,0,1,1,2.981v.1a4.722,4.722,0,0,1-.443,2.076,3.365,3.365,0,0,1-1.267,1.432,3.509,3.509,0,0,1-1.893.513A3.334,3.334,0,0,1,9.4,33.026a4.29,4.29,0,0,1-1-2.966Zm1.362.161a3.39,3.39,0,0,0,.612,2.117,2.072,2.072,0,0,0,3.278-.011,3.707,3.707,0,0,0,.608-2.267,3.384,3.384,0,0,0-.619-2.113A1.968,1.968,0,0,0,12,27.042a1.946,1.946,0,0,0-1.619.8A3.68,3.68,0,0,0,9.763,30.125ZM18.787,34H17.432V22.75h1.355Zm3.64,0H21.072V26.075h1.355ZM20.962,23.973a.809.809,0,0,1,.2-.557.756.756,0,0,1,.6-.227.768.768,0,0,1,.6.227.8.8,0,0,1,.205.557.774.774,0,0,1-.205.549.782.782,0,0,1-.6.22.77.77,0,0,1-.6-.22A.782.782,0,0,1,20.962,23.973Zm3.3,6a4.642,4.642,0,0,1,.864-2.933,2.941,2.941,0,0,1,4.468-.157V22.75h1.355V34H29.707l-.066-.85a2.759,2.759,0,0,1-2.263,1,2.707,2.707,0,0,1-2.245-1.128,4.7,4.7,0,0,1-.868-2.944Zm1.355.154a3.515,3.515,0,0,0,.557,2.109A1.8,1.8,0,0,0,27.715,33,1.977,1.977,0,0,0,29.6,31.839V28.2a1.992,1.992,0,0,0-1.868-1.121,1.808,1.808,0,0,0-1.553.769A3.87,3.87,0,0,0,25.62,30.125ZM37.947,34a2.846,2.846,0,0,1-.19-.835,3.023,3.023,0,0,1-2.256.981,2.8,2.8,0,0,1-1.923-.663,2.145,2.145,0,0,1-.751-1.681,2.24,2.24,0,0,1,.941-1.923,4.437,4.437,0,0,1,2.648-.685h1.318v-.623a1.522,1.522,0,0,0-.425-1.132,1.707,1.707,0,0,0-1.252-.421,1.976,1.976,0,0,0-1.216.366,1.079,1.079,0,0,0-.491.886H32.988a1.87,1.87,0,0,1,.421-1.146,2.874,2.874,0,0,1,1.143-.875,3.844,3.844,0,0,1,1.586-.322,3.133,3.133,0,0,1,2.146.685,2.47,2.47,0,0,1,.806,1.886v3.647a4.459,4.459,0,0,0,.278,1.736V34ZM35.7,32.967a2.381,2.381,0,0,0,1.208-.33,1.994,1.994,0,0,0,.828-.857V30.155H36.672q-2.49,0-2.49,1.458a1.234,1.234,0,0,0,.425,1A1.633,1.633,0,0,0,35.7,32.967Zm9.346-5.676a4.06,4.06,0,0,0-.667-.051,1.786,1.786,0,0,0-1.809,1.135V34H41.213V26.075h1.318l.022.916a2.11,2.11,0,0,1,1.89-1.062,1.384,1.384,0,0,1,.6.1ZM47.761,34H46.406V26.075h1.355ZM46.3,23.973a.809.809,0,0,1,.2-.557.756.756,0,0,1,.6-.227.768.768,0,0,1,.6.227.8.8,0,0,1,.205.557.774.774,0,0,1-.205.549.782.782,0,0,1-.6.22.77.77,0,0,1-.6-.22A.782.782,0,0,1,46.3,23.973Zm3.3,6a4.642,4.642,0,0,1,.864-2.933,2.941,2.941,0,0,1,4.468-.157V22.75h1.355V34H55.042l-.066-.85a2.759,2.759,0,0,1-2.263,1,2.707,2.707,0,0,1-2.245-1.128,4.7,4.7,0,0,1-.868-2.944Zm1.355.154a3.515,3.515,0,0,0,.557,2.109A1.8,1.8,0,0,0,53.049,33a1.977,1.977,0,0,0,1.882-1.157V28.2a1.992,1.992,0,0,0-1.868-1.121,1.808,1.808,0,0,0-1.553.769A3.87,3.87,0,0,0,50.955,30.125ZM63.281,34a2.846,2.846,0,0,1-.19-.835,3.023,3.023,0,0,1-2.256.981,2.8,2.8,0,0,1-1.923-.663,2.145,2.145,0,0,1-.751-1.681A2.24,2.24,0,0,1,59.1,29.88,4.437,4.437,0,0,1,61.75,29.2h1.318v-.623a1.522,1.522,0,0,0-.425-1.132,1.707,1.707,0,0,0-1.252-.421,1.976,1.976,0,0,0-1.216.366,1.079,1.079,0,0,0-.491.886H58.323a1.87,1.87,0,0,1,.421-1.146,2.874,2.874,0,0,1,1.143-.875,3.844,3.844,0,0,1,1.586-.322,3.133,3.133,0,0,1,2.146.685,2.47,2.47,0,0,1,.806,1.886v3.647a4.459,4.459,0,0,0,.278,1.736V34Zm-2.249-1.033a2.381,2.381,0,0,0,1.208-.33,1.994,1.994,0,0,0,.828-.857V30.155H62.007q-2.49,0-2.49,1.458a1.234,1.234,0,0,0,.425,1A1.633,1.633,0,0,0,61.033,32.967Zm5.186-3a4.642,4.642,0,0,1,.864-2.933,2.941,2.941,0,0,1,4.468-.157V22.75h1.355V34H71.66l-.066-.85a2.759,2.759,0,0,1-2.263,1,2.707,2.707,0,0,1-2.245-1.128,4.7,4.7,0,0,1-.868-2.944Zm1.355.154a3.515,3.515,0,0,0,.557,2.109A1.8,1.8,0,0,0,69.668,33a1.977,1.977,0,0,0,1.882-1.157V28.2a1.992,1.992,0,0,0-1.868-1.121,1.808,1.808,0,0,0-1.553.769A3.87,3.87,0,0,0,67.573,30.125ZM81.9,33.041a1.952,1.952,0,0,0,1.267-.439,1.546,1.546,0,0,0,.6-1.1h1.282a2.457,2.457,0,0,1-.469,1.3,3.087,3.087,0,0,1-1.154.981,3.329,3.329,0,0,1-1.527.366,3.265,3.265,0,0,1-2.574-1.08,4.3,4.3,0,0,1-.956-2.955v-.227a4.771,4.771,0,0,1,.425-2.058,3.236,3.236,0,0,1,1.219-1.4,3.464,3.464,0,0,1,1.879-.5,3.178,3.178,0,0,1,2.216.8,2.853,2.853,0,0,1,.941,2.073H83.767a1.867,1.867,0,0,0-.582-1.263,1.811,1.811,0,0,0-1.293-.494,1.9,1.9,0,0,0-1.6.743,3.491,3.491,0,0,0-.568,2.15v.256a3.422,3.422,0,0,0,.564,2.109A1.906,1.906,0,0,0,81.9,33.041Zm4.314-3.076a4.681,4.681,0,0,1,.458-2.095,3.415,3.415,0,0,1,1.274-1.436,3.469,3.469,0,0,1,1.864-.505,3.342,3.342,0,0,1,2.618,1.121,4.311,4.311,0,0,1,1,2.981v.1a4.722,4.722,0,0,1-.443,2.076,3.365,3.365,0,0,1-1.267,1.432,3.509,3.509,0,0,1-1.893.513,3.334,3.334,0,0,1-2.611-1.121,4.29,4.29,0,0,1-1-2.966Zm1.362.161a3.39,3.39,0,0,0,.612,2.117,2.072,2.072,0,0,0,3.278-.011,3.707,3.707,0,0,0,.608-2.267,3.384,3.384,0,0,0-.619-2.113,1.968,1.968,0,0,0-1.644-.809,1.946,1.946,0,0,0-1.619.8A3.68,3.68,0,0,0,87.576,30.125Zm8.833-4.05.044,1a2.888,2.888,0,0,1,2.373-1.143q2.512,0,2.534,2.834V34H100V28.756a1.824,1.824,0,0,0-.392-1.267,1.57,1.57,0,0,0-1.2-.41,1.956,1.956,0,0,0-1.157.352,2.387,2.387,0,0,0-.776.923V34H95.127V26.075ZM108.589,34h-1.355V22.75h1.355Zm7.061,0a2.846,2.846,0,0,1-.19-.835,3.023,3.023,0,0,1-2.256.981,2.8,2.8,0,0,1-1.923-.663,2.145,2.145,0,0,1-.751-1.681,2.24,2.24,0,0,1,.941-1.923,4.437,4.437,0,0,1,2.648-.685h1.318v-.623a1.522,1.522,0,0,0-.425-1.132,1.707,1.707,0,0,0-1.252-.421,1.976,1.976,0,0,0-1.216.366,1.079,1.079,0,0,0-.491.886h-1.362a1.87,1.87,0,0,1,.421-1.146,2.874,2.874,0,0,1,1.143-.875,3.844,3.844,0,0,1,1.586-.322,3.133,3.133,0,0,1,2.146.685,2.47,2.47,0,0,1,.806,1.886v3.647a4.459,4.459,0,0,0,.278,1.736V34ZM113.4,32.967a2.381,2.381,0,0,0,1.208-.33,1.994,1.994,0,0,0,.828-.857V30.155h-1.062q-2.49,0-2.49,1.458a1.234,1.234,0,0,0,.425,1A1.633,1.633,0,0,0,113.4,32.967Zm8.906-3a4.658,4.658,0,0,1,.857-2.948,2.954,2.954,0,0,1,4.534-.07l.066-.879H129V33.81a3.224,3.224,0,0,1-.912,2.424,3.365,3.365,0,0,1-2.45.886,4.076,4.076,0,0,1-1.677-.366,2.887,2.887,0,0,1-1.252-1l.7-.813a2.65,2.65,0,0,0,2.131,1.077,2.076,2.076,0,0,0,1.542-.557,2.128,2.128,0,0,0,.553-1.567v-.681a2.785,2.785,0,0,1-2.219.938,2.707,2.707,0,0,1-2.252-1.121A4.9,4.9,0,0,1,122.307,29.972Zm1.362.154a3.553,3.553,0,0,0,.549,2.106,1.785,1.785,0,0,0,1.538.765,1.985,1.985,0,0,0,1.882-1.165V28.214a2.008,2.008,0,0,0-1.868-1.135,1.8,1.8,0,0,0-1.545.769A3.87,3.87,0,0,0,123.669,30.125Zm10.664,4.021a3.463,3.463,0,0,1-2.622-1.058,3.928,3.928,0,0,1-1.011-2.831v-.249a4.756,4.756,0,0,1,.45-2.106,3.514,3.514,0,0,1,1.26-1.45,3.167,3.167,0,0,1,1.754-.524,2.968,2.968,0,0,1,2.4,1.018,4.408,4.408,0,0,1,.857,2.915v.564h-5.369a2.817,2.817,0,0,0,.685,1.893,2.153,2.153,0,0,0,1.666.721,2.36,2.36,0,0,0,1.216-.293,3.055,3.055,0,0,0,.872-.776l.828.645A3.328,3.328,0,0,1,134.333,34.146Zm-.168-7.1a1.807,1.807,0,0,0-1.377.6,2.9,2.9,0,0,0-.688,1.674h3.97v-.1a2.581,2.581,0,0,0-.557-1.6A1.7,1.7,0,0,0,134.165,27.042Zm6.108-.967.044,1a2.888,2.888,0,0,1,2.373-1.143q2.512,0,2.534,2.834V34H143.87V28.756a1.824,1.824,0,0,0-.392-1.267,1.57,1.57,0,0,0-1.2-.41,1.956,1.956,0,0,0-1.157.352,2.387,2.387,0,0,0-.776.923V34h-1.355V26.075Zm8.833-1.919v1.919h1.479v1.047h-1.479v4.921a1.1,1.1,0,0,0,.2.715.832.832,0,0,0,.674.238,3.281,3.281,0,0,0,.645-.088V34a3.951,3.951,0,0,1-1.04.146,1.687,1.687,0,0,1-1.37-.549,2.36,2.36,0,0,1-.461-1.56V27.123h-1.443V26.075h1.443V24.156Zm6.35,9.99a3.463,3.463,0,0,1-2.622-1.058,3.928,3.928,0,0,1-1.011-2.831v-.249a4.756,4.756,0,0,1,.45-2.106,3.514,3.514,0,0,1,1.26-1.45,3.167,3.167,0,0,1,1.754-.524,2.968,2.968,0,0,1,2.4,1.018,4.408,4.408,0,0,1,.857,2.915v.564h-5.369a2.817,2.817,0,0,0,.685,1.893,2.153,2.153,0,0,0,1.666.721,2.36,2.36,0,0,0,1.216-.293,3.055,3.055,0,0,0,.872-.776l.828.645A3.328,3.328,0,0,1,155.457,34.146Zm-.168-7.1a1.807,1.807,0,0,0-1.377.6,2.9,2.9,0,0,0-.688,1.674h3.97v-.1a2.581,2.581,0,0,0-.557-1.6A1.7,1.7,0,0,0,155.288,27.042Zm8.181,2.922a4.681,4.681,0,0,1,.458-2.095,3.415,3.415,0,0,1,1.274-1.436,3.469,3.469,0,0,1,1.864-.505,3.342,3.342,0,0,1,2.618,1.121,4.311,4.311,0,0,1,1,2.981v.1a4.722,4.722,0,0,1-.443,2.076,3.365,3.365,0,0,1-1.267,1.432,3.509,3.509,0,0,1-1.893.513,3.334,3.334,0,0,1-2.611-1.121,4.29,4.29,0,0,1-1-2.966Zm1.362.161a3.39,3.39,0,0,0,.612,2.117,2.072,2.072,0,0,0,3.278-.011,3.707,3.707,0,0,0,.608-2.267,3.384,3.384,0,0,0-.619-2.113,1.968,1.968,0,0,0-1.644-.809,1.946,1.946,0,0,0-1.619.8A3.68,3.68,0,0,0,164.832,30.125Zm14.246,0a4.745,4.745,0,0,1-.828,2.915,2.653,2.653,0,0,1-2.241,1.106,2.906,2.906,0,0,1-2.271-.916v3.816h-1.355V26.075h1.238l.066.879a2.791,2.791,0,0,1,2.3-1.025,2.7,2.7,0,0,1,2.26,1.077,4.8,4.8,0,0,1,.831,3Zm-1.355-.154a3.5,3.5,0,0,0-.571-2.117,1.84,1.84,0,0,0-1.567-.776,1.992,1.992,0,0,0-1.846,1.091v3.787a2,2,0,0,0,1.86,1.084,1.832,1.832,0,0,0,1.549-.773A3.822,3.822,0,0,0,177.722,29.972Zm6.907-2.681a4.06,4.06,0,0,0-.667-.051,1.786,1.786,0,0,0-1.809,1.135V34H180.8V26.075h1.318l.022.916a2.11,2.11,0,0,1,1.89-1.062,1.384,1.384,0,0,1,.6.1ZM187.346,34h-1.355V26.075h1.355Zm-1.465-10.027a.809.809,0,0,1,.2-.557.756.756,0,0,1,.6-.227.768.768,0,0,1,.6.227.8.8,0,0,1,.205.557.774.774,0,0,1-.205.549.782.782,0,0,1-.6.22.77.77,0,0,1-.6-.22A.782.782,0,0,1,185.881,23.973Zm4.907,2.1.037.879a2.927,2.927,0,0,1,2.351-1.025,2.266,2.266,0,0,1,2.263,1.274,3,3,0,0,1,1.029-.923,3.039,3.039,0,0,1,1.5-.352q2.607,0,2.651,2.761V34h-1.355V28.771a1.82,1.82,0,0,0-.388-1.271,1.71,1.71,0,0,0-1.3-.421,1.8,1.8,0,0,0-1.252.45,1.827,1.827,0,0,0-.579,1.212V34h-1.362V28.807a1.512,1.512,0,0,0-1.692-1.729,1.813,1.813,0,0,0-1.824,1.135V34h-1.355V26.075ZM204.133,34h-1.355V26.075h1.355Zm-1.465-10.027a.809.809,0,0,1,.2-.557.756.756,0,0,1,.6-.227.768.768,0,0,1,.6.227.8.8,0,0,1,.205.557.774.774,0,0,1-.205.549.782.782,0,0,1-.6.22.77.77,0,0,1-.6-.22A.782.782,0,0,1,202.668,23.973Zm3.3,6a4.642,4.642,0,0,1,.864-2.933,2.941,2.941,0,0,1,4.468-.157V22.75h1.355V34h-1.245l-.066-.85a2.759,2.759,0,0,1-2.263,1,2.707,2.707,0,0,1-2.245-1.128,4.7,4.7,0,0,1-.868-2.944Zm1.355.154a3.515,3.515,0,0,0,.557,2.109,1.8,1.8,0,0,0,1.538.762,1.977,1.977,0,0,0,1.882-1.157V28.2a1.992,1.992,0,0,0-1.868-1.121,1.808,1.808,0,0,0-1.553.769A3.87,3.87,0,0,0,207.327,30.125ZM219.653,34a2.846,2.846,0,0,1-.19-.835,3.023,3.023,0,0,1-2.256.981,2.8,2.8,0,0,1-1.923-.663,2.145,2.145,0,0,1-.751-1.681,2.24,2.24,0,0,1,.941-1.923,4.437,4.437,0,0,1,2.648-.685h1.318v-.623a1.522,1.522,0,0,0-.425-1.132,1.707,1.707,0,0,0-1.252-.421,1.976,1.976,0,0,0-1.216.366,1.079,1.079,0,0,0-.491.886h-1.362a1.87,1.87,0,0,1,.421-1.146,2.874,2.874,0,0,1,1.143-.875,3.844,3.844,0,0,1,1.586-.322,3.133,3.133,0,0,1,2.146.685A2.47,2.47,0,0,1,220.8,28.5v3.647a4.459,4.459,0,0,0,.278,1.736V34ZM217.4,32.967a2.381,2.381,0,0,0,1.208-.33,1.994,1.994,0,0,0,.828-.857V30.155h-1.062q-2.49,0-2.49,1.458a1.234,1.234,0,0,0,.425,1A1.633,1.633,0,0,0,217.4,32.967Zm5.544.322a.849.849,0,0,1,.209-.586.8.8,0,0,1,.626-.234.819.819,0,0,1,.634.234.831.831,0,0,1,.216.586.786.786,0,0,1-.216.564.834.834,0,0,1-.634.227.753.753,0,0,1-.835-.791Z" transform="translate(940.426 2661.207)" fill="#fff"/>
    <g id="Enmascarar_grupo_77" data-name="Enmascarar grupo 77" transform="translate(0 -21.5)" clip-path="url(#clip-path)">
      <g id="Grupo_53985" data-name="Grupo 53985" transform="translate(987.924 2208.635)">
        <rect id="Rectángulo_9016" data-name="Rectángulo 9016" width="403" height="553" transform="translate(-82.498 -81.634)" fill="#f8e7b9"/>
        <rect id="Rectángulo_9017" data-name="Rectángulo 9017" width="305.45" height="326.667" transform="translate(-33.573 -28.112)" fill="#98002c"/>
        <g id="Grupo_53963" data-name="Grupo 53963" transform="translate(-24.199 -16.499)">
          <path id="Trazado_101994" data-name="Trazado 101994" d="M41.56,39H30.333V67.018l120.84,99.814a29.673,29.673,0,0,1,2.883-3.185Z" transform="translate(-30.333 -39)" fill="#cd1725"/>
          <path id="Trazado_101995" data-name="Trazado 101995" d="M177.212,158.8l-57-119.8H92.18l81.46,121.946A28.037,28.037,0,0,1,177.212,158.8Z" transform="translate(-46.636 -39)" fill="#db9c70"/>
          <path id="Trazado_101996" data-name="Trazado 101996" d="M291.793,39H268.01L235.1,157.02a27.062,27.062,0,0,1,3.806,1.444Z" transform="translate(-84.311 -39)" fill="#cd1725"/>
          <path id="Trazado_101997" data-name="Trazado 101997" d="M223.725,155.907a28.688,28.688,0,0,1,3.867.259L242.682,39H221.763l1.549,116.91Z" transform="translate(-80.796 -39)" fill="#db9c70"/>
          <path id="Trazado_101998" data-name="Trazado 101998" d="M30.333,185.237v22.206l114.774,10.342a29.531,29.531,0,0,1,.658-4.181Z" transform="translate(-30.333 -74.486)" fill="#cd1725"/>
          <path id="Trazado_101999" data-name="Trazado 101999" d="M377.5,146.878,259.7,199.6a29.007,29.007,0,0,1,1.337,3.929L377.5,171.342Z" transform="translate(-90.796 -65.178)" fill="#db9c70"/>
          <path id="Trazado_102000" data-name="Trazado 102000" d="M375.928,66.075l-122.185,106.7a29.481,29.481,0,0,1,2.473,3.481L375.928,99.469Z" transform="translate(-89.226 -45.57)" fill="#cd1725"/>
          <path id="Trazado_102001" data-name="Trazado 102001" d="M199.707,157.246a27.02,27.02,0,0,1,3.949-.964L185.315,39H163.224Z" transform="translate(-65.364 -39)" fill="#cd1725"/>
          <path id="Trazado_102002" data-name="Trazado 102002" d="M30.333,262.876l115.248-24.533a30.09,30.09,0,0,1-.538-4.238l-114.71,6.774Z" transform="translate(-30.333 -86.344)" fill="#db9c70"/>
          <path id="Trazado_102003" data-name="Trazado 102003" d="M245.171,160.5a28.847,28.847,0,0,1,3.353,2.61L354.531,39H321.647Z" transform="translate(-86.966 -39)" fill="#db9c70"/>
          <path id="Trazado_102004" data-name="Trazado 102004" d="M30.333,118.18v26.9l116.661,48.281a29.11,29.11,0,0,1,1.806-3.778Z" transform="translate(-30.333 -58.214)" fill="#db9c70"/>
          <path id="Trazado_102005" data-name="Trazado 102005" d="M234,268.547l45.29,183.516a207.935,207.935,0,0,0,29.649-10.192l-71.1-174.642A26.982,26.982,0,0,1,234,268.547Z" transform="translate(-84.022 -94.381)" fill="#cd1725"/>
          <path id="Trazado_102006" data-name="Trazado 102006" d="M375.718,335.4,255.532,252.945a29.61,29.61,0,0,1-2.584,3.413l122.77,114.034Z" transform="translate(-89.016 -90.916)" fill="#cd1725"/>
          <path id="Trazado_102007" data-name="Trazado 102007" d="M244.164,263.909l95.262,162.017c8.852-5.505,24.091-3.917,32.075-10.7L247.578,261.417A28.514,28.514,0,0,1,244.164,263.909Z" transform="translate(-86.701 -92.971)" fill="#db9c70"/>
          <path id="Trazado_102008" data-name="Trazado 102008" d="M377.371,279.16,260.679,242.917a28.917,28.917,0,0,1-1.461,3.9l118.153,57.373Z" transform="translate(-90.669 -88.482)" fill="#db9c70"/>
          <path id="Trazado_102009" data-name="Trazado 102009" d="M378.21,248.059V208.976l-115.7,13.763a31.544,31.544,0,0,1-.113,7.864Z" transform="translate(-91.508 -80.246)" fill="#cd1725"/>
          <path id="Trazado_102010" data-name="Trazado 102010" d="M30.333,315.051,148.375,248.8a28.709,28.709,0,0,1-1.681-3.812L30.333,288.944Z" transform="translate(-30.333 -88.986)" fill="#cd1725"/>
          <path id="Trazado_102011" data-name="Trazado 102011" d="M162.868,262.8,54.051,415.515a212.514,212.514,0,0,0,26.4,16.992L166.4,265.071A28.489,28.489,0,0,1,162.868,262.8Z" transform="translate(-36.585 -93.306)" fill="#cd1725"/>
          <path id="Trazado_102012" data-name="Trazado 102012" d="M30.333,386.353l123.08-128.312a29.651,29.651,0,0,1-2.779-3.263l-120.3,93.3Z" transform="translate(-30.333 -91.36)" fill="#db9c70"/>
          <path id="Trazado_102013" data-name="Trazado 102013" d="M189.833,268.011l-61.026,178.63a207.593,207.593,0,0,0,30.172,8.385L193.743,269.1A26.829,26.829,0,0,1,189.833,268.011Z" transform="translate(-56.292 -94.572)" fill="#db9c70"/>
          <path id="Trazado_102014" data-name="Trazado 102014" d="M219.762,270.063l-8.01,189.156c3.093.139,6.233.209,9.35.209a208.968,208.968,0,0,0,21.6-1.126L224.1,269.937A29.378,29.378,0,0,1,219.762,270.063Z" transform="translate(-78.157 -95.039)" fill="#cd1725"/>
        </g>
        <g id="Grupo_53967" data-name="Grupo 53967" transform="translate(23.651 22.476)">
          <g id="Grupo_53966" data-name="Grupo 53966">
            <path id="Trazado_102015" data-name="Trazado 102015" d="M153.206,276.977c1.069,5.692,12.025,63.365,15.224,80.208h63.345a124.417,124.417,0,0,0,30.854-17.513c-15.628-53.64-19.12-52.935-22.394-80.5-.729-6.134,45.183-92.2,43.062-95.183s-26.172-40.1-31.262-49.851-13.223-6.077-13.223-6.077-5.934-23.241-34.439-10.012c0,0-10.374-18.2-35.91,1.789,0,0-28.179-12.325-40.894,18.074,0,0-29.127,3.251-31.9,17.519s11.294,72.01,19.423,86.681S151.953,270.3,153.206,276.977Z" transform="translate(-95.312 -90.463)" fill="#f8e7b9"/>
            <path id="Trazado_102016" data-name="Trazado 102016" d="M187.507,128.747c3.559,9.755,5.711,20.593,9,30.55,4.217-1.5,8.531-2.926,12.86-4.367l-5.693-23.445c-.929-3.145-3.556-8.712-4.03-11.962l-2.061-22.177c-2.246,1.288-5.894,2.238-8.435,4.227a35.892,35.892,0,0,0-15.422-2.378,72.04,72.04,0,0,1,4.821,11.278C180.484,117.057,185.16,122.313,187.507,128.747Z" transform="translate(-115.983 -92.133)" fill="#d99566"/>
            <path id="Trazado_102017" data-name="Trazado 102017" d="M235.751,129.046l13.5-3.2a7.846,7.846,0,0,0-.2-1.4,44.772,44.772,0,0,1,2.776-26.527l.057-.134a59.506,59.506,0,0,0-8.127,2.88,36.34,36.34,0,0,0-14.357-6.26c.855,4.02,5.53,13.392,5.7,17.5C235.377,118.777,235.685,128.222,235.751,129.046Z" transform="translate(-130.66 -91.421)" fill="#d99566"/>
            <path id="Trazado_102018" data-name="Trazado 102018" d="M286.736,113.59a13.689,13.689,0,0,1-2.462-2.353,76.4,76.4,0,0,1-6.437-8.73c-.56,4.4-1.133,9.442-2.273,11.754-1.186,2.4-2.549,5.139-3.8,7.639C276.817,119.244,281.818,116.5,286.736,113.59Z" transform="translate(-141.827 -93.386)" fill="#d99566"/>
            <path id="Trazado_102019" data-name="Trazado 102019" d="M138.741,151.247c3.391,6.437,7.323,19.374,11.273,25.933,5.251-2.638,10.521-5.234,15.848-7.7-3.567-11.668-10.081-18.661-14.2-29.76-3.007-8.094-5.693-21.252-8.936-29.432a38.366,38.366,0,0,0-7.994,12.437,81.515,81.515,0,0,1-12.264,4.794C124.578,130.277,134.7,143.583,138.741,151.247Z" transform="translate(-102.469 -95.273)" fill="#d99566"/>
            <path id="Trazado_102020" data-name="Trazado 102020" d="M103.037,160.342c1.092,1.428,2.3,2.866,3.694,4.37a32.308,32.308,0,0,1,5.8,7.616c3.625,7.381,6.857,15.064,10.046,22.714q4.9-2.555,9.812-5.09c-3.953-6.464-14.217-14.732-17.467-20.863-3.49-6.583-9.418-25.154-12.444-28.926-3.255,2.027-4.358,1.92-5.7,5.06C98.947,150.184,101.131,155.215,103.037,160.342Z" transform="translate(-95.699 -102.523)" fill="#d99566"/>
            <path id="Trazado_102021" data-name="Trazado 102021" d="M123.57,191.1c-2.94-4.477-8.41-17.223-13.586-18.053-1.7,4.18-1.477,10.906-.811,15.5.974,6.715,4.845,10.345,8.837,15.676,3.588,4.792,6.089,10.009,9.438,15.021,2.828,4.233,7.172,7.089,10.063,11.286,2.865,4.16,5.182,7.321,9.249,10.613a78.849,78.849,0,0,0,30.149,15.1c8.334,2.1,14.973,2.373,23.074-1.163,9.629-4.2,21.642-9.783,28.5-18.049a42.072,42.072,0,0,0,9.506-20.838c1.046-7.407.008-15.856,4.859-22.087,3.59-4.612,12.013-6.484,12.458-13.478.395-6.21-5.594-14.549-7.594-20.352-1.073-3.116-.376-7.594-3.422-9.505-5.512,5.311-12.541,6.952-19.483,9.21-12.27,3.991-24.47.655-29.257-3.085-2.31-1.8-1.587,5.823-5.616,5.485l2.285,10.2Z" transform="translate(-98.835 -105.097)" fill="#d99566"/>
            <g id="Grupo_53965" data-name="Grupo 53965" transform="translate(0 0.004)">
              <g id="Grupo_53964" data-name="Grupo 53964">
                <path id="Trazado_102022" data-name="Trazado 102022" d="M250.511,100.827c7.633-3.542,13.635-4.455,18.351-3.913-4.706-2.23-11.43-2.829-20.912.855A14.556,14.556,0,0,1,250.511,100.827Z" transform="translate(-135.549 -91.598)" fill="#5c3426"/>
                <path id="Trazado_102023" data-name="Trazado 102023" d="M300.981,114.516a9.252,9.252,0,0,0-3.869-1.542,16.7,16.7,0,0,1,.8,2.2A9.611,9.611,0,0,1,300.981,114.516Z" transform="translate(-148.508 -95.93)" fill="#5c3426"/>
                <path id="Trazado_102024" data-name="Trazado 102024" d="M200.585,101.487c10.063-7.879,17.762-9.815,23.409-9.282-5.639-2.783-15.1-3.45-29.217,7.564A32.06,32.06,0,0,1,200.585,101.487Z" transform="translate(-121.532 -90.469)" fill="#5c3426"/>
                <path id="Trazado_102025" data-name="Trazado 102025" d="M108.855,189.364c-5.06-20.171-6.979-35.846-5.415-43.889,2.774-14.267,28.386-16.793,28.386-16.793,8.943-21.378,27.166-28.534,36.225-26.8-3.472-1.354-28.657-10.029-40.482,18.241,0,0-29.127,3.251-31.9,17.519-1.638,8.427,2.6,32.019,8.019,52.946Z" transform="translate(-95.312 -92.679)" fill="#5c3426"/>
              </g>
            </g>
            <path id="Trazado_102026" data-name="Trazado 102026" d="M179.891,321.466c5.574,4.949,4.192,21.084,4.68,28.677.94,14.621,3.1,26.731,3.5,43.652.152,6.4,19.369,5.867,18.553,14.121h76.013c-5.359-18.016-15.693-50.266-15.3-62.868-2.91-11.934-11.757-31.046-10.352-43.4.547-4.814-6.547,4.861-5.032.535.179-.9.424-1.77.624-2.659a43.824,43.824,0,0,1-5.294,6c-8.829,8.211-18.472,10.582-29.88,13.238a55.341,55.341,0,0,1-27.755-.717c-.115-.02-.231-.023-.346-.044a32.828,32.828,0,0,1-15.092-6.949c-1-.646-1.98-1.33-2.945-2.039C173.441,313.6,175.932,317.951,179.891,321.466Z" transform="translate(-115.334 -141.194)" fill="#d99566"/>
            <path id="Trazado_102027" data-name="Trazado 102027" d="M240.344,164.042c-13.566,7.2-27.339,2.6-37.995-7.261,3.586,3.32.879,1.116-.42.365a31.864,31.864,0,0,1-7-5.4,28,28,0,0,1-2.661-3.275,21.606,21.606,0,0,1-7.963-3c-.426-.273-.811-.574-1.209-.866.408,9.954-4.675,19.967-16.888,22.861a20.736,20.736,0,0,1-15.385-1.867c-.85,8.649-6.085,16.665-16.8,19.2a21.5,21.5,0,0,1-11.855-.361,87.3,87.3,0,0,1,5.447,8.272c4.664,7.951,8.863,14.064,17.07,18.378a23.844,23.844,0,0,1,6.474,4.833c2.185-1.016,4.355-1.976,6.461-2.9a47.373,47.373,0,0,1,2.942-4.752c.938-1.382,2.351-2.963,2.233-4.788a27.218,27.218,0,0,0-1.1-5.32c-1.264-4.716,5.84-6.715,7.1-2.013.981,3.657,2.06,7.85.7,11.528,9.656-4.184,19.018-6.974,26.792-14.84,3.745-3.79,10.33-5.579,15.915-6.768a19.763,19.763,0,0,1,17.187-6.917c-.2-.016,1.553-.2,3.566-.511a21.659,21.659,0,0,1,2.278-5.018,43.218,43.218,0,0,1,5.619-7.7c.646-.731,1.151-1.293,1.573-1.756.088-.477.2-1.038.312-1.651A28.147,28.147,0,0,1,240.344,164.042Z" transform="translate(-102.392 -103.602)" fill="#cd1725"/>
            <path id="Trazado_102028" data-name="Trazado 102028" d="M243.633,169c-.521.348-1.042.683-1.566.961a28.394,28.394,0,0,1-22,2.256,29.605,29.605,0,0,1-12,9.955c-4.032,1.757-7.582,1.23-11.645-.055a21.087,21.087,0,0,1-4.7-1.809c-2.033,7.091-6.139,13.681-13.609,15.153-7.8,1.537-14.229-2.813-19.672-8.16a18.326,18.326,0,0,1-2.635,6.659c-2.348,3.95-5.532,8.134-10.049,9.508a15.139,15.139,0,0,1-13.561-2.347,17.177,17.177,0,0,1-3.5-3.538c.211.351.425.7.634,1.053,4.664,7.951,8.863,14.064,17.07,18.378a23.844,23.844,0,0,1,6.474,4.833c1.592-.74,3.175-1.449,4.734-2.139,1.458-2.333,3.493-3.984,5.366-6,2.06-2.214,1.323-6.2.434-8.993-1.481-4.655,5.631-6.634,7.1-2.014.739,2.322.752,4.837,1.166,7.242a9.523,9.523,0,0,1-.044,3.471c9.507-4.085,18.71-6.9,26.372-14.656,3.745-3.79,10.33-5.579,15.915-6.768a19.764,19.764,0,0,1,17.187-6.917c-.2-.016,1.553-.2,3.566-.511a21.656,21.656,0,0,1,2.278-5.018,43.218,43.218,0,0,1,5.619-7.7c.646-.731,1.151-1.293,1.573-1.756.06-.325.131-.7.206-1.092Z" transform="translate(-104.115 -109.521)" fill="#98002c"/>
            <path id="Trazado_102029" data-name="Trazado 102029" d="M161.238,317.144c-1.128-10.438,1.233-28.911,7.177-31.085,38.329-14.021,38.92-20.6,38.92-20.6-26.587,12.191-36.441,8.163-36.441,8.163l9.379-9.29s-26.324,10.207-53.208-26.22c-1.047-1.418,12.289,1.827,12.289,1.827-15.114-7.385-20.938-16.9-22.852-21q-1.613-3.447-2.9-6.757c-.418-1.069,3.783-.173,7.134-.123,4.182.062,8.123-.758,6.411-.91-12.519-1.116-17.431-10.805-17.972-13.092a101.732,101.732,0,0,1-2.06-34.007c.33-4.052-10.17-16.009-6.091-24.885a14.037,14.037,0,0,0-5.354,8.079c-2.739,14.085,10.935,70.517,19.106,86.07,10.88,19.211,30.138,39.332,34.244,47.834,2.356,3.494,3.918,6.2,4.189,7.642.577,3.072,4.035,21.3,7.6,40.066A49.665,49.665,0,0,0,161.238,317.144Z" transform="translate(-95.312 -102.283)" fill="#5c3426"/>
            <path id="Trazado_102030" data-name="Trazado 102030" d="M262.321,381.53s-18.894-60.718-26.977-66.52c0,0,23.707-8.906,34.276-20.6a64.776,64.776,0,0,1,10.983-9.324s-6.333,13.883-11.2,19.775c-6.54,7.917-10.278,25.9-8.708,37.224S262.872,377.291,262.321,381.53Z" transform="translate(-132.225 -137.689)" fill="#5c3426"/>
            <path id="Trazado_102031" data-name="Trazado 102031" d="M162.96,239.815s13.566-15.082,13.8-28.083c.068-3.78-1.691-9.727-.73-10.047,2.345-.78,8.519,10.943,7.076,16.759C181.069,226.644,169.783,245.418,162.96,239.815Z" transform="translate(-113.144 -117.443)" fill="#5c3426"/>
            <path id="Trazado_102032" data-name="Trazado 102032" d="M294.64,184.571s-12.791,6.282-19.4,4.862c0,0,1.671,5.7,13.514,13.314,0,0-21.185-2.561-27.431-16.171,0,0,.94-12.007,7.642-15.587s14.96-7.778,14.308-16.087c0,0,1.175,4.7,1.776,4.682a28.827,28.827,0,0,0,3.713-1.253s-3.955,13.136-11.437,21.88C277.323,180.21,288.408,184.3,294.64,184.571Z" transform="translate(-139.073 -106.1)" fill="#5c3426"/>
            <path id="Trazado_102033" data-name="Trazado 102033" d="M238.433,164.7c25.087,5.008,31.3-18.38,31.3-18.38-22.333,27.445-45.538-.487-48.8-3.531s1.38-4.643,1.38-4.643c21.906.535,50.395-18.167,51.774-18.494s27.744,51.432,27.9,52.141-6.35,9.472-11.522,14.479c-4.229,4.093-26.311,72.34-26.834,73.754-1.161,3.137,8.717,29.439,12.924,47.154,3.1,13.033,6.164,37.411,5.2,55.432h15.3c-4.833-16.917-26.392-92.568-27.039-98.013-.171-1.434,6.132-15.314,12.043-27.919,2.052-4.093,4.209-8.589,6.3-13.3,12.241-25,25.9-52.313,24.716-53.97-2.12-2.983-26.173-40.1-31.261-49.851-3.812-7.3-9.331-7.074-11.862-6.5-18.091,12.153-54.761,13.825-60.158,20.333S213.346,159.688,238.433,164.7Z" transform="translate(-125.092 -95.885)" fill="#5c3426"/>
            <path id="Trazado_102034" data-name="Trazado 102034" d="M97.958,144.593s8.544,25.8,18.846,44.771,18.486,28.481,26.867,26.992,16.4-5.332,13.533-20.984c0,0,7.242,17.554,19.939,11.558s11.88-15.761,11.88-15.761,6.654,4.463,15.734.162,6.85-8.852,6.85-8.852,4.508.641,6.836.089l1.387-5.738s-5.879,3.094-11.693-6.955c0,0-1.077,13.2-8.15,16.206s-8.233-.041-10.286-4.865l-4-4.861s1.174,19.639-8.7,23.806-17.218-9.861-22.19-15.488c0,0,1.915,20.791-6.467,24.436s-20.015-7.222-30.381-26.832S97.958,144.593,97.958,144.593Z" transform="translate(-96.009 -103.598)" fill="#5c3426"/>
            <path id="Trazado_102035" data-name="Trazado 102035" d="M172.745,109.111l18.941,56.3s-11.209-57.806-11.326-59.769,17.066-16.474,28.822-1.593l2.278,20.114,3.265-1.272s1.515-20.607,4.521-22.316,19.626-1,24.442,11.137a19.361,19.361,0,0,0,3.011-4.05,8.034,8.034,0,0,0-1.247.4s-5.934-23.241-34.439-10.012c0,0-10.373-18.2-35.91,1.789,0,0-28.179-12.325-40.894,18.074a81.28,81.28,0,0,0-13.7,3.029c5.374.88,13.3,3.689,17.809,12.412,7.266,14.062,19.1,37.148,22.411,48.22s1.576-8.136,1.576-8.136-20.086-52.923-19.751-53.592S154.985,99.71,172.745,109.111Z" transform="translate(-101.954 -90.463)" fill="#5c3426"/>
            <path id="Trazado_102036" data-name="Trazado 102036" d="M255.8,129.578c-.914.479-1.879.934-2.864,1.376,1.128,2.423,4.838,11.47-.188,16.243-5.744,5.456-18.765,2.921-23.173-9.1-2.155.453-3.505.689-3.505.689,5.359,15.991,22.425,19.415,29.876,12.338S255.8,129.578,255.8,129.578Z" transform="translate(-129.782 -99.955)" fill="#5c3426"/>
            <path id="Trazado_102037" data-name="Trazado 102037" d="M136.647,200.513s5.477,8.993,15.673,5.517,10.245-14.773,9.645-17.451-10.53-25.388-10.53-25.388,8.042,27.969,1.1,34.427S138.222,202.46,136.647,200.513Z" transform="translate(-106.208 -108.111)" fill="#5c3426"/>
            <path id="Trazado_102038" data-name="Trazado 102038" d="M172.438,192.985s9.918,9.686,20.26,6.152,10.857-16.2,10.857-16.2l-3.964-11.783s1.972,19.065-8.824,22.96-22.615-13.063-22.615-13.063Z" transform="translate(-114.513 -110.045)" fill="#5c3426"/>
            <path id="Trazado_102039" data-name="Trazado 102039" d="M214.6,182.266S217.094,190,226.61,187.6s11.5-7.039,11.449-10.846l-4.56-3.068s-2.384,9.527-7.96,9.853-14.07-10.583-14.07-10.583Z" transform="translate(-125.932 -110.482)" fill="#5c3426"/>
            <path id="Trazado_102040" data-name="Trazado 102040" d="M127.1,210.089a29.42,29.42,0,0,1-1.984-2.939c-.427-.8-.789-1.631-1.17-2.452-7.581-4.345-16.768-9.714-16.768-9.714l14.339,4.126c-.516-1.332-.988-2.679-1.38-4.053l-15.374-10.851s-1.806-2.5-1.353,5.08,8.4,21.809,8.4,21.809,8.877-.611,15.349-.92C127.136,210.146,127.12,210.118,127.1,210.089Z" transform="translate(-97.427 -113.115)" fill="#5c3426"/>
            <path id="Trazado_102041" data-name="Trazado 102041" d="M188.456,414.135h89.366a119.9,119.9,0,0,0,4.834-17.514c-3.94-13.523-4.2-13.431-16.617-58.173a107.055,107.055,0,0,0,1.3,12.819c3.823,22.726,6.175,50.282-22,56.47-10.768,2.364-26.436,8.26-36.854,1.789-10.076-6.259-13.565-17.511-16.067-28.8-4.035-18.2-7.824-38.363-1.645-55.579l-19.5,4.622a15.34,15.34,0,0,1,1.954,4.153C174.3,339.618,185.256,397.292,188.456,414.135Z" transform="translate(-115.337 -147.412)" fill="#5c3426"/>
          </g>
          <path id="Trazado_102042" data-name="Trazado 102042" d="M239.893,207.167C229.01,209.3,217.213,221.2,215.94,222s-9.623.964-14.61,4.458c-6.176,4.326-7.258,13.183-7.258,13.183,8.761-7.719,16.156-7.485,16.156-7.485-.066.233-.105.447-.164.674-1.9,3.928-3.236,10.957-3.662,16.389-.493,6.292,2.307,14.511,2.372,20.837a18.89,18.89,0,0,0,.753-2.085c1.951-5.687,4.094-25.165,14.8-37.08,5.208-5.8,8.668-10.514,15.237-14.2,5.211-2.928,12.112-5.834,17.329-8.135C251.644,204.382,247.236,205.726,239.893,207.167Z" transform="translate(-121.346 -118.44)" fill="#5c3426"/>
          <path id="Trazado_102043" data-name="Trazado 102043" d="M236.627,224.243c-1.891,1.439-2.3,5.474-2.233,7.637.1,3.038,1.126,5.228,2.55,7.88,1.529,2.847,2.823,5.972,5.76,7.413,3.351,1.644,7.765,3.105,11.425,2.572-2.071.566-4.736-2.654-6.276-3.843-2.125-1.643-4.586-3.081-6.393-5.136-1.9-2.162,5.429-21.077,7.376-25.076C245.554,216.214,239.135,222.335,236.627,224.243Z" transform="translate(-131.973 -120.851)" fill="#5c3426"/>
          <path id="Trazado_102044" data-name="Trazado 102044" d="M249.6,217.135c-2.8,2.973-.706,9.958,1.638,12.62,2.678,3.039,8.586,5.3,12.564,4.327-3.137-.021-6.77-4.32-8.5-6.668-2.643-3.588-1.851-8.865.01-12.663C253.143,215.33,251.162,215.48,249.6,217.135Z" transform="translate(-135.631 -120.623)" fill="#5c3426"/>
        </g>
        <g id="Grupo_53980" data-name="Grupo 53980" transform="translate(-27.741 173.384)">
          <g id="Grupo_53971" data-name="Grupo 53971">
            <g id="Grupo_53970" data-name="Grupo 53970">
              <path id="Trazado_102045" data-name="Trazado 102045" d="M40.085,358.569c-.734,2.352-11.312,36.293-14.561,46.717H68.759c.495-2.38,6.777-32.569,7.7-34.938.957-2.467,35.544-25.146,35.344-26.72s-1.808-20.672-1.768-25.426-3.762-5.1-3.762-5.1S108.7,303.084,95.3,302.013c0,0-.253-9.063-13.891-6.954,0,0-8.144-10.631-19.041-1.877,0,0-11.628-4.962-15.539-.175s-10.207,29.535-10.09,36.79S40.953,355.788,40.085,358.569Z" transform="translate(-25.524 -289.724)" fill="#f8e7b9"/>
              <g id="Grupo_53969" data-name="Grupo 53969" transform="translate(13.695)">
                <g id="Grupo_53968" data-name="Grupo 53968">
                  <path id="Trazado_102046" data-name="Trazado 102046" d="M122.726,307.881a14.932,14.932,0,0,1,7.7,2.424c-1.326-1.84-3.739-3.494-8.052-4.12A6.428,6.428,0,0,1,122.726,307.881Z" transform="translate(-64.75 -293.718)" fill="#5c3426"/>
                  <path id="Trazado_102047" data-name="Trazado 102047" d="M139.033,323.153a4.128,4.128,0,0,0-1.149-1.4,7.176,7.176,0,0,1-.141,1A4.13,4.13,0,0,1,139.033,323.153Z" transform="translate(-68.802 -297.495)" fill="#5c3426"/>
                  <path id="Trazado_102048" data-name="Trazado 102048" d="M103.328,298.541c5.375-.832,8.664.075,10.686,1.475-1.566-2.247-5-4.508-12.529-3.357A14.271,14.271,0,0,1,103.328,298.541Z" transform="translate(-59.243 -291.331)" fill="#5c3426"/>
                  <path id="Trazado_102049" data-name="Trazado 102049" d="M46.315,315.3c2.144-8.676,4.57-14.991,6.775-17.689,3.91-4.787,14.069-.3,14.069-.3,7.664-6.156,15.969-4.981,19.034-2.4-1.036-1.247-8.784-9.867-18.918-1.726,0,0-11.629-4.962-15.54-.175-2.31,2.827-5.452,12.618-7.612,21.655Z" transform="translate(-44.122 -289.723)" fill="#5c3426"/>
                </g>
              </g>
              <path id="Trazado_102050" data-name="Trazado 102050" d="M25.524,426.709H68.759c.33-1.586,3.22-15.476,5.39-25.3a45.611,45.611,0,0,0-2.084,5.108c-3.124,9.376-7.771,20.26-19.63,16.607-4.532-1.4-11.62-2.5-14.247-7.155-2.54-4.5-1.594-9.48-.271-14.264,2.135-7.716,4.757-16.119,10.543-21.293l-8.277-2.4a6.689,6.689,0,0,1-.1,1.98C39.35,382.344,28.772,416.287,25.524,426.709Z" transform="translate(-25.524 -311.147)" fill="#5c3426"/>
              <path id="Trazado_102051" data-name="Trazado 102051" d="M40.775,371.4c1.671-4.173,6.271-10.633,8.947-10.189,17.26,2.859,18.8.507,18.8.507-12.467-1.054-15.372-4.666-15.372-4.666l5.4-1.508S46.584,353.8,43.77,334.358c-.11-.757,4.264,3.3,4.264,3.3-4.212-5.994-4.495-10.817-4.395-12.767q.085-1.641.264-3.163c.057-.492,1.46.738,2.713,1.468,1.563.912,3.214,1.44,2.6,1.019a9.114,9.114,0,0,1-4.143-8.752,43.061,43.061,0,0,1,6.054-13.252c.938-1.456-.616-8.193,2.7-10.672a5.807,5.807,0,0,0-3.64,1.908c-3.861,4.726-10.042,28.9-10.087,36.492.242,9.551,3.457,21.224,3.3,25.3a12.456,12.456,0,0,1,.043,3.769c-.4,1.281-2.756,8.883-5.183,16.712A20.851,20.851,0,0,0,40.775,371.4Z" transform="translate(-28.881 -290.164)" fill="#5c3426"/>
              <path id="Trazado_102052" data-name="Trazado 102052" d="M66.609,419s5.075-26.894,3.194-30.8c0,0,10.722,1.68,17.054-.482a26.978,26.978,0,0,1,6.011-1.181s-5.175,3.887-8.192,5.073c-4.055,1.594-9.074,7.575-10.757,12.177A118.048,118.048,0,0,1,66.609,419Z" transform="translate(-36.354 -313.217)" fill="#5c3426"/>
              <path id="Trazado_102053" data-name="Trazado 102053" d="M58.657,343.411s8.141-2.8,10.84-7.651,3.457,1.22,1.043,3.878S60.1,346.971,58.657,343.411Z" transform="translate(-34.258 -300.452)" fill="#5c3426"/>
              <path id="Trazado_102054" data-name="Trazado 102054" d="M120.1,349.909s-6.082-.349-8.288-2.289c0,0-.514,2.5,2.419,7.888,0,0-7.469-5.466-7.089-11.921,0,0,2.766-4.325,6.01-4.25s7.2.247,8.623-3.023c0,0-.5,2.021-.272,2.143a12.431,12.431,0,0,0,1.651.316,29.007,29.007,0,0,1-8.7,5.816S117.808,348.485,120.1,349.909Z" transform="translate(-47.036 -301.029)" fill="#5c3426"/>
              <path id="Trazado_102055" data-name="Trazado 102055" d="M81.1,411.126c.494-2.379,6.777-32.569,7.7-34.938.224-.576,5.387-4.468,10.145-7.963,1.6-1.106,3.311-2.342,5.045-3.671,9.634-6.82,20.265-14.211,20.154-15.087-.2-1.575-1.808-20.672-1.768-25.426.03-3.561-2.1-4.648-3.164-4.97-9.258.737-23.412-6.423-26.753-5.117s-3.944,10.663,4.5,17.879,15.489-.276,15.489-.276c-13.928,5.6-17.062-9.858-17.681-11.7s1.453-1.456,1.453-1.456c8.147,4.855,22.639,3.859,23.224,4.029s.125,25.275.042,25.575-4.295,2.221-7.249,3.008c-2.416.644-24.444,21.671-24.925,22.092-1.068.935-2.628,12.945-4.6,20.514a36.565,36.565,0,0,1-10.379,17.5Z" transform="translate(-37.862 -295.565)" fill="#5c3426"/>
              <path id="Trazado_102056" data-name="Trazado 102056" d="M55.68,292.528a142.738,142.738,0,0,0-1.89,20.875c.073,9.336,1.246,14.659,4.7,15.878s7.249,1.474,9.315-5.033c0,0-.8,8.154,5.192,8.591s7.642-3.416,7.642-3.416a7.243,7.243,0,0,0,5.9,3.4c4.285.308,4.359-1.881,4.359-1.881a10.439,10.439,0,0,0,2.375,1.275l1.858-1.656s-2.837-.083-3.009-5.105c0,0-3.057,4.746-6.326,4.375s-3.094-1.764-2.9-4.018l-.53-2.681s-3.5,7.65-8.061,7.121-4.508-7.374-5.252-10.55c0,0-3.454,8.241-7.345,7.835s-6.092-6.974-6.059-16.565S55.68,292.528,55.68,292.528Z" transform="translate(-32.974 -290.404)" fill="#5c3426"/>
              <path id="Trazado_102057" data-name="Trazado 102057" d="M89.784,298.052l-4.171,25.241S93,299.129,93.349,298.364s9.74-2.583,11.181,5.523l-3.182,8.063,1.486.214s4.71-7.444,6.186-7.448,7.6,3.792,6.974,9.389a8,8,0,0,0,1.948-.886,3.443,3.443,0,0,0-.549-.117s2.432-10.018-10.966-11.089c0,0-.253-9.063-13.891-6.954,0,0-8.144-10.631-19.04-1.877a35.084,35.084,0,0,0-5.773-1.77,10.534,10.534,0,0,1,4.218,8.46c-.086,6.843-.265,18.056-1.239,22.932s2.228-2.731,2.228-2.731,3.06-24.211,3.321-24.392S84.98,290.736,89.784,298.052Z" transform="translate(-36.648 -289.724)" fill="#5c3426"/>
              <path id="Trazado_102058" data-name="Trazado 102058" d="M118.221,320.761c-.44-.014-.9-.047-1.355-.089-.062,1.153-.481,5.35-3.334,6.081-3.26.835-7.658-2.886-6.9-8.354-.9-.288-1.459-.485-1.459-.485-1.193,7.164,4.551,12.08,8.78,11S118.221,320.761,118.221,320.761Z" transform="translate(-46.477 -296.564)" fill="#5c3426"/>
              <path id="Trazado_102059" data-name="Trazado 102059" d="M56.916,322.6a5.966,5.966,0,0,0,4.8,5.409c4.54.857,6.828-3.391,7.14-4.527s1.13-11.8,1.13-11.8-2.587,12.248-6.5,13.206S57.119,323.667,56.916,322.6Z" transform="translate(-33.799 -295.05)" fill="#5c3426"/>
              <path id="Trazado_102060" data-name="Trazado 102060" d="M73.561,327.369s1.792,5.757,6.4,6.622,7.344-3.8,7.344-3.8l.873-5.282s-3.085,7.6-7.936,6.777-5.9-9.727-5.9-9.727Z" transform="translate(-38.187 -297.546)" fill="#5c3426"/>
              <path id="Trazado_102061" data-name="Trazado 102061" d="M92.324,330.836s-.613,3.444,3.454,4.564,5.745-.211,6.493-1.656l-1.1-2.125s-2.812,3.084-4.979,2.022-3.176-6.977-3.176-6.977Z" transform="translate(-43.124 -298.688)" fill="#5c3426"/>
              <path id="Trazado_102062" data-name="Trazado 102062" d="M53.14,323.418a12.864,12.864,0,0,1-.158-1.53c0-.392.03-.782.052-1.172-1.984-3.247-4.367-7.223-4.367-7.223l4.574,4.6c.073-.611.166-1.219.294-1.82l-3.614-7.355s-.178-1.326-1.53,1.627-1.215,10-1.215,10,3.468,1.656,5.968,2.913C53.142,323.447,53.142,323.433,53.14,323.418Z" transform="translate(-31.231 -294.309)" fill="#5c3426"/>
            </g>
            <path id="Trazado_102063" data-name="Trazado 102063" d="M94.285,348.68c-4.53-1.507-11.365.471-12.005.5s-3.82-1.681-6.4-1.424c-3.2.319-5.382,3.426-5.382,3.426,4.851-1.047,7.591.612,7.591.612-.071.074-.129.145-.2.219a22.245,22.245,0,0,0-4.672,5.4c-1.449,2.266-2.045,5.959-3.291,8.356a7.781,7.781,0,0,0,.7-.626c1.877-1.728,6.6-8.612,13.022-10.829,3.127-1.079,5.379-2.121,8.6-2.116,2.552,0,5.736.374,8.164.616C99.273,350.128,97.342,349.7,94.285,348.68Z" transform="translate(-37.229 -303.8)" fill="#5c3426"/>
            <path id="Trazado_102064" data-name="Trazado 102064" d="M90.821,352.136c-1,.141-1.967,1.574-2.375,2.4a7.267,7.267,0,0,0-.622,3.511c0,1.4-.135,2.851.682,4.017a9.436,9.436,0,0,0,3.789,3.4c-.894-.227-1.252-2.006-1.593-2.782a19.258,19.258,0,0,1-1.378-3.294c-.282-1.218,6.279-6.789,7.815-7.882C95.8,351.007,92.148,351.95,90.821,352.136Z" transform="translate(-41.945 -304.681)" fill="#5c3426"/>
            <path id="Trazado_102065" data-name="Trazado 102065" d="M97.821,351.54c-1.651.526-2.267,3.6-1.917,5.1a6.566,6.566,0,0,0,3.865,4.3c-1.178-.674-1.683-3.066-1.863-4.318-.275-1.914,1.082-3.734,2.547-4.77A4.51,4.51,0,0,0,97.821,351.54Z" transform="translate(-44.052 -304.697)" fill="#5c3426"/>
          </g>
          <g id="Grupo_53975" data-name="Grupo 53975" transform="translate(218.69 31.255)">
            <g id="Grupo_53974" data-name="Grupo 53974">
              <path id="Trazado_102066" data-name="Trazado 102066" d="M336.111,391.709c-.294,1.593-5.306,15.648-8.161,23.59h35.871c1.783-6.932,3.537-13.758,3.826-14.892.617-2.419,11.954-14.013,15.282-19.2s9.851-26.037,9.167-31.344-11.3-7.225-11.3-7.225c-3.955-11.477-14.591-7.651-14.591-7.651-8.907-7.976-13.143-1.549-13.143-1.549-10.156-5.565-12.879,2.821-12.879,2.821s-2.9-1.549-5,1.9-11.8,16.484-12.649,17.527S336.523,389.475,336.111,391.709Z" transform="translate(-322.499 -330.992)" fill="#f8e7b9"/>
              <g id="Grupo_53973" data-name="Grupo 53973" transform="translate(14.365 0.002)">
                <g id="Grupo_53972" data-name="Grupo 53972">
                  <path id="Trazado_102067" data-name="Trazado 102067" d="M358.628,334.074a12.749,12.749,0,0,0-6.646-1.893c1.78-.7,4.263-.755,7.658.833A5.318,5.318,0,0,0,358.628,334.074Z" transform="translate(-344.636 -331.169)" fill="#5c3426"/>
                  <path id="Trazado_102068" data-name="Trazado 102068" d="M342.006,337.985a3.387,3.387,0,0,1,1.457-.47,6.114,6.114,0,0,0-.345.787A3.534,3.534,0,0,0,342.006,337.985Z" transform="translate(-342.006 -332.577)" fill="#5c3426"/>
                  <path id="Trazado_102069" data-name="Trazado 102069" d="M375.855,335.447c-3.51-3.142-6.291-4.044-8.377-3.989,2.136-.882,5.627-.891,10.55,3.5A11.845,11.845,0,0,0,375.855,335.447Z" transform="translate(-348.721 -330.995)" fill="#5c3426"/>
                  <path id="Trazado_102070" data-name="Trazado 102070" d="M401.742,369.612c2.331-7.281,3.4-12.988,3.018-15.981-.684-5.307-10.028-6.871-10.028-6.871-2.781-8.072-9.305-11.152-12.672-10.739,1.306-.411,10.757-2.971,14.435,7.7,0,0,10.618,1.918,11.3,7.225.4,3.135-1.706,11.692-4.187,19.241Z" transform="translate(-352.565 -332.078)" fill="#5c3426"/>
                </g>
              </g>
              <path id="Trazado_102071" data-name="Trazado 102071" d="M373.448,436.368h3.8c1.783-6.932,3.537-13.758,3.826-14.892a5.646,5.646,0,0,1,.815-1.476l-7.052-2.182C376.536,423.7,375.148,430.277,373.448,436.368Z" transform="translate(-335.93 -352.061)" fill="#5c3426"/>
              <path id="Trazado_102072" data-name="Trazado 102072" d="M333.271,437.334a39.314,39.314,0,0,1,1.367-10.862,39.51,39.51,0,0,0,.779-4.674c-1.731,4.973-3.948,11.175-5.516,15.536Z" transform="translate(-324.451 -353.027)" fill="#5c3426"/>
              <path id="Trazado_102073" data-name="Trazado 102073" d="M373.276,415.67c.66-3.8.227-10.646-1.905-11.592-13.744-6.1-13.807-8.528-13.807-8.528,9.476,5.136,13.188,3.9,13.188,3.9l-3.225-3.644s9.426,4.4,20.152-8.306c.418-.495-4.555.365-4.555.365,5.723-2.336,8.085-5.685,8.884-7.142q.673-1.225,1.224-2.408c.179-.382-1.384-.158-2.616-.223-1.537-.081-2.965-.48-2.332-.494a7.5,7.5,0,0,0,6.906-4.361,37.392,37.392,0,0,0,1.555-12.435c-.026-1.5,4.11-5.625,2.821-8.986a5.188,5.188,0,0,1,1.775,3.1c.675,5.239-5.67,25.62-9.036,31.127-4.446,6.783-11.988,13.693-13.7,16.713a10.426,10.426,0,0,0-1.717,2.7c-.284,1.114-1.982,7.72-3.731,14.523A18.308,18.308,0,0,1,373.276,415.67Z" transform="translate(-331.743 -336.046)" fill="#5c3426"/>
              <path id="Trazado_102074" data-name="Trazado 102074" d="M345.912,422.138c-.517,2.527-1.01,6.793-1.292,10.08h1.5c2.618-6.473,7.521-18.012,9.74-19.391,0,0-8.495-3.859-12.1-8.416a23.984,23.984,0,0,0-3.814-3.7,44.947,44.947,0,0,0,3.648,7.539C345.8,411.324,346.755,418.017,345.912,422.138Z" transform="translate(-327.097 -347.911)" fill="#5c3426"/>
              <path id="Trazado_102075" data-name="Trazado 102075" d="M387.391,387.7s-4.627-5.875-4.407-10.654-3.042-.754-2.488,2.307S384.755,389.584,387.391,387.7Z" transform="translate(-337.771 -341.631)" fill="#5c3426"/>
              <path id="Trazado_102076" data-name="Trazado 102076" d="M338.554,363.665s4.549,2.625,7.01,2.267c0,0-.747,2.049-5.275,4.552,0,0,7.839-.413,10.452-5.256,0,0-.063-4.432-2.44-5.913s-5.31-3.228-4.876-6.262c0,0-.542,1.7-.762,1.675a10.731,10.731,0,0,1-1.334-.553,25.938,25.938,0,0,0,3.686,8.318A28.922,28.922,0,0,1,338.554,363.665Z" transform="translate(-326.732 -336.346)" fill="#5c3426"/>
              <path id="Trazado_102077" data-name="Trazado 102077" d="M332.345,382.736c1.874,4.774,3.862,10.028,3.767,10.55-.294,1.593-5.306,15.648-8.161,23.59h3.382a31.586,31.586,0,0,1,1.376-8.119c1.961-6.4,6.206-15.812,5.852-16.992-.158-.532-6.664-26.138-8.121-27.746a26.291,26.291,0,0,1-3.89-5.6c.075-.257,10.97-18.606,11.469-18.452s10.519,7.729,18.575,8.076c0,0,1.667.7.4,1.739s-10.446,10.716-18,.084c0,0,1.734,8.742,11.063,7.526s13.078-8.259,11.249-10.783-15.254-4.048-21.611-8.959c-.915-.273-2.937-.494-4.507,2.093-2.1,3.453-11.8,16.484-12.649,17.527-.471.579,3.9,10.947,7.808,20.43C331,379.478,331.687,381.182,332.345,382.736Z" transform="translate(-322.499 -332.569)" fill="#5c3426"/>
              <path id="Trazado_102078" data-name="Trazado 102078" d="M400.054,353.933a120.3,120.3,0,0,1-7.971,15.971c-4.228,6.709-7.456,10-10.5,9.244s-5.895-2.366-4.477-8.041c0,0-3.071,6.266-7.592,3.749s-3.992-6.082-3.992-6.082a6.058,6.058,0,0,1-5.781-.331c-3.233-1.8-2.307-3.42-2.307-3.42a8.787,8.787,0,0,1-2.286-.2l-.6-2.074s2.085,1.282,4.457-2.264c0,0,.085,4.874,2.612,6.153s3.024.189,3.89-1.531l1.583-1.686s-.893,7.182,2.637,8.957,6.554-3.193,8.511-5.135c0,0-1.191,7.586,1.8,9.133s7.519-2.155,11.785-9.1S400.054,353.933,400.054,353.933Z" transform="translate(-330.948 -336.559)" fill="#5c3426"/>
              <path id="Trazado_102079" data-name="Trazado 102079" d="M373.022,338.452l-8.276,20.2s5.472-20.946,5.562-21.664-5.879-6.473-10.546-1.3l-1.309,7.329-1.169-.548s-.073-7.6-1.136-8.306-7.183-.854-9.236,3.482a7.165,7.165,0,0,1-1.011-1.562,2.924,2.924,0,0,1,.449.176s2.724-8.386,12.88-2.821c0,0,4.236-6.427,13.143,1.549,0,0,10.636-3.825,14.591,7.651a29.955,29.955,0,0,1,4.96,1.453,8.65,8.65,0,0,0-6.83,4.115c-3,4.983-7.884,13.166-9.361,17.149s-.387-3.026-.387-3.026,8.617-18.934,8.511-19.187S379.763,335.442,373.022,338.452Z" transform="translate(-328.668 -330.992)" fill="#5c3426"/>
              <path id="Trazado_102080" data-name="Trazado 102080" d="M354.279,344.352c.324.2.668.39,1.019.576-.471.862-2.046,4.091-.312,5.969,1.981,2.146,6.821,1.538,8.722-2.767.781.22,1.271.34,1.271.34-2.343,5.738-8.689,6.571-11.259,3.788S354.279,344.352,354.279,344.352Z" transform="translate(-330.462 -334.234)" fill="#5c3426"/>
              <path id="Trazado_102081" data-name="Trazado 102081" d="M397.22,373.414a4.924,4.924,0,0,1-5.884,1.637c-3.662-1.529-3.415-5.679-3.132-6.647s4.463-9.06,4.463-9.06-3.61,10.07-1.212,12.614S396.6,374.089,397.22,373.414Z" transform="translate(-339.781 -337.872)" fill="#5c3426"/>
              <path id="Trazado_102082" data-name="Trazado 102082" d="M383.09,369.65s-3.869,3.31-7.583,1.756-3.606-6.216-3.606-6.216l1.732-4.227s-1.172,6.951,2.7,8.649,8.611-4.234,8.611-4.234Z" transform="translate(-335.522 -338.265)" fill="#5c3426"/>
              <path id="Trazado_102083" data-name="Trazado 102083" d="M369.082,364.858s-1.1,2.777-4.535,1.662-4.055-2.87-3.948-4.267l1.747-1.013s.651,3.557,2.691,3.816,5.415-3.537,5.415-3.537Z" transform="translate(-332.54 -338.332)" fill="#5c3426"/>
              <path id="Trazado_102084" data-name="Trazado 102084" d="M400.728,377.255a10.929,10.929,0,0,0,.8-1.03c.175-.283.328-.579.487-.872,2.886-1.406,6.384-3.15,6.384-3.15l-5.362,1.159c.221-.476.426-.96.6-1.454l5.9-3.6s.722-.874.378,1.9-3.6,7.8-3.6,7.8-3.245-.445-5.614-.719C400.712,377.275,400.719,377.265,400.728,377.255Z" transform="translate(-343.115 -340.015)" fill="#5c3426"/>
            </g>
            <path id="Trazado_102085" data-name="Trazado 102085" d="M354.44,373.008c3.946,1.055,8,5.717,8.446,6.042s3.511.593,5.26,2c2.166,1.742,2.355,5.02,2.355,5.02-3.035-3.052-5.756-3.149-5.756-3.149.019.087.029.166.045.251a19.685,19.685,0,0,1,.96,6.108c.033,2.323-1.188,5.271-1.36,7.592a7.038,7.038,0,0,1-.228-.785c-.582-2.136-.912-9.341-4.562-13.982-1.776-2.258-2.935-4.075-5.261-5.594-1.845-1.2-4.31-2.442-6.172-3.417C350.191,371.694,351.778,372.3,354.44,373.008Z" transform="translate(-329.266 -341.003)" fill="#5c3426"/>
            <path id="Trazado_102086" data-name="Trazado 102086" d="M360.629,379.714c.661.576.717,2.067.641,2.86a6.167,6.167,0,0,1-1.121,2.829c-.628,1.007-1.177,2.123-2.289,2.579a7.8,7.8,0,0,1-4.255.66c.747.26,1.8-.857,2.395-1.255a15.746,15.746,0,0,0,2.468-1.728c.748-.746-1.5-7.873-2.12-9.39C357.541,376.544,359.754,378.951,360.629,379.714Z" transform="translate(-330.699 -341.979)" fill="#5c3426"/>
            <path id="Trazado_102087" data-name="Trazado 102087" d="M356.708,376.85c.957,1.161.026,3.674-.9,4.593a5.416,5.416,0,0,1-4.715,1.277c1.152.07,2.588-1.418,3.277-2.237,1.054-1.252.888-3.209.294-4.649A3.914,3.914,0,0,1,356.708,376.85Z" transform="translate(-330.037 -341.873)" fill="#5c3426"/>
          </g>
          <g id="Grupo_53979" data-name="Grupo 53979" transform="translate(68.887 58.553)">
            <g id="Grupo_53978" data-name="Grupo 53978">
              <path id="Trazado_102088" data-name="Trazado 102088" d="M139.2,412.854c.288.735,1.5,6.18,2.59,11.192h23.688c-1.537-4.9-5.242-16.712-5.636-17.96-.5-1.578,1.79-12.231,1.842-16.353s-3.574-18.169-5.806-20.881-8.829.133-8.829.133c-6.208-4.951-10.813,1.106-10.813,1.106-7.753-1.169-7.879,3.981-7.879,3.981-7.61.636-6.209,6.322-6.209,6.322s-2.16.2-2.127,2.905-.844,13.555-.954,14.449S138.655,411.455,139.2,412.854Z" transform="translate(-119.07 -367.038)" fill="#f8e7b9"/>
              <g id="Grupo_53977" data-name="Grupo 53977" transform="translate(1.279)">
                <g id="Grupo_53976" data-name="Grupo 53976">
                  <path id="Trazado_102089" data-name="Trazado 102089" d="M128.667,377.426a8.481,8.481,0,0,0-4.37,1.393,6.429,6.429,0,0,1,4.566-2.358A3.648,3.648,0,0,0,128.667,377.426Z" transform="translate(-121.727 -369.324)" fill="#5c3426"/>
                  <path id="Trazado_102090" data-name="Trazado 102090" d="M120.807,386.136a2.347,2.347,0,0,1,.65-.8,4.056,4.056,0,0,0,.082.566A2.343,2.343,0,0,0,120.807,386.136Z" transform="translate(-120.807 -371.478)" fill="#5c3426"/>
                  <path id="Trazado_102091" data-name="Trazado 102091" d="M138.758,372.082c-3.055-.461-4.922.061-6.068.86.885-1.28,2.831-2.572,7.112-1.933A8.076,8.076,0,0,0,138.758,372.082Z" transform="translate(-123.939 -367.961)" fill="#5c3426"/>
                  <path id="Trazado_102092" data-name="Trazado 102092" d="M165.175,381.505c-1.236-4.924-2.626-8.507-3.884-10.035-2.231-2.711-7.994-.14-7.994-.14-4.366-3.482-9.082-2.8-10.818-1.325.587-.711,4.971-5.624,10.745-1.02,0,0,6.6-2.844,8.829-.132,1.318,1.6,3.122,7.158,4.368,12.288Z" transform="translate(-126.52 -367.038)" fill="#5c3426"/>
                </g>
              </g>
              <path id="Trazado_102093" data-name="Trazado 102093" d="M174.012,430.569a14.144,14.144,0,0,1,.694,5.628h3.669c-1.537-4.9-5.242-16.712-5.636-17.96a3.8,3.8,0,0,1-.06-1.125l-4.7,1.382C171.278,421.422,172.784,426.19,174.012,430.569Z" transform="translate(-131.963 -379.189)" fill="#5c3426"/>
              <path id="Trazado_102094" data-name="Trazado 102094" d="M150.45,440.479c-.384-.935-.725-1.891-1.039-2.822a25.893,25.893,0,0,0-1.194-2.9c.4,1.773.838,3.778,1.26,5.719Z" transform="translate(-126.754 -383.471)" fill="#5c3426"/>
              <path id="Trazado_102095" data-name="Trazado 102095" d="M170.88,413.356c-.957-2.367-3.584-6.028-5.1-5.77-9.8,1.66-10.682.327-10.682.327,7.081-.626,8.724-2.683,8.724-2.683l-3.071-.845s6.8-1.017,8.357-12.066c.061-.43-2.416,1.883-2.416,1.883a11.79,11.79,0,0,0,2.471-7.262q-.051-.933-.156-1.8c-.033-.28-.828.423-1.538.84-.887.522-1.823.825-1.474.585a5.18,5.18,0,0,0,2.337-4.98,24.435,24.435,0,0,0-3.466-7.517c-.535-.825.334-4.656-1.556-6.057a3.3,3.3,0,0,1,2.071,1.075c2.2,2.677,5.763,16.4,5.8,20.712-.118,5.427-1.922,12.065-1.823,14.381a7.058,7.058,0,0,0-.017,2.142c.229.726,1.583,5.041,2.977,9.484A11.9,11.9,0,0,1,170.88,413.356Z" transform="translate(-128.567 -367.274)" fill="#5c3426"/>
              <path id="Trazado_102096" data-name="Trazado 102096" d="M152.885,431.835c.538,1.457,1.59,3.712,2.519,5.566h1.11c-.794-4.577-2.08-12.841-1.322-14.43,0,0-6.089.977-9.69-.239a15.372,15.372,0,0,0-3.418-.658,28.536,28.536,0,0,0,4.664,2.865C149.055,425.836,151.919,429.223,152.885,431.835Z" transform="translate(-125.137 -380.393)" fill="#5c3426"/>
              <path id="Trazado_102097" data-name="Trazado 102097" d="M164.063,397.489s-4.631-1.575-6.174-4.324-1.962.7-.585,2.2S163.248,399.515,164.063,397.489Z" transform="translate(-128.929 -373.127)" fill="#5c3426"/>
              <path id="Trazado_102098" data-name="Trazado 102098" d="M128.62,401.308s3.454-.211,4.7-1.318c0,0,.3,1.42-1.359,4.486,0,0,4.233-3.121,4-6.788,0,0-1.58-2.451-3.423-2.4s-4.09.155-4.905-1.7c0,0,.289,1.147.158,1.216a7.053,7.053,0,0,1-.937.183,16.486,16.486,0,0,0,4.957,3.285A19.888,19.888,0,0,1,128.62,401.308Z" transform="translate(-121.124 -373.48)" fill="#5c3426"/>
              <path id="Trazado_102099" data-name="Trazado 102099" d="M130.55,409.6c.988.751,1.965,1.45,2.874,2.075a56.4,56.4,0,0,1,5.779,4.5c.288.734,1.5,6.18,2.59,11.192h1.3c-.141-.426-.278-.855-.4-1.3-1.135-4.3-2.046-11.116-2.655-11.646-.274-.239-12.831-12.139-14.2-12.5a16.665,16.665,0,0,1-4.125-1.694c-.048-.171-.359-14.433-.026-14.53s8.567.437,13.187-2.338c0,0,1.176-.223.828.824s-2.1,9.834-10.022,6.684a6.211,6.211,0,0,0,8.8.124c4.785-4.118,4.424-9.433,2.523-10.168s-9.928,3.363-15.189,2.963a2.607,2.607,0,0,0-1.788,2.83c.032,2.7-.844,13.555-.954,14.449C119.009,401.57,125.064,405.748,130.55,409.6Z" transform="translate(-119.07 -370.363)" fill="#5c3426"/>
              <path id="Trazado_102100" data-name="Trazado 102100" d="M159.981,368.568a81.065,81.065,0,0,1,1.115,11.855c-.023,5.305-.679,8.332-2.641,9.031s-4.116.853-5.3-2.839c0,0,.469,4.63-2.932,4.892s-4.348-1.924-4.348-1.924a4.117,4.117,0,0,1-3.343,1.946c-2.435.184-2.48-1.06-2.48-1.06a5.944,5.944,0,0,1-1.348.729l-1.059-.937s1.612-.053,1.7-2.907c0,0,1.746,2.69,3.6,2.473s1.754-1.009,1.638-2.289l.3-1.525s2.005,4.339,4.594,4.03,2.546-4.2,2.962-6.005c0,0,1.979,4.674,4.189,4.436s3.447-3.975,3.41-9.424S159.981,368.568,159.981,368.568Z" transform="translate(-123.966 -367.409)" fill="#5c3426"/>
              <path id="Trazado_102101" data-name="Trazado 102101" d="M138.8,371.785l2.419,14.331s-4.244-13.712-4.444-14.146-5.539-1.447-6.342,3.161l1.823,4.574-.844.125s-2.69-4.219-3.529-4.219-4.309,2.171-3.944,5.349a4.552,4.552,0,0,1-1.108-.5,1.946,1.946,0,0,1,.312-.067s-1.4-5.686,6.208-6.322c0,0,.126-5.151,7.879-3.981,0,0,4.605-6.056,10.813-1.106a19.96,19.96,0,0,1,3.276-1.018,5.991,5.991,0,0,0-2.38,4.816c.063,3.887.187,10.257.75,13.026s-1.272-1.547-1.272-1.547-1.786-13.749-1.934-13.851S141.516,367.619,138.8,371.785Z" transform="translate(-120.062 -367.038)" fill="#5c3426"/>
              <path id="Trazado_102102" data-name="Trazado 102102" d="M130.2,384.735c.25-.009.509-.029.77-.054.038.654.284,3.038,1.906,3.447,1.854.468,4.345-1.656,3.906-4.76.513-.166.828-.279.828-.279.691,4.068-2.562,6.872-4.967,6.265S130.2,384.735,130.2,384.735Z" transform="translate(-122.005 -370.933)" fill="#5c3426"/>
              <path id="Trazado_102103" data-name="Trazado 102103" d="M165.063,385.662a3.39,3.39,0,0,1-2.715,3.082c-2.578.5-3.886-1.912-4.066-2.557s-.666-6.7-.666-6.7,1.493,6.953,3.72,7.489S164.95,386.27,165.063,385.662Z" transform="translate(-129.232 -370.058)" fill="#5c3426"/>
              <path id="Trazado_102104" data-name="Trazado 102104" d="M155.3,388.4s-1.007,3.275-3.622,3.776-4.18-2.142-4.18-2.142l-.506-3s1.768,4.314,4.522,3.834,3.332-5.538,3.332-5.538Z" transform="translate(-126.432 -371.476)" fill="#5c3426"/>
              <path id="Trazado_102105" data-name="Trazado 102105" d="M145.6,390.406a2.338,2.338,0,0,1-1.954,2.6c-2.308.645-3.264-.108-3.692-.927l.622-1.209s1.6,1.746,2.832,1.138,1.791-3.971,1.791-3.971Z" transform="translate(-124.575 -372.133)" fill="#5c3426"/>
              <path id="Trazado_102106" data-name="Trazado 102106" d="M168.579,386.113a7.475,7.475,0,0,0,.086-.869c0-.223-.019-.445-.032-.666,1.121-1.849,2.467-4.112,2.467-4.112l-2.59,2.623c-.043-.347-.1-.692-.171-1.033l2.039-4.187s.1-.754.873.921.71,5.681.71,5.681-1.967.947-3.385,1.668Z" transform="translate(-132.058 -369.625)" fill="#5c3426"/>
            </g>
            <path id="Trazado_102107" data-name="Trazado 102107" d="M140.347,400.553c2.571-.866,6.458.244,6.822.26s2.167-.963,3.634-.823a4.914,4.914,0,0,1,3.065,1.936,6.215,6.215,0,0,0-4.312.364c.041.042.074.082.112.123a12.607,12.607,0,0,1,2.665,3.057c.828,1.284,1.174,3.381,1.887,4.74a4.282,4.282,0,0,1-.4-.354c-1.07-.978-3.765-4.88-7.42-6.125a13.934,13.934,0,0,0-4.887-1.184c-1.45.008-3.258.225-4.637.367C137.516,401.386,138.613,401.137,140.347,400.553Z" transform="translate(-123.764 -375.031)" fill="#5c3426"/>
            <path id="Trazado_102108" data-name="Trazado 102108" d="M146.623,402.51c.57.077,1.121.89,1.354,1.36a4.131,4.131,0,0,1,.361,1.994,3.831,3.831,0,0,1-.38,2.284,5.363,5.363,0,0,1-2.146,1.937c.507-.13.708-1.142.9-1.584a10.936,10.936,0,0,0,.776-1.874c.158-.693-3.581-3.844-4.456-4.462C143.793,401.878,145.868,402.407,146.623,402.51Z" transform="translate(-125.387 -375.541)" fill="#5c3426"/>
            <path id="Trazado_102109" data-name="Trazado 102109" d="M143.6,402.182c.94.3,1.3,2.042,1.1,2.9a3.732,3.732,0,0,1-2.187,2.451c.668-.385.95-1.746,1.05-2.457a3.049,3.049,0,0,0-1.457-2.7A2.555,2.555,0,0,1,143.6,402.182Z" transform="translate(-125.141 -375.551)" fill="#5c3426"/>
          </g>
        </g>
        <path id="Trazado_102110" data-name="Trazado 102110" d="M14,17.211V472.054H324.757V17.211ZM316.333,335.453H22.424V27.993H316.333Z" transform="translate(-50.227 -50.212)" fill="#5c3426"/>
        <g id="Grupo_53982" data-name="Grupo 53982" transform="translate(-25.967 305.733)">
          <g id="Grupo_53981" data-name="Grupo 53981">
            <path id="Trazado_102111" data-name="Trazado 102111" d="M28.113,464.478H38.357l.181.093q-.091,13.053-.091,20.045v.56q0,10.116.091,15.151-.091,4.894-.091,15.383v13.332H39.9c.121.032.181.094.181.188V531.1a.162.162,0,0,1-.181.185H28.113a.162.162,0,0,1-.181-.185v-1.865c.029-.124.091-.188.181-.188h1.541V466.808a.163.163,0,0,0-.181-.186H28.113a.162.162,0,0,1-.181-.186v-1.771C27.961,464.54,28.023,464.478,28.113,464.478Zm11.966,0h7.706q6.21,0,8.34,6.34a16.57,16.57,0,0,1,.635,4.941v19.767q0,8.391-5.167,10.769.089.14,5.53,22.749h2.538c.121.032.182.094.182.188V531.1a.163.163,0,0,1-.182.185H47.786a.163.163,0,0,1-.182-.185v-2.052h1.179v-.093l-5.077-21.817H40.08a.162.162,0,0,1-.181-.186v-7.366c.03-.123.091-.186.181-.186h4.352a3.32,3.32,0,0,0,3.354-2.564,10.729,10.729,0,0,0,.181-1.491V476.691a3.78,3.78,0,0,0-2.176-3.822,3.361,3.361,0,0,0-1.451-.28H40.08a.163.163,0,0,1-.181-.187v-7.738Q39.944,464.478,40.08,464.478Z" transform="translate(-27.932 -464.478)" fill="#f8e7b9"/>
            <path id="Trazado_102112" data-name="Trazado 102112" d="M74.525,464.478h9.882c.121.031.182.093.182.186V531.1a.163.163,0,0,1-.182.185H74.525a.162.162,0,0,1-.181-.185v-1.865c.03-.124.091-.188.181-.188h1.633V466.622H74.525a.162.162,0,0,1-.181-.186v-1.771Q74.389,464.478,74.525,464.478Zm11.6,0H97.643c.121.031.182.093.182.186v10.163a.163.163,0,0,1-.182.186h-1.9a.162.162,0,0,1-.181-.186v-2.238H86.13a.163.163,0,0,1-.182-.187v-7.738C85.978,464.54,86.039,464.478,86.13,464.478Zm0,34.823H96.193c.12.031.181.093.181.186v7.832a.163.163,0,0,1-.181.187H86.13a.163.163,0,0,1-.182-.187v-7.832C85.978,499.364,86.039,499.3,86.13,499.3ZM95.739,520h1.9c.121.032.182.093.182.186V531.1a.163.163,0,0,1-.182.185H86.13a.162.162,0,0,1-.182-.185v-7.832c.03-.123.091-.186.182-.186h9.428v-2.891C95.587,520.062,95.649,520,95.739,520Z" transform="translate(-40.167 -464.478)" fill="#f8e7b9"/>
            <path id="Trazado_102113" data-name="Trazado 102113" d="M109.488,464.478h11.786c.12.031.181.093.181.186v1.771a.163.163,0,0,1-.181.186h-1.451q5.984,43.122,5.983,43.868V531.1a.162.162,0,0,1-.181.185h-4.08q-.363,0-.725-3.636-4.533-28.016-9.066-57.573l-.635-3.357a.788.788,0,0,0-.362-.093h-1.27a.162.162,0,0,1-.181-.186v-1.771Q109.352,464.478,109.488,464.478Zm21.894,0h11.785c.12.031.181.093.181.186v1.771a.163.163,0,0,1-.181.186h-1.179q-.228,0-1.359,8.112l-8.975,56.547h-4.261a.162.162,0,0,1-.181-.185V510.583q0-.745,5.983-43.868l-.182-.093h-1.631a.163.163,0,0,1-.182-.186v-1.771C131.231,464.54,131.291,464.478,131.383,464.478Z" transform="translate(-49.383 -464.478)" fill="#f8e7b9"/>
            <path id="Trazado_102114" data-name="Trazado 102114" d="M167.769,464.478H172.3c.12.031.181.093.181.186V472.4a.163.163,0,0,1-.181.187h-1.451a3.083,3.083,0,0,0-3.263,2.238,10.94,10.94,0,0,0-.272,3.076v39.672q0,4.476,1.451,4.849a2.815,2.815,0,0,0,2.085.653H172.3c.12.032.181.093.181.186V531.1a.162.162,0,0,1-.181.185h-2.539q-8.068,0-10.153-5.407a14.878,14.878,0,0,1-1-5.688V475.572q0-7.971,5.53-10.349A11.329,11.329,0,0,1,167.769,464.478Zm6.346,0H178.6a8.585,8.585,0,0,1,7.706,4.382,13.217,13.217,0,0,1,1.451,6.34v45.079q0,7.973-5.8,10.256a15.643,15.643,0,0,1-5.348.746h-2.493a.162.162,0,0,1-.182-.185v-7.832a.163.163,0,0,1,.182-.186h1.677a2.982,2.982,0,0,0,3.173-2.611q.089-1.258.091-1.865V476.878q0-4.288-3.535-4.289h-1.405a.163.163,0,0,1-.182-.187v-7.738A.163.163,0,0,1,174.116,464.478Z" transform="translate(-62.381 -464.478)" fill="#f8e7b9"/>
            <path id="Trazado_102115" data-name="Trazado 102115" d="M201.452,464.478h11.83c.121.031.182.093.182.186v1.771a.163.163,0,0,1-.182.186h-1.359V531.1a.162.162,0,0,1-.181.185h-8.386a.162.162,0,0,1-.181-.185V466.808a.163.163,0,0,0-.182-.186h-1.541a.163.163,0,0,1-.182-.186v-1.771A.163.163,0,0,1,201.452,464.478ZM221.8,520h1.9c.12.032.181.093.181.186V531.1a.162.162,0,0,1-.181.185H213.464a.163.163,0,0,1-.182-.185v-7.832c.03-.123.091-.186.182-.186h8.159v-2.891A.162.162,0,0,1,221.8,520Z" transform="translate(-73.625 -464.478)" fill="#f8e7b9"/>
            <path id="Trazado_102116" data-name="Trazado 102116" d="M235.245,464.478h11.741c.12.031.181.093.181.186v1.771a.163.163,0,0,1-.181.186H245.9c-.122.031-.181.093-.181.186V517.2q0,4.849,1.722,5.407a3.43,3.43,0,0,0,1.813.466h1c.121.032.182.093.182.186V531.1a.163.163,0,0,1-.182.185h-2.357q-10.834,0-10.834-12.4V466.808a.163.163,0,0,0-.181-.186h-1.632a.162.162,0,0,1-.181-.186v-1.771A.162.162,0,0,1,235.245,464.478Zm19.99,0h11.786c.12.031.181.093.181.186v1.771a.163.163,0,0,1-.181.186H265.48c-.121.031-.181.093-.181.186v52.446q0,8.625-5.8,11.188a12.9,12.9,0,0,1-4.985.839h-2.449a.162.162,0,0,1-.181-.185v-7.832c.029-.123.091-.186.181-.186h1.179q3.354,0,3.354-4.942V466.622h-1.36a.162.162,0,0,1-.181-.186v-1.771Q255.1,464.478,255.235,464.478Z" transform="translate(-82.534 -464.478)" fill="#f8e7b9"/>
            <path id="Trazado_102117" data-name="Trazado 102117" d="M281.965,464.478h6.664c.12.031.181.093.181.186V472.4a.163.163,0,0,1-.181.187H283.96v2.052a.163.163,0,0,1-.182.186h-1.813a.163.163,0,0,1-.181-.186v-9.976A.162.162,0,0,1,281.965,464.478Zm8.386,0h16.59c.12.031.181.093.181.186v9.976a.163.163,0,0,1-.181.186h-1.813a.162.162,0,0,1-.181-.186v-2.052h-6.165v56.268c.029.125.091.186.181.186h1.36c.121.032.181.094.181.188V531.1a.162.162,0,0,1-.181.185h-11.74a.162.162,0,0,1-.182-.185v-1.865a.163.163,0,0,1,.182-.188h1.5l.181-.093-.091-.931V464.664C290.2,464.54,290.261,464.478,290.351,464.478Z" transform="translate(-94.85 -464.478)" fill="#f8e7b9"/>
            <path id="Trazado_102118" data-name="Trazado 102118" d="M319.453,464.478h11.785c.12.031.182.093.182.186v1.771a.163.163,0,0,1-.182.186h-1.359c-.121.031-.182.093-.182.186v62.235h1.541c.12.032.182.094.182.188V531.1a.163.163,0,0,1-.182.185H319.453a.162.162,0,0,1-.182-.185v-1.865c.029-.124.091-.188.182-.188h1.45V466.622h-1.45a.163.163,0,0,1-.182-.186v-1.771C319.3,464.54,319.362,464.478,319.453,464.478Z" transform="translate(-104.731 -464.478)" fill="#f8e7b9"/>
            <path id="Trazado_102119" data-name="Trazado 102119" d="M348,464.478h4.532c.121.031.182.093.182.186V472.4a.163.163,0,0,1-.182.187h-1.45a3.084,3.084,0,0,0-3.264,2.238,10.95,10.95,0,0,0-.272,3.076v39.672q0,4.476,1.451,4.849a2.814,2.814,0,0,0,2.085.653h1.45c.121.032.182.093.182.186V531.1a.163.163,0,0,1-.182.185H350q-8.068,0-10.153-5.407a14.878,14.878,0,0,1-1-5.688V475.572q0-7.971,5.53-10.349A11.336,11.336,0,0,1,348,464.478Zm6.345,0h4.488a8.587,8.587,0,0,1,7.706,4.382,13.217,13.217,0,0,1,1.451,6.34v45.079q0,7.973-5.8,10.256a15.65,15.65,0,0,1-5.349.746h-2.493a.162.162,0,0,1-.181-.185v-7.832a.163.163,0,0,1,.181-.186h1.678a2.982,2.982,0,0,0,3.173-2.611q.089-1.258.091-1.865V476.878q0-4.288-3.535-4.289h-1.406a.163.163,0,0,1-.181-.187v-7.738A.162.162,0,0,1,354.348,464.478Z" transform="translate(-109.892 -464.478)" fill="#f8e7b9"/>
            <path id="Trazado_102120" data-name="Trazado 102120" d="M383.408,464.478h8.522a12.916,12.916,0,0,1,1,3.263q6.391,21.817,7.026,24.521v21.025h-.182l-7.66-25.314h-.091v41.07h1.451c.12.032.181.094.181.188V531.1a.162.162,0,0,1-.181.185H381.685a.162.162,0,0,1-.181-.185v-1.865c.029-.124.091-.188.181-.188h1.36a.162.162,0,0,0,.181-.186V464.664Q383.272,464.478,383.408,464.478Zm15.91,0h11.876q.181.047.181.186v1.958h-1.359v62.421h1.178c.121.032.181.094.181.188V531.1a.162.162,0,0,1-.181.185H399.318a.162.162,0,0,1-.181-.185v-1.865c.029-.124.091-.188.181-.188h1.9a.162.162,0,0,0,.181-.186V466.715l-.453-.093h-1.632a.162.162,0,0,1-.181-.186v-1.771C399.166,464.54,399.227,464.478,399.318,464.478Z" transform="translate(-121.137 -464.478)" fill="#f8e7b9"/>
          </g>
        </g>
        <g id="Grupo_53984" data-name="Grupo 53984" transform="translate(9.867 389.4)">
          <g id="Grupo_53983" data-name="Grupo 53983">
            <path id="Trazado_102121" data-name="Trazado 102121" d="M92.823,575.823v.131L90.572,589.89a.791.791,0,0,1-.85.7H87.577a.638.638,0,0,1-.51-.175.724.724,0,0,1-.255-.371l-2-5.722a.1.1,0,0,0-.107-.089.1.1,0,0,0-.106.089l-2,5.722a.825.825,0,0,1-.276.371.638.638,0,0,1-.51.175H79.7a.791.791,0,0,1-.85-.7L76.6,575.954a.594.594,0,0,1,.106-.437.424.424,0,0,1,.319-.131h2.761c.41,0,.638.161.68.481l1.211,7.755a.1.1,0,0,0,.106.087c.071,0,.106-.022.106-.066l1.317-4.3a.72.72,0,0,1,.7-.59H85.5a.718.718,0,0,1,.7.59l1.317,4.282a.126.126,0,0,0,.107.065.1.1,0,0,0,.106-.088l1.232-7.732a.483.483,0,0,1,.222-.382.906.906,0,0,1,.436-.1h2.761a.434.434,0,0,1,.308.131A.412.412,0,0,1,92.823,575.823Z" transform="translate(-76.594 -575.058)" fill="#f8e7b9"/>
            <path id="Trazado_102122" data-name="Trazado 102122" d="M99.395,590.566a.586.586,0,0,1-.106-.524l4.927-13.936a.854.854,0,0,1,.85-.633h3.292a.853.853,0,0,1,.849.633l4.927,13.936a.544.544,0,0,1,.021.2.444.444,0,0,1-.138.317.422.422,0,0,1-.308.142h-2.74a.712.712,0,0,1-.722-.481l-1.1-3.079a11.929,11.929,0,0,1-1.551.5,13.925,13.925,0,0,1-1.518.3q-.732.1-1.37.131t-1.1.033h-.51a1.676,1.676,0,0,1-.319-.022.86.86,0,0,1,.648.426.942.942,0,0,1,.053.885l-.3.829a.712.712,0,0,1-.722.481h-2.74A.531.531,0,0,1,99.395,590.566Zm5.395-5.591q.594-.044,1.232-.154a10.893,10.893,0,0,0,1.158-.251,5.148,5.148,0,0,0,1.158-.469L106.7,579.3Z" transform="translate(-82.571 -575.079)" fill="#f8e7b9"/>
            <path id="Trazado_102123" data-name="Trazado 102123" d="M127.71,582.682a1.856,1.856,0,0,1,.722.142,3.168,3.168,0,0,1,.616.338,2.935,2.935,0,0,1,.457.394c.12.131.209.232.266.305l4.439,6.029a.365.365,0,0,1,.085.262.478.478,0,0,1-.468.458h-3.313a1.172,1.172,0,0,1-.477-.108.792.792,0,0,1-.372-.328q-1-1.333-1.806-2.4-.488-.633-.786-1.016c-.2-.255-.382-.495-.552-.721l-.435-.579c-.121-.16-.2-.262-.223-.306a.086.086,0,0,0-.085-.043c-.085,0-.127.036-.127.109v4.849a.513.513,0,0,1-.148.371.443.443,0,0,1-.383.174h-2.825a.5.5,0,0,1-.371-.164.528.528,0,0,1-.159-.382V577.287a1.943,1.943,0,0,1,.51-1.322,1.7,1.7,0,0,1,1.338-.579h1.507a.47.47,0,0,1,.383.153.571.571,0,0,1,.148.415v4.39a.114.114,0,0,0,.127.131.085.085,0,0,0,.085-.065l3.526-4.587a.884.884,0,0,1,.828-.437h3.249a.4.4,0,0,1,.3.131.5.5,0,0,1,.127.327.366.366,0,0,1-.085.263l-1.954,2.6q-.531.7-.839,1.114t-.563.764c-.17.234-.315.43-.436.59s-.188.248-.2.262a3.122,3.122,0,0,1-.212.263,3.328,3.328,0,0,1-.446.415,3.3,3.3,0,0,1-.647.392A1.848,1.848,0,0,1,127.71,582.682Z" transform="translate(-88.501 -575.058)" fill="#f8e7b9"/>
            <path id="Trazado_102124" data-name="Trazado 102124" d="M140.4,590.094V577.315a1.82,1.82,0,0,1,.552-1.365,1.8,1.8,0,0,1,1.3-.535h8.665a.522.522,0,0,1,.382.175.55.55,0,0,1,.17.393v2.163a.443.443,0,0,1-.17.371.508.508,0,0,1-.382.152H143.05a1.075,1.075,0,0,1,.84.371,1.2,1.2,0,0,1,.329.809v.917a.74.74,0,0,0,.169.459.583.583,0,0,0,.489.218h4.609a.5.5,0,0,1,.552.568v1.966a.5.5,0,0,1-.552.568H143.05a1.111,1.111,0,0,1,.828.35,1.1,1.1,0,0,1,.34.786v1.026a.71.71,0,0,0,.18.459.588.588,0,0,0,.478.218h6.2a.526.526,0,0,1,.393.164.558.558,0,0,1,.16.4v2.141a.5.5,0,0,1-.17.392.557.557,0,0,1-.382.154H140.926a.509.509,0,0,1-.382-.154A.536.536,0,0,1,140.4,590.094Z" transform="translate(-93.412 -575.065)" fill="#f8e7b9"/>
            <path id="Trazado_102125" data-name="Trazado 102125" d="M164.824,584.91v-7.558a1.738,1.738,0,0,1,.18-.808,2.066,2.066,0,0,1,.446-.59,1.882,1.882,0,0,1,1.221-.48h1.594a.544.544,0,0,1,.393.153.521.521,0,0,1,.16.392v8.847a3.112,3.112,0,0,0,.563,1.966,2.7,2.7,0,0,0,3.674,0,3.112,3.112,0,0,0,.563-1.966v-7.536a1.738,1.738,0,0,1,.18-.809,1.983,1.983,0,0,1,.457-.589,1.791,1.791,0,0,1,.594-.349,1.9,1.9,0,0,1,.616-.109h1.593a.545.545,0,0,1,.393.153.521.521,0,0,1,.159.392v8.891a7.1,7.1,0,0,1-.457,2.675,4.885,4.885,0,0,1-1.285,1.857,5.332,5.332,0,0,1-2.007,1.091,8.93,8.93,0,0,1-2.623.361,9.228,9.228,0,0,1-2.613-.35,5.3,5.3,0,0,1-2.028-1.082,4.9,4.9,0,0,1-1.306-1.868A7.03,7.03,0,0,1,164.824,584.91Z" transform="translate(-99.852 -575.079)" fill="#f8e7b9"/>
            <path id="Trazado_102126" data-name="Trazado 102126" d="M198.463,580.432a5.238,5.238,0,0,1-.467,2.326,4.073,4.073,0,0,1-1.264,1.529,5.129,5.129,0,0,1-1.858.83,9.853,9.853,0,0,1-2.273.251h-1.784a.64.64,0,0,0-.446.176.615.615,0,0,0-.191.48v4.041a.511.511,0,0,1-.149.371.441.441,0,0,1-.382.174h-3.037a.5.5,0,0,1-.372-.164.531.531,0,0,1-.159-.382V577.287a1.894,1.894,0,0,1,.169-.819,1.8,1.8,0,0,1,.446-.6,1.939,1.939,0,0,1,.6-.36,1.8,1.8,0,0,1,.637-.12H192.6a9.247,9.247,0,0,1,2.284.273,5.207,5.207,0,0,1,1.869.874,4.163,4.163,0,0,1,1.253,1.562A5.424,5.424,0,0,1,198.463,580.432Zm-4.12-.022a1.657,1.657,0,0,0-1.848-1.9h-3.589a1.142,1.142,0,0,1,.382.076,1.289,1.289,0,0,1,.393.229,1.361,1.361,0,0,1,.308.382,1.034,1.034,0,0,1,.127.513v1.878a.634.634,0,0,0,.2.492.656.656,0,0,0,.457.185h1.719a1.685,1.685,0,0,0,1.848-1.856Z" transform="translate(-105.456 -575.058)" fill="#f8e7b9"/>
            <path id="Trazado_102127" data-name="Trazado 102127" d="M209.973,590.566a.584.584,0,0,1-.107-.524l4.927-13.936a.854.854,0,0,1,.85-.633h3.292a.853.853,0,0,1,.849.633l4.928,13.936a.583.583,0,0,1,.021.2.45.45,0,0,1-.138.317.426.426,0,0,1-.309.142h-2.739a.712.712,0,0,1-.722-.481l-1.1-3.079a11.928,11.928,0,0,1-1.551.5,13.925,13.925,0,0,1-1.518.3q-.732.1-1.37.131t-1.1.033h-.51a1.676,1.676,0,0,1-.319-.022.86.86,0,0,1,.648.426.942.942,0,0,1,.053.885l-.3.829a.712.712,0,0,1-.722.481h-2.74A.527.527,0,0,1,209.973,590.566Zm5.394-5.591q.594-.044,1.232-.154a10.893,10.893,0,0,0,1.158-.251,5.135,5.135,0,0,0,1.158-.469l-1.636-4.805Z" transform="translate(-111.72 -575.079)" fill="#f8e7b9"/>
            <path id="Trazado_102128" data-name="Trazado 102128" d="M232.37,590.065V577.287a1.888,1.888,0,0,1,.531-1.333,1.729,1.729,0,0,1,1.317-.568h.68a1.984,1.984,0,0,1,.574.1,1.414,1.414,0,0,1,.658.579q1.253,2.011,2.251,3.625.616.984.967,1.562t.658,1.07c.205.328.379.609.521.841s.227.372.255.415a.143.143,0,0,0,.106.045.1.1,0,0,0,.107-.11v-6.225a1.858,1.858,0,0,1,.573-1.377,1.986,1.986,0,0,1,.595-.382,1.75,1.75,0,0,1,.68-.142h1.381a.442.442,0,0,1,.361.153.572.572,0,0,1,.149.415v14.089a.542.542,0,0,1-.149.393.419.419,0,0,1-.361.174h-2.4a.743.743,0,0,1-.722-.415q-1.275-2.008-2.294-3.6-.637-.961-1-1.54l-.669-1.07q-.308-.491-.52-.829l-.256-.405a.173.173,0,0,0-.106-.064c-.085,0-.127.036-.127.108v7.274a.533.533,0,0,1-.149.4.555.555,0,0,1-.4.142H232.9a.5.5,0,0,1-.372-.164A.531.531,0,0,1,232.37,590.065Z" transform="translate(-117.658 -575.058)" fill="#f8e7b9"/>
            <path id="Trazado_102129" data-name="Trazado 102129" d="M253.106,590.151V577.373a1.875,1.875,0,0,1,1.848-1.9H259.2a9.641,9.641,0,0,1,2.622.339,5.7,5.7,0,0,1,2.092,1.07,5.055,5.055,0,0,1,1.4,1.856,6.894,6.894,0,0,1,.552,2.676q.022.307.022.732v1.868c0,.276-.007.517-.022.72q-.19,5.963-6.563,5.963h-5.67a.508.508,0,0,1-.382-.153A.539.539,0,0,1,253.106,590.151Zm6.1-2.709a2.561,2.561,0,0,0,2-.688,3.091,3.091,0,0,0,.637-2.064c.013-.2.024-.44.032-.71s.011-.571.011-.906,0-.637-.011-.906-.018-.506-.032-.71a2.452,2.452,0,0,0-2.74-2.73H255.91a1.1,1.1,0,0,1,.828.36,1.117,1.117,0,0,1,.339.776v6.9a.688.688,0,0,0,.18.481.619.619,0,0,0,.478.2Z" transform="translate(-123.124 -575.079)" fill="#f8e7b9"/>
            <path id="Trazado_102130" data-name="Trazado 102130" d="M279.958,590.065V577.287a1.812,1.812,0,0,1,.16-.765,2,2,0,0,1,.414-.6,1.878,1.878,0,0,1,.6-.394,1.748,1.748,0,0,1,.68-.142h8.516a.523.523,0,0,1,.383.175.552.552,0,0,1,.169.393v2.315a.444.444,0,0,1-.169.372.514.514,0,0,1-.383.153h-7.646a1.194,1.194,0,0,1,1.168,1.179v1.858h5.1a.5.5,0,0,1,.552.568v2.293a.531.531,0,0,1-.149.4.559.559,0,0,1-.4.142h-6.265a1.186,1.186,0,0,1,.8.327,1.06,1.06,0,0,1,.372.83v3.67a.54.54,0,0,1-.149.393.467.467,0,0,1-.381.152H280.49a.51.51,0,0,1-.383-.152A.54.54,0,0,1,279.958,590.065Z" transform="translate(-130.202 -575.058)" fill="#f8e7b9"/>
            <path id="Trazado_102131" data-name="Trazado 102131" d="M297.81,590.151V577.373a1.856,1.856,0,0,1,1.848-1.9h1.7a.467.467,0,0,1,.382.153.539.539,0,0,1,.15.392v14.133a.539.539,0,0,1-.15.393.468.468,0,0,1-.382.153h-3.015a.508.508,0,0,1-.382-.153A.539.539,0,0,1,297.81,590.151Z" transform="translate(-134.908 -575.079)" fill="#f8e7b9"/>
            <path id="Trazado_102132" data-name="Trazado 102132" d="M306.716,584.695c-.015-.2-.022-.47-.022-.8v-2.37c0-.336.007-.6.022-.809a6.178,6.178,0,0,1,.584-2.6,5.117,5.117,0,0,1,1.433-1.791,6,6,0,0,1,2.082-1.038,9.294,9.294,0,0,1,2.549-.339,10.167,10.167,0,0,1,1.6.131,8.623,8.623,0,0,1,1.593.416,6.737,6.737,0,0,1,1.454.742,5.15,5.15,0,0,1,1.19,1.114,3.63,3.63,0,0,1,.828,2.162.471.471,0,0,1-.138.339.441.441,0,0,1-.328.142h-3.272a.442.442,0,0,1-.318-.088.678.678,0,0,1-.233-.218,2.3,2.3,0,0,0-.329-.557,3.9,3.9,0,0,0-.478-.492,2.6,2.6,0,0,0-1.572-.436q-2.443,0-2.549,2.621c-.015.2-.021.458-.021.765V583.8c0,.321.007.582.021.787a3.089,3.089,0,0,0,.68,2.064,2.952,2.952,0,0,0,2.23.688c.339,0,.616-.011.828-.033a2.544,2.544,0,0,0,.542-.11,1.316,1.316,0,0,0,.381-.2c.107-.08.223-.17.351-.273a2.09,2.09,0,0,0,.616-1.07,1.6,1.6,0,0,1,.265-.59,1.556,1.556,0,0,1,.4-.382,1.767,1.767,0,0,1,.446-.208,1.39,1.39,0,0,1,.372-.066h-3.759a.485.485,0,0,1-.393-.163.6.6,0,0,1-.138-.4v-.372a2.046,2.046,0,0,1,.116-.666,1.763,1.763,0,0,1,.35-.6,1.957,1.957,0,0,1,.574-.437,1.692,1.692,0,0,1,.786-.174h3.144a1.392,1.392,0,0,1,1.136.425,1.752,1.752,0,0,1,.351,1.147v1.507a6.013,6.013,0,0,1-.552,2.676,5.214,5.214,0,0,1-1.476,1.846,6.243,6.243,0,0,1-2.145,1.071,9.712,9.712,0,0,1-5.161,0,5.8,5.8,0,0,1-2.081-1.071,5.114,5.114,0,0,1-1.4-1.846A6.732,6.732,0,0,1,306.716,584.695Z" transform="translate(-137.25 -574.953)" fill="#f8e7b9"/>
            <path id="Trazado_102133" data-name="Trazado 102133" d="M328.181,590.151V577.373a1.831,1.831,0,0,1,.552-1.354,1.784,1.784,0,0,1,1.3-.545H331.6a.527.527,0,0,1,.393.164.558.558,0,0,1,.159.4v5.067a.535.535,0,0,0,.255.513.908.908,0,0,0,.4.142,10.386,10.386,0,0,0,2.2-.2,8.916,8.916,0,0,0,1.709-.568.966.966,0,0,0,.3-.241.589.589,0,0,0,.127-.393v-2.993a1.893,1.893,0,0,1,.159-.786,1.787,1.787,0,0,1,.425-.589,2.139,2.139,0,0,1,.6-.383,1.674,1.674,0,0,1,.669-.142h1.572a.526.526,0,0,1,.392.164.555.555,0,0,1,.16.4v14.11a.535.535,0,0,1-.149.4.56.56,0,0,1-.4.142H337.7a.555.555,0,0,1-.382-.153.5.5,0,0,1-.17-.393v-5.176a.534.534,0,0,0-.2-.47.812.812,0,0,0-.648-.12,11.025,11.025,0,0,1-2.092.4q-1.05.1-1.858.1-.425,0-.722-.011c-.2-.007-.354-.018-.467-.033a1.148,1.148,0,0,1,.711.393,1.1,1.1,0,0,1,.286.743v4.171a.532.532,0,0,1-.149.4.558.558,0,0,1-.4.142h-2.888a.509.509,0,0,1-.382-.153A.538.538,0,0,1,328.181,590.151Z" transform="translate(-142.914 -575.079)" fill="#f8e7b9"/>
            <path id="Trazado_102134" data-name="Trazado 102134" d="M360.275,575.386a.5.5,0,0,1,.552.568v2.424a.5.5,0,0,1-.148.393.537.537,0,0,1-.4.154h-4.906a1.159,1.159,0,0,1,.828.349,1.07,1.07,0,0,1,.361.787v10a.53.53,0,0,1-.149.4.557.557,0,0,1-.4.142h-2.931a.553.553,0,0,1-.382-.152.5.5,0,0,1-.169-.393V579.6a.663.663,0,0,0-.638-.676h-3.08a.536.536,0,0,1-.4-.154.5.5,0,0,1-.149-.393v-1.114a1.742,1.742,0,0,1,.574-1.365,1.866,1.866,0,0,1,1.275-.513Z" transform="translate(-148.206 -575.058)" fill="#f8e7b9"/>
            <path id="Trazado_102135" data-name="Trazado 102135" d="M367.578,590.065v-1.508a1.574,1.574,0,0,1,.18-.754,2.061,2.061,0,0,1,.468-.589,2.368,2.368,0,0,1,.616-.394,1.629,1.629,0,0,1,.648-.142h1.359a.478.478,0,0,1,.372.185.583.583,0,0,1,.16.382v2.818a.568.568,0,0,1-.149.371.51.51,0,0,1-.383.153h-2.739a.531.531,0,0,1-.361-.153A.478.478,0,0,1,367.578,590.065Zm3.186-4.39h-2.57a.559.559,0,0,1-.382-.153.505.505,0,0,1-.169-.394v-7.841a1.691,1.691,0,0,1,.159-.732,2.088,2.088,0,0,1,1.029-1.016,1.687,1.687,0,0,1,.7-.153h1.232a.511.511,0,0,1,.383.153.483.483,0,0,1,.169.371v9.218a.508.508,0,0,1-.169.394A.561.561,0,0,1,370.764,585.675Z" transform="translate(-153.3 -575.058)" fill="#f8e7b9"/>
          </g>
        </g>
      </g>
    </g>
  </g>
</svg>
