<svg xmlns="http://www.w3.org/2000/svg" width="145.764" height="145.842" viewBox="0 0 145.764 145.842">
  <g id="cubos-de-azucar" transform="translate(-0.136)">
    <g id="Grupo_54502" data-name="Grupo 54502" transform="translate(2.985 2.848)">
      <g id="Grupo_54496" data-name="Grupo 54496" transform="translate(0 62.245)">
        <g id="Grupo_54491" data-name="Grupo 54491">
          <g id="Grupo_54489" data-name="Grupo 54489" transform="translate(0 15.649)">
            <g id="Grupo_54488" data-name="Grupo 54488">
              <path id="Trazado_102259" data-name="Trazado 102259" d="M10.136,283.455v46.6L45.153,345.7V301.646" transform="translate(-10.136 -283.455)" fill="#fdd835"/>
            </g>
            <path id="Trazado_102260" data-name="Trazado 102260" d="M133.068,301.646V345.7l35.017-15.649v-46.6" transform="translate(-98.051 -283.455)" fill="#ffa726"/>
          </g>
          <g id="Grupo_54490" data-name="Grupo 54490">
            <path id="Trazado_102261" data-name="Trazado 102261" d="M45.153,259.816,10.136,244.167l35.017-15.649L80.17,244.167Z" transform="translate(-10.136 -228.518)" fill="#fdd835"/>
          </g>
        </g>
        <g id="Grupo_54495" data-name="Grupo 54495" transform="translate(70.034)">
          <g id="Grupo_54493" data-name="Grupo 54493" transform="translate(0 15.649)">
            <g id="Grupo_54492" data-name="Grupo 54492">
              <path id="Trazado_102262" data-name="Trazado 102262" d="M256,283.455v46.6L291.017,345.7V301.646" transform="translate(-256 -283.455)" fill="#fdd835"/>
            </g>
            <path id="Trazado_102263" data-name="Trazado 102263" d="M378.932,301.646V345.7l35.017-15.649v-46.6" transform="translate(-343.915 -283.455)" fill="#ffa726"/>
          </g>
          <g id="Grupo_54494" data-name="Grupo 54494">
            <path id="Trazado_102264" data-name="Trazado 102264" d="M291.017,259.816,256,244.167l35.017-15.649,35.017,15.649Z" transform="translate(-256 -228.518)" fill="#fdd835"/>
          </g>
        </g>
      </g>
      <g id="Grupo_54501" data-name="Grupo 54501" transform="translate(35.017)">
        <g id="Grupo_54499" data-name="Grupo 54499" transform="translate(0 15.649)">
          <g id="Grupo_54497" data-name="Grupo 54497">
            <path id="Trazado_102265" data-name="Trazado 102265" d="M133.068,64.937v46.6l35.017,15.649V83.128" transform="translate(-133.068 -64.937)" fill="#fdd835"/>
          </g>
          <g id="Grupo_54498" data-name="Grupo 54498" transform="translate(35.017 0)">
            <path id="Trazado_102266" data-name="Trazado 102266" d="M256,83.128v44.053l35.017-15.649v-46.6" transform="translate(-256 -64.937)" fill="#ffa726"/>
          </g>
        </g>
        <g id="Grupo_54500" data-name="Grupo 54500">
          <path id="Trazado_102267" data-name="Trazado 102267" d="M168.085,41.3,133.068,25.648,168.085,10,203.1,25.648Z" transform="translate(-133.068 -9.999)" fill="#fdd835"/>
        </g>
      </g>
    </g>
    <g id="Grupo_54504" data-name="Grupo 54504" transform="translate(0.136 0)">
      <path id="Trazado_102268" data-name="Trazado 102268" d="M145.9,80.55a2.5,2.5,0,0,0-1.273-2.181h0l-.007,0a2.831,2.831,0,0,0-.462-.248l-33.275-14.87V18.5c0-.022,0-.043,0-.064s0-.014,0-.021,0-.029,0-.043,0-.017,0-.026,0-.037,0-.055,0-.025,0-.038l0-.02a2.838,2.838,0,0,0-.614-1.515l-.015-.018-.021-.025-.022-.026-.016-.019-.039-.044-.008-.009-.036-.039-.009-.009-.041-.042,0,0L110,16.436h0l-.045-.042-.009-.008-.042-.037-.007-.006-.047-.04-.013-.011-.032-.026-.022-.017-.024-.019a2.844,2.844,0,0,0-.621-.359L74.181.248a2.849,2.849,0,0,0-2.324,0L36.9,15.87a2.848,2.848,0,0,0-.621.359l-.024.019-.022.017-.032.026-.013.011-.047.04-.007.006-.042.037-.009.008-.045.042h0l-.048.047,0,0-.041.042-.009.009-.036.039-.008.009-.039.044-.016.019-.022.026-.021.025-.014.018a2.832,2.832,0,0,0-.614,1.515l0,.02c0,.013,0,.025,0,.038s0,.037,0,.055,0,.017,0,.026l0,.043c0,.007,0,.014,0,.021s0,.043,0,.064V63.245L1.879,78.116h0a2.833,2.833,0,0,0-1.74,2.611v46.609a2.848,2.848,0,0,0,1.686,2.6l35.023,15.652.017.007a2.767,2.767,0,0,0,2.27,0l.032-.014,33.855-15.129,33.855,15.13.115.044a2.957,2.957,0,0,0,2.209-.044h0l35.017-15.649a2.848,2.848,0,0,0,1.686-2.6V80.55ZM108.035,93.271,80,80.742l28.036-12.529,28.036,12.529ZM73.018,45.451A2.848,2.848,0,0,0,75.867,42.6V35.993l29.32-13.1V63.246l-29.32,13.1V68.355a2.848,2.848,0,1,0-5.7,0v7.994l-29.32-13.1V22.89l29.32,13.1V42.6a2.848,2.848,0,0,0,2.848,2.848Zm0-39.482L101.054,18.5,73.018,31.026,44.983,18.5ZM38,68.213,66.037,80.742,38,93.271,9.966,80.742ZM5.833,85.134l29.4,13.138a2.854,2.854,0,0,0-.077.661v39.66l-29.32-13.1Zm34.94,13.137,29.4-13.137V125.49l-29.32,13.1V98.933a2.856,2.856,0,0,0-.077-.661ZM75.867,85.134l29.4,13.138a2.855,2.855,0,0,0-.077.661v39.66l-29.32-13.1Zm35.017,53.459V98.933a2.853,2.853,0,0,0-.077-.661l29.4-13.138V125.49Z" transform="translate(-0.136 0)"/>
      <g id="Grupo_54503" data-name="Grupo 54503" transform="translate(70.038 52.586)">
        <path id="Trazado_102269" data-name="Trazado 102269" d="M248.858,190.3a2.848,2.848,0,1,1,2.781-2.245A2.875,2.875,0,0,1,248.858,190.3Z" transform="translate(-246.013 -184.612)"/>
      </g>
    </g>
  </g>
</svg>
