<svg xmlns="http://www.w3.org/2000/svg" width="102.793" height="138.5" viewBox="0 0 102.793 138.5">
  <g id="red" transform="translate(-66)">
    <g id="Grupo_55806" data-name="Grupo 55806" transform="translate(68.705 2.705)">
      <path id="Trazado_102680" data-name="Trazado 102680" d="M219.281,219.281H176V176h43.281Z" transform="translate(-148.949 -131.096)" fill="#f57c00"/>
      <path id="Trazado_102681" data-name="Trazado 102681" d="M377.641,446.82v7.033H356V446.82a10.82,10.82,0,0,1,21.641,0Z" transform="translate(-280.258 -320.764)" fill="#26ccda"/>
      <path id="Trazado_102682" data-name="Trazado 102682" d="M377.641,80.82v7.033H356V80.82a10.82,10.82,0,0,1,21.641,0Z" transform="translate(-280.258 -53.77)" fill="#fdd835"/>
      <circle id="Elipse_4141" data-name="Elipse 4141" cx="5.5" cy="5.5" r="5.5" transform="translate(81.295 0.295)" fill="#fce8d0"/>
      <circle id="Elipse_4142" data-name="Elipse 4142" cx="5.5" cy="5.5" r="5.5" transform="translate(81.295 99.295)" fill="#fce8d0"/>
      <path id="Trazado_102683" data-name="Trazado 102683" d="M237.641,446.82v7.033H216V446.82a10.82,10.82,0,0,1,21.641,0Z" transform="translate(-178.129 -320.764)" fill="#ffa726"/>
      <path id="Trazado_102684" data-name="Trazado 102684" d="M237.641,80.82v7.033H216V80.82a10.82,10.82,0,0,1,21.641,0Z" transform="translate(-178.129 -53.77)" fill="#ffa726"/>
      <circle id="Elipse_4143" data-name="Elipse 4143" cx="5.5" cy="5.5" r="5.5" transform="translate(43.295 0.295)" fill="#fce8d0"/>
      <circle id="Elipse_4144" data-name="Elipse 4144" cx="5.5" cy="5.5" r="5.5" transform="translate(43.295 99.295)" fill="#fce8d0"/>
      <path id="Trazado_102685" data-name="Trazado 102685" d="M97.641,446.82v7.033H76V446.82a10.82,10.82,0,0,1,21.641,0Z" transform="translate(-76 -320.764)" fill="#fdd835"/>
      <path id="Trazado_102686" data-name="Trazado 102686" d="M97.641,80.82v7.033H76V80.82a10.82,10.82,0,0,1,21.641,0Z" transform="translate(-76 -53.77)" fill="#26ccda"/>
      <g id="Grupo_55805" data-name="Grupo 55805" transform="translate(5.41)">
        <circle id="Elipse_4145" data-name="Elipse 4145" cx="5.5" cy="5.5" r="5.5" transform="translate(-0.115 0.295)" fill="#fce8d0"/>
        <circle id="Elipse_4146" data-name="Elipse 4146" cx="5.5" cy="5.5" r="5.5" transform="translate(-0.115 99.295)" fill="#fce8d0"/>
      </g>
    </g>
    <g id="Grupo_55807" data-name="Grupo 55807" transform="translate(66)">
      <ellipse id="Elipse_4147" data-name="Elipse 4147" cx="2.5" cy="3" rx="2.5" ry="3" transform="translate(49 77)" fill="#fff"/>
      <path id="Trazado_102687" data-name="Trazado 102687" d="M242.23,374.115a8.115,8.115,0,1,0-8.115,8.115A8.124,8.124,0,0,0,242.23,374.115Zm-8.115,2.705a2.705,2.705,0,1,1,2.705-2.705A2.708,2.708,0,0,1,234.115,376.82Z" transform="translate(-182.719 -266.994)"/>
      <path id="Trazado_102688" data-name="Trazado 102688" d="M206,439.525v7.033a2.705,2.705,0,0,0,2.705,2.705h21.641a2.705,2.705,0,0,0,2.705-2.705v-7.033a13.525,13.525,0,0,0-27.051,0Zm5.41,0a8.115,8.115,0,0,1,16.23,0v4.328H211.41Z" transform="translate(-168.129 -310.764)"/>
      <path id="Trazado_102689" data-name="Trazado 102689" d="M242.23,8.115a8.115,8.115,0,1,0-8.115,8.115A8.124,8.124,0,0,0,242.23,8.115Zm-8.115,2.705a2.705,2.705,0,1,1,2.705-2.705A2.708,2.708,0,0,1,234.115,10.82Z" transform="translate(-182.719)"/>
      <path id="Trazado_102690" data-name="Trazado 102690" d="M102.23,8.115a8.115,8.115,0,1,0-8.115,8.115A8.124,8.124,0,0,0,102.23,8.115ZM94.115,10.82A2.705,2.705,0,1,1,96.82,8.115,2.708,2.708,0,0,1,94.115,10.82Z" transform="translate(-80.59)"/>
      <path id="Trazado_102691" data-name="Trazado 102691" d="M382.23,8.115a8.115,8.115,0,1,0-8.115,8.115A8.124,8.124,0,0,0,382.23,8.115Zm-8.115,2.705a2.705,2.705,0,1,1,2.705-2.705A2.708,2.708,0,0,1,374.115,10.82Z" transform="translate(-284.848)"/>
      <path id="Trazado_102692" data-name="Trazado 102692" d="M346,439.525v7.033a2.705,2.705,0,0,0,2.705,2.705h21.641a2.705,2.705,0,0,0,2.705-2.705v-7.033a13.525,13.525,0,0,0-27.051,0Zm5.41,0a8.115,8.115,0,0,1,16.23,0v4.328H351.41Z" transform="translate(-270.258 -310.764)"/>
      <path id="Trazado_102693" data-name="Trazado 102693" d="M87.641,150.891a8.128,8.128,0,0,0-5.41-7.65v-16.7h10.82v8.115a2.705,2.705,0,0,0,2.705,2.705h9.468a2.705,2.705,0,0,0,0-5.41H98.461V94.084h37.871v37.871h-6.763a2.705,2.705,0,0,0,0,5.41h9.468a2.705,2.705,0,0,0,2.705-2.705v-8.115h10.82v16.7a8.115,8.115,0,1,0,5.41,0v-19.4a2.705,2.705,0,0,0-2.705-2.705H141.742V104.9h13.525a2.705,2.705,0,0,0,2.705-2.705V83.264h8.115a2.705,2.705,0,0,0,2.705-2.705V73.525a13.525,13.525,0,0,0-27.051,0v7.033a2.705,2.705,0,0,0,2.705,2.705h8.115v16.23h-10.82V91.379a2.705,2.705,0,0,0-2.705-2.705H120.1v-5.41h8.115a2.705,2.705,0,0,0,2.705-2.705V73.525a13.525,13.525,0,0,0-27.051,0v7.033a2.705,2.705,0,0,0,2.705,2.705h8.115v5.41H95.756a2.705,2.705,0,0,0-2.705,2.705v8.115H82.23V83.264h8.115a2.705,2.705,0,0,0,2.705-2.705V73.525a13.525,13.525,0,0,0-27.051,0v7.033a2.705,2.705,0,0,0,2.705,2.705H76.82V102.2a2.705,2.705,0,0,0,2.705,2.705H93.051v16.23H79.525a2.705,2.705,0,0,0-2.705,2.705v19.4a8.115,8.115,0,1,0,10.82,7.65Zm67.627,2.705a2.705,2.705,0,1,1,2.705-2.705A2.708,2.708,0,0,1,155.268,153.6Zm-8.115-80.07a8.115,8.115,0,0,1,16.23,0v4.328h-16.23Zm-37.871,0a8.115,8.115,0,0,1,16.23,0v4.328h-16.23Zm-37.871,0a8.115,8.115,0,0,1,16.23,0v4.328H71.41Zm8.115,80.07a2.705,2.705,0,1,1,2.705-2.705A2.708,2.708,0,0,1,79.525,153.6Z" transform="translate(-66 -43.77)"/>
      <path id="Trazado_102694" data-name="Trazado 102694" d="M68.705,449.264H90.346a2.705,2.705,0,0,0,2.705-2.705v-7.033a13.525,13.525,0,0,0-27.051,0v7.033A2.705,2.705,0,0,0,68.705,449.264Zm2.705-9.738a8.115,8.115,0,0,1,16.23,0v4.328H71.41Z" transform="translate(-66 -310.764)"/>
      <path id="Trazado_102695" data-name="Trazado 102695" d="M238.983,220.609A8.116,8.116,0,1,0,226,214.115a2.705,2.705,0,1,0,5.41,0,2.705,2.705,0,1,1,4.326,2.166,10.756,10.756,0,0,0-3.707,5.051,2.705,2.705,0,1,0,5.1,1.8A5.362,5.362,0,0,1,238.983,220.609Z" transform="translate(-182.719 -150.275)" fill="#fff"/>
      <ellipse id="Elipse_4148" data-name="Elipse 4148" cx="2.5" cy="3" rx="2.5" ry="3" transform="translate(49 88)"/>
    </g>
  </g>
</svg>
