<svg xmlns="http://www.w3.org/2000/svg" width="278" height="83.101" viewBox="0 0 278 83.101">
  <g id="Grupo_56595" data-name="Grupo 56595" transform="translate(-388 -5046.579)">
    <g id="Grupo_39583" data-name="Grupo 39583" transform="translate(388 5046.579)">
      <g id="Grupo_39580" data-name="Grupo 39580">
        <path id="Trazado_63697" data-name="Trazado 63697" d="M259.7-59.67H176.6v-83.1h83.1Zm-78.782-4.319h74.463v-74.463H180.921Z" transform="translate(-176.602 142.771)" fill="#ffa726"/>
      </g>
      <g id="Grupo_39581" data-name="Grupo 39581" transform="translate(93.538)">
        <path id="Trazado_63698" data-name="Trazado 63698" d="M291.881-59.67H243.9L219.915-101.22,243.9-142.771h47.977l23.991,41.551ZM246.4-63.989h42.991l21.5-37.231-21.5-37.231H246.4L224.9-101.22Z" transform="translate(-219.915 142.771)" fill="#ffa726"/>
      </g>
      <g id="Grupo_39582" data-name="Grupo 39582" transform="translate(195.562)">
        <path id="Trazado_63699" data-name="Trazado 63699" d="M308.377-60.333a41.267,41.267,0,0,1-41.22-41.22,41.267,41.267,0,0,1,41.22-41.218A41.263,41.263,0,0,1,349.6-101.553,41.264,41.264,0,0,1,308.377-60.333Zm0-78.119a36.942,36.942,0,0,0-36.9,36.9,36.942,36.942,0,0,0,36.9,36.9,36.942,36.942,0,0,0,36.9-36.9A36.941,36.941,0,0,0,308.377-138.452Z" transform="translate(-267.157 142.771)" fill="#ffa726"/>
      </g>
    </g>
  </g>
</svg>
