<svg id="Grupo_39593" data-name="Grupo 39593" xmlns="http://www.w3.org/2000/svg" width="278" height="115.722" viewBox="0 0 278 115.722">
  <g id="Grupo_39590" data-name="Grupo 39590" transform="translate(0 5.071)">
    <path id="Trazado_63703" data-name="Trazado 63703" d="M18.8-194.508l-31.341-32.755-59.942-7.664,25.432-48.039,40.294,28.194,56.44-18.909ZM-66.04-238.267l55.476,7.092L17.31-202.043l25.322-64.92L-7.417-250.2-45.586-276.9Z" transform="translate(72.48 282.967)" fill="#ffa726"/>
  </g>
  <g id="Grupo_39591" data-name="Grupo 39591" transform="translate(110.657 9.735)">
    <path id="Trazado_63704" data-name="Trazado 63704" d="M43.729-174.722l-62.616-8.953v-49.773L8.081-236.8,1.488-280.708H66.076Zm-58.487-12.535,55.245,7.9,20.5-97.219H6.282l6.51,43.354-27.55,3.423Z" transform="translate(18.887 280.708)" fill="#ffa726"/>
  </g>
  <g id="Grupo_39592" data-name="Grupo 39592" transform="translate(184.792)">
    <path id="Trazado_63705" data-name="Trazado 63705" d="M110.226-201.044H17.018l31.651-16.828L39.9-230.321l62.779-55.1Zm-76.644-4.13h72.13l-6.421-71.779L45.413-229.664l9.327,13.239Z" transform="translate(-17.018 285.423)" fill="#ffa726"/>
  </g>
</svg>
