<svg xmlns="http://www.w3.org/2000/svg" width="84" height="84" viewBox="0 0 84 84">
  <g id="web-design" transform="translate(-16 -16)">
    <path id="Trazado_100525" data-name="Trazado 100525" d="M214.4,382.4H192l2.8-16.8V360h16.8v5.6Z" transform="translate(-145.2 -283.8)" fill="#757c80"/>
    <rect id="Rectángulo_5271" data-name="Rectángulo 5271" width="81.2" height="64.4" rx="6" transform="translate(17.4 17.4)" fill="#b5b8b9"/>
    <path id="Trazado_100526" data-name="Trazado 100526" d="M26.8,24h75.6a2.8,2.8,0,0,1,2.8,2.8v8.4H24V26.8A2.8,2.8,0,0,1,26.8,24Z" transform="translate(-6.6 -6.6)" fill="#26ccda"/>
    <path id="Trazado_100527" data-name="Trazado 100527" d="M24,88h81.2v39.2H24Z" transform="translate(-6.6 -59.4)" fill="#fae8d8"/>
    <path id="Trazado_100528" data-name="Trazado 100528" d="M88,152h16.8v16.8H88Z" transform="translate(-59.4 -112.2)" fill="#fdd835"/>
    <path id="Trazado_100529" data-name="Trazado 100529" d="M0,0H5.6V32.821a2.8,2.8,0,1,1-5.6,0V0Z" transform="translate(70.007 71.182) rotate(-45)" fill="#f57c00"/>
    <path id="Trazado_100530" data-name="Trazado 100530" d="M0,0H5.6V16.531H0Z" transform="translate(63.709 64.881) rotate(-45)" fill="#fcb442"/>
    <path id="Trazado_100531" data-name="Trazado 100531" d="M248,120h36.4v8.4H248Z" transform="translate(-191.4 -85.8)" fill="#f57c00"/>
    <path id="Trazado_100532" data-name="Trazado 100532" d="M248,232l2.2,9.528a5.6,5.6,0,0,0,4.1,4.174l4.592,1.148,3.96-3.96L261.7,238.3a5.6,5.6,0,0,0-4.174-4.1Z" transform="translate(-191.4 -178.2)" fill="#976048"/>
    <path id="Trazado_100533" data-name="Trazado 100533" d="M100,79V20.2A4.2,4.2,0,0,0,95.8,16H20.2A4.2,4.2,0,0,0,16,20.2V79a4.2,4.2,0,0,0,4.2,4.2H47.947l-2.333,14H39.8a1.4,1.4,0,1,0,0,2.8H76.2a1.4,1.4,0,1,0,0-2.8H70.386l-2.333-14H80.06L92.238,95.378a4.2,4.2,0,0,0,5.94-5.94L91.939,83.2H95.8A4.2,4.2,0,0,0,100,79ZM69.47,68.65l1.98-1.98,5.939,5.939-1.98,1.981ZM67.061,67.1l-3.824-.956a4.181,4.181,0,0,1-3.074-3.13l-1.7-7.345,7.345,1.7a4.181,4.181,0,0,1,3.13,3.074l.956,3.824Zm5.652-3.125-1.054-4.217a6.969,6.969,0,0,0-5.217-5.123l-9.527-2.2a1.4,1.4,0,0,0-1.679,1.679l2.2,9.528a7,7,0,0,0,1.32,2.758H18.8V30H97.2V66.4H75.139ZM20.2,18.8H95.8a1.4,1.4,0,0,1,1.4,1.4v7H18.8v-7A1.4,1.4,0,0,1,20.2,18.8ZM67.547,97.2H48.453l2.333-14H65.214ZM20.2,80.4A1.4,1.4,0,0,1,18.8,79V69.2H63.92l2.854.713L77.26,80.4Zm76,13a1.4,1.4,0,0,1-1.98,0L77.389,76.569l1.98-1.979L96.2,91.419A1.4,1.4,0,0,1,96.2,93.4ZM77.939,69.2H97.2V79a1.4,1.4,0,0,1-1.4,1.4H89.139Z"/>
    <path id="Trazado_100534" data-name="Trazado 100534" d="M239,336h-5.6a1.4,1.4,0,0,0,0,2.8H239a1.4,1.4,0,0,0,0-2.8Z" transform="translate(-178.2 -264)"/>
    <circle id="Elipse_4025" data-name="Elipse 4025" cx="1.4" cy="1.4" r="1.4" transform="translate(21.6 21.6)"/>
    <circle id="Elipse_4026" data-name="Elipse 4026" cx="1.4" cy="1.4" r="1.4" transform="translate(27.2 21.6)"/>
    <circle id="Elipse_4027" data-name="Elipse 4027" cx="1.4" cy="1.4" r="1.4" transform="translate(32.8 21.6)"/>
    <path id="Trazado_100535" data-name="Trazado 100535" d="M97.4,114.8h2.8a1.4,1.4,0,0,0,0-2.8H97.4a1.4,1.4,0,0,0,0,2.8Z" transform="translate(-66 -79.2)"/>
    <path id="Trazado_100536" data-name="Trazado 100536" d="M145.4,114.8h2.8a1.4,1.4,0,1,0,0-2.8h-2.8a1.4,1.4,0,1,0,0,2.8Z" transform="translate(-105.6 -79.2)"/>
    <path id="Trazado_100537" data-name="Trazado 100537" d="M52.2,258.8H50.8v-1.4a1.4,1.4,0,0,0-2.8,0v2.8a1.4,1.4,0,0,0,1.4,1.4h2.8a1.4,1.4,0,0,0,0-2.8Z" transform="translate(-26.4 -198)"/>
    <path id="Trazado_100538" data-name="Trazado 100538" d="M100.2,272H97.4a1.4,1.4,0,0,0,0,2.8h2.8a1.4,1.4,0,1,0,0-2.8Z" transform="translate(-66 -211.2)"/>
    <path id="Trazado_100539" data-name="Trazado 100539" d="M148.2,272h-2.8a1.4,1.4,0,1,0,0,2.8h2.8a1.4,1.4,0,1,0,0-2.8Z" transform="translate(-105.6 -211.2)"/>
    <path id="Trazado_100540" data-name="Trazado 100540" d="M196.2,112h-2.8a1.4,1.4,0,0,0,0,2.8h1.4v1.4a1.4,1.4,0,1,0,2.8,0v-2.8A1.4,1.4,0,0,0,196.2,112Z" transform="translate(-145.2 -79.2)"/>
    <path id="Trazado_100541" data-name="Trazado 100541" d="M209.4,160a1.4,1.4,0,0,0-1.4,1.4v2.8a1.4,1.4,0,1,0,2.8,0v-2.8A1.4,1.4,0,0,0,209.4,160Z" transform="translate(-158.4 -118.8)"/>
    <path id="Trazado_100542" data-name="Trazado 100542" d="M209.4,208a1.4,1.4,0,0,0-1.4,1.4v2.8a1.4,1.4,0,0,0,2.8,0v-2.8A1.4,1.4,0,0,0,209.4,208Z" transform="translate(-158.4 -158.4)"/>
    <path id="Trazado_100543" data-name="Trazado 100543" d="M196.2,256a1.4,1.4,0,0,0-1.4,1.4v1.4h-1.4a1.4,1.4,0,0,0,0,2.8h2.8a1.4,1.4,0,0,0,1.4-1.4v-2.8A1.4,1.4,0,0,0,196.2,256Z" transform="translate(-145.2 -198)"/>
    <path id="Trazado_100544" data-name="Trazado 100544" d="M49.4,117.6a1.4,1.4,0,0,0,1.4-1.4v-1.4h1.4a1.4,1.4,0,0,0,0-2.8H49.4a1.4,1.4,0,0,0-1.4,1.4v2.8A1.4,1.4,0,0,0,49.4,117.6Z" transform="translate(-26.4 -79.2)"/>
    <path id="Trazado_100545" data-name="Trazado 100545" d="M49.4,165.6a1.4,1.4,0,0,0,1.4-1.4v-2.8a1.4,1.4,0,0,0-2.8,0v2.8A1.4,1.4,0,0,0,49.4,165.6Z" transform="translate(-26.4 -118.8)"/>
    <path id="Trazado_100546" data-name="Trazado 100546" d="M49.4,213.6a1.4,1.4,0,0,0,1.4-1.4v-2.8a1.4,1.4,0,1,0-2.8,0v2.8A1.4,1.4,0,0,0,49.4,213.6Z" transform="translate(-26.4 -158.4)"/>
    <path id="Trazado_100547" data-name="Trazado 100547" d="M249.8,192h-8.4a1.4,1.4,0,0,0,0,2.8h8.4a1.4,1.4,0,0,0,0-2.8Z" transform="translate(-184.8 -145.2)"/>
    <path id="Trazado_100548" data-name="Trazado 100548" d="M343.8,192H321.4a1.4,1.4,0,1,0,0,2.8h22.4a1.4,1.4,0,1,0,0-2.8Z" transform="translate(-250.8 -145.2)"/>
    <path id="Trazado_100549" data-name="Trazado 100549" d="M357,224H337.4a1.4,1.4,0,1,0,0,2.8H357a1.4,1.4,0,1,0,0-2.8Z" transform="translate(-264 -171.6)"/>
    <path id="Trazado_100550" data-name="Trazado 100550" d="M277.8,112H241.4a1.4,1.4,0,0,0-1.4,1.4v8.4a1.4,1.4,0,0,0,1.4,1.4h36.4a1.4,1.4,0,0,0,1.4-1.4v-8.4A1.4,1.4,0,0,0,277.8,112Zm-1.4,8.4H242.8v-5.6h33.6Z" transform="translate(-184.8 -79.2)"/>
    <path id="Trazado_100551" data-name="Trazado 100551" d="M99.6,145.4a1.4,1.4,0,0,0-1.4-1.4H81.4a1.4,1.4,0,0,0-1.4,1.4v16.8a1.4,1.4,0,0,0,1.4,1.4H98.2a1.4,1.4,0,0,0,1.4-1.4Zm-2.8,15.4h-14v-14h14Z" transform="translate(-52.8 -105.6)"/>
  </g>
</svg>
