<svg xmlns="http://www.w3.org/2000/svg" width="72.735" height="78.646" viewBox="0 0 72.735 78.646">
  <g id="edad-de-piedra" transform="translate(49.948 0) rotate(40)">
    <path id="Trazado_100656" data-name="Trazado 100656" d="M139.287,122.5a1.518,1.518,0,1,0,1.073.445A1.528,1.528,0,0,0,139.287,122.5Zm0,0" transform="translate(-116.861 -103.911)" fill="#26ccda"/>
    <path id="Trazado_100657" data-name="Trazado 100657" d="M29.484,33.927l-5.539-8.138v-.14a1.518,1.518,0,1,0-3.035,0v.607a1.519,1.519,0,0,0,.263.854L25.928,34.1a32.346,32.346,0,0,0-10.641,7.748A38.534,38.534,0,0,0,3.773,32.233l-.737-.4V30.415l5.228-8.851a1.517,1.517,0,0,0,.211-.772V16.436l1.9-3.146a1.522,1.522,0,0,0,.13-.272l3.458-9.6,5.291,8.277c.011.018.023.035.035.052l1.618,2.315v.356a1.518,1.518,0,0,0,3.035,0v-.835a1.516,1.516,0,0,0-.274-.87L21.8,10.033,16.19,1.261a2.731,2.731,0,0,0-4.87.545L7.7,11.848,5.658,15.226a1.517,1.517,0,0,0-.219.786v4.366L.211,29.228A1.523,1.523,0,0,0,0,30V45.455a1.518,1.518,0,0,0,.573,1.187l8.533,6.793v3.778a1.516,1.516,0,0,0,0,2.841v3.23a1.516,1.516,0,0,0,0,2.841V76.188a1.518,1.518,0,0,0,1.518,1.518h8.5a1.518,1.518,0,0,0,1.518-1.518V66.125a1.516,1.516,0,0,0,0-2.841v-3.23a1.516,1.516,0,0,0,0-2.841v-3.4a1.376,1.376,0,0,0,.129-.1l8.449-7.259a1.516,1.516,0,0,0,.528-1.151V34.781A1.516,1.516,0,0,0,29.484,33.927ZM3.036,35.3a35.508,35.508,0,0,1,10.276,8.942,32.247,32.247,0,0,0-3.487,5.887l-6.79-5.4Zm9.106,21.817V54.081h5.464v3.035Zm5.463,3.035v3.035H12.141V60.151Zm-4.857-9.106a29.12,29.12,0,0,1,2.421-4.188,35.453,35.453,0,0,1,2.31,4.188ZM12.142,74.67V66.222h5.464V74.67Zm8.223-24.611a38.457,38.457,0,0,0-3.231-5.726,29.329,29.329,0,0,1,9.577-7.256v7.53Zm0,0" transform="translate(0 0)" fill="#26ccda"/>
    <path id="Trazado_100658" data-name="Trazado 100658" d="M105.1,154.594a1.518,1.518,0,0,0-1.518,1.518v5.2a1.518,1.518,0,0,0,.445,1.073l3,3a1.518,1.518,0,0,0,2.147-2.147l-2.559-2.559v-4.566A1.518,1.518,0,0,0,105.1,154.594Zm0,0" transform="translate(-87.865 -131.131)" fill="#26ccda"/>
  </g>
</svg>
