<svg xmlns="http://www.w3.org/2000/svg" width="109.648" height="99.857" viewBox="0 0 109.648 99.857">
  <g id="antigua-grecia" transform="translate(0 -5.715)">
    <g id="Grupo_53806" data-name="Grupo 53806" transform="translate(1.499 7.214)">
      <path id="Trazado_101766" data-name="Trazado 101766" d="M1.75,110.035H108.4v8.995H1.75Z" transform="translate(-1.75 -22.171)" fill="#afafaf"/>
      <path id="Trazado_101767" data-name="Trazado 101767" d="M11.687,99.535h89.625v8.995H11.687Z" transform="translate(-3.175 -20.665)" fill="#afafaf"/>
      <path id="Trazado_101768" data-name="Trazado 101768" d="M23.312,56.41h18.31V93.352H23.312Z" transform="translate(-4.841 -14.482)" fill="#e8e8e8"/>
      <path id="Trazado_101769" data-name="Trazado 101769" d="M17.687,47.973H45.634V55.2H17.687Z" transform="translate(-4.035 -13.273)" fill="#afafaf"/>
      <path id="Trazado_101770" data-name="Trazado 101770" d="M13.562,39.535H48.577v7.228H13.562Z" transform="translate(-3.444 -12.063)" fill="#636363"/>
      <path id="Trazado_101771" data-name="Trazado 101771" d="M0,0H18.31V36.942H0Z" transform="translate(88.179 78.87) rotate(180)" fill="#f6f6f6"/>
      <path id="Trazado_101772" data-name="Trazado 101772" d="M0,0H27.947V7.228H0Z" transform="translate(92.998 41.928) rotate(180)" fill="#afafaf"/>
      <path id="Trazado_101773" data-name="Trazado 101773" d="M0,0H35.015V7.228H0Z" transform="translate(96.531 34.7) rotate(180)" fill="#636363"/>
      <path id="Trazado_101774" data-name="Trazado 101774" d="M43.137,68.574l-4.964.669a1.5,1.5,0,0,0-1.3,1.486v3.307l-2.245,1.285a1.5,1.5,0,0,0,1.5,2.6l3-1.72a1.5,1.5,0,0,0,.753-1.3V72.04l3.265-.44Z" transform="translate(-6.356 -16.226)" fill="#e69f6e"/>
      <path id="Trazado_101775" data-name="Trazado 101775" d="M94.261,84.134l-3.283,1.329L89.057,82.1a1.5,1.5,0,0,0-.4-.457l-5.341-3.989V81.4l3.3,2.464,2.415,4.227a1.5,1.5,0,0,0,1.864.646l4.5-1.82a1.5,1.5,0,1,0-1.124-2.779Z" transform="translate(-13.444 -17.529)" fill="#e69f6e"/>
      <path id="Trazado_101776" data-name="Trazado 101776" d="M85.467,7.465,82.152,15.6,74.71,18.922,72.3,13.247l-5.354-1.82V7.465H23.312v9.53h4.872l2.356,5.354H36.43l-2.57,4.6H23.312v7.984h18.31A12.047,12.047,0,0,1,53.668,22.891h9A12.046,12.046,0,0,1,74.71,34.937H93.02V7.465Z" transform="translate(-4.841 -7.465)" fill="#e8e8e8"/>
    </g>
    <g id="Grupo_53807" data-name="Grupo 53807" transform="translate(0 5.715)">
      <path id="Trazado_101777" data-name="Trazado 101777" d="M32.907,108.285H28.624a1.5,1.5,0,0,0,0,3h4.283a1.5,1.5,0,0,0,0-3Z" transform="translate(-3.889 -20.421)"/>
      <path id="Trazado_101778" data-name="Trazado 101778" d="M108.149,93.579h-7.014v-7.5a1.5,1.5,0,0,0-1.5-1.5H91.177V50.641H94.5a1.5,1.5,0,0,0,1.5-1.5V43.413H98.03a1.5,1.5,0,0,0,1.5-1.5V34.686a1.5,1.5,0,0,0-1.5-1.5H91.177V29.3a1.5,1.5,0,1,0-3,0v3.885H72.784A13.564,13.564,0,0,0,59.321,21.141H50.327A13.564,13.564,0,0,0,36.864,33.187h-15.4V28.2h9.049a1.5,1.5,0,0,0,1.309-.771l2.57-4.6A1.5,1.5,0,0,0,33.087,20.6H28.176l-1.962-4.454a1.5,1.5,0,0,0-1.372-.9H21.469V8.713H62.105v2.463A1.5,1.5,0,0,0,63.121,12.6l4.719,1.6,2.147,5.054a1.5,1.5,0,0,0,1.991.783l7.442-3.319a1.5,1.5,0,0,0,.778-.8l2.935-7.2h5.046v9.885a1.5,1.5,0,0,0,3,0V7.214a1.5,1.5,0,0,0-1.5-1.5H82.125a1.5,1.5,0,0,0-1.389.934l-3.084,7.579-5.5,2.453-1.813-4.27a1.5,1.5,0,0,0-.9-.833L65.1,10.1V7.214a1.5,1.5,0,0,0-1.5-1.5H19.97a1.5,1.5,0,0,0-1.5,1.5v9.53a1.5,1.5,0,0,0,1.5,1.5h3.894L25.826,22.7a1.5,1.5,0,0,0,1.371.9h3.336l-.893,1.61H19.97a1.5,1.5,0,0,0-1.5,1.5v6.485H11.618a1.5,1.5,0,0,0-1.5,1.5v7.228a1.5,1.5,0,0,0,1.5,1.5h2.034v5.728a1.5,1.5,0,0,0,1.5,1.5h3.319V84.585H10.011a1.5,1.5,0,0,0-1.5,1.5v7.5H1.5a1.5,1.5,0,0,0-1.5,1.5v8.995a1.5,1.5,0,0,0,1.5,1.5h106.65a1.5,1.5,0,0,0,1.5-1.5V95.078a1.5,1.5,0,0,0-1.5-1.5ZM88.179,84.585H72.866V72.2l1.8,1.343,2.415,4.227a1.5,1.5,0,0,0,1.864.646l4.5-1.82a1.5,1.5,0,1,0-1.124-2.779l-3.283,1.329-1.921-3.36a1.5,1.5,0,0,0-.4-.457l-3.842-2.87V50.641H88.179ZM93,47.643H68.048V43.413H93ZM89.678,36.185h6.853v4.23H64.514v-4.23ZM50.327,24.139h8.995a10.554,10.554,0,0,1,10.428,9.048H63.015a1.5,1.5,0,0,0-1.5,1.5v7.228a1.5,1.5,0,0,0,1.5,1.5H65.05v5.728a1.5,1.5,0,0,0,1.5,1.5h3.319V84.585H39.779V50.641H43.1a1.5,1.5,0,0,0,1.5-1.5V43.413h2.034a1.5,1.5,0,0,0,1.5-1.5V34.686a1.5,1.5,0,0,0-1.5-1.5H39.9a10.554,10.554,0,0,1,10.428-9.048ZM13.117,36.185H45.133v4.23H13.117Zm3.534,7.228H41.6v4.229H16.65Zm4.819,7.227H36.781v9.123l-3.465.467a1.5,1.5,0,0,0-1.3,1.486v3.307l-2.245,1.285a1.5,1.5,0,0,0,1.5,2.6l3-1.72a1.5,1.5,0,0,0,.753-1.3V63.028l1.766-.238v21.8H21.469Zm85.181,51.933H3v-6H17.025a1.5,1.5,0,0,0,0-3H11.51v-6H98.137v6H36.728a1.5,1.5,0,0,0,0,3H106.65Z" transform="translate(0 -5.715)"/>
    </g>
  </g>
</svg>
