<svg xmlns="http://www.w3.org/2000/svg" width="97.476" height="100.274" viewBox="0 0 97.476 100.274">
  <g id="dionisio" transform="translate(-0.496)">
    <path id="Trazado_101716" data-name="Trazado 101716" d="M216.365,61.161V38.405a30.827,30.827,0,0,0-61.654,0V61.161a8.219,8.219,0,0,0,8.22,8.22h45.215A8.22,8.22,0,0,0,216.365,61.161Zm0,0" transform="translate(-124.012 -6.094)" fill="#d47a3d"/>
    <path id="Trazado_101717" data-name="Trazado 101717" d="M302.768,7.578q-1.148,0-2.276.085a30.929,30.929,0,0,1,28.551,30.742V61.161a8.219,8.219,0,0,1-8.219,8.22h4.551a8.219,8.219,0,0,0,8.22-8.22V38.405A30.918,30.918,0,0,0,302.768,7.578Zm0,0" transform="translate(-241.242 -6.094)" fill="#b7692e"/>
    <path id="Trazado_101718" data-name="Trazado 101718" d="M33.234,391.686H51.468a6.763,6.763,0,0,0-1.667-2.744L27.08,366.221a6.828,6.828,0,1,0-9.656,9.656Zm0,0" transform="translate(-12.011 -292.895)" fill="#f0bca6"/>
    <path id="Trazado_101719" data-name="Trazado 101719" d="M205.442,365.8l-.012-4.078a29.723,29.723,0,0,0-29.725-29.547l-10.17.031a29.723,29.723,0,0,0-29.547,29.725L136,365.8Zm0,0" transform="translate(-108.956 -267.116)" fill="#f0bca6"/>
    <path id="Trazado_101720" data-name="Trazado 101720" d="M353.369,361.719a29.724,29.724,0,0,0-29.725-29.547l-3.687.012a29.727,29.727,0,0,1,28.861,29.536l.012,4.078h4.551Zm0,0" transform="translate(-256.895 -267.116)" fill="#e4aa9b"/>
    <path id="Trazado_101721" data-name="Trazado 101721" d="M186.73,365.914c-11.058-3.222-21.468-15.107-21.5-25.721a30.422,30.422,0,0,1,1.01-7.876l-.705,0a29.723,29.723,0,0,0-29.547,29.725l.011,3.87Zm0,0" transform="translate(-108.956 -267.232)" fill="#fff4f1"/>
    <path id="Trazado_101722" data-name="Trazado 101722" d="M266.613,340.192a30.423,30.423,0,0,1,1.01-7.876l-.705,0a29.507,29.507,0,0,0-3.914.273,30.329,30.329,0,0,0-.942,7.6c.031,10.614,10.441,22.5,21.5,25.721h4.552C277.055,362.692,266.645,350.807,266.613,340.192Zm0,0" transform="translate(-210.338 -267.232)" fill="#ecedef"/>
    <path id="Trazado_101723" data-name="Trazado 101723" d="M166.733,192.465a8.2,8.2,0,1,0-8.18,8.229A8.2,8.2,0,0,0,166.733,192.465Zm0,0" transform="translate(-120.484 -148.193)" fill="#f0bca6"/>
    <path id="Trazado_101724" data-name="Trazado 101724" d="M413.78,191.648a8.2,8.2,0,1,0-8.18,8.229A8.2,8.2,0,0,0,413.78,191.648Zm0,0" transform="translate(-319.147 -147.536)" fill="#f0bca6"/>
    <path id="Trazado_101725" data-name="Trazado 101725" d="M240.857,142.794a7.528,7.528,0,0,0-7.529-7.509H200.544a7.528,7.528,0,0,0-7.528,7.547l.044,17.408A23.921,23.921,0,1,0,240.9,160.1Zm0,0" transform="translate(-154.815 -108.79)" fill="#f0bca6"/>
    <path id="Trazado_101726" data-name="Trazado 101726" d="M329.889,142.794a7.528,7.528,0,0,0-7.529-7.509h-4.551a7.528,7.528,0,0,1,7.528,7.509l.044,17.3a24,24,0,0,1-21.65,23.883q1.161.111,2.352.109A23.991,23.991,0,0,0,329.932,160.1Zm0,0" transform="translate(-243.846 -108.79)" fill="#e4aa9b"/>
    <path id="Trazado_101727" data-name="Trazado 101727" d="M265.216,226a2.395,2.395,0,1,0-2.388,2.4A2.395,2.395,0,0,0,265.216,226Zm0,0" transform="translate(-209.022 -179.819)"/>
    <path id="Trazado_101728" data-name="Trazado 101728" d="M351.595,225.739a2.395,2.395,0,1,0-2.388,2.4A2.4,2.4,0,0,0,351.595,225.739Zm0,0" transform="translate(-278.484 -179.608)"/>
    <path id="Trazado_101729" data-name="Trazado 101729" d="M392.807,108c-2.637-2.275-5.908-2.808-7.3-1.19s-.39,4.775,2.248,7.051,5.908,2.808,7.3,1.19S395.445,110.274,392.807,108Zm0,0" transform="translate(-309.098 -85.138)" fill="#fdd835"/>
    <path id="Trazado_101730" data-name="Trazado 101730" d="M440.7,96.754c-1.539-1.484-4.746-.654-7.165,1.853s-3.131,5.743-1.592,7.227,4.746.654,7.165-1.854S442.238,98.237,440.7,96.754Zm0,0" transform="translate(-346.294 -77.212)" fill="#fdd835"/>
    <path id="Trazado_101731" data-name="Trazado 101731" d="M445.541,144.083c-2.369-2.554-5.56-3.446-7.127-1.991s-.917,4.7,1.452,7.256,5.56,3.446,7.127,1.992S447.909,146.636,445.541,144.083Zm0,0" transform="translate(-351.465 -113.701)" fill="#fdd835"/>
    <path id="Trazado_101732" data-name="Trazado 101732" d="M421.95,129.005a3.361,3.361,0,1,0,2.84,3.812A3.362,3.362,0,0,0,421.95,129.005Zm0,0" transform="translate(-335.818 -103.711)" fill="#26ccda"/>
    <path id="Trazado_101733" data-name="Trazado 101733" d="M195.371,106.8c-1.4-1.619-4.666-1.086-7.3,1.189s-3.644,5.433-2.248,7.051,4.666,1.086,7.3-1.189S196.768,108.417,195.371,106.8Zm0,0" transform="translate(-148.522 -85.129)" fill="#fdd835"/>
    <path id="Trazado_101734" data-name="Trazado 101734" d="M149.093,98.626c-2.418-2.507-5.626-3.337-7.165-1.853s-.825,4.72,1.593,7.227,5.626,3.337,7.165,1.854S151.512,101.134,149.093,98.626Zm0,0" transform="translate(-113.08 -77.228)" fill="#fdd835"/>
    <path id="Trazado_101735" data-name="Trazado 101735" d="M144.589,142.079c-1.567-1.454-4.758-.562-7.127,1.991s-3.019,5.8-1.452,7.256,4.758.562,7.127-1.992S146.156,143.533,144.589,142.079Zm0,0" transform="translate(-108.287 -113.692)" fill="#fdd835"/>
    <path id="Trazado_101736" data-name="Trazado 101736" d="M179.5,131.873a3.361,3.361,0,1,0-2.839,3.812A3.361,3.361,0,0,0,179.5,131.873Zm0,0" transform="translate(-138.566 -103.733)" fill="#26ccda"/>
    <path id="Trazado_101737" data-name="Trazado 101737" d="M28.291,275.332c0,.064-.005.128-.005.192v11.294a8.707,8.707,0,1,0,17.415,0V275.524c0-.064,0-.128,0-.192Zm0,0" transform="translate(-22.347 -221.408)" fill="#ffa726"/>
    <path id="Trazado_101738" data-name="Trazado 101738" d="M22.178,371.44H15.351a7.273,7.273,0,0,1,0-14.546h6.827a7.273,7.273,0,0,1,0,14.546Zm0,0" transform="translate(-6.097 -286.997)" fill="#f0bca6"/>
    <path id="Trazado_101739" data-name="Trazado 101739" d="M61.383,356.895H56.832a7.273,7.273,0,0,1,0,14.546h4.551a7.273,7.273,0,1,0,0-14.546Zm0,0" transform="translate(-45.303 -286.997)" fill="#e4aa9b"/>
    <g id="Grupo_53805" data-name="Grupo 53805" transform="translate(0.496)">
      <path id="Trazado_101740" data-name="Trazado 101740" d="M97.959,94.6a30.884,30.884,0,0,0-1.285-8.742,1.484,1.484,0,0,0-2.845.848,27.923,27.923,0,0,1,1.161,7.9L95,97.2h-17c-9.306-2.8-17.9-11.942-19.832-20.729a25.448,25.448,0,0,0,4,.317h.078a25.206,25.206,0,0,0,17.49-7.093A28.682,28.682,0,0,1,91.632,81.4a1.484,1.484,0,0,0,2.612-1.411A31.235,31.235,0,0,0,81.817,67.439a25.587,25.587,0,0,0,1.919-2.668h.4a9.715,9.715,0,0,0,9.7-9.7v-4.7a9.684,9.684,0,0,0,.912-11.2c.563-.013.925-.054.954-.057a1.486,1.486,0,0,0,1.283-1.19,14.12,14.12,0,0,0,.188-3.021,8.555,8.555,0,0,0-2.01-5.529,11.482,11.482,0,0,0-1.5-1.355c.072-.071.145-.141.216-.213A8.554,8.554,0,0,0,96,22.312a14.078,14.078,0,0,0-.13-3.024,1.484,1.484,0,0,0-1.259-1.214,14.086,14.086,0,0,0-3.026-.021c-.347.035-.682.084-1.009.145A32.275,32.275,0,0,0,32.5,18.165q-.405-.069-.83-.112a14.12,14.12,0,0,0-3.026.02,1.484,1.484,0,0,0-1.259,1.215,14.073,14.073,0,0,0-.13,3.024A8.548,8.548,0,0,0,29.372,27.8c.07.073.142.141.213.211a11.523,11.523,0,0,0-1.5,1.358A8.547,8.547,0,0,0,26.079,34.9a14.057,14.057,0,0,0,.188,3.02,1.484,1.484,0,0,0,1.282,1.19,12.249,12.249,0,0,0,1.306.062c.36,0,.778-.013,1.229-.051a9.7,9.7,0,0,0-.822,9.043,1.475,1.475,0,0,0-.048.37v6.533a9.714,9.714,0,0,0,9.7,9.7h1.675a25.507,25.507,0,0,0,1.688,2.383,31.328,31.328,0,0,0-6.019,4.118,1.484,1.484,0,1,0,1.951,2.238,28.314,28.314,0,0,1,6.125-4.072,25.353,25.353,0,0,0,10.672,6.32A28.942,28.942,0,0,0,62.4,90.29,35.818,35.818,0,0,0,70.748,97.2H28.524l-.007-2.391a27.918,27.918,0,0,1,4.805-15.765,1.484,1.484,0,0,0-2.46-1.662,31.109,31.109,0,0,0-3.294,6.346l-3.343-3.343a8.726,8.726,0,0,0-1.447-8.846,10.132,10.132,0,0,0,2.061-6.127V54.115c0-.057,0-.113,0-.169l0-.054a1.485,1.485,0,0,0-1.484-1.453H5.944A1.484,1.484,0,0,0,4.46,53.892l0,.054c0,.056,0,.112,0,.169V65.408a10.137,10.137,0,0,0,.81,3.97,8.75,8.75,0,0,0,.062,15.615l6.291,6.291h-4.1a1.484,1.484,0,1,0,0,2.968h7.068l5.587,5.587a1.483,1.483,0,0,0,1.05.435h5.822a1.481,1.481,0,0,0,.557-.109H96.487a1.484,1.484,0,0,0,1.485-1.489Zm-18.338-67a4.312,4.312,0,0,1-1.128-1.662h0a9.462,9.462,0,0,1-.607-2.99c1.448-.134,3.588-.053,4.853,1.039.167.144.325.295.479.449a5.034,5.034,0,0,0-.464.3,4.833,4.833,0,0,0-1.948,3.717A8.588,8.588,0,0,1,79.621,27.6Zm4.169.755a1.877,1.877,0,1,1,1.586,2.128A1.869,1.869,0,0,1,83.79,28.352ZM89.9,38.381a6.721,6.721,0,0,1-2.332,12.377l-.034-13.25a6.668,6.668,0,0,1,1.31.356A8.147,8.147,0,0,0,89.9,38.381Zm-4.518,23.3a25.092,25.092,0,0,0,2.076-7.913,9.616,9.616,0,0,0,3.411-1.027v2.323A6.745,6.745,0,0,1,85.382,61.683ZM94.2,36.205a9.578,9.578,0,0,1-3.017-.511,9.717,9.717,0,0,0-1.021-.5,3.54,3.54,0,0,1-.674-.557,8.231,8.231,0,0,1-1.319-1.876c.126-.077.251-.159.371-.249a4.811,4.811,0,0,0,1.868-3c.028.015.055.029.084.042a7.722,7.722,0,0,1,2.494,1.832C94.127,32.616,94.284,34.754,94.2,36.205ZM93.045,20.948h.006c.053,1.454-.146,3.588-1.307,4.792a8.556,8.556,0,0,1-1.216,1.048,1.356,1.356,0,0,0-.116.091,1.5,1.5,0,0,0-.2.124,4.857,4.857,0,0,0-3.105-3,8.372,8.372,0,0,1,1.2-1.576C89.469,21.224,91.591,20.948,93.045,20.948ZM61.526,2.968A29.428,29.428,0,0,1,87.741,19.177a6.652,6.652,0,0,0-1.569,1.19A11.544,11.544,0,0,0,84.9,21.941c-.075-.068-.147-.138-.223-.205a8.549,8.549,0,0,0-5.6-1.808,14.114,14.114,0,0,0-3.012.3,1.483,1.483,0,0,0-1.143,1.324,14.114,14.114,0,0,0,.226,3.461H48.1c.028-.144.054-.29.076-.438a14.078,14.078,0,0,0,.148-3.023,1.486,1.486,0,0,0-1.143-1.325,14.243,14.243,0,0,0-3.012-.3,8.549,8.549,0,0,0-5.6,1.808c-.077.067-.149.136-.224.2a11.538,11.538,0,0,0-1.271-1.573,6.691,6.691,0,0,0-1.728-1.275A29.492,29.492,0,0,1,61.526,2.968Zm-24.193,23.8a1.836,1.836,0,0,1,.272-.021,1.877,1.877,0,0,1,.271,3.734,1.877,1.877,0,1,1-.543-3.713ZM31.479,44.427a6.732,6.732,0,0,1,5.247-6.576l.033,13.12a6.723,6.723,0,0,1-5.28-6.544Zm10.962-16.09c-.008-.138-.021-.276-.041-.415a4.84,4.84,0,0,0-2.366-3.488c.155-.155.313-.306.481-.451,1.265-1.092,3.4-1.173,4.852-1.04-.07,1.336-.4,3.5-1.734,4.653A5.192,5.192,0,0,1,42.441,28.337ZM30.2,20.954h.04c1.341,0,3.49.217,4.7,1.474A8.321,8.321,0,0,1,36.146,24a4.856,4.856,0,0,0-3.1,3,8.363,8.363,0,0,1-1.532-1.26C30.349,24.537,30.149,22.406,30.2,20.954Zm.062,10.435A8.168,8.168,0,0,1,32.088,29.9l.021-.015a9.1,9.1,0,0,0,.849.4c.037.015.073.028.111.039A4.8,4.8,0,0,0,34.71,32.51c.121.09.245.172.371.249a8.257,8.257,0,0,1-1.319,1.876c-1.138,1.226-3.259,1.543-4.713,1.571C28.969,34.753,29.126,32.615,30.264,31.389ZM38.919,61.8a6.743,6.743,0,0,1-6.735-6.735V52A9.59,9.59,0,0,0,36.9,54.006,25.1,25.1,0,0,0,39,61.8Zm3.854.834a1.505,1.505,0,0,0-.118-.2,22.207,22.207,0,0,1-2.926-10.987l-.044-17.408a6.056,6.056,0,0,1,.1-1.086,4.79,4.79,0,0,0,1.457-1.126c.027,0,.054.006.08.006a1.5,1.5,0,0,0,.466-.075,10.789,10.789,0,0,0,3.785-1.913,6.824,6.824,0,0,0,1.5-1.876,1.387,1.387,0,0,0,.17.011H76.189a6.807,6.807,0,0,0,1.493,1.865,10.392,10.392,0,0,0,4.251,2.274,1.49,1.49,0,0,0,.354.043c.017,0,.033,0,.05,0a4.812,4.812,0,0,0,2.182,1.177,6,6,0,0,1,.039.673l.044,17.3a22.192,22.192,0,0,1-2.929,11.125,1.486,1.486,0,0,0-.119.206,22.754,22.754,0,0,1-3.5,4.534,22.387,22.387,0,0,1-21.228,6,1.572,1.572,0,0,0-.207-.053,22.367,22.367,0,0,1-10.254-5.851A22.714,22.714,0,0,1,42.773,62.636ZM7.424,65.409v-10H21.869v10A7.173,7.173,0,0,1,20.5,69.618a8.7,8.7,0,0,0-4.423-1.2H9.253a8.753,8.753,0,0,0-1.131.076A7.174,7.174,0,0,1,7.424,65.409Zm1.83,5.973h6.827a5.786,5.786,0,0,1,5.112,8.5,1.4,1.4,0,0,0-.09.161,5.792,5.792,0,0,1-5.022,2.915H9.253a5.761,5.761,0,0,1-2.356-.5,1.3,1.3,0,0,0-.167-.077,5.788,5.788,0,0,1,2.523-11Zm4.463,17.8-3.258-3.258h3.258Zm5.068,5.068h4.57a1.484,1.484,0,1,0,0-2.968H16.685V85.9a8.742,8.742,0,0,0,5.94-2.922l3.925,3.925a30.933,30.933,0,0,0-1,7.91l.008,2.491H21.838Zm0,0" transform="translate(-0.496)" fill="#18191b"/>
      <path id="Trazado_101741" data-name="Trazado 101741" d="M292.514,298.027h.022a7.431,7.431,0,0,0,5.041-1.984,1.484,1.484,0,0,0-2.017-2.178,4.471,4.471,0,0,1-3.033,1.193h-.013a4.47,4.47,0,0,1-3.027-1.176,1.485,1.485,0,0,0-2,2.19A7.433,7.433,0,0,0,292.514,298.027Zm0,0" transform="translate(-230.889 -235.994)" fill="#18191b"/>
      <path id="Trazado_101742" data-name="Trazado 101742" d="M351.132,200.046a15.036,15.036,0,0,1,6.745.208,1.468,1.468,0,0,0,.444.068,1.484,1.484,0,0,0,.443-2.9,18.038,18.038,0,0,0-8.275-.273,1.484,1.484,0,0,0,.644,2.9Zm0,0" transform="translate(-281.007 -158.245)" fill="#18191b"/>
      <path id="Trazado_101743" data-name="Trazado 101743" d="M240.505,197.148a18.034,18.034,0,0,0-8.275.273,1.484,1.484,0,0,0,.443,2.9,1.463,1.463,0,0,0,.443-.068,15.2,15.2,0,0,1,6.747-.207,1.484,1.484,0,0,0,.642-2.9Zm0,0" transform="translate(-186.008 -158.245)" fill="#18191b"/>
    </g>
  </g>
</svg>
