<svg xmlns="http://www.w3.org/2000/svg" width="109.278" height="132.237" viewBox="0 0 109.278 132.237">
  <g id="idea" transform="translate(-44.447)">
    <g id="Grupo_54686" data-name="Grupo 54686" transform="translate(80.823 105.775)">
      <path id="Trazado_102271" data-name="Trazado 102271" d="M219.205,417.893H187.9a2.609,2.609,0,0,1-2.609-2.609v-3.131a2.609,2.609,0,0,1,2.609-2.609h31.308a2.609,2.609,0,0,1,2.609,2.609v3.131A2.609,2.609,0,0,1,219.205,417.893Z" transform="translate(-185.288 -409.544)" fill="#afafaf"/>
    </g>
    <g id="Grupo_54687" data-name="Grupo 54687" transform="translate(107.696 105.776)" style="mix-blend-mode: multiply;isolation: isolate">
      <path id="Trazado_102272" data-name="Trazado 102272" d="M296.38,409.545h-7.044a2.609,2.609,0,0,1,2.609,2.609v3.131a2.609,2.609,0,0,1-2.609,2.609h7.044a2.609,2.609,0,0,0,2.609-2.609v-3.131A2.609,2.609,0,0,0,296.38,409.545Z" transform="translate(-289.336 -409.545)" fill="#afafaf"/>
    </g>
    <g id="Grupo_54688" data-name="Grupo 54688" transform="translate(84.737 114.124)">
      <path id="Trazado_102273" data-name="Trazado 102273" d="M200.441,441.87l1.9,11.789a5.218,5.218,0,0,0,5.151,4.387h14.593a5.218,5.218,0,0,0,5.151-4.387l1.9-11.789Z" transform="translate(-200.441 -441.87)" fill="#e8e8e8"/>
    </g>
    <g id="Grupo_54689" data-name="Grupo 54689" transform="translate(99.339 114.124)" style="mix-blend-mode: multiply;isolation: isolate">
      <path id="Trazado_102274" data-name="Trazado 102274" d="M264.031,441.87l-1.9,11.789a5.218,5.218,0,0,1-5.151,4.387h7.044a5.218,5.218,0,0,0,5.151-4.387l1.9-11.789Z" transform="translate(-256.978 -441.87)" fill="#e8e8e8"/>
    </g>
    <g id="Grupo_54690" data-name="Grupo 54690" transform="translate(59.951 15.504)">
      <path id="Trazado_102275" data-name="Trazado 102275" d="M182.745,99.164a39.135,39.135,0,1,0-55.228,35.681,5.2,5.2,0,0,1,3.048,4.744V150.3h26.09V139.589a5.246,5.246,0,0,1,3.1-4.77A39.139,39.139,0,0,0,182.745,99.164Z" transform="translate(-104.474 -60.029)" fill="#fdd835"/>
    </g>
    <g id="Grupo_54691" data-name="Grupo 54691" transform="translate(78.095 25.038)">
      <path id="Trazado_102276" data-name="Trazado 102276" d="M221.317,96.942a44.763,44.763,0,0,1-40.863,63,45.173,45.173,0,0,1-5.728-.364,39.081,39.081,0,0,0,4.9,2.649,5.2,5.2,0,0,1,3.048,4.744V177.68h26.09V166.968a5.246,5.246,0,0,1,3.1-4.77,39.142,39.142,0,0,0,9.451-65.256Z" transform="translate(-174.726 -96.942)" fill="#ffa726"/>
    </g>
    <g id="Grupo_54696" data-name="Grupo 54696" transform="translate(77.17 28.549)">
      <g id="Grupo_54692" data-name="Grupo 54692" transform="translate(8.871)">
        <circle id="Elipse_4110" data-name="Elipse 4110" cx="13.045" cy="13.045" r="13.045" fill="#f1d0a5"/>
      </g>
      <g id="Grupo_54693" data-name="Grupo 54693" transform="translate(10.601 1.73)">
        <path id="Trazado_102277" data-name="Trazado 102277" d="M229.993,117.235a13.042,13.042,0,0,1-17.8,17.8,13.044,13.044,0,1,0,17.8-17.8Z" transform="translate(-212.19 -117.235)" fill="#f1b986"/>
      </g>
      <g id="Grupo_54694" data-name="Grupo 54694" transform="translate(0 26.09)">
        <path id="Trazado_102278" data-name="Trazado 102278" d="M171.146,221.988v11.48h43.831v-11.48a10.436,10.436,0,0,0-10.436-10.436H181.582a10.436,10.436,0,0,0-10.436,10.436Z" transform="translate(-171.146 -211.552)" fill="#26ccda"/>
      </g>
      <g id="Grupo_54695" data-name="Grupo 54695" transform="translate(27.134 26.09)" style="mix-blend-mode: multiply;isolation: isolate">
        <path id="Trazado_102279" data-name="Trazado 102279" d="M282.465,211.553H276.2a10.436,10.436,0,0,1,10.436,10.436v11.48H292.9v-11.48A10.436,10.436,0,0,0,282.465,211.553Z" transform="translate(-276.203 -211.553)" fill="#26ccda"/>
      </g>
    </g>
    <g id="Grupo_54697" data-name="Grupo 54697" transform="translate(44.447)">
      <path id="Trazado_102280" data-name="Trazado 102280" d="M155,131.02A41.177,41.177,0,0,0,179.121,93.6a40.761,40.761,0,0,0-7.743-24,1.937,1.937,0,1,0-3.141,2.267,36.913,36.913,0,0,1,7.01,21.734A37.294,37.294,0,0,1,153.4,127.492a7.2,7.2,0,0,0-4.242,6.535V142.8H126.941v-8.774a7.153,7.153,0,0,0-4.187-6.51,37.2,37.2,0,1,1,39.7-61.991,1.937,1.937,0,1,0,2.543-2.923,41.074,41.074,0,1,0-43.836,68.443,3.271,3.271,0,0,1,1.91,2.98V142.8H122.4a4.552,4.552,0,0,0-4.546,4.548v3.13a4.549,4.549,0,0,0,4.2,4.528l1.641,10.177a7.127,7.127,0,0,0,7.065,6.017h2.776a1.937,1.937,0,0,0,0-3.874h-2.776a3.269,3.269,0,0,1-3.24-2.759l-1.539-9.542h3.036a1.937,1.937,0,0,0,0-3.874H122.4a.672.672,0,0,1-.672-.672v-3.13a.674.674,0,0,1,.672-.674H153.7a.674.674,0,0,1,.672.674v3.13a.672.672,0,0,1-.672.672H138.05a1.937,1.937,0,1,0,0,3.874h12.075l-1.539,9.542a3.269,3.269,0,0,1-3.24,2.76H142.57a1.937,1.937,0,0,0,0,3.874h2.776a7.127,7.127,0,0,0,7.065-6.017l1.641-10.177a4.549,4.549,0,0,0,4.2-4.528v-3.13A4.552,4.552,0,0,0,153.7,142.8h-.672v-8.774A3.323,3.323,0,0,1,155,131.02Z" transform="translate(-83.411 -38.963)"/>
      <path id="Trazado_102281" data-name="Trazado 102281" d="M163.646,141.5v11.48a1.937,1.937,0,0,0,1.937,1.937h43.831a1.937,1.937,0,0,0,1.937-1.937V141.5a12.387,12.387,0,0,0-12.373-12.373h-1.437a14.982,14.982,0,1,0-20.085,0h-1.437A12.387,12.387,0,0,0,163.646,141.5Zm12.745-23.481A11.108,11.108,0,1,1,187.5,129.126,11.12,11.12,0,0,1,176.391,118.018ZM198.978,133a8.508,8.508,0,0,1,8.5,8.5v9.543h-7.084v-3.281a1.937,1.937,0,1,0-3.874,0v3.281H178.478v-3.281a1.937,1.937,0,1,0-3.874,0v3.281H167.52V141.5a8.509,8.509,0,0,1,8.5-8.5Z" transform="translate(-132.86 -76.424)"/>
      <path id="Trazado_102282" data-name="Trazado 102282" d="M250.437,9.092a1.937,1.937,0,0,0,1.937-1.937V1.937a1.937,1.937,0,0,0-3.874,0V7.155A1.937,1.937,0,0,0,250.437,9.092Z" transform="translate(-195.798)"/>
      <path id="Trazado_102283" data-name="Trazado 102283" d="M149.341,34.761a1.937,1.937,0,0,0,3.355-1.937L150.087,28.3a1.937,1.937,0,1,0-3.355,1.937Z" transform="translate(-120.121 -20.275)"/>
      <path id="Trazado_102284" data-name="Trazado 102284" d="M72.753,105.639l4.519,2.609a1.937,1.937,0,0,0,1.937-3.355l-4.519-2.609a1.937,1.937,0,1,0-1.937,3.355Z" transform="translate(-64.723 -75.674)"/>
      <path id="Trazado_102285" data-name="Trazado 102285" d="M53.539,205.99a1.937,1.937,0,0,0-1.937-1.937H46.384a1.937,1.937,0,1,0,0,3.874H51.6A1.937,1.937,0,0,0,53.539,205.99Z" transform="translate(-44.447 -151.351)"/>
      <path id="Trazado_102286" data-name="Trazado 102286" d="M77.272,296.236l-4.519,2.609A1.937,1.937,0,1,0,74.69,302.2l4.519-2.609a1.937,1.937,0,0,0-1.937-3.355Z" transform="translate(-64.723 -219.532)"/>
      <path id="Trazado_102287" data-name="Trazado 102287" d="M341.392,35.47a1.936,1.936,0,0,0,2.646-.709l2.609-4.519a1.937,1.937,0,0,0-3.355-1.937l-2.609,4.519a1.937,1.937,0,0,0,.709,2.646Z" transform="translate(-263.98 -20.276)"/>
      <path id="Trazado_102288" data-name="Trazado 102288" d="M409.656,108.508a1.928,1.928,0,0,0,.967-.26l4.519-2.609a1.937,1.937,0,1,0-1.937-3.355l-4.519,2.609a1.937,1.937,0,0,0,.97,3.615Z" transform="translate(-313.893 -75.674)"/>
      <path id="Trazado_102289" data-name="Trazado 102289" d="M439.505,204.053h-5.218a1.937,1.937,0,1,0,0,3.874h5.218a1.937,1.937,0,1,0,0-3.874Z" transform="translate(-332.164 -151.351)"/>
      <path id="Trazado_102290" data-name="Trazado 102290" d="M415.142,298.845l-4.519-2.609a1.937,1.937,0,1,0-1.937,3.355L413.2,302.2a1.937,1.937,0,1,0,1.937-3.355Z" transform="translate(-313.893 -219.532)"/>
    </g>
  </g>
</svg>
