<svg xmlns="http://www.w3.org/2000/svg" xmlns:xlink="http://www.w3.org/1999/xlink" width="500" height="300" viewBox="0 0 500 300">
  <defs>
    <clipPath id="clip-path">
      <rect id="Rectángulo_8745" data-name="Rectángulo 8745" width="500" height="300" transform="translate(908 318.828)" fill="#d952ab"/>
    </clipPath>
  </defs>
  <g id="Enmascarar_grupo_54" data-name="Enmascarar grupo 54" transform="translate(-908 -318.828)" clip-path="url(#clip-path)">
    <g id="Grupo_53758" data-name="Grupo 53758" transform="translate(-1920.063 -600.421)">
      <g id="Grupo_53744" data-name="Grupo 53744" transform="translate(2423.356 919.364)">
        <g id="Grupo_53799" data-name="Grupo 53799" transform="translate(0 0)">
          <rect id="Rectángulo_5286" data-name="Rectángulo 5286" width="942.855" height="314.285" transform="translate(0.001)" fill="#ffefac"/>
          <path id="Trazado_101331" data-name="Trazado 101331" d="M3524.556,1167.005v-39.6l-27.737-133.022-37.25,56.742-30.279-76.553-43.631,80.622-34.547-88.97-20.7,78.507-29.258-101.769L3271.581,1108.7l-34.571-97.461-25.141,33.492-34.154-105.007-27.45,79.122-23.27-49.346-16.68,87.917-10.02-67.287-11.147,45.224L3059.1,956.251l-21.42,84.676-13.36-74.7-19.26,65.924-30.01-44.891-23.927,61.53-28.372-92.54-30.411,100.517L2844.1,994.387l-49.136,71.713-19.124-87.205-32.491,86.134-28.106-86.134-19.2,54.393-33.3-38.9-29.637,30.321-14.252-58.479-11.473,53.9L2581.7,987.261V1174.6Z" transform="translate(-2581.7 -903.339)" fill="#ffe46e"/>
          <path id="Trazado_101332" data-name="Trazado 101332" d="M2581.7,1152.747v-64.828l27.736-98.557,42.953,75.307,18.447-60.49,32.886,84.6,24.74-107.552,51.435,101.222,25.443-52.781,29.333,44.391,34.571-72.21,35.619,70.412,30.381-75.015,24.1,42.056,22.942-30.842,13.657,27.6,8.454-34.989,12.683,39.157,30.074-79.125,21.42,62.738,18.357-16.358,5.346,23.916,35.331-42.041,27.522,40.308,19.037-68.564,39.746,74.474,40.683-40.833,56.695,47.746,19.124-64.611L3362.9,1041.7l16.212-57.618,31.09,34.1,22.146-27.212,24.688,30.349,16.572-59.055,14.776,56.425,36.168-34.609v138.8Z" transform="translate(-2581.7 -879.924)" fill="#e6c532"/>
          <path id="Trazado_101333" data-name="Trazado 101333" d="M2581.7,1144.348v-50.619s241.45-33.142,274.974-39.782,97.527,6.395,127.011,4.212,134.286-51.319,231.7-51.526,250.3,34.5,269.856,30.235,39.31-9.51,39.31-9.51v116.991Z" transform="translate(-2581.7 -830.063)" fill="#fdd835"/>
        </g>
      </g>
      <g id="Grupo_53757" data-name="Grupo 53757" transform="translate(2840.957 926.237)">
        <path id="Trazado_101335" data-name="Trazado 101335" d="M2781.683,1038.812c1.506,1.953,14.429.857,18.32,1.092s22.7,2.416,25.868.56,5.8-4.991,2.737-4.991-18.787-.689-24.789,0-15.823.48-18.4,0S2779.579,1036.082,2781.683,1038.812Z" transform="translate(-2781.01 -805.685)" fill="#e6c532"/>
        <path id="Trazado_101336" data-name="Trazado 101336" d="M3027.179,1048.25c-1.857,2.41-17.8,1.06-22.6,1.347s-28.005,2.979-31.913.691-7.158-6.156-3.375-6.156,23.176-.851,30.582,0,19.517.591,22.691,0S3029.774,1044.883,3027.179,1048.25Z" transform="translate(-2576.638 -796.278)" fill="#e6c532"/>
        <path id="Trazado_101337" data-name="Trazado 101337" d="M3076.787,1045.71c-10.64-10.774-127.56-42.835-237.558-14.983,0,0-36.327,22.132-6.172,35.828a170.591,170.591,0,0,0,52.617,14.535c-5.456,1.777-9.043,4.783-9.043,8.2,0,5.458,9.182,9.883,20.509,9.883s20.51-4.425,20.51-9.883c0-2.466-1.888-4.716-4.986-6.447,12.873.245,27.383-.18,44.133-1.32C3018.862,1077.3,3087.424,1056.484,3076.787,1045.71Z" transform="translate(-2737.117 -822.699)" fill="#e6c532"/>
        <g id="Grupo_53756" data-name="Grupo 53756" transform="translate(3.357)">
          <g id="Grupo_53745" data-name="Grupo 53745" transform="translate(95.67)">
            <path id="Trazado_101338" data-name="Trazado 101338" d="M2930.647,991.781s4.6,44.144,6.51,52.157,13.355,26.327,13.736,35.1-28.235,8.394-31.669,4.96-5.341-27.854-8.394-33.576-23.655-35.485-24.8-40.063S2930.647,991.781,2930.647,991.781Z" transform="translate(-2765.037 -853.202)" fill="#3b1a1a"/>
            <path id="Trazado_101339" data-name="Trazado 101339" d="M2854.247,1004.285c0,1.525,16.026,63.337,20.985,66.389s28.233,6.1,26.326-1.527,5.723-72.493,5.723-72.493Z" transform="translate(-2799.825 -847.864)" fill="#3b1a1a"/>
            <path id="Trazado_101340" data-name="Trazado 101340" d="M2988.563,971.5c-4.646-10.216-15.262-19.46-26.708-18.314s-20.985,14.5-36.247,18.314-30.905,1.526-41.589,9.537-12.974,9.158-22.13,9.921-21.749,11.446-25.564,41.588,12.209,49.6,47.693,48.838,87.373,1.907,98.057-15.643S3007.64,1013.467,2988.563,971.5Z" transform="translate(-2820.057 -895.582)" fill="#632e1a"/>
            <path id="Trazado_101341" data-name="Trazado 101341" d="M2931.1,1014.3s-24.8,46.55-27.852,54.562-5.725,22.13-5.343,26.708,7.25,17.361,2.671,17.836-25.182,2.194-28.616,0-3.434-30.045-3.053-34.242,10.684-39.6,8.4-43.648-8.4-17.782-3.816-27.7,11.828-36.627,23.274-37.008S2941.4,975.384,2931.1,1014.3Z" transform="translate(-2783.957 -876.195)" fill="#632e1a"/>
            <path id="Trazado_101342" data-name="Trazado 101342" d="M2938.777,950.456s-3.464-10.355-10.742-10.068-28.455,7.725-28.6,14.021a33.533,33.533,0,0,0,1.63,11.142s13.965-4.848,22.549-7.423A52.125,52.125,0,0,0,2938.777,950.456Z" transform="translate(-2750.341 -909.495)" fill="#3b1a1a"/>
            <path id="Trazado_101343" data-name="Trazado 101343" d="M2895.288,1001.882s-7.25,32.814-14.117,44.641-16.79,20.6-20.224,27.089-5.34,20.6-4.959,24.8-19.459,2.288-25.945,1.525,6.868-33.957,8.012-38.917,4.425-44.3,6.488-55.706S2899.484,951.9,2895.288,1001.882Z" transform="translate(-2828.273 -868.354)" fill="#632e1a"/>
            <path id="Trazado_101344" data-name="Trazado 101344" d="M2927.054,1015.9s10.755,19.5,44.712,19.5c32.051,0,55.706-29.036,61.047-51.928s-4.66-53.63-29.8-51.3c-17.921,1.661-12.937,7.038-9.12,7.038s15.2-1.917,21.366,4.959c8.873,9.9,9.919,27.848,6.485,38.152s-18.354,37.478-48.457,41.59-41.969-25.562-41.969-25.562Z" transform="translate(-2720.085 -918.622)" fill="#ffffe5"/>
            <path id="Trazado_101345" data-name="Trazado 101345" d="M2901.328,962.551s11.4-18.182,37.343-17.42,38.536,42.353,37.009,56.85,10.136,33.283,26,28.811c17.07-4.811,25.442-45.622,26.279-47.153,1.026-1.886,5.295-6.485,6.441-5.341s.073,10.581,2.364,11.388,5.309-3.08.622,4.515c-2.6,4.222-9.675,41.907-21.761,53.447-6.812,6.506-20.735,18.34-46.933,6.493-21.2-9.588-28.489-39.95-31.16-38.043s-1.576,20.45-8.8,19.955S2886.5,997.9,2901.328,962.551Z" transform="translate(-2752.232 -904.32)" fill="#632e1a"/>
            <path id="Trazado_101346" data-name="Trazado 101346" d="M2916.21,957.366s-13.158-9.127-18.6-2.259-2,22.321,0,28.33,10.3,14.594,12.877,10.874,3.384-13.736,3.267-16.311S2916.21,957.366,2916.21,957.366Z" transform="translate(-2755.532 -896.172)" fill="#884a2c"/>
            <path id="Trazado_101347" data-name="Trazado 101347" d="M2914.719,956.505s-11.557-6.6-16.181-.758-1.7,18.985,0,24.1,8.762,12.414,10.954,9.248,4.031-5,3.931-7.191S2914.719,956.505,2914.719,956.505Z" transform="translate(-2754.041 -895.311)" fill="#3b1a1a"/>
            <path id="Trazado_101348" data-name="Trazado 101348" d="M2905.51,954.267c0,1.081,1.552,1.957,3.466,1.957s3.467-.876,3.467-1.957-1.553-1.955-3.467-1.955S2905.51,953.188,2905.51,954.267Z" transform="translate(-2743.681 -896.429)" fill="#632e1a"/>
            <path id="Trazado_101349" data-name="Trazado 101349" d="M2993.187,981.376l-1.181,20.083-2.936-6.359-1.817,25.535-1.274-20.242-2.267,28.275-2.425-15.281-.945,17.657-2.711-8.571-1.693,26.148-1.084-19.611-3.466,19.611.191-13.866-6.525,28.378,1.79-23.458-3.868,12.356-2.336-8.974v14.313l-2.382-13.387-3.229,10.08-1.53-8.622-1.142,6.589-2.2-5.783-1.443,8.333-1.737-7.685s-2.915,15.719-2.915,16.238V1047.4l-3.629,7.956v-7.422l-3.369,7.941-2.334-7.277-2.07,16.087-2.133-15.706-3.3,13.192-2.6-27.351-5.442,20.8,1.717-19.882-6.122,21.633,3.218-23.739-9.112,21.405-.262-17.667-6.8,23.173-1.555-10.122-7.513,13.231-5.183-13.231v6.95l-2.332-6.95-3.37,8.567-1.554-8.567-7.773,6.95-2.862-6.971-2.319,15.584-3.381-15.9-1.285,14.866-2.332-14.526-4.147,13.491-1.848-9.617-3.593,7.8-.971-7.061-4.211,13.539-.237-9.152,10.859-21.174s98.619,6.481,106.756-12.366C2979.566,987.465,2993.187,981.376,2993.187,981.376Z" transform="translate(-2809.56 -864.597)" fill="#3b1a1a"/>
            <path id="Trazado_101350" data-name="Trazado 101350" d="M2994.364,976.181l-1.182,20.083-2.934-6.359-1.819,25.535-1.271-20.242-2.269,28.275-2.424-15.281-.943,17.657-2.714-8.572-1.693,26.149-1.083-19.612-3.467,19.612.191-13.866-6.523,28.376,1.79-23.456-3.867,12.354-2.338-8.972v14.31l-2.382-13.386-3.227,10.082-1.532-8.622-1.14,6.588-2.2-5.781-1.444,8.333-1.737-7.686s-2.915,15.719-2.915,16.236v-15.729l-3.626,7.956v-7.421l-3.369,7.939-2.334-7.275-2.072,16.085-2.131-15.706-3.3,13.194-3.892-13.294-4.146,6.738v-5.955l-4.4,7.7v-7.539l-8.52,20.559-1.328-19.968-3.11,10.122-1.554-10.122-7.515,13.231-5.181-13.231v6.948l-2.333-6.948-3.369,8.567-1.555-8.567-7.773,6.948-2.862-6.971-2.321,15.586-3.38-15.9-1.284,14.866-2.332-14.526-4.147,13.489-1.85-9.615-3.592,7.8-2.177-.865-9.254,27.816,1.584-20.992,15.289-29.807s98.617,6.481,106.757-12.366C2980.744,982.27,2994.364,976.181,2994.364,976.181Z" transform="translate(-2814.854 -870.287)" fill="#632e1a"/>
            <path id="Trazado_101351" data-name="Trazado 101351" d="M2919.639,1031.5c10.684-.863,19.458-42.881,33.2-68.8s14.88-27.066,19.458-27.066,7.631,6.487,9.921,4.578-4.962-15.643-12.974-14.5-17.168,8.346-29.761,36.985-20.979,52.9-21.659,53.8C2916.313,1018.513,2908.955,1032.36,2919.639,1031.5Z" transform="translate(-2734.438 -925.641)" fill="#ffffe5"/>
            <path id="Trazado_101352" data-name="Trazado 101352" d="M2939.066,1005.3l-3.782,8.1-6.071-13.957-2.8,7.982-4.026-21.467-.907,9.07-1.3-10.883h-1.683l-1.167-4.716h9.33Z" transform="translate(-2730.738 -866.724)" fill="#632e1a"/>
            <path id="Trazado_101353" data-name="Trazado 101353" d="M2895.437,1015.1l1.555,9.289,1.564-2.761,1.625,10.016,1.761-2.534,1.864,15.231,1.282,1.121,6.932-9.932Z" transform="translate(-2754.713 -827.666)" fill="#3b1a1a"/>
            <path id="Trazado_101354" data-name="Trazado 101354" d="M2909.429,954.94l-7.5,1.166,6.118,2.548-3.2,4.449,3.433-1.555-4.016,10.689,3.321-5.43-2.932,13.4,2.563-6.421-1.534,13.029,7.216-19.823Z" transform="translate(-2747.601 -893.551)" fill="#632e1a"/>
            <path id="Trazado_101355" data-name="Trazado 101355" d="M2838.1,1045.316l-4.8,11.935,1.884-13.275-2.91,3.868,4.182-16.14-2.82,3.508,4.809-22.161-3.085,4.281,4.809-17.131,1.747-10.095-2.3,7.013s-.153-11.8,1.4-12.993a8.4,8.4,0,0,1,2.946-1.506Z" transform="translate(-2823.896 -863.237)" fill="#632e1a"/>
            <path id="Trazado_101356" data-name="Trazado 101356" d="M2915.849,953.245l-8.174.184,2.613,1.773h-2.613l-.318,1.594-10.437,2.787,4.761.928-8.518,3.089,2,1.312-6.795,2.575v1.23l-5.961.842-1.228,1.764s-12.1,1.345,1.949,3.29S2915.849,953.245,2915.849,953.245Z" transform="translate(-2775.632 -895.407)" fill="#632e1a"/>
            <path id="Trazado_101357" data-name="Trazado 101357" d="M2923.824,950.867l4.957-3.864-3.887,1.932,2.591-6.6-3.661,5.053v-7.385l-1.846,6.219-1.359-6.219-.756,4.063-2.159-4.063-1.28,2.332-2.413-2.332-.93.792Z" transform="translate(-2735.388 -909.907)" fill="#3b1a1a"/>
            <path id="Trazado_101358" data-name="Trazado 101358" d="M2966.453,960.764c1.251-.264,1.251,11.348,2.158,11.737s2.98-1.425,3.5-.455-1.218,4.9-4.076,5.85-8.195-.849-8.362-1.769c-.455-2.462,3.765-1.425,3.83-2.784S2963.128,961.466,2966.453,960.764Z" transform="translate(-2684.399 -887.177)" fill="#180000"/>
          </g>
          <g id="Grupo_53747" data-name="Grupo 53747" transform="translate(0 119.34)">
            <path id="Trazado_101359" data-name="Trazado 101359" d="M2793.225,1005c.518-1.316,4.536-2.567,6.73-2.632s6.476-.323,6.476-.323a30.951,30.951,0,0,1,5.006-.662,12.1,12.1,0,0,0,2.791.2c.472-.149,4.184-2.173,5.743-2.343,1.622-.176,7.748-2.7,8.345-2.644s.79,3.084.628,3.394-6.575,4.532-7.494,5.1-4.637,1.36-5.129,1.961-1.347.048-2.772.666a29.571,29.571,0,0,1-8.257,1.882c-2.447.025-4.157-.122-4.333.62S2791.233,1010.049,2793.225,1005Z" transform="translate(-2771.288 -967.271)" fill="#b55624"/>
            <path id="Trazado_101360" data-name="Trazado 101360" d="M2798.957,997.956c-1.948-.643-3.222-2.374-4.917-.595s-3.646,11.109-3.562,13.906,3.137,11.023,2.8,13.227-3.131,6.347-3.47,8.3-2.077,8.926,7.591,8.161,7.875-13.724,7.453-15.758.3-5.957.551-7.738,1.355-4.748,1.355-7.122S2806.165,1000.33,2798.957,997.956Z" transform="translate(-2775.101 -967.285)" fill="#ca773b"/>
            <path id="Trazado_101361" data-name="Trazado 101361" d="M2801.522,1014.687s5.3,10.212,6.227,13.762,2.259,5.676,1,7.053-4.345,2.583-7.375-.069-9.822-11.851-10.761-14.65S2798.149,1009.6,2801.522,1014.687Z" transform="translate(-2773.932 -949.213)" fill="#b55624"/>
            <path id="Trazado_101362" data-name="Trazado 101362" d="M2803.727,1023.712s.853,4.993-.662,6.545-5.15,1.9-6.07.228-1.789-7.2-1.081-7.639S2803.727,1023.712,2803.727,1023.712Z" transform="translate(-2768.328 -938.618)" fill="#b55624"/>
            <path id="Trazado_101363" data-name="Trazado 101363" d="M2803.917,1026.058s-.153,5.127-.614,8.532-.863,8.211-1.523,8.991-4.668,2.409-4.565.645c.314-5.42-1.9-7.61-1.8-9.938s1.246-8.14,2.3-8.547S2803.917,1026.058,2803.917,1026.058Z" transform="translate(-2768.594 -935.482)" fill="#b55624"/>
            <path id="Trazado_101364" data-name="Trazado 101364" d="M2801.854,1035.121s5.364,1.986,6.11,2.221a16.8,16.8,0,0,0,2.956.251s.71.656.415,1.14-2.855,2.567-4.215,2.536-4.928-1.1-5.716-.826-3.038.694-4.254-.012-2.5-1.41.109-5.7S2801.854,1035.121,2801.854,1035.121Z" transform="translate(-2768.238 -927.483)" fill="#b55624"/>
            <path id="Trazado_101365" data-name="Trazado 101365" d="M2802.44,1016.912s-1.98,11.333-3.392,14.719-1.647,5.884-3.485,6.215-5.02-.58-5.821-4.528-.627-15.379.323-18.174S2802.842,1010.819,2802.44,1016.912Z" transform="translate(-2775.359 -949.637)" fill="#ca773b"/>
            <path id="Trazado_101366" data-name="Trazado 101366" d="M2797.8,1026.375s-1.517,4.834-3.574,5.525-5.448-.662-5.507-2.564,1.691-7.222,2.525-7.294S2797.8,1026.375,2797.8,1026.375Z" transform="translate(-2775.92 -939.4)" fill="#ca773b"/>
            <path id="Trazado_101367" data-name="Trazado 101367" d="M2800.893,1028.294a75.483,75.483,0,0,1-5.607,6.091c-2.52,2.336-6.539,3.9-7.486,6.189-.39.943-3.849-.763-3.631-2.518s3.373-7.082,4.928-8.815,6.139-5.49,7.212-5.131S2800.893,1028.294,2800.893,1028.294Z" transform="translate(-2780.917 -937.161)" fill="#ca773b"/>
            <path id="Trazado_101368" data-name="Trazado 101368" d="M2789.495,1034.206s.715,5.674.851,6.443,1.483.884,1.818,1.337c.258.348.017,1.448-.549,1.408s-4.57.448-5.144-1.68c-.354-1.312-1.3-4.878-1.907-5.452s-2.015-2.374-1.95-3.78.1-2.869,5.106-2.533S2789.495,1034.206,2789.495,1034.206Z" transform="translate(-2782.612 -930.792)" fill="#ca773b"/>
            <path id="Trazado_101369" data-name="Trazado 101369" d="M2803.626,1021.8s-3.495,22.39-12.19,26.84c-1.836.939-3.392-.421-3.281-1.354s.419-1.393.815-3.537-.97-3.939.379-5.519-.13-2.642-.291-4.57-.075-2.55,1.586-4.408,1.18-1.722,1.1-4.262,1.846-1.867,2.166-3.009-2.231-3.79-2.137-5.045-2.163-7.48-2.143-10.07c.015-1.98,3.93-7.742,3.93-7.742s.916,8.159,1.086,12.071C2795.2,1023.808,2803.626,1021.8,2803.626,1021.8Z" transform="translate(-2776.548 -964.501)" fill="#180000"/>
            <path id="Trazado_101370" data-name="Trazado 101370" d="M2802.092,1003.746s-2.2,12.647-4.4,12.986-3.063-.05-3.256.763c-4.764,20.066,11.815,24.345,11.815,24.345l-4.463-20.927Z" transform="translate(-2770.61 -959.437)" fill="#180000"/>
            <path id="Trazado_101371" data-name="Trazado 101371" d="M2805.818,992.4c.075-.482-.541-1.4-2.073-1.624s-4.8-.306-6.325.457a10.575,10.575,0,0,0-3.806,4.236c-.406,1.064-.635,4.593-1.523,5.2s-3.733,4.119-3.494,7.03c.092,1.117,6.681-.918,7.035-1.272s2.768-5.11,2.852-6.265c.255-3.451,1.079-1.343,2.233-2.527C2802.891,995.408,2805.818,992.4,2805.818,992.4Z" transform="translate(-2776.074 -973.815)" fill="#180000"/>
            <path id="Trazado_101372" data-name="Trazado 101372" d="M2801.2,1000.128a1.57,1.57,0,0,0-.4,1.4c.117.964.572,2.963.572,2.963s-9.288,1.173-9.9.285.317-3.627.742-4.871c.589-1.72,4.136-5.986,4.136-5.986Z" transform="translate(-2773.128 -970.205)" fill="#ca773b"/>
            <path id="Trazado_101373" data-name="Trazado 101373" d="M2800.579,1000.141a3.95,3.95,0,0,0-.471,1.165,5.679,5.679,0,0,0,.2,1.689c-2.286.589-5.171.983-7.4,5.619-1.454,3.023-1.634-7.488,1.454-12.821a15.744,15.744,0,0,1,1.609-2.1Z" transform="translate(-2772.444 -970.446)" fill="#b55624"/>
            <path id="Trazado_101374" data-name="Trazado 101374" d="M2795.6,999.015s-.025,2.535,1.345,3.474a8.3,8.3,0,0,0,4.618.813c.329-.128,1.831-1.506,1.825-1.852a4.438,4.438,0,0,0-.126-.66s.438-.172.432-.3c-.036-.635-.482-1.777-.432-2.005s.914-.786.71-1.142-1.345-1.368-1.4-1.649.354-1.724.2-1.978-.787-.735-1.141-.635-.329-.989-.939-1.5-3.12-.1-3.781,1.039-1.192,3.579-1.447,3.654-1.243-1.345-1.9-.888S2793.139,998.633,2795.6,999.015Z" transform="translate(-2770.958 -972.997)" fill="#ca773b"/>
            <path id="Trazado_101375" data-name="Trazado 101375" d="M2800.891,999.255s-10.749.715-11.747,1.085-2.16.6-2.326,1.115-.725,2.378,2.85,3.271,8.061,2.256,8.881,1.586S2798.688,1004.577,2800.891,999.255Z" transform="translate(-2778.151 -964.355)" fill="#b55624"/>
            <path id="Trazado_101376" data-name="Trazado 101376" d="M2802.305,995.627c-1.219.587-9.288,4-11.49,5.18s-4.347,4.945-4.257,5.768.953,1.835,3.891,1.377,12.523-8.9,13.145-8.9S2803.2,995.2,2802.305,995.627Z" transform="translate(-2778.294 -968.366)" fill="#ca773b"/>
            <path id="Trazado_101377" data-name="Trazado 101377" d="M2809.222,998.9a10.619,10.619,0,0,1,1.126-1.775c.241-.126,4.414-1.278,4.932-.958s1.079.8,1.119,1.13a1.4,1.4,0,0,1-.318.784,5.829,5.829,0,0,1,.742.748c.092.182-.608.872-.608.872a1.692,1.692,0,0,1,.151.65c-.044.189-.823.79-.823.79s.182.6,0,.738-1.741.151-1.756-.078-2.394-.318-3.206-.566C2809.394,1000.869,2809.222,998.9,2809.222,998.9Z" transform="translate(-2753.468 -967.803)" fill="#b55624"/>
            <path id="Trazado_101378" data-name="Trazado 101378" d="M2794.3,995.8s2.835-1,3.846-.744a4.214,4.214,0,0,1,1.821,1.653c0,.316-.578,2.646-.969,2.623-1.055-.061-4.439-2.328-4.439-2.328Z" transform="translate(-2769.809 -968.997)" fill="#b55624"/>
            <path id="Trazado_101379" data-name="Trazado 101379" d="M2805.058,982.615c-.115.168,1.67,1.312,2.384,1.982l1.2,1.085q.62.629,1.338,1.353a39.2,39.2,0,0,1,2.91,3.474,37.516,37.516,0,0,1,2.839,4.5,35.258,35.258,0,0,1,3.765,11.56,36.217,36.217,0,0,1-.461,12.913,39.8,39.8,0,0,1-1.879,6.007,39.322,39.322,0,0,1-2.705,5.251,37.642,37.642,0,0,1-3.151,4.291,39.579,39.579,0,0,1-3.153,3.258l-1.429,1.255-1.274,1c-.765.618-2.617,1.628-2.515,1.8s1.935-.882,2.775-1.41c.429-.254.9-.534,1.421-.838.505-.323,1.027-.712,1.6-1.108a31.05,31.05,0,0,0,3.575-3.03c.636-.583,1.207-1.28,1.85-1.957.593-.717,1.2-1.469,1.777-2.278a33.645,33.645,0,0,0,3.151-5.4,35.62,35.62,0,0,0,2.2-6.332,34.1,34.1,0,0,0,.49-13.782,35.783,35.783,0,0,0-1.741-6.472,33.694,33.694,0,0,0-2.757-5.611c-.517-.846-1.067-1.641-1.609-2.4-.593-.721-1.11-1.458-1.706-2.085a31.1,31.1,0,0,0-3.348-3.277c-.543-.436-1.035-.861-1.517-1.219l-1.36-.943C2806.917,983.629,2805.174,982.447,2805.058,982.615Z" transform="translate(-2760.371 -982.598)" fill="#3b1a1a"/>
            <path id="Trazado_101380" data-name="Trazado 101380" d="M2814.057,1039.183l.251-.16-18.491-28.818,19.918-26.517-.237-.179-20.044,26.682.056.087Z" transform="translate(-2768.546 -981.601)"/>
            <path id="Trazado_101381" data-name="Trazado 101381" d="M2813.3,996.179s.157,1.02-.216,1.016a14.543,14.543,0,0,0-1.559.054.5.5,0,0,0-.31.7c.167.412,2.223.905,2.885.18C2815.279,996.833,2813.3,996.179,2813.3,996.179Z" transform="translate(-2751.339 -967.724)" fill="#b55624"/>
            <path id="Trazado_101382" data-name="Trazado 101382" d="M2814.152,997.037s-.442.622-.853.53-1.542-.32-1.729-.314a.5.5,0,0,0-.486.612c.1.442,2.252,1.4,3.138.853C2815.575,997.886,2814.152,997.037,2814.152,997.037Z" transform="translate(-2751.446 -966.785)" fill="#b55624"/>
            <path id="Trazado_101383" data-name="Trazado 101383" d="M2813.956,997.625s-.427.626-.817.538a16.149,16.149,0,0,0-1.645-.293.5.5,0,0,0-.469.614c.092.44,2.132,1.37,2.983.817C2815.3,998.459,2813.956,997.625,2813.956,997.625Z" transform="translate(-2751.508 -966.141)" fill="#b55624"/>
            <path id="Trazado_101384" data-name="Trazado 101384" d="M2813.55,998.219s-.371.545-.71.467-1.272-.262-1.427-.256a.433.433,0,0,0-.406.532,2.546,2.546,0,0,0,2.588.713C2814.719,998.944,2813.55,998.219,2813.55,998.219Z" transform="translate(-2751.527 -965.49)" fill="#b55624"/>
            <rect id="Rectángulo_5287" data-name="Rectángulo 5287" width="39.746" height="0.484" transform="translate(64.831 28.798) rotate(180)"/>
            <path id="Trazado_101385" data-name="Trazado 101385" d="M2814.88,998.687c-.584.1-1.975-1.148-2.252-.76s-1.81,1.41-2.357,1.029-.97-1.609-.352-1.993a7.331,7.331,0,0,1,2.82-.7C2813.16,996.319,2815.92,998.507,2814.88,998.687Z" transform="translate(-2753.04 -967.645)" fill="#b55624"/>
            <path id="Trazado_101386" data-name="Trazado 101386" d="M2794.072,996.166a6.882,6.882,0,0,1,3.883-1.048,5.417,5.417,0,0,1,1.856,1.337.665.665,0,0,1-.128.671c-.086.086.117.287.1.421s-.192.3-.227.451.025.279,0,.408c-.044.224-.238.262-.3.411-.065.168.009.608-.259.593s-3.635.176-3.635.176Z" transform="translate(-2770.061 -968.905)" fill="#ca773b"/>
            <path id="Trazado_101387" data-name="Trazado 101387" d="M2804.723,984.184h0a.284.284,0,0,0,.4-.055l.57-.75a.287.287,0,0,0-.056-.4h0a.286.286,0,0,0-.4.057l-.567.75A.284.284,0,0,0,2804.723,984.184Z" transform="translate(-2758.519 -982.244)" fill="#3b1a1a"/>
            <path id="Trazado_101388" data-name="Trazado 101388" d="M2804.919,984.35h0a.286.286,0,0,0,.4-.057l.568-.75a.286.286,0,0,0-.054-.4h0a.288.288,0,0,0-.4.055l-.568.75A.288.288,0,0,0,2804.919,984.35Z" transform="translate(-2758.304 -982.062)" fill="#3b1a1a"/>
            <path id="Trazado_101389" data-name="Trazado 101389" d="M2805.108,984.5h0a.288.288,0,0,0,.4-.055l.568-.75a.289.289,0,0,0-.054-.4h0a.289.289,0,0,0-.4.054l-.568.752A.286.286,0,0,0,2805.108,984.5Z" transform="translate(-2758.097 -981.899)" fill="#3b1a1a"/>
            <path id="Trazado_101390" data-name="Trazado 101390" d="M2805.286,984.665h0a.285.285,0,0,0,.4-.057l.567-.75a.282.282,0,0,0-.054-.4h0a.284.284,0,0,0-.4.055l-.57.75A.287.287,0,0,0,2805.286,984.665Z" transform="translate(-2757.903 -981.718)" fill="#3b1a1a"/>
            <path id="Trazado_101391" data-name="Trazado 101391" d="M2805.463,984.814h0a.288.288,0,0,0,.4-.054l.568-.75a.289.289,0,0,0-.054-.4h0a.289.289,0,0,0-.4.054l-.568.752A.284.284,0,0,0,2805.463,984.814Z" transform="translate(-2757.71 -981.554)" fill="#3b1a1a"/>
            <path id="Trazado_101392" data-name="Trazado 101392" d="M2804.531,1011.492h0a.286.286,0,0,0,.059-.4l-.562-.756a.286.286,0,0,0-.4-.058h0a.286.286,0,0,0-.059.4l.563.756A.286.286,0,0,0,2804.531,1011.492Z" transform="translate(-2759.72 -952.344)" fill="#3b1a1a"/>
            <path id="Trazado_101393" data-name="Trazado 101393" d="M2804.745,1011.35h0a.289.289,0,0,0,.059-.4l-.564-.754a.284.284,0,0,0-.4-.059h0a.286.286,0,0,0-.059.4l.562.756A.289.289,0,0,0,2804.745,1011.35Z" transform="translate(-2759.486 -952.5)" fill="#3b1a1a"/>
            <path id="Trazado_101394" data-name="Trazado 101394" d="M2804.941,1011.21h0a.289.289,0,0,0,.059-.4l-.562-.754a.287.287,0,0,0-.4-.059h0a.286.286,0,0,0-.059.4l.564.756A.286.286,0,0,0,2804.941,1011.21Z" transform="translate(-2759.271 -952.653)" fill="#3b1a1a"/>
            <path id="Trazado_101395" data-name="Trazado 101395" d="M2805.149,1011.086h0a.287.287,0,0,0,.059-.4l-.562-.755a.285.285,0,0,0-.4-.058h0a.284.284,0,0,0-.059.4l.562.756A.286.286,0,0,0,2805.149,1011.086Z" transform="translate(-2759.043 -952.789)" fill="#3b1a1a"/>
            <path id="Trazado_101396" data-name="Trazado 101396" d="M2805.341,1010.957h0a.285.285,0,0,0,.059-.4l-.562-.756a.287.287,0,0,0-.4-.059h0a.285.285,0,0,0-.058.4l.562.756A.286.286,0,0,0,2805.341,1010.957Z" transform="translate(-2758.831 -952.928)" fill="#3b1a1a"/>
            <g id="Grupo_53746" data-name="Grupo 53746" transform="translate(64.782 27.304)">
              <path id="Trazado_101397" data-name="Trazado 101397" d="M2815.823,997.916a6.534,6.534,0,0,0,.706-.212,6.042,6.042,0,0,0,1.316-.767.376.376,0,0,0,.036-.065,1.808,1.808,0,0,0,.033-.18l-.13-.176a12.309,12.309,0,0,0-1.494-.769c-.163,0-.812,0-1-.029-.417-.061-.851-.082-.851-.082s-.823.425-.9,1.008l0,.149a1.144,1.144,0,0,0,.409.976,3.114,3.114,0,0,0,1.027.235A6.884,6.884,0,0,0,2815.823,997.916Z" transform="translate(-2813.516 -995.623)" fill="#7e8580"/>
              <path id="Trazado_101398" data-name="Trazado 101398" d="M2815.978,996.265a1.126,1.126,0,0,0-.484.006c-.124.069-.276.161-.27.23s.067.369.067.369.314-.2.408-.287S2815.978,996.265,2815.978,996.265Z" transform="translate(-2811.677 -994.964)" fill="#545c56"/>
              <path id="Trazado_101399" data-name="Trazado 101399" d="M2815.7,996.406s-.189.017-.187-.071a1.309,1.309,0,0,1,.09-.285l.128.178Z" transform="translate(-2811.362 -995.17)" fill="#3f4541"/>
              <path id="Trazado_101400" data-name="Trazado 101400" d="M2815.821,996.218s.283.417.246.452-.329-.013-.347-.174a.426.426,0,0,0-.3-.417.9.9,0,0,0-.243-.048l.038-.222Z" transform="translate(-2811.73 -995.434)" fill="#3f4541"/>
              <path id="Trazado_101401" data-name="Trazado 101401" d="M2815.541,996.423s-.09-.055-.377.027a.322.322,0,0,0-.2.4l.631-.161Z" transform="translate(-2811.977 -994.781)" fill="#545c56"/>
              <path id="Trazado_101402" data-name="Trazado 101402" d="M2815.34,996.684l-.7.212s-.067-.247,0-.283.209.034.313,0S2815.224,996.478,2815.34,996.684Z" transform="translate(-2812.356 -994.616)" fill="#3f4541"/>
              <path id="Trazado_101403" data-name="Trazado 101403" d="M2815.058,996.8l-.211.122-.327.038-.3-.071s.01-.224.111-.245.323.077.386.033S2815.058,996.8,2815.058,996.8Z" transform="translate(-2812.779 -994.522)" fill="#545c56"/>
              <path id="Trazado_101404" data-name="Trazado 101404" d="M2814.756,997l-.08-.387a3.625,3.625,0,0,0-.723-.052.647.647,0,0,0-.226.205s.545.222.714.262A.534.534,0,0,0,2814.756,997Z" transform="translate(-2813.317 -994.628)" fill="#545c56"/>
              <path id="Trazado_101405" data-name="Trazado 101405" d="M2813.942,997.24s.077-.626-.042-.677a.44.44,0,0,1-.258-.348c0-.147-.111-.1-.111-.1a2.168,2.168,0,0,0,.113.775A1.2,1.2,0,0,0,2813.942,997.24Z" transform="translate(-2813.531 -995.107)" fill="#545c56"/>
              <path id="Trazado_101406" data-name="Trazado 101406" d="M2815.592,995.947l-.023.138s-.17.151-.319.1-.22-.287-.346-.323-.05-.18-.05-.18Z" transform="translate(-2812.107 -995.572)" fill="#3f4541"/>
              <path id="Trazado_101407" data-name="Trazado 101407" d="M2815.373,995.7l-1-.029a.127.127,0,0,0,.086.184c.155.05.4-.182.453.046s.3,0,.308-.021S2815.373,995.7,2815.373,995.7Z" transform="translate(-2812.626 -995.587)" fill="#3f4541"/>
              <path id="Trazado_101408" data-name="Trazado 101408" d="M2814.81,995.711l-.85-.081.169.342.542.042Z" transform="translate(-2813.062 -995.63)" fill="#545c56"/>
              <path id="Trazado_101409" data-name="Trazado 101409" d="M2814.43,995.63s-.6.23-.654.44a3.249,3.249,0,0,1-.245.568.5.5,0,0,0,.333-.048c.126-.09.113-.379.248-.452a1.333,1.333,0,0,0,.321-.342l.042-.075Z" transform="translate(-2813.531 -995.63)" fill="#545c56"/>
              <path id="Trazado_101410" data-name="Trazado 101410" d="M2813.941,996.769l.109-.193.057-.094c.021-.025.04-.077.067-.071l.429.109.006,0,0-.006-.047-.2,0,0,.123-.212-.128.21v0l.044.2,0-.006-.427-.111c-.046,0-.052.052-.075.077l-.054.1Z" transform="translate(-2813.083 -995.112)" fill="#545c56"/>
              <path id="Trazado_101411" data-name="Trazado 101411" d="M2814.119,996.371l-.254-.285Z" transform="translate(-2813.165 -995.13)" fill="#545c56"/>
              <path id="Trazado_101412" data-name="Trazado 101412" d="M2816.191,996.37l-.356-.126.009.008-.14-.212-.018-.028-.01.031-.083.251.012-.008-.22,0-.005,0-.3.224h0l-.2-.176.191.182h0l.309-.216,0,0,.22,0h.008l0-.009.089-.249-.028,0,.134.216,0,.006.007,0,.354.131Z" transform="translate(-2812.049 -995.212)" fill="#3f4541"/>
              <path id="Trazado_101413" data-name="Trazado 101413" d="M2814.46,995.963l.188.084h0l.013.4,0,0,.4-.079-.4.072,0,0-.017-.4v0Z" transform="translate(-2812.514 -995.265)" fill="#545c56"/>
              <path id="Trazado_101414" data-name="Trazado 101414" d="M2814.435,996.543l.331-.189Z" transform="translate(-2812.542 -994.837)" fill="#545c56"/>
            </g>
            <path id="Trazado_101415" data-name="Trazado 101415" d="M2813.581,997h0a.108.108,0,0,1-.109-.111l0-.8a.113.113,0,0,1,.113-.109h0a.11.11,0,0,1,.109.111l-.007.8A.11.11,0,0,1,2813.581,997Z" transform="translate(-2748.813 -967.936)" fill="#632e1a"/>
            <path id="Trazado_101416" data-name="Trazado 101416" d="M2813.444,997h0a.112.112,0,0,1-.111-.111l.006-.8a.11.11,0,0,1,.111-.109h0a.112.112,0,0,1,.111.111l-.006.8A.112.112,0,0,1,2813.444,997Z" transform="translate(-2748.966 -967.94)" fill="#632e1a"/>
            <path id="Trazado_101417" data-name="Trazado 101417" d="M2813.3,997h0a.11.11,0,0,1-.109-.111l.006-.8a.11.11,0,0,1,.111-.109h0a.11.11,0,0,1,.109.111l-.006.8A.112.112,0,0,1,2813.3,997Z" transform="translate(-2749.117 -967.945)" fill="#632e1a"/>
          </g>
          <g id="Grupo_53751" data-name="Grupo 53751" transform="translate(384.555 130.978)">
            <g id="Grupo_53749" data-name="Grupo 53749" transform="translate(2.407)">
              <rect id="Rectángulo_5288" data-name="Rectángulo 5288" width="1.813" height="85.078" transform="translate(8.18 5.747) rotate(-66.613)" fill="#180000"/>
              <g id="Grupo_53748" data-name="Grupo 53748">
                <path id="Trazado_101418" data-name="Trazado 101418" d="M2970.817,993.449a15.723,15.723,0,0,1-1.349-1.15,14.612,14.612,0,0,1-2.156-2.971.915.915,0,0,1-.012-.178s.071-.356.1-.425l.455-.264a29.461,29.461,0,0,1,4.035-.241c.369.149,1.8.781,2.231.9.974.27,1.951.647,1.951.647s1.4,1.735.995,3.09l-.146.327a2.754,2.754,0,0,1-1.848,1.752,7.437,7.437,0,0,1-2.491-.482A16.247,16.247,0,0,1,2970.817,993.449Z" transform="translate(-2967.299 -988.081)" fill="#7e8580"/>
                <path id="Trazado_101419" data-name="Trazado 101419" d="M2967.341,988.748s.859.212,1.062.484.45.622.369.769-.509.748-.509.748a11.089,11.089,0,0,1-.616-1.027C2967.525,989.442,2967.341,988.748,2967.341,988.748Z" transform="translate(-2967.253 -987.501)" fill="#545c56"/>
                <path id="Trazado_101420" data-name="Trazado 101420" d="M2967.335,989.023s.4.22.474.025a3.155,3.155,0,0,0,.084-.715l-.456.264Z" transform="translate(-2967.26 -987.955)" fill="#3f4541"/>
                <path id="Trazado_101421" data-name="Trazado 101421" d="M2968.313,988.463s-1.029.643-.977.759.734.291.933-.046a1.033,1.033,0,0,1,1.064-.629,2.3,2.3,0,0,1,.58.134l.136-.528Z" transform="translate(-2967.26 -988.153)" fill="#3f4541"/>
                <path id="Trazado_101422" data-name="Trazado 101422" d="M2968.152,989.449s.251-.034.8.427a.774.774,0,0,1,.061,1.075l-1.235-.97Z" transform="translate(-2966.771 -986.734)" fill="#545c56"/>
                <path id="Trazado_101423" data-name="Trazado 101423" d="M2968.371,990.238l1.347,1.151s.387-.478.28-.618-.488-.132-.683-.312S2968.827,989.9,2968.371,990.238Z" transform="translate(-2966.126 -986.02)" fill="#3f4541"/>
                <path id="Trazado_101424" data-name="Trazado 101424" d="M2969.013,990.732l.348.474.681.4.738.134s.191-.5-.006-.647-.788-.141-.885-.3S2969.013,990.732,2969.013,990.732Z" transform="translate(-2965.422 -985.364)" fill="#545c56"/>
                <path id="Trazado_101425" data-name="Trazado 101425" d="M2969.856,991.6l.551-.777a8.5,8.5,0,0,1,1.643.591,1.53,1.53,0,0,1,.3.668s-1.417-.04-1.827-.115A1.261,1.261,0,0,1,2969.856,991.6Z" transform="translate(-2964.498 -985.227)" fill="#545c56"/>
                <path id="Trazado_101426" data-name="Trazado 101426" d="M2971.045,992.547s.438-1.452.75-1.448a1.058,1.058,0,0,0,.9-.518c.147-.32.344-.113.344-.113a5.238,5.238,0,0,1-1,1.6A2.849,2.849,0,0,1,2971.045,992.547Z" transform="translate(-2963.196 -985.689)" fill="#545c56"/>
                <path id="Trazado_101427" data-name="Trazado 101427" d="M2968.674,988.153l-.083.327s.226.5.6.532.76-.419,1.073-.375.287-.346.287-.346Z" transform="translate(-2965.885 -988.153)" fill="#3f4541"/>
                <path id="Trazado_101428" data-name="Trazado 101428" d="M2969.527,988.219l2.229.9a.3.3,0,0,1-.369.323c-.39-.04-.712-.8-1.04-.335s-.667-.289-.662-.346A4.882,4.882,0,0,0,2969.527,988.219Z" transform="translate(-2964.859 -988.081)" fill="#3f4541"/>
                <path id="Trazado_101429" data-name="Trazado 101429" d="M2970.591,988.65l1.951.647-.707.588-1.237-.433Z" transform="translate(-2963.693 -987.609)" fill="#545c56"/>
                <path id="Trazado_101430" data-name="Trazado 101430" d="M2971.621,988.959s1.106,1.094,1.012,1.6a7.549,7.549,0,0,0-.014,1.488,1.178,1.178,0,0,1-.685-.429c-.186-.321.117-.945-.1-1.234a3.092,3.092,0,0,1-.373-1.064c-.009-.082-.024-.208-.024-.208Z" transform="translate(-2962.773 -987.271)" fill="#545c56"/>
                <path id="Trazado_101431" data-name="Trazado 101431" d="M2971.443,991.864l-.056-.53-.034-.264-.023-.13c-.017-.04,0-.1-.056-.092l-1.05-.174-.019,0,.012-.017.3-.4v0l-.065-.587.078.585,0,.006-.294.4-.006-.019,1.052.176c.059-.008.061.08.069.109l.019.132.029.266Z" transform="translate(-2964.116 -986.487)" fill="#545c56"/>
                <path id="Trazado_101432" data-name="Trazado 101432" d="M2970.888,990.435l.415-.2.423-.18-.415.2Z" transform="translate(-2963.368 -986.07)" fill="#545c56"/>
                <path id="Trazado_101433" data-name="Trazado 101433" d="M2967.579,988.827l.907.068-.029.008.515-.332.067-.043-.008.078-.062.633-.017-.029.483.219.007,0,0,.006.449.788-.01,0,.6-.2-.6.214-.006,0,0-.007-.471-.775.009.009-.489-.205-.019-.008v-.021l.044-.635.06.035-.505.346-.013.009h-.017l-.907-.055Z" transform="translate(-2967.001 -987.742)" fill="#3f4541"/>
                <path id="Trazado_101434" data-name="Trazado 101434" d="M2971,989.209l-.5,0,0,0-.418.869,0,.009-.008-.006-.806-.562.815.548-.012,0,.427-.865,0,0Z" transform="translate(-2965.14 -987.003)" fill="#545c56"/>
                <path id="Trazado_101435" data-name="Trazado 101435" d="M2969.972,990.678l-.281-.363-.266-.377.281.365Z" transform="translate(-2964.97 -986.198)" fill="#545c56"/>
              </g>
              <path id="Trazado_101436" data-name="Trazado 101436" d="M2971.748,992.425h0a.269.269,0,0,0,.352-.141l.76-1.76a.266.266,0,0,0-.138-.35h0a.269.269,0,0,0-.352.138l-.76,1.76A.269.269,0,0,0,2971.748,992.425Z" transform="translate(-2962.603 -985.963)" fill="#632e1a"/>
              <path id="Trazado_101437" data-name="Trazado 101437" d="M2972.056,992.55h0a.266.266,0,0,0,.35-.138l.763-1.762a.267.267,0,0,0-.138-.35h0a.268.268,0,0,0-.352.138l-.761,1.762A.267.267,0,0,0,2972.056,992.55Z" transform="translate(-2962.265 -985.826)" fill="#632e1a"/>
              <path id="Trazado_101438" data-name="Trazado 101438" d="M2972.365,992.676h0a.269.269,0,0,0,.35-.14l.762-1.76a.27.27,0,0,0-.14-.352h0a.27.27,0,0,0-.35.14l-.76,1.76A.269.269,0,0,0,2972.365,992.676Z" transform="translate(-2961.926 -985.689)" fill="#632e1a"/>
              <path id="Trazado_101439" data-name="Trazado 101439" d="M2972.675,992.8h0a.266.266,0,0,0,.35-.138l.761-1.762a.268.268,0,0,0-.138-.35h0a.267.267,0,0,0-.35.138l-.763,1.762A.269.269,0,0,0,2972.675,992.8Z" transform="translate(-2961.588 -985.551)" fill="#632e1a"/>
              <path id="Trazado_101440" data-name="Trazado 101440" d="M2972.984,992.925h0a.267.267,0,0,0,.35-.138l.76-1.76a.268.268,0,0,0-.138-.352h0a.269.269,0,0,0-.35.141l-.763,1.76A.267.267,0,0,0,2972.984,992.925Z" transform="translate(-2961.25 -985.414)" fill="#632e1a"/>
              <path id="Trazado_101441" data-name="Trazado 101441" d="M2973.291,993.052h0a.269.269,0,0,0,.352-.138l.761-1.762a.267.267,0,0,0-.138-.35h0a.269.269,0,0,0-.353.138l-.76,1.762A.267.267,0,0,0,2973.291,993.052Z" transform="translate(-2960.912 -985.276)" fill="#632e1a"/>
            </g>
            <g id="Grupo_53750" data-name="Grupo 53750" transform="translate(0 20.158)">
              <path id="Trazado_101442" data-name="Trazado 101442" d="M3005.377,1015.984c-.292-1.454-4.212-3.495-6.466-3.968a70.217,70.217,0,0,0-7.248-.752,14.406,14.406,0,0,0-4.233-2.016c-1.233-.25-2.941.044-3.4-.2s-3.384-3.059-5.22-3.983c-1.529-.769-5.252-3-5.879-3.053s-3.642,1.813-3.532,2.162a88.965,88.965,0,0,0,6.763,6.319c1.466,1.066,4.006,1.923,4.352,2.567.386.719,1.877.539,3.235,1.442s5.783,3.505,8.307,3.985,4.316.647,4.363,1.446S3006.5,1021.572,3005.377,1015.984Z" transform="translate(-2962.596 -993.131)" fill="#b55624"/>
              <path id="Trazado_101443" data-name="Trazado 101443" d="M2984.591,999.111c0-.513.794-1.355,2.418-1.337s5.031.49,6.48,1.534a11.131,11.131,0,0,1,3.236,5.029c.241,1.171-.114,4.865.706,5.644s.84,7.421-3.151,9.831c-1.008.608-1.175-4.031-1.483-4.458s-2.011-5.76-1.907-6.969c.314-3.618-.893-1.571-1.89-2.992C2987.12,1002.721,2984.591,999.111,2984.591,999.111Z" transform="translate(-2945.953 -997.774)" fill="#180000"/>
              <path id="Trazado_101444" data-name="Trazado 101444" d="M2994.972,1005.48c2.15-.082,3.939-1.461,5.134.828s.457,12.266-.443,15.063-6.363,10.212-6.659,12.534-.645,5.464-.87,7.532.346,9.028-9.328,5.858c-6.866-2.25-3.444-10.156-2.912-14.941.241-2.169,2.656-7.2,2.916-9.066s.011-5.186.7-7.58S2987.011,1005.784,2994.972,1005.48Z" transform="translate(-2952.544 -989.866)" fill="#ca773b"/>
              <path id="Trazado_101445" data-name="Trazado 101445" d="M2983.2,1022.647s-6.376,11.117-7.352,14.845-2.37,5.959-1.048,7.4,4.561,2.711,7.742-.075,10.313-12.439,11.3-15.379S2986.742,1017.3,2983.2,1022.647Z" transform="translate(-2957.268 -972.326)" fill="#b55624"/>
              <path id="Trazado_101446" data-name="Trazado 101446" d="M2974.359,1032.335s-.9,5.242.693,6.874,5.406,1.991,6.374.239,1.877-7.555,1.133-8.021S2974.359,1032.335,2974.359,1032.335Z" transform="translate(-2957.437 -961.021)" fill="#b55624"/>
              <path id="Trazado_101447" data-name="Trazado 101447" d="M2974.264,1034.8a84.244,84.244,0,0,0,.48,8.957c.485,3.574,1.069,8.62,1.763,9.437s4.878,2.533,4.794.679c-.314-6.923,1.992-7.989,1.887-10.432s-1.309-8.547-2.418-8.972S2974.264,1034.8,2974.264,1034.8Z" transform="translate(-2957.263 -957.727)" fill="#b55624"/>
              <path id="Trazado_101448" data-name="Trazado 101448" d="M2980.359,1044.315s-5.63,2.084-6.411,2.33a17.546,17.546,0,0,1-3.105.264s-.746.689-.434,1.2,3,2.693,4.423,2.661,5.173-1.152,6-.865,3.187.725,4.465-.015,2.624-1.481-.115-5.984S2980.359,1044.315,2980.359,1044.315Z" transform="translate(-2961.569 -949.332)" fill="#b55624"/>
              <path id="Trazado_101449" data-name="Trazado 101449" d="M2978.4,1027.217s2.079,11.9,3.562,15.455,1.726,6.175,3.656,6.52,6.772-.574,6.112-4.752c-1.333-8.431,4.6-17.357,1.33-22.033C2987.866,1014.968,2977.979,1020.82,2978.4,1027.217Z" transform="translate(-2952.748 -974.607)" fill="#ca773b"/>
              <path id="Trazado_101450" data-name="Trazado 101450" d="M2980.866,1034.269s1.594,5.938,3.753,6.663,5.72-.693,5.78-2.694-1.776-7.58-2.648-7.654S2980.866,1034.269,2980.866,1034.269Z" transform="translate(-2950.033 -961.841)" fill="#ca773b"/>
              <path id="Trazado_101451" data-name="Trazado 101451" d="M2981.953,1037.146a65.328,65.328,0,0,0,5.945,6.807c2.644,2.451,7.283,5.146,7.8,6.084.572,1.039,4.04-.8,3.813-2.644s-3.541-7.434-5.175-9.253-6.443-5.762-7.57-5.387S2981.953,1037.146,2981.953,1037.146Z" transform="translate(-2948.842 -959.49)" fill="#ca773b"/>
              <path id="Trazado_101452" data-name="Trazado 101452" d="M2990.034,1043.352s-.748,5.957-.893,6.763-1.556.928-1.908,1.4c-.27.365-.019,1.521.576,1.48s4.8.469,5.4-1.764c.371-1.379,1.364-5.121,2-5.724s2.116-2.493,2.049-3.969-.1-3.009-5.362-2.658S2990.034,1043.352,2990.034,1043.352Z" transform="translate(-2943.178 -952.805)" fill="#ca773b"/>
              <path id="Trazado_101453" data-name="Trazado 101453" d="M2981.163,1028.033s.727,19.553,6.742,27.627c2.416,3.242,8.565,6.558,9.169,4.069.233-.959-3.189-3.254-2.966-5.531s1.5-4.157.595-6.141-1.844-1.674-1.121-3.572,1.278-2.759.142-5.119-2.315-2.129-1.5-4.668-1.32-2.418-1.314-3.662,3.353-3.177,3.621-4.473,4.352-6.919,5.083-9.536c.559-2-1.718-8.951-1.718-8.951s-3.29,7.964-4.6,11.861C2989.08,1032.507,2981.163,1028.033,2981.163,1028.033Z" transform="translate(-2949.709 -986.491)" fill="#180000"/>
              <path id="Trazado_101454" data-name="Trazado 101454" d="M2987.7,1009.73s-1.892,15.509.235,16.492,3.036.836,3.061,1.714c.694,22.871-16.016,22.214-16.016,22.214Z" transform="translate(-2956.48 -984.679)" fill="#180000"/>
              <path id="Trazado_101455" data-name="Trazado 101455" d="M2984.989,1007.1a1.641,1.641,0,0,1,.178,1.513c-.282.978-1.089,2.975-1.089,2.975s9.431,2.77,10.21,1.951.281-3.811.048-5.171c-.32-1.882-3.283-6.9-3.283-6.9Z" transform="translate(-2946.516 -993.728)" fill="#ca773b"/>
              <path id="Trazado_101456" data-name="Trazado 101456" d="M2984.6,1007.125a4.1,4.1,0,0,1,.294,1.286,5.937,5.937,0,0,1-.49,1.718c6.414,2.808,7.9-5.5,7.368-6.468s-1.314-2.445-1.314-2.445Z" transform="translate(-2946.158 -994.004)" fill="#b55624"/>
              <path id="Trazado_101457" data-name="Trazado 101457" d="M2991.034,1007.027s-.4,2.634-1.976,3.377a8.693,8.693,0,0,1-4.921.067,6.07,6.07,0,0,1-1.582-2.225,4.743,4.743,0,0,1,.241-.662s-.425-.251-.4-.388c.142-.652.8-1.76.783-2.005s-.814-.968-.545-1.3,1.622-1.2,1.723-1.477-.08-1.846.122-2.085.937-.631,1.289-.465.506-.97,1.223-1.394,3.251.417,3.744,1.71.635,3.908.887,4.029,1.512-1.186,2.12-.6S2993.648,1007.046,2991.034,1007.027Z" transform="translate(-2948.356 -997.133)" fill="#ca773b"/>
              <path id="Trazado_101458" data-name="Trazado 101458" d="M2988.954,1006.668c1.144-.034,8.427,1.865,9.441,2.131s1.326,4.306.547,5.288-11.256.122-12.454-.733S2986.069,1006.75,2988.954,1006.668Z" transform="translate(-2944.47 -988.033)" fill="#ca773b"/>
              <path id="Trazado_101459" data-name="Trazado 101459" d="M2993.365,1019.483a6.006,6.006,0,0,0,3.309-3.962c.544-2.776,0-13.778,0-13.778H2993.8s-2.045,9.8-2.437,11.647S2990.369,1019.279,2993.365,1019.483Z" transform="translate(-2938.893 -993.428)" fill="#ca773b"/>
              <path id="Trazado_101460" data-name="Trazado 101460" d="M2993.124,1004.871s-1.915-4.214-1.368-5.383,4.719-.469,5.42.7-1.181,4.681-1.181,4.681Z" transform="translate(-2938.214 -996.556)" fill="#ca773b"/>
              <path id="Trazado_101461" data-name="Trazado 101461" d="M2976.486,1005.806a9.642,9.642,0,0,1-2.179-1.672c-.674-.822-1.818-2.954-2.443-3.112s-5.2-2.317-5.567-2.46-.05,1.056.884,1.733a19.936,19.936,0,0,1,2.6,2.6c.26.312-.937-.6-1.249-.717s-.52.457.1,1.029.934,1.969,1.559,2.6,2.755,2.162,2.755,2.162S2976.685,1006.946,2976.486,1005.806Z" transform="translate(-2966.15 -996.922)" fill="#b55624"/>
            </g>
          </g>
          <g id="Grupo_53755" data-name="Grupo 53755" transform="translate(136.631 143.193)">
            <g id="Grupo_53753" data-name="Grupo 53753" transform="translate(45.478)">
              <rect id="Rectángulo_5289" data-name="Rectángulo 5289" width="1.282" height="60.156" transform="translate(1.992 6.689) rotate(-16.995)" fill="#180000"/>
              <g id="Grupo_53752" data-name="Grupo 53752">
                <path id="Trazado_101462" data-name="Trazado 101462" d="M2869.568,997.987a10.792,10.792,0,0,1,0-1.253,10.3,10.3,0,0,1,.611-2.523.851.851,0,0,1,.09-.088,3.065,3.065,0,0,1,.276-.141l.351.126a20.941,20.941,0,0,1,1.98,2.062c.087.266.4,1.326.534,1.615.3.65.545,1.347.545,1.347s-.292,1.551-1.209,1.953l-.243.069a1.939,1.939,0,0,1-1.791-.193,5.282,5.282,0,0,1-.88-1.563A11.553,11.553,0,0,1,2869.568,997.987Z" transform="translate(-2869.506 -993.983)" fill="#7e8580"/>
                <path id="Trazado_101463" data-name="Trazado 101463" d="M2870.209,994.111a1.9,1.9,0,0,1,.227.794c-.055.235-.128.528-.243.551s-.637.069-.637.069a7.694,7.694,0,0,1,.271-.8C2869.922,994.53,2870.209,994.111,2870.209,994.111Z" transform="translate(-2869.499 -993.843)" fill="#545c56"/>
                <path id="Trazado_101464" data-name="Trazado 101464" d="M2869.911,994.142s.063.316.2.268a2.254,2.254,0,0,0,.423-.283l-.352-.126Z" transform="translate(-2869.109 -993.962)" fill="#3f4541"/>
                <path id="Trazado_101465" data-name="Trazado 101465" d="M2870.769,994.256s-.817-.26-.855-.178.178.528.45.482a.733.733,0,0,1,.828.285,1.663,1.663,0,0,1,.193.375l.347-.17Z" transform="translate(-2869.112 -993.897)" fill="#3f4541"/>
                <path id="Trazado_101466" data-name="Trazado 101466" d="M2870.012,994.765s.132.12.136.627-.551.526-.551.526l-.042-1.108Z" transform="translate(-2869.499 -993.127)" fill="#545c56"/>
                <path id="Trazado_101467" data-name="Trazado 101467" d="M2869.576,995.315l0,1.253s.436-.01.461-.132-.153-.325-.145-.509S2869.97,995.4,2869.576,995.315Z" transform="translate(-2869.478 -992.524)" fill="#3f4541"/>
                <path id="Trazado_101468" data-name="Trazado 101468" d="M2869.625,995.913l-.1.4.1.551.266.457s.359-.128.346-.3-.285-.488-.241-.614S2869.625,995.913,2869.625,995.913Z" transform="translate(-2869.529 -991.869)" fill="#545c56"/>
                <path id="Trazado_101469" data-name="Trazado 101469" d="M2869.7,996.618l.671-.059a6.056,6.056,0,0,1,.433,1.154,1.064,1.064,0,0,1-.222.467s-.629-.782-.776-1.037A.9.9,0,0,1,2869.7,996.618Z" transform="translate(-2869.342 -991.162)" fill="#545c56"/>
                <path id="Trazado_101470" data-name="Trazado 101470" d="M2870.122,997.489s.982-.43,1.123-.258a.753.753,0,0,0,.694.249c.239-.069.215.132.215.132a3.7,3.7,0,0,1-1.318.193A2.015,2.015,0,0,1,2870.122,997.489Z" transform="translate(-2868.878 -990.47)" fill="#545c56"/>
                <path id="Trazado_101471" data-name="Trazado 101471" d="M2870.932,994.533l-.213.1s-.167.35-.013.568.574.218.694.408.319-.006.319-.006Z" transform="translate(-2868.311 -993.381)" fill="#3f4541"/>
                <path id="Trazado_101472" data-name="Trazado 101472" d="M2871.325,995.046l.534,1.615a.215.215,0,0,1-.343-.05c-.155-.228.1-.748-.294-.714s-.151-.492-.117-.516A3.662,3.662,0,0,0,2871.325,995.046Z" transform="translate(-2867.918 -992.819)" fill="#3f4541"/>
                <path id="Trazado_101473" data-name="Trazado 101473" d="M2871.633,995.817l.545,1.347-.64-.111-.332-.864Z" transform="translate(-2867.692 -991.975)" fill="#545c56"/>
                <path id="Trazado_101474" data-name="Trazado 101474" d="M2872.357,996.476s-.083,1.1-.4,1.278a5.524,5.524,0,0,0-.809.675.843.843,0,0,1-.082-.566c.088-.247.564-.369.618-.622a2.214,2.214,0,0,1,.4-.687l.1-.107Z" transform="translate(-2867.871 -991.285)" fill="#545c56"/>
                <path id="Trazado_101475" data-name="Trazado 101475" d="M2870.388,997.677l.262-.272.126-.14.061-.071c.012-.027.052-.046.023-.071l-.388-.647-.006-.01h.013l.354-.021,0,0,.288-.3-.279.308,0,0-.353.027.007-.013.388.648c.031.027-.015.069-.028.086l-.063.071-.127.138Z" transform="translate(-2868.586 -991.617)" fill="#545c56"/>
                <path id="Trazado_101476" data-name="Trazado 101476" d="M2870.691,996.7l.3.132.291.144-.3-.132Z" transform="translate(-2868.255 -991.003)" fill="#545c56"/>
                <path id="Trazado_101477" data-name="Trazado 101477" d="M2870.049,994.2l.379.52-.018-.012.415.125.054.016-.045.032-.37.257.008-.023.1.36,0,.005,0,0-.219.6,0-.007.383.235-.389-.224-.005,0,0-.005.2-.609v.009l-.114-.357,0-.014.012-.009.362-.267.009.048-.418-.114-.01,0-.007-.009-.386-.514Z" transform="translate(-2869.025 -993.743)" fill="#3f4541"/>
                <path id="Trazado_101478" data-name="Trazado 101478" d="M2871.385,996.219l-.229-.268h0l-.661.173-.006,0v-.007l-.067-.692.079.691-.007-.005.662-.167h0Z" transform="translate(-2868.546 -992.4)" fill="#545c56"/>
                <path id="Trazado_101479" data-name="Trazado 101479" d="M2870.11,996.412l.067-.318.081-.314-.067.318Z" transform="translate(-2868.891 -992.016)" fill="#545c56"/>
              </g>
              <path id="Trazado_101480" data-name="Trazado 101480" d="M2870.511,997.913h0a.187.187,0,0,0,.235.126l1.3-.4a.188.188,0,0,0,.124-.235h0a.187.187,0,0,0-.235-.126l-1.3.4A.19.19,0,0,0,2870.511,997.913Z" transform="translate(-2868.46 -990.379)" fill="#632e1a"/>
              <path id="Trazado_101481" data-name="Trazado 101481" d="M2870.586,998.137h0a.188.188,0,0,0,.235.126l1.3-.4a.189.189,0,0,0,.126-.237h0a.188.188,0,0,0-.235-.124l-1.3.4A.188.188,0,0,0,2870.586,998.137Z" transform="translate(-2868.379 -990.133)" fill="#632e1a"/>
              <path id="Trazado_101482" data-name="Trazado 101482" d="M2870.66,998.362h0a.189.189,0,0,0,.235.126l1.3-.4a.188.188,0,0,0,.125-.235h0a.19.19,0,0,0-.235-.126l-1.3.4A.187.187,0,0,0,2870.66,998.362Z" transform="translate(-2868.298 -989.889)" fill="#632e1a"/>
              <path id="Trazado_101483" data-name="Trazado 101483" d="M2870.734,998.586h0a.189.189,0,0,0,.234.126l1.3-.4a.188.188,0,0,0,.126-.235h0a.191.191,0,0,0-.235-.126l-1.3.4A.186.186,0,0,0,2870.734,998.586Z" transform="translate(-2868.218 -989.643)" fill="#632e1a"/>
              <path id="Trazado_101484" data-name="Trazado 101484" d="M2870.808,998.81h0a.187.187,0,0,0,.235.124l1.3-.4a.19.19,0,0,0,.126-.235h0a.191.191,0,0,0-.237-.126l-1.3.4A.189.189,0,0,0,2870.808,998.81Z" transform="translate(-2868.137 -989.398)" fill="#632e1a"/>
              <path id="Trazado_101485" data-name="Trazado 101485" d="M2870.882,999.032h0a.187.187,0,0,0,.235.126l1.3-.4a.191.191,0,0,0,.126-.235h0a.189.189,0,0,0-.237-.126l-1.3.4A.188.188,0,0,0,2870.882,999.032Z" transform="translate(-2868.055 -989.153)" fill="#632e1a"/>
            </g>
            <g id="Grupo_53754" data-name="Grupo 53754" transform="translate(0 19.412)">
              <path id="Trazado_101486" data-name="Trazado 101486" d="M2858.526,1010.463s6.809.3,7.924,1.161,2.491-.359,3.711-.581a22.177,22.177,0,0,1,6.21-.163,36.467,36.467,0,0,1,.224,4.951c-.124,1.856-5.077,3.342-9.034,3.216s-3.586,1.006-6.06.009S2854.806,1012.766,2858.526,1010.463Z" transform="translate(-2837.71 -995.346)" fill="#ca773b"/>
              <path id="Trazado_101487" data-name="Trazado 101487" d="M2866.8,1026.431c-.819-.633-3.216,1.461-5.661,1.54a42.094,42.094,0,0,1-11.809-1.54c-1.6-.658,7.015,22.853,8.735,22.7s3.068-2.837,4.3-1.724.457,2.382,1.846,1.724,1.468-2.29,3.329-2.749,1.708-1.814,1.25-3.807.136-3.367.3-5.351S2869.236,1028.309,2866.8,1026.431Z" transform="translate(-2846.387 -977.987)" fill="#180000"/>
              <path id="Trazado_101488" data-name="Trazado 101488" d="M2848.982,1030.862s.857,20.768,2.538,24.386,5.814,5.106,6.775,1.582,3-21.447.993-26.167S2851.448,1027,2848.982,1030.862Z" transform="translate(-2846.552 -976.656)" fill="#b55624"/>
              <path id="Trazado_101489" data-name="Trazado 101489" d="M2864.183,1011.341c3.255-.744,5.2-1.412,7.188-.249s-.037,9.209-1.16,11.563-4.7,7.7-4.567,10.053,2.059,14.281.923,17.709-15.479,3.7-17.154.767,1.358-13.322,1.174-16.288-2.338-15.3-1.953-17.583,3.212-6.181,6.327-6.131S2862,1011.84,2864.183,1011.341Z" transform="translate(-2846.984 -995.346)" fill="#ca773b"/>
              <path id="Trazado_101490" data-name="Trazado 101490" d="M2867.12,1012.955a8.16,8.16,0,0,1,3.694-2.005,19.474,19.474,0,0,0,5.948-2.826c.815-.612,4.033.72,2.789,2.258a46.817,46.817,0,0,1-8.14,7.528,13.8,13.8,0,0,1-5.331,1.808C2865.829,1018.3,2866.038,1013.818,2867.12,1012.955Z" transform="translate(-2827.931 -998.074)" fill="#ca773b"/>
              <path id="Trazado_101491" data-name="Trazado 101491" d="M2865.706,1003.944c-2.785-1.75-8.465-.228-11.876,4.88-4.377,6.554-2.977,17.805.115,18.549s7.962-7.79,9.678-7.673a4.686,4.686,0,0,0,4.681-4.128C2868.8,1012.6,2871.026,1007.284,2865.706,1003.944Z" transform="translate(-2844.279 -1003.248)" fill="#180000"/>
              <path id="Trazado_101492" data-name="Trazado 101492" d="M2871.928,1011.461s-1.119-1.823,1.292-3.69,3.307-2.577,4.153-2.051.406,3.036-1.324,4.978-2.382,2.158-2.774,1.854S2871.928,1011.461,2871.928,1011.461Z" transform="translate(-2821.706 -1000.725)" fill="#ca773b"/>
              <path id="Trazado_101493" data-name="Trazado 101493" d="M2864.471,1029.178s4.792,20.78,5.056,23.314-3.472,4.911-5.632,3.288-8.549-16.523-12.683-21.049C2848.747,1032.03,2858.559,1023.107,2864.471,1029.178Z" transform="translate(-2844.536 -977.12)" fill="#ca773b"/>
              <path id="Trazado_101494" data-name="Trazado 101494" d="M2851.23,1042.237a39.246,39.246,0,0,0-1.3,13.085c.214,3.885,1.578,7.228,1.832,10.25.366,4.337,1.792,4.394,2.349,4.335,1.117-.115,3.958.348,3.56-17.074C2857.436,1042.647,2859.261,1037.516,2851.23,1042.237Z" transform="translate(-2845.591 -962.483)" fill="#b55624"/>
              <path id="Trazado_101495" data-name="Trazado 101495" d="M2864.274,1039.221s-1.008,12.192-1.748,17.388-1.38,9.957-1.38,9.957-4.7.507-4.605-.515c.729-7.931-1.532-11.361-.757-16.846C2856.251,1045.9,2856.172,1040.631,2864.274,1039.221Z" transform="translate(-2839.283 -963.849)" fill="#ca773b"/>
              <path id="Trazado_101496" data-name="Trazado 101496" d="M2851.12,1053.868a10.728,10.728,0,0,0-.425,3.22c.229.725,1.793,1.085,3.474,1.039s4.278-3.487,4.427-4.017c.191-.687.118-.953-1.184-1.335A10,10,0,0,0,2851.12,1053.868Z" transform="translate(-2844.73 -949.154)" fill="#b55624"/>
              <path id="Trazado_101497" data-name="Trazado 101497" d="M2856.63,1051.816a6.367,6.367,0,0,0-1.01,2.8c.029,1.2.961,2.06,1.01,2.806s-.277,1.316,0,1.831,7.377.859,7.147,0-.857-.631-1.373-1.375a12.37,12.37,0,0,1-1.257-4.358C2861.235,1052.864,2857.537,1049.782,2856.63,1051.816Z" transform="translate(-2839.284 -950.805)" fill="#b55624"/>
              <path id="Trazado_101498" data-name="Trazado 101498" d="M2850.171,1026.431c.816-.633,3.216,1.461,5.661,1.54a42.073,42.073,0,0,0,11.807-1.54c1.6-.658-7.013,22.853-8.733,22.7s-3.067-2.837-4.3-1.724-.457,2.382-1.846,1.724-1.468-2.29-3.329-2.749-1.708-1.814-1.25-3.807-.134-3.367-.3-5.351S2847.736,1028.309,2850.171,1026.431Z" transform="translate(-2847.823 -977.987)" fill="#180000"/>
            </g>
          </g>
        </g>
      </g>
    </g>
  </g>
</svg>
