<svg xmlns="http://www.w3.org/2000/svg" width="93.619" height="93.619" viewBox="0 0 93.619 93.619">
  <g id="innovation-document-idea-money-arrow_up" data-name="innovation-document-idea-money-arrow up" transform="translate(-2 -2)">
    <rect id="Rectángulo_9491" data-name="Rectángulo 9491" width="68" height="90" rx="2" transform="translate(4 4)" fill="#f6f6f6"/>
    <path id="Trazado_104204" data-name="Trazado 104204" d="M76.68,32.844a22.974,22.974,0,0,1-8.987,18.162,9.094,9.094,0,0,0-3.5,7.287V60.93H45.474V58.293a9.187,9.187,0,0,0-3.589-7.349,22.809,22.809,0,0,1-7.224-26.557A21.7,21.7,0,0,1,51.294,11.281,23.031,23.031,0,0,1,54.836,11,21.844,21.844,0,0,1,76.68,32.844Z" transform="translate(17.378 5.043)" fill="#fdd835"/>
    <path id="Trazado_104205" data-name="Trazado 104205" d="M60.844,43a3.121,3.121,0,1,1,0,6.241H42.121a3.121,3.121,0,1,1,0-6.241Z" transform="translate(20.732 22.973)" fill="#a78966"/>
    <path id="Trazado_104206" data-name="Trazado 104206" d="M41,47H59.724A9.362,9.362,0,1,1,41,47Z" transform="translate(21.852 25.214)" fill="#898890"/>
    <path id="Trazado_104207" data-name="Trazado 104207" d="M32.362,35l9.362,12.483H37.043V66.206H27.681V47.483H23Z" transform="translate(11.767 18.491)" fill="#ffa726"/>
    <circle id="Elipse_4194" data-name="Elipse 4194" cx="15.5" cy="15.5" r="15.5" transform="translate(10 10)" fill="#fdd835"/>
    <path id="Trazado_104208" data-name="Trazado 104208" d="M33.718,22.6A15.6,15.6,0,0,1,15.01,37.894a15.611,15.611,0,0,0,0-30.582A15.6,15.6,0,0,1,33.718,22.6Z" transform="translate(7.29 2.802)" fill="#ffa726"/>
    <path id="Trazado_104209" data-name="Trazado 104209" d="M17,47h6.241V59.483H17Z" transform="translate(8.405 25.214)" fill="#26ccda"/>
    <path id="Trazado_104210" data-name="Trazado 104210" d="M9,47h6.241V59.483H9Z" transform="translate(3.922 25.214)" fill="#fdd835"/>
    <path id="Trazado_104211" data-name="Trazado 104211" d="M71.1,32.847a22.974,22.974,0,0,1-8.987,18.162,9.094,9.094,0,0,0-3.5,7.287v2.637H46.137V58.3a9.093,9.093,0,0,1,3.5-7.287A22.974,22.974,0,0,0,58.62,32.847,21.807,21.807,0,0,0,42.97,11.907a20.038,20.038,0,0,1,2.746-.624A21.854,21.854,0,0,1,71.1,32.847Z" transform="translate(22.956 5.04)" fill="#ffa726"/>
    <path id="Trazado_104212" data-name="Trazado 104212" d="M58.362,46.121a3.144,3.144,0,0,1-3.121,3.121H49A3.121,3.121,0,1,0,49,43h6.241A3.13,3.13,0,0,1,58.362,46.121Z" transform="translate(26.335 22.973)" fill="#806749"/>
    <path id="Trazado_104213" data-name="Trazado 104213" d="M57.477,47a9.362,9.362,0,0,1-9.362,9.362,8.467,8.467,0,0,1-2.106-.25,7.344,7.344,0,0,1-1-.3A9.362,9.362,0,0,0,51.236,47Z" transform="translate(24.099 25.214)" fill="#57565c"/>
    <path id="Trazado_104214" data-name="Trazado 104214" d="M38.362,47.483H33.681V66.206H29V35Z" transform="translate(15.129 18.491)" fill="#f57c00"/>
    <path id="Trazado_104215" data-name="Trazado 104215" d="M19,47h3.121V59.483H19Z" transform="translate(9.525 25.214)" fill="#26ccda"/>
    <path id="Trazado_104216" data-name="Trazado 104216" d="M11,47h3.121V59.483H11Z" transform="translate(5.043 25.214)" fill="#fdd835"/>
    <path id="Trazado_104217" data-name="Trazado 104217" d="M86.008,57.3a24.4,24.4,0,0,0,9.612-19.41A23.376,23.376,0,0,0,73.773,14.56l0-7.879A4.7,4.7,0,0,0,69.094,2H6.681A4.7,4.7,0,0,0,2,6.681V90.938a4.7,4.7,0,0,0,4.681,4.681H69.094a4.7,4.7,0,0,0,4.681-4.681V83.012a10.943,10.943,0,0,0,9.284-9.5,4.654,4.654,0,0,0,.078-8.816V63.336A7.564,7.564,0,0,1,86.008,57.3ZM70.654,90.938a1.56,1.56,0,0,1-1.56,1.56H6.681a1.56,1.56,0,0,1-1.56-1.56V6.681a1.56,1.56,0,0,1,1.56-1.56H69.094a1.56,1.56,0,0,1,1.56,1.56v7.864c-.733.047-1.482.125-2.216.234A23.285,23.285,0,0,0,50.6,28.837,24.185,24.185,0,0,0,58.328,57.22a7.7,7.7,0,0,1,2.965,6.116v1.357a4.654,4.654,0,0,0,.078,8.816,10.943,10.943,0,0,0,9.284,9.5Zm1.56-10.922a7.816,7.816,0,0,1-7.646-6.241H79.86a7.816,7.816,0,0,1-7.646,6.241Zm9.362-9.362H62.852a1.56,1.56,0,1,1,0-3.121H81.576a1.56,1.56,0,1,1,0,3.121Zm-1.56-7.318v1.077h-15.6V63.336a10.846,10.846,0,0,0-4.2-8.6,21.348,21.348,0,0,1-6.725-24.715A20.094,20.094,0,0,1,68.922,17.868,20.306,20.306,0,0,1,92.5,37.887,21.532,21.532,0,0,1,84.135,54.8,10.679,10.679,0,0,0,80.016,63.336Z"/>
    <path id="Trazado_104218" data-name="Trazado 104218" d="M49.8,22.241a4.681,4.681,0,0,1,4.681,4.681,1.56,1.56,0,1,0,3.121,0,7.816,7.816,0,0,0-6.241-7.646V17.56a1.56,1.56,0,1,0-3.121,0v1.716A7.8,7.8,0,0,0,49.8,34.724,4.681,4.681,0,1,1,45.124,39.4,1.56,1.56,0,1,0,42,39.4a7.816,7.816,0,0,0,6.241,7.646v1.716a1.56,1.56,0,1,0,3.121,0V47.05A7.8,7.8,0,0,0,49.8,31.6a4.681,4.681,0,0,1,0-9.362Z" transform="translate(22.41 7.844)"/>
    <path id="Trazado_104219" data-name="Trazado 104219" d="M43.531,47.093,34.169,34.61a1.624,1.624,0,0,0-2.5,0L22.311,47.093a1.56,1.56,0,0,0-.14,1.638,1.524,1.524,0,0,0,1.389.858H26.68V66.753a1.56,1.56,0,0,0,1.56,1.56H37.6a1.56,1.56,0,0,0,1.56-1.56V49.589h3.121a1.524,1.524,0,0,0,1.389-.858A1.56,1.56,0,0,0,43.531,47.093ZM37.6,46.468a1.56,1.56,0,0,0-1.56,1.56V65.192H29.8V48.029a1.56,1.56,0,0,0-1.56-1.56H26.68l6.241-8.317,6.241,8.317Z" transform="translate(11.207 17.944)"/>
    <path id="Trazado_104220" data-name="Trazado 104220" d="M15.8,46H9.56A1.56,1.56,0,0,0,8,47.56V60.043A1.56,1.56,0,0,0,9.56,61.6H15.8a1.56,1.56,0,0,0,1.56-1.56V47.56A1.56,1.56,0,0,0,15.8,46Zm-1.56,12.483H11.121V49.121h3.121Z" transform="translate(3.362 24.654)"/>
    <path id="Trazado_104221" data-name="Trazado 104221" d="M23.8,46H17.56A1.56,1.56,0,0,0,16,47.56V60.043a1.56,1.56,0,0,0,1.56,1.56H23.8a1.56,1.56,0,0,0,1.56-1.56V47.56A1.56,1.56,0,0,0,23.8,46Zm-1.56,12.483H19.121V49.121h3.121Z" transform="translate(7.844 24.654)"/>
    <path id="Trazado_104222" data-name="Trazado 104222" d="M18.681,25.6a1.56,1.56,0,0,1-1.56-1.56,1.56,1.56,0,1,0-3.121,0,4.681,4.681,0,0,0,3.121,4.394v1.847a1.56,1.56,0,1,0,3.121,0V28.437a4.67,4.67,0,0,0-1.56-9.075,1.56,1.56,0,1,1,1.56-1.56,1.56,1.56,0,1,0,3.121,0,4.681,4.681,0,0,0-3.121-4.394V11.56a1.56,1.56,0,1,0-3.121,0v1.847a4.67,4.67,0,0,0,1.56,9.075,1.56,1.56,0,0,1,0,3.121Z" transform="translate(6.724 4.483)"/>
    <path id="Trazado_104223" data-name="Trazado 104223" d="M23.164,6A17.164,17.164,0,1,0,40.327,23.164,17.164,17.164,0,0,0,23.164,6Zm0,31.206A14.043,14.043,0,1,1,37.206,23.164,14.043,14.043,0,0,1,23.164,37.206Z" transform="translate(2.241 2.241)"/>
    <path id="Trazado_104224" data-name="Trazado 104224" d="M36.646,33.121a1.56,1.56,0,1,0,0-3.121H8.56a1.56,1.56,0,0,0,0,3.121Z" transform="translate(2.802 15.689)"/>
    <path id="Trazado_104225" data-name="Trazado 104225" d="M62.241,5.121V2H59.121V5.121H56V8.241h3.121v3.121h3.121V8.241h3.121V5.121Z" transform="translate(30.257 0)"/>
    <path id="Trazado_104226" data-name="Trazado 104226" d="M62.241,56H59.121v3.121H56v3.121h3.121v3.121h3.121V62.241h3.121V59.121H62.241Z" transform="translate(30.257 30.257)"/>
  </g>
</svg>
