<svg xmlns="http://www.w3.org/2000/svg" width="131.881" height="121.463" viewBox="0 0 131.881 121.463">
  <g id="XMLID_1527_" transform="translate(0 -20.224)">
    <g id="XMLID_1550_" transform="translate(0 20.224)">
      <path id="XMLID_1542_" d="M16.293,102.528A62.712,62.712,0,0,1,10,75.541C10,49.92,31.328,30.225,56.877,30.225c24.937,0,45.365,20.9,45.365,46.118l8.711,28.361h-13.8v13.224A13.476,13.476,0,0,1,83.673,131.4H67.887l-2.641,15.13H15.8l3.8-15.749a41.577,41.577,0,0,0-3.3-28.259Z" transform="translate(-7.424 -27.649)" fill="#ffbf9e"/>
      <path id="XMLID_2620_" d="M136.915,150.566v-8.924h5.961a5.089,5.089,0,0,0,5.089-5.089v-4.994h5.213l-3.289-10.71a17.417,17.417,0,0,0-34.832-.3v23.6Z" transform="translate(-85.42 -81.999)" fill="#26ccda"/>
      <path id="XMLID_1541_" d="M316.58,110.545,252.25,77.059l64.33-33.485Z" transform="translate(-187.276 -37.56)" fill="#fdd835"/>
      <g id="XMLID_98_" transform="translate(0 0)">
        <path id="XMLID_99_" d="M5.152,136.159a41.269,41.269,0,0,1,5.309-20.447,2.576,2.576,0,0,0-4.492-2.522A47,47,0,0,0,0,136.159a65.334,65.334,0,0,0,6.562,28.133,39.092,39.092,0,0,1,3.1,26.509l-3.8,15.749a2.576,2.576,0,1,0,5.008,1.208l3.8-15.749A44.252,44.252,0,0,0,11.176,162a60,60,0,0,1-6.024-25.84Z" transform="translate(0 -88.268)"/>
        <path id="XMLID_111_" d="M192.821,90.924l-59.941-31.2,59.941-31.2a2.576,2.576,0,1,0-2.378-4.569L152.652,43.624a47.889,47.889,0,0,0-40.872-23.4,50.77,50.77,0,0,0-26.6,7.457,2.576,2.576,0,0,0,2.7,4.39,45.626,45.626,0,0,1,23.905-6.695,42.73,42.73,0,0,1,36.293,20.632l-18.956,9.867a19.993,19.993,0,0,0-39.729,2.852c0,.015,0,.029,0,.044v23.6a2.576,2.576,0,0,0,1.85,2.471L113.1,91.262a2.576,2.576,0,0,0,3.3-2.471V82.442h3.386a7.673,7.673,0,0,0,7.665-7.665V72.36h2.637a2.576,2.576,0,0,0,2.462-3.332l-1.341-4.368,26.111,13.591L162.37,94.7H152.051a2.576,2.576,0,0,0-2.576,2.576V110.5a10.912,10.912,0,0,1-10.9,10.9H122.79a2.576,2.576,0,0,0-2.537,2.133l-2.641,15.131a2.576,2.576,0,1,0,5.075.886l2.269-13h13.621A16.07,16.07,0,0,0,154.627,110.5V99.855h11.228a2.576,2.576,0,0,0,2.462-3.332L163.731,81.59l26.711,13.9a2.575,2.575,0,1,0,2.378-4.569ZM124.871,67.209a2.576,2.576,0,0,0-2.576,2.576v4.994a2.516,2.516,0,0,1-2.513,2.513h-5.961a2.576,2.576,0,0,0-2.576,2.576V85.35L94.538,80.442V58.794a14.842,14.842,0,0,1,29.681.28,2.578,2.578,0,0,0,.113.756l2.266,7.378h-1.727Z" transform="translate(-62.326 -20.224)"/>
      </g>
    </g>
    <g id="XMLID_1529_" transform="translate(12.578 34.544)">
      <g id="XMLID_1531_">
        <path id="XMLID_122_" d="M51.406,80.974a2.577,2.577,0,1,1,1.821-.755A2.59,2.59,0,0,1,51.406,80.974Z" transform="translate(-48.83 -75.82)"/>
      </g>
    </g>
  </g>
</svg>
