<svg xmlns="http://www.w3.org/2000/svg" width="118.583" height="143.977" viewBox="0 0 118.583 143.977">
  <g id="picasso" transform="translate(-0.5)">
    <path id="Trazado_101924" data-name="Trazado 101924" d="M8,7.5V147.259H122.367V7.5Zm0,0" transform="translate(-5.394 -5.391)" fill="#fdd835"/>
    <path id="Trazado_101925" data-name="Trazado 101925" d="M119.808,31.017q-.109,3.78-.216,7.553c-.005.2-.011.409-.016.611-.057-.034-.113-.065-.171-.093a24.622,24.622,0,0,0-9-14.226,24.354,24.354,0,0,0-7.539-3.9H92.517c-.143.146-.287.287-.433.42C86.8,26.18,80.259,29.3,74.177,33.034a49.372,49.372,0,0,0-5.691,4.058l.027.034v34.16a25.628,25.628,0,0,0,3.712,13.3q.4.657.841,1.291a25.773,25.773,0,0,0,7.894,7.4c-1.465,8.006-8.926,14.136-17.018,15.477-7.818,1.3-15.785-4.325-16.766-10.062v-.629A22.839,22.839,0,0,0,57.988,81.488l0,0a20.936,20.936,0,0,1-3.924-3.527,25.854,25.854,0,0,1-5.976-16.712q0-1.257.119-2.511a30.89,30.89,0,0,1,8.683-18.3l.364-.141a28.4,28.4,0,0,1-1.6-14.26,27.585,27.585,0,0,1,1.257-5.067A28.433,28.433,0,0,1,65.589,8.475V7.5h39.883v.1a15.061,15.061,0,0,1,11.763,7.258,18.34,18.34,0,0,1,2.165,6.111c.107.585.191,1.173.258,1.763A59.3,59.3,0,0,1,119.808,31.017Zm0,0" transform="translate(-33.55 -5.391)" fill="#26ccda"/>
    <path id="Trazado_101926" data-name="Trazado 101926" d="M262.374,290.521a24.538,24.538,0,0,1-6.522,11.389,15.059,15.059,0,0,1-11.116,4.412c-10.4-.414-15.775-11.392-16.591-20.528v0a14.132,14.132,0,0,0,11.572-13.914v-.964c3.661-1.8,7.182,4.182,9.51,5.992,2.82,2.194,7.184,3,9.988.3a8.608,8.608,0,0,0,1.85-2.88C263.664,279.223,263.787,285.162,262.374,290.521Zm0,0" transform="translate(-163.63 -194.49)" fill="#26ccda"/>
    <path id="Trazado_101927" data-name="Trazado 101927" d="M139.507,354.006v7.776H47.176v-6.347s9.04-9.62,16.566-9.9l33.433,1.142-.847-21.617-.84-.141c.278,0,.557-.009.829-.025a13.843,13.843,0,0,0,1.749-.211v0c.816,9.136,6.187,20.114,16.591,20.528a15.058,15.058,0,0,0,11.116-4.413l.155.16Zm0,0" transform="translate(-33.55 -233.378)" fill="#736572"/>
    <path id="Trazado_101928" data-name="Trazado 101928" d="M113.437,20.964c-.143.146-.287.287-.433.42-5.281,4.8-11.825,7.921-17.907,11.65a49.373,49.373,0,0,0-5.691,4.058,40.252,40.252,0,0,0-7.969,8.737l-.467-.11a27.71,27.71,0,0,1-2.792-5.427,28.4,28.4,0,0,1-1.6-14.26,27.586,27.586,0,0,1,1.257-5.067A28.433,28.433,0,0,1,86.51,8.475V7.5h30.1v.8C118.351,12.362,116.287,18.031,113.437,20.964Zm0,0" transform="translate(-54.471 -5.391)" fill="#26ccda"/>
    <path id="Trazado_101929" data-name="Trazado 101929" d="M75.408,169.693A24.217,24.217,0,0,1,60.333,165.3a20.936,20.936,0,0,1-3.924-3.527,25.854,25.854,0,0,1-5.976-16.712q0-1.257.119-2.511a30.89,30.89,0,0,1,8.683-18.3l.364-.141a27.71,27.71,0,0,0,2.792,5.427l.467.11a27.729,27.729,0,0,0-4.818,17.586c.607,8.011,7.115,16,14.9,18a25.407,25.407,0,0,0,1.63,3.167Q74.969,169.06,75.408,169.693Zm0,0" transform="translate(-35.892 -89.209)" fill="#26ccda"/>
    <path id="Trazado_101930" data-name="Trazado 101930" d="M80.96,282.392c-1.465,8.006-8.926,14.136-17.018,15.477-7.818,1.3-15.785-4.325-16.766-10.062v-.629A22.839,22.839,0,0,0,57.988,270.6l0,0a24.217,24.217,0,0,0,15.075,4.389A25.774,25.774,0,0,0,80.96,282.392Zm0,0" transform="translate(-33.55 -194.507)" fill="#26ccda"/>
    <path id="Trazado_101931" data-name="Trazado 101931" d="M235.3,20.964H208.414c2.849-2.933,4.913-8.6,3.169-12.668V7.5h9.786v.1a15.061,15.061,0,0,1,11.763,7.258A18.342,18.342,0,0,1,235.3,20.964Zm0,0" transform="translate(-149.448 -5.391)" fill="#76a199"/>
    <path id="Trazado_101932" data-name="Trazado 101932" d="M162.588,106.592l-10.6-.1-.005.481v10.224a14.132,14.132,0,0,1-11.572,13.914,13.85,13.85,0,0,1-1.749.211l.011.166.847,21.617-33.433-1.142,20.781-22.484,0-.006a25.2,25.2,0,0,1-3.566-1.777,25.773,25.773,0,0,1-7.893-7.4q-.438-.633-.841-1.291a25.628,25.628,0,0,1-3.712-13.3V71.541l-.027-.034a49.373,49.373,0,0,1,5.691-4.058c6.082-3.729,12.626-6.853,17.907-11.65.146-.133.29-.274.433-.42h10.352a32.519,32.519,0,0,1,7.539,3.9c10.68,6.775,9.35,22.168,9.35,22.168Zm0,0" transform="translate(-75.895 -39.806)" fill="#f2d1a5"/>
    <path id="Trazado_101933" data-name="Trazado 101933" d="M114.522,151.958,135.3,129.474l0-.006a25.262,25.262,0,0,1-3.566-1.777,25.786,25.786,0,0,1-7.894-7.4q-.438-.633-.84-1.291a25.593,25.593,0,0,1-3.712-13.3V75.678a8.277,8.277,0,0,1,3.438-6.719c.8-.574,1.6-1.127,2.225-1.51,6.082-3.729,12.626-6.853,17.907-11.65.146-.133.289-.274.433-.42h-8.437c-.143.146-.287.287-.433.42-5.281,4.8-11.825,7.921-17.907,11.65a49.373,49.373,0,0,0-5.691,4.058l.027.034V105.7a25.628,25.628,0,0,0,3.712,13.3q.4.657.841,1.291a25.773,25.773,0,0,0,7.893,7.4,25.2,25.2,0,0,0,3.566,1.777l0,.006-20.781,22.484,33.433,1.142-.012-.289Zm0,0" transform="translate(-75.895 -39.806)" fill="#f2bb88"/>
    <path id="Trazado_101934" data-name="Trazado 101934" d="M299.314,237.129v.083l2.166.021,0-.082Zm0,0" transform="translate(-214.785 -170.447)" fill="#e3e1c1"/>
    <path id="Trazado_101935" data-name="Trazado 101935" d="M135.055,150.629,147.5,148.1l12.02,2.742-12.653,6.749Zm0,0" transform="translate(-96.717 -106.452)" fill="#e6e6f0"/>
    <path id="Trazado_101936" data-name="Trazado 101936" d="M241.551,143.855l8.436-4.007,9.068,2.32-7.593,6.749Z" transform="translate(-173.266 -100.522)" fill="#e6e6f0"/>
    <path id="Trazado_101937" data-name="Trazado 101937" d="M159.68,264.706l23.023.75-10.836-7.125Zm0,0" transform="translate(-114.418 -185.688)" fill="#ff485a"/>
    <path id="Trazado_101938" data-name="Trazado 101938" d="M8,7.5V147.259H122.367V7.5ZM111.35,133.8H19.019v-35.1c-.034-.193-.059-.388-.076-.582.025-.013.051-.031.076-.047v-77.1H111.35Zm0,0" transform="translate(-5.394 -5.391)" fill="#f57c00"/>
    <path id="Trazado_101939" data-name="Trazado 101939" d="M8,7.5V147.259L19.019,133.8V20.964Zm0,0" transform="translate(-5.394 -5.391)" fill="#f57c00"/>
    <path id="Trazado_101940" data-name="Trazado 101940" d="M386.531,7.5V147.259L375.516,133.8V20.964Zm0,0" transform="translate(-269.559 -5.391)" fill="#f57c00"/>
    <path id="Trazado_101941" data-name="Trazado 101941" d="M159.051,111.438a37.789,37.789,0,0,0-20.6,2.106,2.109,2.109,0,1,0,1.561,3.918,34.057,34.057,0,0,1,18.308-1.871,2.109,2.109,0,1,0,.736-4.153Zm0,0" transform="translate(-98.2 -79.683)"/>
    <path id="Trazado_101942" data-name="Trazado 101942" d="M165.5,251.074l-12.185,6.374a2.109,2.109,0,0,0,.908,3.976l23.021.75h.069a2.109,2.109,0,0,0,1.158-3.871l-10.836-7.125A2.108,2.108,0,0,0,165.5,251.074Zm4.4,6.641-7.524-.245,3.983-2.084Zm0,0" transform="translate(-109.029 -180.298)"/>
    <path id="Trazado_101943" data-name="Trazado 101943" d="M118.682,143.1c.014-.021.031-.041.045-.062s.042-.068.062-.1.031-.049.045-.076.03-.062.044-.092.032-.063.045-.094.02-.054.03-.081.029-.075.04-.114c.008-.024.013-.049.02-.075.011-.042.022-.082.031-.124s.01-.064.014-.094.013-.071.016-.109q.01-.1.01-.208V2.106q0-.1-.01-.208c0-.037-.011-.072-.016-.108s-.008-.064-.014-.1-.02-.082-.031-.124c-.007-.025-.012-.051-.02-.075s-.026-.076-.04-.114-.019-.054-.03-.081-.03-.064-.045-.094-.027-.063-.044-.092-.03-.051-.045-.076-.04-.069-.062-.1S118.7.9,118.682.874s-.051-.07-.078-.1-.041-.045-.06-.068-.051-.057-.077-.085c-.049-.048-.1-.1-.154-.14l0,0-.038-.029c-.041-.032-.083-.065-.127-.094-.022-.014-.045-.027-.068-.041s-.072-.045-.11-.065-.055-.027-.082-.041l-.1-.048-.093-.034c-.033-.012-.066-.024-.1-.035s-.068-.018-.1-.026-.065-.016-.1-.023-.079-.013-.119-.019L117.18.01c-.052,0-.1-.007-.157-.008l-.049,0H2.609L2.566,0c-.055,0-.109,0-.164.008l-.08.012C2.281.027,2.239.033,2.2.041L2.106.063C2.07.072,2.033.08,2,.091s-.064.022-.1.033S1.836.147,1.8.16s-.065.03-.1.045-.059.027-.088.043-.071.041-.107.063-.048.027-.071.044c-.044.029-.085.06-.126.093-.013.01-.026.018-.04.029l0,0a2.071,2.071,0,0,0-.154.14C1.09.646,1.066.674,1.04.7S1,.747.979.771.927.839.9.874.871.915.857.936s-.042.068-.063.1-.031.049-.044.076-.031.062-.045.092S.675,1.269.661,1.3s-.02.055-.031.082S.6,1.458.591,1.5s-.012.049-.02.075c-.011.042-.022.082-.031.124s-.009.064-.014.1S.514,1.861.51,1.9Q.5,2,.5,2.106V141.871q0,.1.01.208c0,.037.011.073.016.109s.008.063.014.094.02.082.031.124c.007.025.012.051.02.075s.026.076.04.113.02.055.031.082.029.063.044.094.029.063.045.092.03.051.044.076.041.069.063.1.03.041.045.062.049.07.077.1.041.045.062.068.049.057.077.085a2.067,2.067,0,0,0,.154.139l0,0,.007,0a2.2,2.2,0,0,0,.285.194l.024.014a2.145,2.145,0,0,0,.294.132l.052.02a2.047,2.047,0,0,0,.3.076c.02,0,.04.007.059.01a2.085,2.085,0,0,0,.312.025H116.979a2.1,2.1,0,0,0,.312-.025c.02,0,.04-.005.059-.01a2.032,2.032,0,0,0,.3-.076l.053-.02a2.131,2.131,0,0,0,.293-.132l.025-.015a2.11,2.11,0,0,0,.283-.193l.007,0,0,0a2.067,2.067,0,0,0,.154-.139c.027-.027.052-.056.077-.085s.042-.044.062-.068S118.657,143.138,118.682,143.1ZM104.958,13.464H85.913c-.012,0-.024,0-.036,0H69.35c-.026,0-.052,0-.077,0H14.626L7.06,4.218H112.523ZM84.543,64.656l-22.164-.214V60.626a2.109,2.109,0,1,0-4.218,0v5.905a2.11,2.11,0,0,0,2.089,2.109l13.729.133v8.615A12.055,12.055,0,0,1,61.937,89.43H60.609A23.562,23.562,0,0,1,37.072,65.894V45.858a2.2,2.2,0,0,0,.2.135l11.81,6.96A2.107,2.107,0,0,0,51.14,53l12.654-6.749a2.109,2.109,0,0,0-.524-3.917L51.25,39.589a2.1,2.1,0,0,0-.89-.01L37.917,42.11a2.1,2.1,0,0,0-.845.381V32.655a50.428,50.428,0,0,1,4.656-3.214c1.589-.974,3.251-1.93,4.858-2.854,4.527-2.6,9.2-5.295,13.221-8.905H68.97a22.148,22.148,0,0,1,6.6,3.463,22.568,22.568,0,0,1,6.976,9.086,18.874,18.874,0,0,0-11.663,1.617A2.109,2.109,0,1,0,72.614,35.7c2.963-1.329,7.242-2.437,11.355-.59l.076,3.917-6.8-1.74a2.111,2.111,0,0,0-1.427.137L67.38,41.428a2.109,2.109,0,0,0-.055,3.783l9.912,5.062a2.11,2.11,0,0,0,2.361-.3L84.178,45.9ZM84.066,109.5a2.109,2.109,0,0,0,.406,4.179,2.195,2.195,0,0,0,.411-.04,17.159,17.159,0,0,0,7.254-3.367l11.711,11.249V126.3H15.736v-3.383c2.792-2.8,9.414-8.421,14.484-8.648L63.553,115.4h.072a2.109,2.109,0,0,0,2.107-2.191L65.3,102.249q.344.733.725,1.432a19.658,19.658,0,0,0,9.224,8.959,2.109,2.109,0,0,0,1.674-3.871c-5.738-2.481-9.092-9.474-10.089-15.876A16.293,16.293,0,0,0,78.165,78.372c1.192.5,2.647,2.107,3.791,3.368A20.426,20.426,0,0,0,84.3,84.08,11.569,11.569,0,0,0,90.436,86.5a8.467,8.467,0,0,0,6.5-2.161A22.078,22.078,0,0,1,96.705,95.5C94.341,104.46,88.419,108.645,84.066,109.5ZM60.743,93.648l.685,17.461L34.865,110.2l16.7-18.067a27.642,27.642,0,0,0,9.044,1.514ZM29.2,110.12c-4.939.582-10.111,4.243-13.462,7.083V100.775q.542.5,1.143.968a18.592,18.592,0,0,0,11.239,3.914,15.982,15.982,0,0,0,2.618-.212,24.4,24.4,0,0,0,3.6-.886ZM15.736,69.274a26.154,26.154,0,0,0,3.179,4.665,22.552,22.552,0,0,0,3.246,3.086,20.98,20.98,0,0,1-6.425,11.45Zm8.548-28.516a29.285,29.285,0,0,0-4.238,17.424c.65,8.6,7.364,17.005,15.487,19.6.078.165.159.33.241.493a22.6,22.6,0,0,1-10.038-3.837,1.941,1.941,0,0,0-.182-.129A19,19,0,0,1,22.12,71.2,24.082,24.082,0,0,1,16.76,53.543,29.51,29.51,0,0,1,23.1,38.587C23.464,39.327,23.86,40.053,24.284,40.758Zm5.761,60.525a13.937,13.937,0,0,1-10.58-2.874A10.251,10.251,0,0,1,15.9,93.723a24.893,24.893,0,0,0,10.038-14.25,26.486,26.486,0,0,0,12.253,3.165c.1,0,.2,0,.3,0a28,28,0,0,0,6.533,6.211C43.235,94.98,37.163,100.1,30.045,101.283ZM24.252,57.864a26.264,26.264,0,0,1,4.109-15.745,2.073,2.073,0,0,0,.331-.522,33.774,33.774,0,0,1,4.162-5.181V65.894A27.712,27.712,0,0,0,33.6,72.3C28.583,69.325,24.683,63.567,24.252,57.864Zm2.7-21.013a27.578,27.578,0,0,1-2.762-15.9,19.973,19.973,0,0,1,.756-3.271H53.016c-2.669,1.876-5.545,3.533-8.532,5.25-1.632.938-3.32,1.909-4.96,2.913A47.316,47.316,0,0,0,26.955,36.851ZM21.3,34.172a36.464,36.464,0,0,0-5.56,8.226V17.682H20.56a24.873,24.873,0,0,0-.538,2.649A30.724,30.724,0,0,0,21.3,34.172ZM49.113,47.226a2.128,2.128,0,0,0,3.529-.973,2.171,2.171,0,0,0-.757-2.191l4.935,1.126L50.2,48.719l-6.058-3.57,5.125-1.042c-.1.02-.252.238-.311.313a2.163,2.163,0,0,0-.255.414A2.132,2.132,0,0,0,49.113,47.226ZM84.022,17.682a50.828,50.828,0,0,1,.16,6.682A26.494,26.494,0,0,0,78.14,17.8c-.053-.04-.107-.076-.159-.115ZM75.351,43.437a2.107,2.107,0,1,0,4.012-1.22l-.021-.043,2.08.532-3.55,3.156L73.055,43.4s2.392-1.136,2.392-1.137c-.13.062-.131.322-.137.438A2.883,2.883,0,0,0,75.351,43.437ZM11.518,16.325V127.652l-6.8,8.309V8.017Zm3.109,114.188h90.332l7.565,9.246H7.06Zm93.44-2.861V40.329a2.109,2.109,0,1,0-4.218,0v75.349l-8.666-8.324a27.839,27.839,0,0,0,5.6-10.784c1.695-6.429,1.168-12.723-1.484-17.724a2.109,2.109,0,0,0-3.8.16,6.5,6.5,0,0,1-1.374,2.187c-1.935,1.862-5.169,1.162-7.23-.442a18.386,18.386,0,0,1-1.811-1.845c-1.718-1.9-4.09-4.508-6.884-4.895v-5.2l8.476.081h.021a2.108,2.108,0,0,0,2.108-2.15L88.15,33.184l.215-7.5a65.179,65.179,0,0,0-.107-8.007h15.589V31.6a2.109,2.109,0,1,0,4.218,0V16.325l6.8-8.309V135.96Zm0,0"/>
  </g>
</svg>
