<svg id="pintura" xmlns="http://www.w3.org/2000/svg" width="131.304" height="142.734" viewBox="0 0 131.304 142.734">
  <g id="Grupo_53899" data-name="Grupo 53899" transform="translate(19.909 19.513)">
    <path id="Trazado_101944" data-name="Trazado 101944" d="M174.331,137.181V151.6H71.414V76.365a6.371,6.371,0,0,1,6.371-6.371H167.96a6.371,6.371,0,0,1,6.371,6.371v32.753" transform="translate(-71.414 -69.994)" fill="#26ccda"/>
  </g>
  <g id="Grupo_53900" data-name="Grupo 53900" transform="translate(62.446 2.788)">
    <path id="Trazado_101945" data-name="Trazado 101945" d="M224,10h17.842V20.315H224Z" transform="translate(-224 -10)" fill="#f57c00"/>
    <path id="Trazado_101946" data-name="Trazado 101946" d="M224,362.7h17.842v38.832H224Z" transform="translate(-224 -264.379)" fill="#f57c00"/>
  </g>
  <path id="Trazado_101947" data-name="Trazado 101947" d="M114.443,362.7H106.7L72.1,401.537H90.512l23.932-26.228Z" transform="translate(-51.997 -261.591)" fill="#f57c00"/>
  <path id="Trazado_101948" data-name="Trazado 101948" d="M288,362.7v12.6l23.932,26.228h18.416l-34.6-38.832Z" transform="translate(-207.712 -261.591)" fill="#f57c00"/>
  <g id="Grupo_53903" data-name="Grupo 53903">
    <g id="Grupo_53901" data-name="Grupo 53901">
      <path id="Trazado_101949" data-name="Trazado 101949" fill="#fff"/>
    </g>
    <g id="Grupo_53902" data-name="Grupo 53902" transform="translate(120.048 70.39)">
      <path id="Trazado_101950" data-name="Trazado 101950" d="M433.4,258.067a2.787,2.787,0,1,1,2.573-3.855,2.8,2.8,0,0,1-2.573,3.855Z" transform="translate(-430.623 -252.495)"/>
    </g>
  </g>
  <g id="Grupo_53904" data-name="Grupo 53904" transform="translate(54.251 13.103)">
    <path id="Trazado_101951" data-name="Trazado 101951" d="M194.6,47h34.231V59.82H194.6Z" transform="translate(-194.604 -47)" fill="#6eb4c7"/>
  </g>
  <path id="Trazado_101952" data-name="Trazado 101952" d="M158.087,98.326h-2.9V86.7a2.788,2.788,0,1,0-5.576,0V98.326H52.267V25.883A3.587,3.587,0,0,1,55.85,22.3H81.034v3.622a2.788,2.788,0,0,0,2.788,2.788h34.231a2.788,2.788,0,0,0,2.788-2.788V22.3h25.184a3.587,3.587,0,0,1,3.583,3.583V58.636a2.788,2.788,0,0,0,5.576,0V25.883a9.169,9.169,0,0,0-9.159-9.158H120.841V13.1a2.788,2.788,0,0,0-2.788-2.788h-5.407V2.788A2.788,2.788,0,0,0,109.858,0H92.016a2.788,2.788,0,0,0-2.788,2.788v7.527H83.822A2.788,2.788,0,0,0,81.034,13.1v3.622H55.849a9.169,9.169,0,0,0-9.158,9.158V98.326h-2.9a2.788,2.788,0,0,0,0,5.576H78.051l-30.464,34.19a2.788,2.788,0,0,0,2.081,4.642H68.085a2.788,2.788,0,0,0,2.059-.909l19.085-20.916v19.037a2.788,2.788,0,0,0,2.788,2.788h17.842a2.788,2.788,0,0,0,2.788-2.788V120.909l19.085,20.916a2.788,2.788,0,0,0,2.059.909h18.416a2.788,2.788,0,0,0,2.081-4.642L123.823,103.9h34.264a2.788,2.788,0,1,0,0-5.576ZM94.8,5.576H107.07v4.739H94.8ZM86.609,15.89h28.656v7.245H86.609ZM66.855,137.159H55.887L85.519,103.9h3.709v8.735Zm40.216,0H94.8V103.9H107.07Zm38.917,0H135.02l-22.374-24.521V103.9h3.709Z" transform="translate(-29.57 0)"/>
  <g id="Grupo_53920" data-name="Grupo 53920" transform="translate(26.162 29.543)">
    <g id="Grupo_53907" data-name="Grupo 53907" transform="translate(11.327 11.327)">
      <g id="Grupo_53905" data-name="Grupo 53905" transform="translate(0.615 0.588)">
        <circle id="Elipse_4085" data-name="Elipse 4085" cx="10.708" cy="10.708" r="10.708" transform="translate(0 4.926) rotate(-13.3)" fill="#fdd835"/>
      </g>
      <g id="Grupo_53906" data-name="Grupo 53906">
        <path id="Trazado_101953" data-name="Trazado 101953" d="M147.971,173.6a13.5,13.5,0,1,1,13.5-13.5A13.511,13.511,0,0,1,147.971,173.6Zm0-21.417a7.921,7.921,0,1,0,7.921,7.921A7.93,7.93,0,0,0,147.971,152.18Z" transform="translate(-134.475 -146.604)"/>
      </g>
    </g>
    <g id="Grupo_53910" data-name="Grupo 53910" transform="translate(22.035)">
      <g id="Grupo_53908" data-name="Grupo 53908">
        <path id="Trazado_101954" data-name="Trazado 101954" d="M175.675,114.777a2.788,2.788,0,0,1-2.788-2.788v-3.229a2.788,2.788,0,1,1,5.576,0v3.229A2.788,2.788,0,0,1,175.675,114.777Z" transform="translate(-172.887 -105.973)"/>
      </g>
      <g id="Grupo_53909" data-name="Grupo 53909" transform="translate(0 40.843)">
        <path id="Trazado_101955" data-name="Trazado 101955" d="M175.675,261.283a2.788,2.788,0,0,1-2.788-2.788v-3.229a2.788,2.788,0,1,1,5.576,0V258.5A2.788,2.788,0,0,1,175.675,261.283Z" transform="translate(-172.887 -252.479)"/>
      </g>
    </g>
    <g id="Grupo_53913" data-name="Grupo 53913" transform="translate(0 22.036)">
      <g id="Grupo_53911" data-name="Grupo 53911" transform="translate(40.843)">
        <path id="Trazado_101956" data-name="Trazado 101956" d="M246.366,190.593h-3.228a2.788,2.788,0,0,1,0-5.576h3.228a2.788,2.788,0,1,1,0,5.576Z" transform="translate(-240.35 -185.017)"/>
      </g>
      <g id="Grupo_53912" data-name="Grupo 53912">
        <path id="Trazado_101957" data-name="Trazado 101957" d="M99.86,190.593H96.632a2.788,2.788,0,1,1,0-5.576H99.86a2.788,2.788,0,1,1,0,5.576Z" transform="translate(-93.844 -185.017)"/>
      </g>
    </g>
    <g id="Grupo_53916" data-name="Grupo 53916" transform="translate(6.985 6.985)">
      <g id="Grupo_53914" data-name="Grupo 53914" transform="translate(27.895)">
        <path id="Trazado_101958" data-name="Trazado 101958" d="M221.751,138.811a2.788,2.788,0,0,1-1.971-4.759l2.2-2.2a2.788,2.788,0,0,1,3.943,3.942l-2.2,2.2A2.779,2.779,0,0,1,221.751,138.811Z" transform="translate(-218.963 -131.03)"/>
      </g>
      <g id="Grupo_53915" data-name="Grupo 53915" transform="translate(0 27.895)">
        <path id="Trazado_101959" data-name="Trazado 101959" d="M121.689,238.873a2.788,2.788,0,0,1-1.971-4.759l2.2-2.2a2.788,2.788,0,0,1,3.943,3.943l-2.2,2.2A2.78,2.78,0,0,1,121.689,238.873Z" transform="translate(-118.901 -231.092)"/>
      </g>
    </g>
    <g id="Grupo_53919" data-name="Grupo 53919" transform="translate(6.985 6.986)">
      <g id="Grupo_53917" data-name="Grupo 53917" transform="translate(27.895 27.895)">
        <path id="Trazado_101960" data-name="Trazado 101960" d="M223.956,238.873a2.778,2.778,0,0,1-1.971-.817l-2.2-2.2a2.788,2.788,0,0,1,3.943-3.943l2.2,2.2a2.788,2.788,0,0,1-1.972,4.759Z" transform="translate(-218.963 -231.092)"/>
      </g>
      <g id="Grupo_53918" data-name="Grupo 53918">
        <path id="Trazado_101961" data-name="Trazado 101961" d="M123.894,138.812a2.778,2.778,0,0,1-1.971-.817l-2.2-2.2a2.788,2.788,0,1,1,3.943-3.942l2.2,2.2a2.788,2.788,0,0,1-1.972,4.759Z" transform="translate(-118.901 -131.031)"/>
      </g>
    </g>
  </g>
  <g id="Grupo_53923" data-name="Grupo 53923" transform="translate(61.128 59.497)">
    <g id="Grupo_53921" data-name="Grupo 53921" transform="translate(2.787 2.788)">
      <path id="Trazado_101962" data-name="Trazado 101962" d="M270.867,239.537a11.678,11.678,0,1,0-22.1-7.394,7.277,7.277,0,0,0-12.1,5.478V239.5h-.883a6.534,6.534,0,0,0,0,13.068h34.429a6.535,6.535,0,0,0,.656-13.035Z" transform="translate(-229.271 -223.422)" fill="#f6f6f6"/>
    </g>
    <g id="Grupo_53922" data-name="Grupo 53922">
      <path id="Trazado_101963" data-name="Trazado 101963" d="M263,248.147H228.57a9.324,9.324,0,0,1-1.88-18.452,10.068,10.068,0,0,1,13.485-8.777,14.468,14.468,0,0,1,26.915,9.526,9.332,9.332,0,0,1-4.092,17.7Zm-34.429-13.068a3.746,3.746,0,0,0,0,7.492H263a3.748,3.748,0,0,0,.377-7.473,2.788,2.788,0,0,1-2.3-3.835,8.89,8.89,0,1,0-16.822-5.63,2.788,2.788,0,0,1-4.547,1.382,4.489,4.489,0,0,0-7.466,3.393v1.883a2.788,2.788,0,0,1-2.788,2.788Z" transform="translate(-219.272 -213.421)"/>
    </g>
  </g>
</svg>
