<svg xmlns="http://www.w3.org/2000/svg" width="393.241" height="174.166" viewBox="0 0 393.241 174.166">
  <g id="Grupo_56306" data-name="Grupo 56306" transform="translate(5678.237 22581.893)">
    <g id="Grupo_56244" data-name="Grupo 56244" transform="translate(-5369.958 -22464.26)">
      <g id="Grupo_56239" data-name="Grupo 56239" transform="translate(29.987 22.396)">
        <path id="Trazado_102987" data-name="Trazado 102987" d="M2699.253,1495.661s-3.924-4.578-.242-7.487c0,0,2.69-1.629,4.883-1.5,0,0-3.108,5.212-2.1,5.73s3.044-6.057,3.044-6.057,6.122-.594,8.09.353c0,0-5.233,4.282-4.131,4.537s6.754-3.948,6.754-3.948,5.7.969,5.393,4.445-2.267,4.549-3.13,4.456-5.91-2.019-6.02-1.312,2.928,3.017,5.056,3.125c0,0-4.017,4.43-6.686,3.151s-2.9-3.3-4.561-4.065-3.084-.758-2.4.017,3.7,1.529,4.65,3.212,1.805,2.819-.956,2.4-7.251-2.437-7.448-4.751Z" transform="translate(-2692.62 -1486.168)" fill="#fdd835"/>
        <g id="Grupo_56238" data-name="Grupo 56238" transform="translate(0 5.638)">
          <path id="Trazado_102988" data-name="Trazado 102988" d="M2707.68,1528.126s-15.474-.6-18.891,3.829a11.189,11.189,0,0,1-3.081,4.324l-.362.988s2.681-2.827,3.641-3C2688.986,1534.269,2687.485,1528.786,2707.68,1528.126Z" transform="translate(-2682.155 -1528.099)" fill="#77a4e5"/>
          <path id="Trazado_102989" data-name="Trazado 102989" d="M2665.174,1586.433a9.717,9.717,0,0,0-3.552,6.845l.6.054s1.061-4.538,2.978-6.312S2665.174,1586.433,2665.174,1586.433Z" transform="translate(-2661.622 -1578.253)" fill="#77a4e5"/>
        </g>
      </g>
      <g id="Grupo_56241" data-name="Grupo 56241" transform="translate(0 9.965)">
        <path id="Trazado_102990" data-name="Trazado 102990" d="M2461.49,1409.879s6.243-3.5,3.33-8.241c0,0-2.331-2.913-4.828-3.662,0,0,1.332,7.075,0,7.242s-.916-7.991-.916-7.991-6.576-3.163-9.156-2.913c0,0,4.079,6.909,2.747,6.742s-5.91-7.159-5.91-7.159-6.742-1.249-7.824,2.747.666,5.993,1.665,6.243,7.408.167,7.242,1-4.5,2.164-6.909,1.415c0,0,2.664,6.576,6.16,6.243s4.578-2.5,6.742-2.664,3.746.416,2.664,1-4.744.191-6.493,1.677-3.163,2.4.083,3.068,9.073.25,10.238-2.248Z" transform="translate(-2438.591 -1393.713)" fill="#fdd835"/>
        <g id="Grupo_56240" data-name="Grupo 56240" transform="translate(3.421 4.18)">
          <path id="Trazado_102991" data-name="Trazado 102991" d="M2464.037,1424.8s17.48,5.66,19.478,11.986a13.281,13.281,0,0,0,1.665,6.077v1.249s-1.831-4.245-2.83-4.828C2482.35,1439.286,2486.262,1433.793,2464.037,1424.8Z" transform="translate(-2464.037 -1424.803)" fill="#77a4e5"/>
          <path id="Trazado_102992" data-name="Trazado 102992" d="M2615.909,1554.143a11.529,11.529,0,0,1,1.159,9.077l-.694-.186s.673-5.489-.737-8.249S2615.909,1554.143,2615.909,1554.143Z" transform="translate(-2594.766 -1536.08)" fill="#77a4e5"/>
        </g>
      </g>
      <g id="Grupo_56243" data-name="Grupo 56243" transform="translate(27.421 0)">
        <path id="Trazado_102993" data-name="Trazado 102993" d="M2647.946,1340.9s-8.229-4.608-4.389-10.863c0,0,3.072-3.84,6.364-4.828,0,0-1.756,9.327,0,9.546s1.207-10.534,1.207-10.534,8.668-4.17,12.07-3.84c0,0-5.376,9.107-3.621,8.888s7.79-9.436,7.79-9.436,8.888-1.646,10.314,3.621-.878,7.9-2.195,8.229-9.765.219-9.546,1.317,5.925,2.853,9.107,1.865c0,0-3.511,8.668-8.12,8.229s-6.035-3.292-8.887-3.511-4.938.549-3.511,1.317,6.254.252,8.559,2.211,4.169,3.166-.11,4.044-11.96.329-13.5-2.963Z" transform="translate(-2642.536 -1319.594)" fill="#ffefac"/>
        <g id="Grupo_56242" data-name="Grupo 56242" transform="translate(1.064 5.51)">
          <path id="Trazado_102994" data-name="Trazado 102994" d="M2694.321,1360.576s-23.042,7.461-25.676,15.8a17.505,17.505,0,0,1-2.195,8.01v1.646s2.414-5.6,3.731-6.364C2670.182,1379.668,2665.025,1372.427,2694.321,1360.576Z" transform="translate(-2664.299 -1360.576)" fill="#ffefac"/>
          <path id="Trazado_102995" data-name="Trazado 102995" d="M2652.6,1531.071a15.2,15.2,0,0,0-1.528,11.965l.914-.246s-.887-7.235.972-10.874S2652.6,1531.071,2652.6,1531.071Z" transform="translate(-2650.447 -1507.261)" fill="#ffefac"/>
        </g>
      </g>
      <path id="Trazado_102996" data-name="Trazado 102996" d="M2576.938,1628.823a16.12,16.12,0,0,0,16.12-16.12h-32.24A16.12,16.12,0,0,0,2576.938,1628.823Z" transform="translate(-2544.384 -1573.294)" fill="#f57c00"/>
      <path id="Trazado_102997" data-name="Trazado 102997" d="M2593.553,1628.7a16.13,16.13,0,0,1-18.122-16h4A16.123,16.123,0,0,0,2593.553,1628.7Z" transform="translate(-2557.032 -1573.293)" fill="#ffa726"/>
      <rect id="Rectángulo_9394" data-name="Rectángulo 9394" width="33.137" height="0.494" transform="translate(15.904 39.409)" fill="#9fc1f4"/>
    </g>
    <g id="Grupo_56269" data-name="Grupo 56269" transform="translate(-5488.154 -22510.391)">
      <g id="Grupo_56245" data-name="Grupo 56245" transform="translate(59.864 32.535)">
        <path id="Trazado_102998" data-name="Trazado 102998" d="M2020.59,1286.808l-15.84-65.745,1.106-2.588,15.693,68.326a.279.279,0,0,1-.272.342h-.262A.437.437,0,0,1,2020.59,1286.808Z" transform="translate(-2004.75 -1218.475)" fill="#636363"/>
      </g>
      <g id="Grupo_56268" data-name="Grupo 56268" transform="translate(0 0)">
        <g id="Grupo_56246" data-name="Grupo 56246" transform="translate(3.689 72.311)">
          <path id="Trazado_102999" data-name="Trazado 102999" d="M1587.476,1543.2h0a.527.527,0,0,1-.52-.613l4.665-28.278h2l-5.563,28.414A.592.592,0,0,1,1587.476,1543.2Z" transform="translate(-1586.948 -1514.31)" fill="#636363"/>
        </g>
        <g id="Grupo_56247" data-name="Grupo 56247" transform="translate(48.443 72.311)">
          <path id="Trazado_103000" data-name="Trazado 103000" d="M1920.338,1543.2h0a.528.528,0,0,1-.52-.613l4.665-28.278h2l-5.564,28.414A.592.592,0,0,1,1920.338,1543.2Z" transform="translate(-1919.81 -1514.31)" fill="#636363"/>
        </g>
        <path id="Trazado_103001" data-name="Trazado 103001" d="M1645.755,1048.869h-55.718l11.544-72.37H1657.3Z" transform="translate(-1585.932 -976.498)" fill="#f5fbff"/>
        <rect id="Rectángulo_9395" data-name="Rectángulo 9395" width="63.991" height="2.129" transform="translate(0 71.818)" fill="#636363"/>
        <g id="Grupo_56248" data-name="Grupo 56248" transform="translate(16.833 4.35)">
          <path id="Trazado_103002" data-name="Trazado 103002" d="M1705.584,1019.646a11.705,11.705,0,0,1-11.22,10.828c-5.758.01-10.069-4.822-9.63-10.792a11.649,11.649,0,0,1,11.222-10.828,9.67,9.67,0,0,1,3.4.6,9.321,9.321,0,0,1,3.819,2.646,9.731,9.731,0,0,1,1.044,1.455,9.592,9.592,0,0,1,.484.935,10.264,10.264,0,0,1,.819,2.894,11.006,11.006,0,0,1,.092,1.582Q1705.61,1019.3,1705.584,1019.646Z" transform="translate(-1684.703 -1008.853)" fill="#26ccda"/>
          <path id="Trazado_103003" data-name="Trazado 103003" d="M1772.016,1022.4l-9.542,5.174s3.937-6.934,5.553-9.581a9.406,9.406,0,0,1,2.461,2.016,9.83,9.83,0,0,1,1.528,2.39Z" transform="translate(-1752.017 -1016.766)" fill="#fff"/>
          <path id="Trazado_103004" data-name="Trazado 103004" d="M1784.707,1015.125l-8.716,4.726s3.6-6.333,5.073-8.752a8.583,8.583,0,0,1,2.248,1.842,8.847,8.847,0,0,1,.953,1.329A8.718,8.718,0,0,1,1784.707,1015.125Z" transform="translate(-1763.717 -1010.798)" fill="#f99746"/>
        </g>
        <g id="Grupo_56254" data-name="Grupo 56254" transform="translate(9.525 40.405)">
          <g id="Grupo_56249" data-name="Grupo 56249">
            <path id="Trazado_103005" data-name="Trazado 103005" d="M1676.215,1303.474l-45.861,0L1635,1277.01l45.861,0Zm-45.49-.27,45.214,0,4.549-25.928-45.214,0Z" transform="translate(-1630.354 -1277.01)" fill="#bdd1f9"/>
          </g>
          <g id="Grupo_56251" data-name="Grupo 56251" transform="translate(2.453 14.646)">
            <path id="Trazado_103006" data-name="Trazado 103006" d="M1689.269,1401.661l-40.673,0s7.215-3.869,9.194-3.666,4.823,1.769,6.653,1.83,3.81-5.431,5.846-5.172,2.8,5.116,3.857,4.642a10.669,10.669,0,0,1,6.043,0c1.823.68,4.48-2.162,6.083-2.073S1689.269,1401.661,1689.269,1401.661Z" transform="translate(-1648.596 -1393.471)" fill="#f99746"/>
            <g id="Grupo_56250" data-name="Grupo 56250" transform="translate(1.857)">
              <path id="Trazado_103007" data-name="Trazado 103007" d="M1671.326,1386.352h-7.769l.072-.412h7.768Z" transform="translate(-1663.403 -1385.939)" fill="#f99746"/>
              <path id="Trazado_103008" data-name="Trazado 103008" d="M1670.178,1392.9h-7.769l.073-.412h7.768Z" transform="translate(-1662.409 -1391.604)" fill="#f99746"/>
            </g>
          </g>
          <g id="Grupo_56253" data-name="Grupo 56253" transform="translate(4.78 2.139)">
            <path id="Trazado_103009" data-name="Trazado 103009" d="M1665.905,1303.008l40.673,0s-5.857-3.87-7.908-3.667-5.444,1.768-7.295,1.829-1.9-5.431-4.031-5.172-4.6,5.116-5.486,4.641a10.543,10.543,0,0,0-6.043,0c-2.062.68-3.721-2.162-5.355-2.074S1665.905,1303.008,1665.905,1303.008Z" transform="translate(-1665.905 -1295.578)" fill="#26ccda"/>
            <g id="Grupo_56252" data-name="Grupo 56252" transform="translate(1.725)">
              <path id="Trazado_103010" data-name="Trazado 103010" d="M1687.648,1293.329h-7.769l.072-.412h7.769Z" transform="translate(-1679.725 -1292.916)" fill="#26ccda"/>
              <path id="Trazado_103011" data-name="Trazado 103011" d="M1686.5,1299.874h-7.769l.072-.412h7.769Z" transform="translate(-1678.731 -1298.581)" fill="#26ccda"/>
            </g>
          </g>
        </g>
        <g id="Grupo_56255" data-name="Grupo 56255" transform="translate(15.158 28.355)">
          <path id="Trazado_103012" data-name="Trazado 103012" d="M1674.033,1195.747h-1.784l1.55-8.36h1.784Z" transform="translate(-1672.249 -1187.388)" fill="#26ccda"/>
          <path id="Trazado_103013" data-name="Trazado 103013" d="M1692.107,1207.875h-1.784l1.2-6.476h1.784Z" transform="translate(-1687.893 -1199.516)" fill="#26ccda"/>
          <path id="Trazado_103014" data-name="Trazado 103014" d="M1710.182,1206.088H1708.4l1.252-6.753h1.784Z" transform="translate(-1703.538 -1197.729)" fill="#26ccda"/>
          <path id="Trazado_103015" data-name="Trazado 103015" d="M1728.257,1216.493h-1.784l.953-5.137h1.784Z" transform="translate(-1719.182 -1208.134)" fill="#26ccda"/>
          <path id="Trazado_103016" data-name="Trazado 103016" d="M1746.331,1214.086h-1.784l1.022-5.511h1.784Z" transform="translate(-1734.826 -1205.726)" fill="#26ccda"/>
          <path id="Trazado_103017" data-name="Trazado 103017" d="M1764.406,1222.05h-1.784l.792-4.274h1.784Z" transform="translate(-1750.471 -1213.691)" fill="#26ccda"/>
        </g>
        <g id="Grupo_56256" data-name="Grupo 56256" transform="translate(39.022 28.355)">
          <path id="Trazado_103018" data-name="Trazado 103018" d="M1851.525,1195.747h-1.784l1.55-8.36h1.784Z" transform="translate(-1849.741 -1187.388)" fill="#f99746"/>
          <path id="Trazado_103019" data-name="Trazado 103019" d="M1869.6,1207.875h-1.784l1.2-6.476h1.784Z" transform="translate(-1865.385 -1199.516)" fill="#f99746"/>
          <path id="Trazado_103020" data-name="Trazado 103020" d="M1887.674,1206.088h-1.784l1.252-6.753h1.784Z" transform="translate(-1881.03 -1197.729)" fill="#f99746"/>
          <path id="Trazado_103021" data-name="Trazado 103021" d="M1905.749,1216.493h-1.784l.953-5.137h1.784Z" transform="translate(-1896.674 -1208.134)" fill="#f99746"/>
          <path id="Trazado_103022" data-name="Trazado 103022" d="M1923.823,1214.086h-1.784l1.022-5.511h1.784Z" transform="translate(-1912.318 -1205.726)" fill="#f99746"/>
          <path id="Trazado_103023" data-name="Trazado 103023" d="M1941.9,1222.05h-1.784l.792-4.274h1.784Z" transform="translate(-1927.963 -1213.691)" fill="#f99746"/>
        </g>
        <g id="Grupo_56265" data-name="Grupo 56265" transform="translate(41.716 6.774)">
          <g id="Grupo_56257" data-name="Grupo 56257" transform="translate(1.872 1.856)">
            <path id="Trazado_103024" data-name="Trazado 103024" d="M1889.506,1041.481H1883.7l.149-.8h5.807Z" transform="translate(-1883.699 -1040.686)" fill="#26ccda"/>
            <path id="Trazado_103025" data-name="Trazado 103025" d="M1938.6,1041.481h-6.412l.149-.8h6.412Z" transform="translate(-1925.666 -1040.686)" fill="#26ccda"/>
            <path id="Trazado_103026" data-name="Trazado 103026" d="M1987.551,1041.481h-4.088l.149-.8h4.088Z" transform="translate(-1970.049 -1040.686)" fill="#26ccda"/>
            <path id="Trazado_103027" data-name="Trazado 103027" d="M2021.945,1041.481h-3.155l.149-.8h3.155Z" transform="translate(-2000.627 -1040.686)" fill="#26ccda"/>
          </g>
          <g id="Grupo_56258" data-name="Grupo 56258" transform="translate(1.235 5.25)">
            <path id="Trazado_103028" data-name="Trazado 103028" d="M1884.766,1066.725h-5.807l.149-.8h5.807Z" transform="translate(-1878.959 -1065.93)" fill="#26ccda"/>
            <path id="Trazado_103029" data-name="Trazado 103029" d="M1933.857,1066.725h-6.412l.149-.8h6.412Z" transform="translate(-1920.925 -1065.93)" fill="#26ccda"/>
            <path id="Trazado_103030" data-name="Trazado 103030" d="M1982.811,1066.725h-4.088l.149-.8h4.088Z" transform="translate(-1965.309 -1065.93)" fill="#26ccda"/>
            <path id="Trazado_103031" data-name="Trazado 103031" d="M2017.2,1066.725h-3.155l.149-.8h3.155Z" transform="translate(-1995.886 -1065.93)" fill="#26ccda"/>
          </g>
          <g id="Grupo_56259" data-name="Grupo 56259" transform="translate(2.221)">
            <path id="Trazado_103032" data-name="Trazado 103032" d="M1895.2,1027.675h-8.91l.149-.8h8.91Z" transform="translate(-1886.292 -1026.88)" fill="#26ccda"/>
            <path id="Trazado_103033" data-name="Trazado 103033" d="M1964.006,1027.675h-5.136l.149-.8h5.136Z" transform="translate(-1949.112 -1026.88)" fill="#26ccda"/>
            <path id="Trazado_103034" data-name="Trazado 103034" d="M2008.16,1027.675h-5.7l.149-.8h5.7Z" transform="translate(-1986.837 -1026.88)" fill="#26ccda"/>
          </g>
          <g id="Grupo_56260" data-name="Grupo 56260" transform="translate(1.543 3.609)">
            <path id="Trazado_103035" data-name="Trazado 103035" d="M1890.162,1054.517h-8.91l.149-.8h8.91Z" transform="translate(-1881.252 -1053.722)" fill="#26ccda"/>
            <path id="Trazado_103036" data-name="Trazado 103036" d="M1958.966,1054.517h-5.136l.149-.8h5.136Z" transform="translate(-1944.072 -1053.722)" fill="#26ccda"/>
            <path id="Trazado_103037" data-name="Trazado 103037" d="M2003.119,1054.517h-5.7l.149-.8h5.7Z" transform="translate(-1981.797 -1053.722)" fill="#26ccda"/>
          </g>
          <g id="Grupo_56261" data-name="Grupo 56261" transform="translate(0.598 8.645)">
            <path id="Trazado_103038" data-name="Trazado 103038" d="M1880.026,1091.969h-5.807l.149-.8h5.807Z" transform="translate(-1874.219 -1091.174)" fill="#26ccda"/>
            <path id="Trazado_103039" data-name="Trazado 103039" d="M1929.115,1091.969H1922.7l.149-.8h6.412Z" transform="translate(-1916.184 -1091.174)" fill="#26ccda"/>
            <path id="Trazado_103040" data-name="Trazado 103040" d="M1978.069,1091.969h-4.088l.149-.8h4.088Z" transform="translate(-1960.568 -1091.174)" fill="#26ccda"/>
            <path id="Trazado_103041" data-name="Trazado 103041" d="M2012.464,1091.969h-3.155l.149-.8h3.155Z" transform="translate(-1991.146 -1091.174)" fill="#26ccda"/>
          </g>
          <g id="Grupo_56262" data-name="Grupo 56262" transform="translate(0.906 7.003)">
            <path id="Trazado_103042" data-name="Trazado 103042" d="M1885.42,1079.762h-8.91l.149-.8h8.91Z" transform="translate(-1876.511 -1078.967)" fill="#26ccda"/>
            <path id="Trazado_103043" data-name="Trazado 103043" d="M1954.225,1079.762h-5.136l.149-.8h5.136Z" transform="translate(-1939.33 -1078.967)" fill="#26ccda"/>
            <path id="Trazado_103044" data-name="Trazado 103044" d="M1998.378,1079.762h-5.7l.149-.8h5.7Z" transform="translate(-1977.056 -1078.967)" fill="#26ccda"/>
          </g>
          <g id="Grupo_56263" data-name="Grupo 56263" transform="translate(0 11.827)">
            <path id="Trazado_103045" data-name="Trazado 103045" d="M1875.582,1115.636h-5.807l.149-.8h5.807Z" transform="translate(-1869.774 -1114.841)" fill="#26ccda"/>
            <path id="Trazado_103046" data-name="Trazado 103046" d="M1924.672,1115.636h-6.412l.149-.8h6.412Z" transform="translate(-1911.741 -1114.841)" fill="#26ccda"/>
            <path id="Trazado_103047" data-name="Trazado 103047" d="M1973.625,1115.636h-4.088l.149-.8h4.088Z" transform="translate(-1956.124 -1114.841)" fill="#26ccda"/>
            <path id="Trazado_103048" data-name="Trazado 103048" d="M2008.02,1115.636h-3.155l.149-.8h3.155Z" transform="translate(-1986.702 -1114.841)" fill="#26ccda"/>
          </g>
          <g id="Grupo_56264" data-name="Grupo 56264" transform="translate(0.308 10.185)">
            <path id="Trazado_103049" data-name="Trazado 103049" d="M1880.976,1103.428h-8.91l.149-.8h8.91Z" transform="translate(-1872.066 -1102.633)" fill="#26ccda"/>
            <path id="Trazado_103050" data-name="Trazado 103050" d="M1949.78,1103.428h-5.136l.149-.8h5.136Z" transform="translate(-1934.886 -1102.633)" fill="#26ccda"/>
            <path id="Trazado_103051" data-name="Trazado 103051" d="M1993.934,1103.428h-5.7l.149-.8h5.7Z" transform="translate(-1972.612 -1102.633)" fill="#26ccda"/>
          </g>
        </g>
        <g id="Grupo_56266" data-name="Grupo 56266" transform="translate(31.153 28.3)">
          <path id="Trazado_103052" data-name="Trazado 103052" d="M1796.377,1194.128h-2.842l.073-.389h2.842Z" transform="translate(-1793.222 -1192.83)" fill="#bdd1f9"/>
          <path id="Trazado_103053" data-name="Trazado 103053" d="M1820.4,1194.128h-3.139l.073-.389h3.138Z" transform="translate(-1813.763 -1192.83)" fill="#bdd1f9"/>
          <path id="Trazado_103054" data-name="Trazado 103054" d="M1794.056,1206.484h-2.843l.073-.389h2.843Z" transform="translate(-1791.214 -1203.525)" fill="#bdd1f9"/>
          <path id="Trazado_103055" data-name="Trazado 103055" d="M1818.084,1206.484h-3.138l.073-.389h3.139Z" transform="translate(-1811.755 -1203.525)" fill="#bdd1f9"/>
          <path id="Trazado_103056" data-name="Trazado 103056" d="M1799.164,1187.371H1794.8l.073-.389h4.361Z" transform="translate(-1794.32 -1186.981)" fill="#bdd1f9"/>
          <path id="Trazado_103057" data-name="Trazado 103057" d="M1832.841,1187.371h-2.514l.073-.389h2.514Z" transform="translate(-1825.068 -1186.981)" fill="#bdd1f9"/>
          <path id="Trazado_103058" data-name="Trazado 103058" d="M1796.7,1200.51h-4.361l.073-.389h4.361Z" transform="translate(-1792.185 -1198.354)" fill="#bdd1f9"/>
          <path id="Trazado_103059" data-name="Trazado 103059" d="M1830.374,1200.51h-2.514l.073-.389h2.514Z" transform="translate(-1822.933 -1198.354)" fill="#bdd1f9"/>
        </g>
        <g id="Grupo_56267" data-name="Grupo 56267" transform="translate(53.923 28.3)">
          <path id="Trazado_103060" data-name="Trazado 103060" d="M1965.724,1194.128h-2.843l.073-.389h2.843Z" transform="translate(-1962.57 -1192.83)" fill="#bdd1f9"/>
          <path id="Trazado_103061" data-name="Trazado 103061" d="M1989.753,1194.128h-3.138l.073-.389h3.139Z" transform="translate(-1983.112 -1192.83)" fill="#bdd1f9"/>
          <path id="Trazado_103062" data-name="Trazado 103062" d="M1963.405,1206.484h-2.843l.073-.389h2.842Z" transform="translate(-1960.563 -1203.525)" fill="#bdd1f9"/>
          <path id="Trazado_103063" data-name="Trazado 103063" d="M1987.432,1206.484h-3.138l.073-.389h3.139Z" transform="translate(-1981.103 -1203.525)" fill="#bdd1f9"/>
          <path id="Trazado_103064" data-name="Trazado 103064" d="M1968.512,1187.371h-4.361l.073-.389h4.361Z" transform="translate(-1963.669 -1186.981)" fill="#bdd1f9"/>
          <path id="Trazado_103065" data-name="Trazado 103065" d="M2002.19,1187.371h-2.514l.073-.389h2.514Z" transform="translate(-1994.417 -1186.981)" fill="#bdd1f9"/>
          <path id="Trazado_103066" data-name="Trazado 103066" d="M1966.045,1200.51h-4.361l.073-.389h4.361Z" transform="translate(-1961.533 -1198.354)" fill="#bdd1f9"/>
          <path id="Trazado_103067" data-name="Trazado 103067" d="M1999.723,1200.51h-2.514l.073-.389h2.514Z" transform="translate(-1992.282 -1198.354)" fill="#bdd1f9"/>
        </g>
      </g>
    </g>
    <g id="Grupo_56273" data-name="Grupo 56273" transform="translate(-5429.056 -22531.232)">
      <g id="Grupo_56270" data-name="Grupo 56270" transform="translate(0 111.604)">
        <path id="Trazado_103068" data-name="Trazado 103068" d="M2012.153,1660.9c-.1,1.36-2.019,1.375-4.2,1.122s-1.6.3-4.648.341-4.1-.966-4.248-1.4c-.132-.387,1.337-.712,2.908-1.094.2-.048.4-.1.594-.147,1.772-.45,2.945-1.776,4.461-2.934,1.436-1.1,3.287-5.066,3.287-5.066l4.166-.188s-1.754,3.558-2.413,5.092a5.024,5.024,0,0,0-.054,2.862A5.333,5.333,0,0,1,2012.153,1660.9Z" transform="translate(-1999.051 -1651.533)" fill="#ffb27d"/>
        <path id="Trazado_103069" data-name="Trazado 103069" d="M2007.956,1713.225c-2.178-.253-1.6.3-4.648.341s-4.1-.965-4.248-1.4c-.132-.386,1.337-.712,2.908-1.094l.019.029a8.545,8.545,0,0,0,4.475.8c2.047-.205,4.135-1.059,5.547-1.213a5.333,5.333,0,0,1,.144,1.415C2012.053,1713.463,2010.134,1713.478,2007.956,1713.225Z" transform="translate(-1999.051 -1702.734)" fill="#233862"/>
      </g>
      <g id="Grupo_56271" data-name="Grupo 56271" transform="translate(28.771 109.1)">
        <path id="Trazado_103070" data-name="Trazado 103070" d="M2226.137,1645.062c-.1,1.36-2.018,1.377-4.2,1.126s-1.6.3-4.648.346-4.1-.961-4.25-1.4c-.132-.387,1.336-.713,2.907-1.1.2-.047.4-.1.594-.148,1.771-.452,2.943-1.779,4.458-2.939,1.435-1.1,0-7.6,0-7.6l4.582-.446s-.22,5.474-.217,7.963a14.014,14.014,0,0,0,.623,2.777A5.343,5.343,0,0,1,2226.137,1645.062Z" transform="translate(-2213.035 -1632.907)" fill="#ffb27d"/>
        <path id="Trazado_103071" data-name="Trazado 103071" d="M2221.941,1715.328c-2.178-.25-1.6.3-4.648.346s-4.1-.961-4.25-1.4c-.132-.387,1.336-.713,2.907-1.1l.019.029a8.549,8.549,0,0,0,4.476.8c2.046-.207,4.134-1.064,5.546-1.218a5.343,5.343,0,0,1,.146,1.415C2226.039,1715.562,2224.119,1715.579,2221.941,1715.328Z" transform="translate(-2213.035 -1702.047)" fill="#233862"/>
      </g>
      <path id="Trazado_103072" data-name="Trazado 103072" d="M2209.327,830.361c-.789-3.244.355-4.755,1.386-5.56a4.915,4.915,0,0,1,1.619-2.379,5.843,5.843,0,0,1,3.162-.6,1.479,1.479,0,0,0-.667-.316,4.9,4.9,0,0,1,1.749.456c7.529-2.9,8.712,8.185,8.554,10.76s-.136,5.609,3.781,7.638c7.474,3.872-2.484,18.462-2.484,18.462.19-2.081-9.413-13.065-14.423-16.354a14.487,14.487,0,0,1-1.686-5.217,13.693,13.693,0,0,0,1.025,4.72C2209.062,839.865,2208.723,834.818,2209.327,830.361Z" transform="translate(-2180.827 -821.477)" fill="#a9453d"/>
      <path id="Trazado_103073" data-name="Trazado 103073" d="M2233.146,931.031c-.025.011,2.419,1.28,4.258.778,1.729-.472,2.859-2.714,2.835-2.719-.732-.146-.943-1.152-.928-5.476l-.331.065-5.566,1.1s.126,1.752.13,3.4C2233.547,929.569,2233.463,930.884,2233.146,931.031Z" transform="translate(-2201.671 -909.881)" fill="#ffb27d"/>
      <path id="Trazado_103074" data-name="Trazado 103074" d="M2235.135,925.2s.127,1.752.13,3.4c3.115-.088,4.762-2.929,5.436-4.5Z" transform="translate(-2203.393 -910.301)" fill="#ed975d"/>
      <path id="Trazado_103075" data-name="Trazado 103075" d="M2066.262,1269.841a1.366,1.366,0,0,0,1.238,1.779l2.175.1,2.3.071a1.849,1.849,0,0,0,1.49-.68,64.7,64.7,0,0,0,10.919-20.674q.145-.459.306-.929c2.265-6.6,6.96-14.893,9.434-22.4.394-1.2.748-2.32,1.065-3.385.1-.341.2-.676.295-1.006a79.569,79.569,0,0,0,2.838-14.939l-17.866.143A393.544,393.544,0,0,1,2066.262,1269.841Z" transform="translate(-2057.169 -1155.844)" fill="#2a4e96"/>
      <path id="Trazado_103076" data-name="Trazado 103076" d="M2174.177,983.44c.045,8.5-1.247,12.149-1.247,12.149a24.008,24.008,0,0,0,16.741,1.026c.107-.034,6.5-1.845,6.5-1.845-.152-.344-1.416-6.033-1.564-6.348-1.919-4.122-2.443-5.853-2.67-7.12a26.956,26.956,0,0,1-.221-7.123,57.157,57.157,0,0,1,2.2-11.186,58.052,58.052,0,0,1-7.375-2.521,5.76,5.76,0,0,1-3.979,1.476c-1.811-.04-2.4-.815-2.3-1.662-1.93,1.074-3.47,2.088-3.47,2.088-1.64,2.849-4.967,5.616-5.208,9.987C2171.529,973.435,2174.176,983.2,2174.177,983.44Z" transform="translate(-2148.389 -941.623)" fill="#fff"/>
      <path id="Trazado_103077" data-name="Trazado 103077" d="M2287.848,1044.427c.781,1.105,2.278,7.824,6,8.668-1.92-4.788-3.377-6.888-3.6-8.36a36.314,36.314,0,0,1-.221-8.274c-1.247-2.186-2.177-3.684-2.177-3.684-.1-.353-1.982-6.178-2.585-.972A24.059,24.059,0,0,0,2287.848,1044.427Z" transform="translate(-2246.695 -1001.663)" fill="#5f9aa8"/>
      <path id="Trazado_103078" data-name="Trazado 103078" d="M2211.6,863.861s7.37.121,7.375-4.469.96-7.667-3.745-7.939-5.622,1.479-6,3.011S2209.678,863.711,2211.6,863.861Z" transform="translate(-2180.893 -847.398)" fill="#ffb27d"/>
      <path id="Trazado_103079" data-name="Trazado 103079" d="M2229.426,844.791s2.018,5.386,5.115,6.182,4.44-.033,4.44-.033a8.77,8.77,0,0,1-2.868-5.181S2230.948,842.228,2229.426,844.791Z" transform="translate(-2198.451 -840.849)" fill="#a9453d"/>
      <path id="Trazado_103080" data-name="Trazado 103080" d="M2209.123,848.4a6.506,6.506,0,0,0-1.874,2.372c-.368,1.169-.533,3.576-1.234,3.494,0,0-1.52-3.661.188-5.732C2208.014,846.334,2209.123,848.4,2209.123,848.4Z" transform="translate(-2177.648 -844.017)" fill="#a9453d"/>
      <path id="Trazado_103081" data-name="Trazado 103081" d="M2118.738,1176.382l-3.481,10.613,1.986.8,5.755-9.376Z" transform="translate(-2099.633 -1128.664)" fill="#ffb27d"/>
      <path id="Trazado_103082" data-name="Trazado 103082" d="M2144.963,971.168s-4.1,1.629-5.292,4.168-2.987,19.573-3.7,21.322-1.255,3.134-1.255,3.134a8.561,8.561,0,0,0,4.151,1.872C2140.945,1001.792,2144.963,971.168,2144.963,971.168Z" transform="translate(-2116.473 -951.041)" fill="#ffa726"/>
      <path id="Trazado_103083" data-name="Trazado 103083" d="M2164.284,960.286s-4.264,10.534-4.39,12.666-.5,34.862-.5,34.862.251,1.5-2.634.878-3.637-1.254-3.637-1.254,2.759-20.19,2.006-27.212,5.769-18.476,5.769-18.476Z" transform="translate(-2132.407 -941.623)" fill="#ffa726"/>
      <path id="Trazado_103084" data-name="Trazado 103084" d="M2092.063,1355.042l2.5.077a1.444,1.444,0,0,0,1.159-.523,64.475,64.475,0,0,0,11.053-20.837c.1-.306.2-.616.306-.929,2.265-6.6,6.96-14.893,9.434-22.4.394-1.2.747-2.32,1.065-3.385.1-.341.2-.676.295-1.006l-2.631-2s-7.9,12.791-10.344,24.828C2102.772,1339.332,2094.265,1351.914,2092.063,1355.042Z" transform="translate(-2079.557 -1239.164)" fill="#1e3d70"/>
      <path id="Trazado_103085" data-name="Trazado 103085" d="M2251.107,1308.144c-.043,5.538.22,17.881.894,23.915a1.09,1.09,0,0,0,1.084.969h1.864c.786,0,1.374-.006,1.764-.011a.717.717,0,0,0,.692-.579c1.854-9.434,3.18-17.271,4.152-24.043.813-5.668,1.535-10.528,2.091-14.711.559-4.21.948-7.735,1.087-10.713.021-.469.037-.925.046-1.368s.012-.878.008-1.3l-15.437-1.5C2249.546,1289.056,2251.133,1304.741,2251.107,1308.144Z" transform="translate(-2215.698 -1217.31)" fill="#2a4e96"/>
      <path id="Trazado_103086" data-name="Trazado 103086" d="M2290.986,1359.877c.706,0,1.252,0,1.639-.01a.87.87,0,0,0,.841-.7c1.841-9.379,3.161-17.178,4.128-23.921.813-5.668,1.535-10.528,2.09-14.711.56-4.21.948-7.735,1.087-10.713l-5.665,3.332s3.615,1.275,2.236,10.931S2292.906,1358.51,2290.986,1359.877Z" transform="translate(-2251.734 -1244.16)" fill="#1e3d70"/>
      <path id="Trazado_103087" data-name="Trazado 103087" d="M2251.605,1008.568s1.087,3.929,4.85,3.427a45.337,45.337,0,0,0,9.112-2.759s-1.608-5.08-3.607-11.754c-2.42-8.08-5.416-18.5-6.828-25.066a40.715,40.715,0,0,1-.768-4.479l-3.121-6.056s-4.654,10.445-4.9,13.078S2251.605,1008.568,2251.605,1008.568Z" transform="translate(-2213.083 -943.004)" fill="#ffa726"/>
      <path id="Trazado_103088" data-name="Trazado 103088" d="M2219.9,974.568l-4.119-12.686a63.556,63.556,0,0,1,7.814,2.864s1.632,2.1,2.642,6.96c0,0,1.067,11.657-1.315,15.92,0,0-7.524,1.5-19.563-2.633v-2.759s13.167.69,15.864,1Z" transform="translate(-2177.616 -943.004)" fill="#ffb27d"/>
      <path id="Trazado_103089" data-name="Trazado 103089" d="M2286.783,1048.3c.168,4.264,1.172,12.54,10.116,16.971.024.011.048.024.072.034-2.42-8.08-5.416-18.5-6.828-25.066C2288.5,1042.693,2286.692,1045.95,2286.783,1048.3Z" transform="translate(-2248.094 -1010.824)" fill="#f57c00"/>
      <path id="Trazado_103090" data-name="Trazado 103090" d="M2280.025,961.882s7.636.538,9.476,4.634,2.424,17.724.083,21.737c0,0-3.223.918-8.923-.148l-.211-.04s-1.818-4.452-.188-5.33c0,0,4.807.251,4.306-1.338S2280.025,961.882,2280.025,961.882Z" transform="translate(-2241.865 -943.004)" fill="#ffa726"/>
      <g id="Grupo_56272" data-name="Grupo 56272" transform="translate(18.108 37.036)">
        <path id="Trazado_103091" data-name="Trazado 103091" d="M2140.469,1100.833l.225.723,12.53-3.9a.482.482,0,0,0,.085-.443.355.355,0,0,0-.31-.28Z" transform="translate(-2139.563 -1096.935)" fill="#a9453d"/>
        <path id="Trazado_103092" data-name="Trazado 103092" d="M2133.729,1126.609l.906-.683.225.723Z" transform="translate(-2133.729 -1122.028)" fill="#a9453d"/>
      </g>
      <path id="Trazado_103093" data-name="Trazado 103093" d="M2094.485,1253.157s-3.179,1.757-3.6,3.095-.131,4.141.374,4.1,1.257-3.011,1.676-3.22,1-.836,1-.376-.418,1.3-.209,1.422.878-1.17,1.338-1.422.653-2.319,1.1-2.874S2094.485,1253.157,2094.485,1253.157Z" transform="translate(-2078.367 -1195.116)" fill="#ffb27d"/>
      <path id="Trazado_103094" data-name="Trazado 103094" d="M2159.039,1103.53s-2.843-1.751-4.035-1.481-4.232,2.47-2.77,2.947,2.646-.023,3.208.323.977.979,3.6.97S2159.039,1103.53,2159.039,1103.53Z" transform="translate(-2131.301 -1064.3)" fill="#ffb27d"/>
    </g>
    <g id="Grupo_56283" data-name="Grupo 56283" transform="translate(-5558.574 -22504.375)">
      <g id="Grupo_56277" data-name="Grupo 56277" transform="translate(5.313 31.093)" opacity="0.6">
        <g id="Grupo_56274" data-name="Grupo 56274" transform="translate(13.73 30.98)">
          <path id="Trazado_103095" data-name="Trazado 103095" d="M1177.936,1516.013h-.047a.492.492,0,0,1-.492-.5l.746-32.35,2.2-.256-1.875,32.609A.532.532,0,0,1,1177.936,1516.013Z" transform="translate(-1177.397 -1482.903)" fill="#636363"/>
        </g>
        <g id="Grupo_56275" data-name="Grupo 56275" transform="translate(0.918 30.98)">
          <path id="Trazado_103096" data-name="Trazado 103096" d="M1082.647,1516.013h-.047a.492.492,0,0,1-.492-.5l.746-32.35,2.2-.256-1.875,32.609A.532.532,0,0,1,1082.647,1516.013Z" transform="translate(-1082.108 -1482.903)" fill="#636363"/>
        </g>
        <g id="Grupo_56276" data-name="Grupo 56276" transform="translate(34.405 30.98)">
          <path id="Trazado_103097" data-name="Trazado 103097" d="M1333.575,1516.013h.047a.492.492,0,0,0,.492-.5l-.746-32.35-2.2-.256,1.875,32.609A.532.532,0,0,0,1333.575,1516.013Z" transform="translate(-1331.169 -1482.903)" fill="#636363"/>
        </g>
        <path id="Trazado_103098" data-name="Trazado 103098" d="M1075.283,1281.717v-22.168a7.063,7.063,0,0,1,7.063-7.063h15.971a7.063,7.063,0,0,1,7.063,7.063v23.015Z" transform="translate(-1075.283 -1252.486)" fill="#636363"/>
        <path id="Rectángulo_9396" data-name="Rectángulo 9396" d="M0,0H32.958a0,0,0,0,1,0,0V3.5a0,0,0,0,1,0,0H3.5A3.5,3.5,0,0,1,0,0V0A0,0,0,0,1,0,0Z" transform="translate(0 29.231)" fill="#636363"/>
        <path id="Rectángulo_9397" data-name="Rectángulo 9397" d="M1.75,0H24.716a1.75,1.75,0,0,1,1.75,1.75v0a1.75,1.75,0,0,1-1.75,1.75H1.75A1.75,1.75,0,0,1,0,1.75v0A1.75,1.75,0,0,1,1.75,0Z" transform="translate(11.756 29.231)" fill="#636363"/>
      </g>
      <g id="Grupo_56282" data-name="Grupo 56282" transform="translate(0 0)">
        <path id="Trazado_103099" data-name="Trazado 103099" d="M1459.129,1583.141c.223,1.114,1.811.928,3.585.495s1.353.082,3.878-.2,3.29-1.221,3.367-1.6c.069-.333-1.179-.451-2.517-.6-.168-.019-.337-.04-.507-.061-1.511-.19-2.618-1.165-3.99-1.965-1.3-.759-3.24-3.849-3.24-3.849l-3.463.274s1.817,2.76,2.52,3.96a4.185,4.185,0,0,1,.34,2.36A4.445,4.445,0,0,0,1459.129,1583.141Z" transform="translate(-1399.707 -1500.857)" fill="#ffb27d"/>
        <path id="Trazado_103100" data-name="Trazado 103100" d="M1480.958,1621.458c1.774-.433,1.353.082,3.878-.2s3.29-1.221,3.368-1.6c.069-.333-1.179-.451-2.517-.6l-.012.026a7.119,7.119,0,0,1-3.617,1.124c-1.713.042-3.528-.449-4.711-.43a4.45,4.45,0,0,0,.027,1.185C1477.6,1622.078,1479.184,1621.892,1480.958,1621.458Z" transform="translate(-1417.951 -1538.679)" fill="#233862"/>
        <path id="Trazado_103101" data-name="Trazado 103101" d="M1255.062,1624.393c-.688.9.5,1.972,2,3.016s.833,1.068,2.714,2.777,3.093,1.66,3.425,1.469c.3-.169-.442-1.182-1.212-2.288-.1-.139-.193-.279-.29-.42-.857-1.259-.858-2.734-1.166-4.293-.291-1.477,2.121-6.9,2.121-6.9l-3.875-.488a43.336,43.336,0,0,1-.941,4.6c-.256.777-1.332,1.289-1.907,1.727A4.444,4.444,0,0,0,1255.062,1624.393Z" transform="translate(-1225.403 -1537.125)" fill="#ffb27d"/>
        <path id="Trazado_103102" data-name="Trazado 103102" d="M1257.063,1668.135c1.5,1.044.833,1.069,2.714,2.777s3.093,1.66,3.425,1.469c.3-.169-.442-1.182-1.212-2.288l-.028.008a7.119,7.119,0,0,1-3.235-1.969c-1.165-1.258-2-2.943-2.794-3.818a4.437,4.437,0,0,0-.871.8C1254.373,1666.023,1255.563,1667.091,1257.063,1668.135Z" transform="translate(-1225.403 -1577.85)" fill="#233862"/>
        <path id="Trazado_103103" data-name="Trazado 103103" d="M1290.432,1424.859l-3.539,9.522-4.62,12.433a7.482,7.482,0,0,1-2.454-.224,10.642,10.642,0,0,1-2.374-1.155s1.283-13.349,3.676-21.012a13.645,13.645,0,0,1,2.059-4.454C1286.891,1415.584,1290.432,1424.859,1290.432,1424.859Z" transform="translate(-1244.951 -1365.338)" fill="#163560"/>
        <path id="Trazado_103104" data-name="Trazado 103104" d="M1126.937,1339.209c-2.318-.748-9.3-.3-15.946,1l-1.017-1.78-14.346-1.12s-4.734,10.5-2.142,17.188a2.426,2.426,0,0,0,2.428,1.634h.21s8.539,0,11.311,0c7.135,0,15.1-4.9,16.13-5.111,1.686-.337,2.361,3.036,4.047,6.577s15.852,15.684,15.852,15.684a12.471,12.471,0,0,0,3.077-.315,3.03,3.03,0,0,0,1.321-.834S1132.165,1340.9,1126.937,1339.209Z" transform="translate(-1085.053 -1294.81)" fill="#2a4e96"/>
        <path id="Trazado_103105" data-name="Trazado 103105" d="M1069.077,1021.425a15.12,15.12,0,0,0-5.216.137c-5.448.636-6.666,9.1-6.261,11.466.747,4.363-1.348,5.591-3.849,9.081-5.013,7-1.55,12.757,2.531,14.185,2.449.856,5.785-1.476,5.785-1.476.061.023,8.662-8.189,12.917-12.177C1082.136,1039.692,1074.223,1022.65,1069.077,1021.425Z" transform="translate(-1049.18 -1021.232)" fill="#233862"/>
        <path id="Trazado_103106" data-name="Trazado 103106" d="M1143.724,1128.686c.025.009-2.218,1.474-4.047,1.166-1.72-.289-3.54-2.533-3.517-2.54.695-.212,1.31-1.024.875-5.209l.327.031,5.5.527s.047,1.708.2,3.307C1143.193,1127.309,1143.4,1128.573,1143.724,1128.686Z" transform="translate(-1122.661 -1108.54)" fill="#ffb27d"/>
        <path id="Trazado_103107" data-name="Trazado 103107" d="M1150.6,1122.859s.047,1.708.2,3.307c-3.025.217-4.894-2.374-5.7-3.834Z" transform="translate(-1130.403 -1108.739)" fill="#ed975d"/>
        <path id="Trazado_103108" data-name="Trazado 103108" d="M1142.667,1060.542s-7.124.832-7.574-3.612-1.673-7.33,2.857-8.05,5.586.887,6.1,2.334S1144.509,1060.211,1142.667,1060.542Z" transform="translate(-1121.31 -1045.009)" fill="#ffb27d"/>
        <path id="Trazado_103109" data-name="Trazado 103109" d="M1129.9,1044.646s-3.44,4.925-6.361,6-4.3.4-4.3.4a12.086,12.086,0,0,0,1.853-4.559,2.176,2.176,0,0,1,1.422-1.687C1124.606,1044.063,1128.645,1042.944,1129.9,1044.646Z" transform="translate(-1108.014 -1040.724)" fill="#233862"/>
        <path id="Trazado_103110" data-name="Trazado 103110" d="M1177.4,1044.873a11.2,11.2,0,0,1,2.573,1.989,8.6,8.6,0,0,1,1.356,4.375s1.158-5.055-.7-6.895C1178.668,1042.392,1177.4,1044.873,1177.4,1044.873Z" transform="translate(-1158.358 -1040.588)" fill="#233862"/>
        <path id="Trazado_103111" data-name="Trazado 103111" d="M1110.355,1170.027c-.215,14.39-.059,11.383-1.633,12.748a6.045,6.045,0,0,1-2.849.617c-4.413.293-12.169-.434-12.464-1.25-1.018-2.822-.3-3.7-1.148-8.018-.089-.459-.2-.957-.327-1.5-.708-2.967-1.4-3.976,1.115-8.742,2.278-4.318,4.738-7.767,4.95-7.64,6.01,3.568,6.4.514,6.4.514S1110.46,1163.008,1110.355,1170.027Z" transform="translate(-1083.814 -1138.088)" fill="#fff"/>
        <path id="Trazado_103112" data-name="Trazado 103112" d="M1285.859,1470.627l-4.725,12.951a7.979,7.979,0,0,1-2.934.373,3.673,3.673,0,0,1-1.95-.87s1.444-14.75,3.836-22.412Z" transform="translate(-1243.917 -1401.584)" fill="#2a4e96"/>
        <path id="Trazado_103113" data-name="Trazado 103113" d="M1188.872,1160.08s6.184,1.048,6.91,3.711,6.036,17.334,6.036,17.334-4.181,1.545-5.633.093-5.053-13.474-5.053-13.474Z" transform="translate(-1168.286 -1141.411)" fill="#fff"/>
        <path id="Trazado_103114" data-name="Trazado 103114" d="M1112.2,1268.19c-4.412.293-12.169-.434-12.464-1.25-1.018-2.822-.3-3.7-1.148-8.018l2.07-4.712s-.293,5.392,1.675,7.148,8.058,3.388,9.014,4.855A5.364,5.364,0,0,1,1112.2,1268.19Z" transform="translate(-1090.137 -1222.886)" fill="#dfebfd"/>
        <g id="Grupo_56278" data-name="Grupo 56278" transform="translate(16.255 40.872)">
          <path id="Trazado_103115" data-name="Trazado 103115" d="M1202.5,1335.344a9.816,9.816,0,0,0,1.688,1.225,1.039,1.039,0,0,0,.587.007l-.958-1.122Z" transform="translate(-1196.334 -1333.983)" fill="#ffb27d"/>
          <path id="Trazado_103116" data-name="Trazado 103116" d="M1198.624,1325.41l3.327.859a.551.551,0,0,1-.463.3,7.375,7.375,0,0,1-1.387-.1Z" transform="translate(-1192.982 -1325.385)" fill="#ffb27d"/>
          <path id="Trazado_103117" data-name="Trazado 103117" d="M1156.664,1327.081s4.75-2.113,5.642-1.834a11.919,11.919,0,0,1,3.537,2c.359.51-1.873-.063-2.57-.107a6.009,6.009,0,0,0-2.019.89,7.161,7.161,0,0,1-3.709,1.145Z" transform="translate(-1156.664 -1325.221)" fill="#ffb27d"/>
        </g>
        <path id="Trazado_103118" data-name="Trazado 103118" d="M1049.949,1156.266s-6.721,1.261-7.966,3.124c-2.716,4.064-8.5,20.9-5.26,23.162,3.647,2.543,16.6.665,16.6.665s.431-2.015-.169-2.989-10.344-2.549-10.794-3,4.443-6.953,3.922-8.2C1044.61,1165.045,1049.949,1156.266,1049.949,1156.266Z" transform="translate(-1035.764 -1138.11)" fill="#fff"/>
        <g id="Grupo_56279" data-name="Grupo 56279" transform="translate(40.154 42.014)">
          <path id="Trazado_103119" data-name="Trazado 103119" d="M1335.006,1333.711s4.7,1.27,5.186,2a11.165,11.165,0,0,1,1.39,3.544c-.04.583-1.324-1.153-1.805-1.6a5.62,5.62,0,0,0-1.994-.546,5.943,5.943,0,0,1-2.6-1.185,1.423,1.423,0,0,0-.778-.174Z" transform="translate(-1334.409 -1333.711)" fill="#ffb27d"/>
          <path id="Trazado_103120" data-name="Trazado 103120" d="M1374.368,1358.1a9.206,9.206,0,0,0,.5,1.888.976.976,0,0,0,.423.352l-.033-1.382Z" transform="translate(-1368.995 -1354.822)" fill="#ffb27d"/>
          <path id="Trazado_103121" data-name="Trazado 103121" d="M1377.423,1348.588l1.912,2.591a.516.516,0,0,1-.511-.059,6.9,6.9,0,0,1-.952-.889Z" transform="translate(-1371.64 -1346.588)" fill="#ffb27d"/>
          <path id="Trazado_103122" data-name="Trazado 103122" d="M1340.2,1350.2a2.963,2.963,0,0,0,1.306,1.438c.87.379,1.51.949,1.649.744s-.659-1.283-.659-1.283Z" transform="translate(-1339.418 -1347.984)" fill="#ffb27d"/>
        </g>
        <path id="Trazado_103123" data-name="Trazado 103123" d="M1247.65,1290.8l9.891,6.253a8.186,8.186,0,0,1-1.385,1.517c-1.832.672-10.069.028-12.89-4.208Z" transform="translate(-1215.366 -1254.554)" fill="#fff"/>
        <g id="Grupo_56281" data-name="Grupo 56281" transform="translate(18.249 42.574)">
          <path id="Trazado_103124" data-name="Trazado 103124" d="M1245.175,1338.754c.583,0,6.389-.4,6.389-.4a2.747,2.747,0,0,0,.191,1.579l-5.657,1.083-1.163-.341Z" transform="translate(-1235.06 -1338.288)" fill="#f9ddbf"/>
          <g id="Grupo_56280" data-name="Grupo 56280">
            <path id="Trazado_103125" data-name="Trazado 103125" d="M1171.923,1342.278l9.683-.933s-.341,1.791.923,2.259l-10.675.781A1.674,1.674,0,0,1,1171.923,1342.278Z" transform="translate(-1171.491 -1340.879)" fill="#f99746"/>
            <path id="Trazado_103126" data-name="Trazado 103126" d="M1251.99,1338.069l-6.544.5s.049-.226.171-.229,6.5-.466,6.5-.466l-.022.179Z" transform="translate(-1235.503 -1337.877)" fill="#f99746"/>
            <path id="Trazado_103127" data-name="Trazado 103127" d="M1250.8,1350.139l5.763-1.1-.053-.149-6.142,1.176Z" transform="translate(-1239.765 -1347.413)" fill="#f99746"/>
          </g>
        </g>
      </g>
    </g>
    <g id="Grupo_56292" data-name="Grupo 56292" transform="translate(-5612.194 -22510.551)">
      <g id="Grupo_56287" data-name="Grupo 56287" transform="translate(0 29.744)">
        <g id="Grupo_56284" data-name="Grupo 56284" transform="translate(15.241 34.593)">
          <path id="Trazado_103128" data-name="Trazado 103128" d="M750.917,1490.781h-.052a.548.548,0,0,1-.546-.562l.828-36.122,2.441-.286-2.081,36.411A.592.592,0,0,1,750.917,1490.781Z" transform="translate(-750.318 -1453.81)" fill="#636363"/>
        </g>
        <g id="Grupo_56285" data-name="Grupo 56285" transform="translate(1.019 34.593)">
          <path id="Trazado_103129" data-name="Trazado 103129" d="M645.136,1490.781h-.052a.548.548,0,0,1-.546-.562l.829-36.122,2.441-.286-2.081,36.411A.592.592,0,0,1,645.136,1490.781Z" transform="translate(-644.537 -1453.81)" fill="#636363"/>
        </g>
        <g id="Grupo_56286" data-name="Grupo 56286" transform="translate(38.193 34.593)">
          <path id="Trazado_103130" data-name="Trazado 103130" d="M923.691,1490.781h.052a.548.548,0,0,0,.546-.562l-.829-36.122-2.441-.286,2.081,36.411A.592.592,0,0,0,923.691,1490.781Z" transform="translate(-921.02 -1453.81)" fill="#636363"/>
        </g>
        <path id="Trazado_103131" data-name="Trazado 103131" d="M636.961,1229.166v-24.753a7.863,7.863,0,0,1,7.84-7.886h17.73a7.863,7.863,0,0,1,7.84,7.886v25.7Z" transform="translate(-636.961 -1196.527)" fill="#636363"/>
        <path id="Rectángulo_9398" data-name="Rectángulo 9398" d="M0,0H36.587a0,0,0,0,1,0,0V3.908a0,0,0,0,1,0,0H3.908A3.908,3.908,0,0,1,0,0V0A0,0,0,0,1,0,0Z" transform="translate(0 32.639)" fill="#636363"/>
        <rect id="Rectángulo_9399" data-name="Rectángulo 9399" width="29.38" height="3.908" rx="1.954" transform="translate(13.05 32.639)" fill="#636363"/>
      </g>
      <g id="Grupo_56291" data-name="Grupo 56291" transform="translate(7.755 0)">
        <path id="Trazado_103132" data-name="Trazado 103132" d="M824.232,1128.53s-1.484,1.262-1.806,4.536c-.245,2.486,1.48,21.786,2.777,23.319,3.651,4.316,8.227,2.492,10.02,3.147l1.691-1.519s-5.945-4.388-6.4-5.82C828.774,1146.683,829.854,1130.612,824.232,1128.53Z" transform="translate(-805.224 -1107.928)" fill="#f9ddbf"/>
        <path id="Trazado_103133" data-name="Trazado 103133" d="M741.411,982.8s.1-3.539-4.568-4.234-5.958.4-6.752,1.587-2.282,6.052-2.133,7.987,5.473,4.327,5.386,5.456S741.411,982.8,741.411,982.8Z" transform="translate(-723.47 -977.939)" fill="#163560"/>
        <path id="Trazado_103134" data-name="Trazado 103134" d="M986.862,1651.175c-.151,1.2,1.48,1.548,3.378,1.714s1.309.542,3.9,1.117,3.658-.111,3.859-.462c.179-.312-1.014-.854-2.285-1.463-.16-.076-.32-.154-.48-.233-1.43-.7-2.2-2.06-3.287-3.331-1.032-1.2-1.918-4.97-1.918-4.97l-3.513-.9s.875,3.393,1.169,4.838a4.509,4.509,0,0,1-.451,2.489A4.783,4.783,0,0,0,986.862,1651.175Z" transform="translate(-947.269 -1552.921)" fill="#ffb27d"/>
        <path id="Trazado_103135" data-name="Trazado 103135" d="M992.426,1700.056c1.9.166,1.309.542,3.9,1.117s3.658-.111,3.859-.463c.179-.312-1.014-.853-2.285-1.463l-.021.022a7.3,7.3,0,0,1-3.948-.1c-1.707-.54-3.336-1.649-4.511-2.031a4.784,4.784,0,0,0-.369,1.2C988.9,1699.537,990.528,1699.889,992.426,1700.056Z" transform="translate(-949.455 -1600.087)" fill="#233862"/>
        <path id="Trazado_103136" data-name="Trazado 103136" d="M760.329,1322.076s23.487,2.437,27.358,6.032,3.182,37.091,3.182,37.091c-.6.625-1.047.611-2,.536a13.3,13.3,0,0,1-2.777-.858s-5.03-16.447-5.093-20.256-.858-10.271-2.456-10.652-20.612,1.751-22.7-4.255a12.946,12.946,0,0,1,1.377-10.947Z" transform="translate(-747.039 -1272.588)" fill="#ed7d2b"/>
        <path id="Trazado_103137" data-name="Trazado 103137" d="M706.067,1160.3a10.689,10.689,0,0,0,5.866,1.833c5.441.2,12.23-.451,13.566-1.713a2.3,2.3,0,0,0,.564-1.551c.147-2.088-.85-5.523-1.519-8.365a10.726,10.726,0,0,1-.488-4.258c.738-2.482,3.031-7.541,3.229-9.2s-1.786-10.569-4.528-11.672-13.33,0-13.33,0c-4.136.839-4.31,9.657-2.936,17.162.036.193.071.385.109.576C708.087,1150.729,703.239,1158.4,706.067,1160.3Z" transform="translate(-703.748 -1104.769)" fill="#f9ddbf"/>
        <g id="Grupo_56288" data-name="Grupo 56288" transform="translate(7.056 4.168)">
          <path id="Trazado_103138" data-name="Trazado 103138" d="M766.835,1092.148c-.074.484-1.4,1.268-4.228.522-2.711-.715-3.037-1.6-3.036-2.181,0-.69,1.179-1.62,1.163-5.867l.325.064,5.466,1.083s-.124,1.72-.128,3.341C766.394,1090.47,766.959,1091.343,766.835,1092.148Z" transform="translate(-757.896 -1074.091)" fill="#ffb27d"/>
          <path id="Trazado_103139" data-name="Trazado 103139" d="M776.107,1086.181s-.124,1.72-.128,3.341c-3.059-.086-4.676-2.877-5.339-4.423Z" transform="translate(-767.478 -1074.503)" fill="#ed975d"/>
          <path id="Trazado_103140" data-name="Trazado 103140" d="M771.749,1025.944s-7.237.119-7.242-4.389-.943-7.529,3.678-7.8,5.521,1.453,5.888,2.957S773.632,1025.8,771.749,1025.944Z" transform="translate(-762.098 -1012.732)" fill="#ffb27d"/>
          <path id="Trazado_103141" data-name="Trazado 103141" d="M756.5,1007.217s-1.982,5.289-5.023,6.071-4.36-.033-4.36-.033a8.611,8.611,0,0,0,2.817-5.088S755.005,1004.7,756.5,1007.217Z" transform="translate(-747.117 -1006.3)" fill="#163560"/>
          <path id="Trazado_103142" data-name="Trazado 103142" d="M813.251,1010.757a6.39,6.39,0,0,1,1.841,2.329c.361,1.148.523,3.511,1.212,3.431,0,0,1.493-3.595-.185-5.629C814.34,1008.732,813.251,1010.757,813.251,1010.757Z" transform="translate(-804.359 -1009.411)" fill="#163560"/>
        </g>
        <path id="Trazado_103143" data-name="Trazado 103143" d="M857.916,1641.441c-.017,1.206,1.642,1.368,3.547,1.314s1.361.387,4,.661,3.622-.532,3.783-.9c.143-.33-1.1-.731-2.433-1.19-.167-.057-.335-.117-.5-.176-1.5-.534-2.413-1.793-3.636-2.931-1.159-1.077,1.4-6.29,1.4-6.29l-3.353-1.659s-.636,3.721-1.455,6.977c-.211.841-.9,2.227-1.112,2.963A4.789,4.789,0,0,0,857.916,1641.441Z" transform="translate(-835.962 -1542.204)" fill="#ffb27d"/>
        <path id="Trazado_103144" data-name="Trazado 103144" d="M707.009,1247.385c1.014.678,2.681,2.62,5.722,2.729,5.018-1.141,10.731-2.47,14.13-3.264.147-2.088-.85-5.522-1.519-8.365-3.963,1.21-9.861-2.912-11.843-4.542-2.083-1.711-2.018-7.414-2.018-7.414l-4.192,3.985c.036.193.071.385.109.576C708.885,1238.711,704.182,1245.49,707.009,1247.385Z" transform="translate(-704.545 -1192.751)" fill="#f2ccaa"/>
        <path id="Trazado_103145" data-name="Trazado 103145" d="M861.463,1706.741c1.9-.053,1.361.387,4,.661s3.622-.532,3.783-.9c.143-.33-1.1-.731-2.433-1.19l-.018.024a7.305,7.305,0,0,1-3.934.358c-1.756-.339-3.5-1.254-4.708-1.5a4.79,4.79,0,0,0-.233,1.235C857.9,1706.633,859.559,1706.795,861.463,1706.741Z" transform="translate(-835.962 -1606.19)" fill="#233862"/>
        <path id="Trazado_103146" data-name="Trazado 103146" d="M708.626,1344.562c5.963-.17,23.773,1.252,27.195,3.831,4.211,3.175-7.82,37.513-7.82,37.513a15.539,15.539,0,0,1-1.839.085,5.9,5.9,0,0,1-2.689-.8s.047-20.21,1.452-24.076c1.3-3.572,2.095-4.836.468-5.049s-21.938,2.377-23.633-3.754a15.189,15.189,0,0,1,.632-9.222S703.125,1344.719,708.626,1344.562Z" transform="translate(-700.404 -1293.641)" fill="#f99746"/>
        <path id="Trazado_103147" data-name="Trazado 103147" d="M700.314,1128.446s-4.142.352-4.465,3.626c-.245,2.486-2.047,20.119-.749,21.653,3.651,4.316,15.826,5.23,17.618,5.885l.493-2.041s-13-6.548-12.8-8.036S704.287,1127.856,700.314,1128.446Z" transform="translate(-694.635 -1107.844)" fill="#f9ddbf"/>
        <path id="Trazado_103148" data-name="Trazado 103148" d="M726.324,977.709s.3-1.889-2.322-2.376-2.668,5.076-2.949,6.417.419,2.145,1.418,2.226S726.324,977.709,726.324,977.709Z" transform="translate(-717.447 -975.303)" fill="#163560"/>
        <g id="Grupo_56289" data-name="Grupo 56289" transform="translate(17.611 48.132)">
          <path id="Trazado_103149" data-name="Trazado 103149" d="M826.726,1339.057s3.7-1.047,4.583-.8,3.9,2.245,3.478,2.788-3.086-.325-4.31-.161-2.172.769-3.053.638a10.229,10.229,0,0,1-1.8-.477Z" transform="translate(-825.62 -1337.554)" fill="#ffb27d"/>
          <path id="Trazado_103150" data-name="Trazado 103150" d="M833.848,1334.789a13.871,13.871,0,0,0,2.326-1.46.144.144,0,0,1,.225.026c.138.218.267.638-.368,1.056A3.417,3.417,0,0,1,833.848,1334.789Z" transform="translate(-832.742 -1333.287)" fill="#ffb27d"/>
        </g>
        <g id="Grupo_56290" data-name="Grupo 56290" transform="translate(29.999 50.086)">
          <path id="Trazado_103151" data-name="Trazado 103151" d="M919.446,1347.815s3.841.21,4.6.728,2.963,3.39,2.385,3.766-2.813-1.309-4.025-1.551-2.3.022-3.095-.387a10.234,10.234,0,0,1-1.551-1.037Z" transform="translate(-917.755 -1347.815)" fill="#ffb27d"/>
        </g>
      </g>
    </g>
    <g id="Grupo_56298" data-name="Grupo 56298" transform="translate(-5667.561 -22516.875)">
      <g id="Grupo_56293" data-name="Grupo 56293" transform="translate(13.402 0)">
        <path id="Trazado_103152" data-name="Trazado 103152" d="M630.217,1679.68H614.589c-.752-.917-.475-4.3-.361-5.407.023-.223.039-.352.039-.352s5.337-4.269,6.07-1c.022.1.049.2.079.3.923,3.057,5.066,4.447,7.458,4.833A2.71,2.71,0,0,1,630.217,1679.68Z" transform="translate(-575.194 -1571.731)" fill="#1b3051"/>
        <path id="Trazado_103153" data-name="Trazado 103153" d="M353.711,1353.435c.564,0,26.771,4.92,31.105,10.286,2.165,2.68,2.487,33.638,2.487,33.638s-2.679,3.322-8.465,1.393c0,0-4.242-21.181-3.929-27.6.087-1.776-17.905-.257-21.2-1.109s-11.339-8.016-9.566-11.506S353.711,1353.435,353.711,1353.435Z" transform="translate(-341.332 -1296.269)" fill="#233862"/>
        <path id="Trazado_103154" data-name="Trazado 103154" d="M553.507,1342.619a9.664,9.664,0,0,0,3.4,1.856,15.374,15.374,0,0,1,2.5.758c1.556.714,4.508,3.9,4.234,4.22-.88,1.016-4.425-1.631-5.1-1.444s1.113,1.725.4,2.143c-.371.218-1.07-1.11-1.724-1.3-.885-.253-1.472-1.589-1.737-1.681a21.126,21.126,0,0,1-2.669-2.109Z" transform="translate(-522.152 -1286.907)" fill="#ffb27d"/>
        <path id="Trazado_103155" data-name="Trazado 103155" d="M681.588,1679.68H665.96c-.752-.917-.475-4.3-.361-5.407.023-.223.04-.352.04-.352s5.337-4.269,6.07-1c.022.1.049.2.079.3.923,3.057,5.066,4.447,7.458,4.833A2.71,2.71,0,0,1,681.588,1679.68Z" transform="translate(-619.658 -1571.731)" fill="#1e3c68"/>
        <path id="Trazado_103156" data-name="Trazado 103156" d="M411.148,1353.435c.564,0,26.77,4.92,31.105,10.286,2.165,2.68,2.487,33.638,2.487,33.638s-2.679,3.322-8.465,1.393c0,0-4.242-21.181-3.929-27.6.087-1.776-17.905-.257-21.2-1.109s-11.339-8.016-9.566-11.506S411.148,1353.435,411.148,1353.435Z" transform="translate(-391.046 -1296.269)" fill="#2b478b"/>
        <path id="Trazado_103157" data-name="Trazado 103157" d="M406.375,1026.347a25.428,25.428,0,0,1-5.57-1.213c-2.136-.693-3.857-1.706-2.748-3.657,1.022-1.8,2.677-5.818,2.565-9.146l3.974,3.2,2.7,2.175a32.372,32.372,0,0,1-.306,3.53q-.081.614-.192,1.325a.963.963,0,0,0,.444.967l.061.038A1.507,1.507,0,0,1,406.375,1026.347Z" transform="translate(-387.913 -1001.027)" fill="#ffb27d"/>
        <path id="Trazado_103158" data-name="Trazado 103158" d="M438.387,1037.625a6.567,6.567,0,0,1-.1,2.185,11.289,11.289,0,0,1-4.656-2.312c1.225-.336,1.671-1.66,2.584-1.537Z" transform="translate(-419.005 -1021.473)" fill="#ed975d"/>
        <path id="Trazado_103159" data-name="Trazado 103159" d="M414.277,952.718s-9.257,1.538-10.126-4.241-2.649-9.473,3.224-10.7,7.356.806,8.115,2.665S416.662,952.169,414.277,952.718Z" transform="translate(-392.668 -936.175)" fill="#ffb27d"/>
        <path id="Trazado_103160" data-name="Trazado 103160" d="M403.65,929.969c.4,1.392-.666,3.087-2.452,3.645-2.651.829-2.065,4.08-3.258,4.036s-1.674-1.869-2.74-.411c-.909,1.244.756,2.718.642,3.4-.2,1.171-2.031,3.566-3.683,3.446s-4.745-7.975-4.127-10.4,3.093-4.992,5.434-5.346,5.593.658,6.344.658S403.435,929.218,403.65,929.969Z" transform="translate(-379.467 -928.26)" fill="#12263f"/>
        <path id="Trazado_103161" data-name="Trazado 103161" d="M351.324,1105.048c-.155,1.334-.436,2.241-.877,2.536-1.38.924-3.21,2.074-5.252,3.211-7.241,4.038-17.154,7.935-19.17,1.111-2.369-8.015-.813-23.064,1.51-32.411,1.337-5.385,5.036-11.035,7.536-11.03,4.26.007,10.385,1.132,12.858,7.232.957,2.363,2.364,10.552,3.082,18.054A62.11,62.11,0,0,1,351.324,1105.048Z" transform="translate(-324.844 -1049.614)" fill="#fff"/>
        <path id="Trazado_103162" data-name="Trazado 103162" d="M397.71,1054.857l.965-2.173s8.553.871,10,5.785C408.679,1058.469,402.067,1054.962,397.71,1054.857Z" transform="translate(-387.913 -1035.955)" fill="#dfebfd"/>
        <path id="Trazado_103163" data-name="Trazado 103163" d="M429.234,1257.469c-.155,1.334-.436,2.241-.877,2.536-1.38.924-3.21,2.074-5.252,3.211-2.131-1.3-6.506-4.386-7.529-8.029-1.337-4.763-.4-10.624-.4-10.624Z" transform="translate(-402.755 -1202.036)" fill="#dfebfd"/>
        <path id="Trazado_103164" data-name="Trazado 103164" d="M410.614,1113.662s.742,20.471,1.906,24.518c1.985,6.9,20.09,9.36,20.09,9.36a3.707,3.707,0,0,0,.591-3.217s-10.824-8.531-11.14-10.155,2.358-12.63-.7-16.633S412.668,1110.065,410.614,1113.662Z" transform="translate(-399.082 -1087.43)" fill="#fff"/>
      </g>
      <g id="Grupo_56297" data-name="Grupo 56297" transform="translate(0 34.025)">
        <g id="Grupo_56294" data-name="Grupo 56294" transform="translate(1.354 40.379)">
          <path id="Trazado_103165" data-name="Trazado 103165" d="M236.121,1514.99h-.06a.81.81,0,0,1-.818-.866l3.252-32.483,2.838.253-4.67,32.658A.528.528,0,0,1,236.121,1514.99Z" transform="translate(-235.24 -1481.64)" fill="#636363"/>
        </g>
        <g id="Grupo_56295" data-name="Grupo 56295" transform="translate(18.095 40.379)">
          <path id="Trazado_103166" data-name="Trazado 103166" d="M360.634,1514.99h-.06a.81.81,0,0,1-.818-.866l3.253-32.483,2.838.253-4.67,32.658A.528.528,0,0,1,360.634,1514.99Z" transform="translate(-359.753 -1481.64)" fill="#636363"/>
        </g>
        <g id="Grupo_56296" data-name="Grupo 56296" transform="translate(45.193 40.379)">
          <path id="Trazado_103167" data-name="Trazado 103167" d="M566.506,1514.99h.06a.81.81,0,0,0,.818-.866l-3.252-32.483-2.838.253,4.67,32.658A.528.528,0,0,0,566.506,1514.99Z" transform="translate(-561.293 -1481.64)" fill="#636363"/>
        </g>
        <path id="Trazado_103168" data-name="Trazado 103168" d="M228.323,1217.1l-3.087-27.13c-.4-3.91.9-7.738,6.545-8.034l9.925-.6c5.883-.243,8.539,4.653,9.284,8.423l5.892,29.823Z" transform="translate(-225.168 -1181.319)" fill="#636363"/>
        <path id="Rectángulo_9400" data-name="Rectángulo 9400" d="M2.6,0H44.671a2.6,2.6,0,0,1,2.6,2.6V5.2a0,0,0,0,1,0,0H2.6A2.6,2.6,0,0,1,0,2.6v0A2.6,2.6,0,0,1,2.6,0Z" transform="translate(50.475 40.854) rotate(180)" fill="#636363"/>
        <path id="Rectángulo_9401" data-name="Rectángulo 9401" d="M2.6,0H25.91a2.6,2.6,0,0,1,2.6,2.6V5.2a0,0,0,0,1,0,0H2.6A2.6,2.6,0,0,1,0,2.6v0A2.6,2.6,0,0,1,2.6,0Z" transform="translate(31.715 40.854) rotate(180)" fill="#636363"/>
      </g>
    </g>
    <path id="Rectángulo_9402" data-name="Rectángulo 9402" d="M.805,0h391.63a.806.806,0,0,1,.806.806v0a.805.805,0,0,1-.805.805H.805A.805.805,0,0,1,0,.806v0A.805.805,0,0,1,.805,0Z" transform="translate(-5678.237 -22409.338)" fill="#2e3552"/>
    <path id="Trazado_102817" data-name="Trazado 102817" d="M506.767,283a33.046,33.046,0,0,0,3.6-8.488l6.38-1.222.066-7.057.065-7.057-6.356-1.341a33.06,33.06,0,0,0-3.445-8.555l3.644-5.371-4.944-5.036-4.943-5.036-5.438,3.544a33.043,33.043,0,0,0-8.488-3.6l-1.223-6.38-7.057-.066-7.057-.065-1.341,6.356a33.061,33.061,0,0,0-8.555,3.445l-5.371-3.644-5.036,4.943-5.036,4.943,3.544,5.439a33,33,0,0,0-3.6,8.488l-6.38,1.223-.065,7.057-.066,7.056,6.356,1.341a33.044,33.044,0,0,0,3.445,8.554l-3.644,5.371,4.943,5.036,4.943,5.037,5.439-3.544a33.062,33.062,0,0,0,8.488,3.6l1.222,6.379,7.057.066,7.057.066,1.341-6.357a33.013,33.013,0,0,0,8.554-3.445l5.371,3.645,5.037-4.943,5.036-4.943Zm-40.842-5.006a17.3,17.3,0,1,1,24.47.228A17.3,17.3,0,0,1,465.925,277.995Z" transform="translate(-5977.879 -22808.859)" fill="#26ccda"/>
    <path id="Trazado_103178" data-name="Trazado 103178" d="M483.688,263.832a21.681,21.681,0,0,0,2.365-5.569l4.186-.8.043-4.63.043-4.63-4.17-.88a21.69,21.69,0,0,0-2.26-5.612l2.391-3.524-3.244-3.3-3.243-3.3-3.568,2.325a21.68,21.68,0,0,0-5.569-2.365l-.8-4.186-4.63-.043-4.63-.043-.88,4.17a21.69,21.69,0,0,0-5.612,2.26l-3.524-2.391-3.3,3.243-3.3,3.243,2.325,3.568a21.648,21.648,0,0,0-2.365,5.569l-4.186.8-.043,4.63-.043,4.629,4.17.88a21.679,21.679,0,0,0,2.26,5.612l-2.391,3.524,3.243,3.3,3.243,3.3,3.568-2.325a21.691,21.691,0,0,0,5.569,2.365l.8,4.185,4.63.043,4.63.043.88-4.171a21.659,21.659,0,0,0,5.612-2.26l3.524,2.391,3.3-3.243,3.3-3.243Zm-26.8-3.285a11.352,11.352,0,1,1,16.054.15A11.352,11.352,0,0,1,456.893,260.547Z" transform="translate(-5894.051 -22809.158)" fill="#fdd835"/>
  </g>
</svg>
