<svg xmlns="http://www.w3.org/2000/svg" width="180" height="180" viewBox="0 0 180 180">
  <g id="Grupo_53580" data-name="Grupo 53580" transform="translate(-955 -4821)">
    <circle id="Elipse_3966" data-name="Elipse 3966" cx="90" cy="90" r="90" transform="translate(955 4821)" fill="#fdd835"/>
    <g id="web-design" transform="translate(984 4850)">
      <path id="Trazado_100525" data-name="Trazado 100525" d="M216,384H192l3-18v-6h18v6Z" transform="translate(-143 -279.5)" fill="#757c80"/>
      <rect id="Rectángulo_5271" data-name="Rectángulo 5271" width="87" height="69" rx="4" transform="translate(17.5 17.5)" fill="#b5b8b9"/>
      <path id="Trazado_100526" data-name="Trazado 100526" d="M27,24h81a3,3,0,0,1,3,3v9H24V27A3,3,0,0,1,27,24Z" transform="translate(-6.5 -6.5)" fill="#26ccda"/>
      <path id="Trazado_100527" data-name="Trazado 100527" d="M24,88h87v42H24Z" transform="translate(-6.5 -58.5)" fill="#fae8d8"/>
      <path id="Trazado_100528" data-name="Trazado 100528" d="M88,152h18v18H88Z" transform="translate(-58.5 -110.5)" fill="#fdd835"/>
      <path id="Trazado_100529" data-name="Trazado 100529" d="M0,0H6V35.165a3,3,0,1,1-6,0V0Z" transform="translate(73.865 75.123) rotate(-45)" fill="#f57c00"/>
      <path id="Trazado_100530" data-name="Trazado 100530" d="M0,0H6V17.711H0Z" transform="translate(67.117 68.372) rotate(-45)" fill="#fcb442"/>
      <path id="Trazado_100531" data-name="Trazado 100531" d="M248,120h39v9H248Z" transform="translate(-188.5 -84.5)" fill="#f57c00"/>
      <path id="Trazado_100532" data-name="Trazado 100532" d="M248,232l2.356,10.208a6,6,0,0,0,4.391,4.472l4.92,1.23,4.243-4.243-1.23-4.92a6,6,0,0,0-4.472-4.391Z" transform="translate(-188.5 -175.5)" fill="#976048"/>
      <path id="Trazado_100533" data-name="Trazado 100533" d="M106,83.5v-63a4.505,4.505,0,0,0-4.5-4.5h-81A4.505,4.505,0,0,0,16,20.5v63A4.505,4.505,0,0,0,20.5,88H50.229l-2.5,15H41.5a1.5,1.5,0,1,0,0,3h39a1.5,1.5,0,0,0,0-3H74.271l-2.5-15H84.636l13.048,13.048a4.5,4.5,0,0,0,6.364-6.364L97.364,88H101.5A4.505,4.505,0,0,0,106,83.5ZM73.289,72.41l2.121-2.121,6.364,6.364-2.121,2.122Zm-2.581-1.662-4.1-1.024a4.48,4.48,0,0,1-3.293-3.354L61.5,58.5l7.87,1.816a4.48,4.48,0,0,1,3.354,3.293l1.024,4.1ZM76.764,67.4l-1.129-4.519a7.467,7.467,0,0,0-5.59-5.489L59.837,55.038a1.5,1.5,0,0,0-1.8,1.8l2.356,10.208A7.5,7.5,0,0,0,61.809,70H19V31h84V70H79.364ZM20.5,19h81a1.5,1.5,0,0,1,1.5,1.5V28H19V20.5A1.5,1.5,0,0,1,20.5,19Zm50.729,84H50.771l2.5-15H68.729ZM20.5,85A1.5,1.5,0,0,1,19,83.5V73H67.343l3.057.764L81.636,85Zm81.426,13.927a1.5,1.5,0,0,1-2.121,0L81.774,80.9,83.9,78.775l18.031,18.031A1.5,1.5,0,0,1,101.926,98.927ZM82.364,73H103V83.5a1.5,1.5,0,0,1-1.5,1.5H94.364Z"/>
      <path id="Trazado_100534" data-name="Trazado 100534" d="M239.5,336h-6a1.5,1.5,0,0,0,0,3h6a1.5,1.5,0,0,0,0-3Z" transform="translate(-175.5 -260)"/>
      <circle id="Elipse_4025" data-name="Elipse 4025" cx="1.5" cy="1.5" r="1.5" transform="translate(22 22)"/>
      <circle id="Elipse_4026" data-name="Elipse 4026" cx="1.5" cy="1.5" r="1.5" transform="translate(28 22)"/>
      <circle id="Elipse_4027" data-name="Elipse 4027" cx="1.5" cy="1.5" r="1.5" transform="translate(34 22)"/>
      <path id="Trazado_100535" data-name="Trazado 100535" d="M97.5,115h3a1.5,1.5,0,0,0,0-3h-3a1.5,1.5,0,0,0,0,3Z" transform="translate(-65 -78)"/>
      <path id="Trazado_100536" data-name="Trazado 100536" d="M145.5,115h3a1.5,1.5,0,0,0,0-3h-3a1.5,1.5,0,0,0,0,3Z" transform="translate(-104 -78)"/>
      <path id="Trazado_100537" data-name="Trazado 100537" d="M52.5,259H51v-1.5a1.5,1.5,0,0,0-3,0v3a1.5,1.5,0,0,0,1.5,1.5h3a1.5,1.5,0,1,0,0-3Z" transform="translate(-26 -195)"/>
      <path id="Trazado_100538" data-name="Trazado 100538" d="M100.5,272h-3a1.5,1.5,0,0,0,0,3h3a1.5,1.5,0,0,0,0-3Z" transform="translate(-65 -208)"/>
      <path id="Trazado_100539" data-name="Trazado 100539" d="M148.5,272h-3a1.5,1.5,0,0,0,0,3h3a1.5,1.5,0,0,0,0-3Z" transform="translate(-104 -208)"/>
      <path id="Trazado_100540" data-name="Trazado 100540" d="M196.5,112h-3a1.5,1.5,0,0,0,0,3H195v1.5a1.5,1.5,0,1,0,3,0v-3A1.5,1.5,0,0,0,196.5,112Z" transform="translate(-143 -78)"/>
      <path id="Trazado_100541" data-name="Trazado 100541" d="M209.5,160a1.5,1.5,0,0,0-1.5,1.5v3a1.5,1.5,0,1,0,3,0v-3A1.5,1.5,0,0,0,209.5,160Z" transform="translate(-156 -117)"/>
      <path id="Trazado_100542" data-name="Trazado 100542" d="M209.5,208a1.5,1.5,0,0,0-1.5,1.5v3a1.5,1.5,0,0,0,3,0v-3A1.5,1.5,0,0,0,209.5,208Z" transform="translate(-156 -156)"/>
      <path id="Trazado_100543" data-name="Trazado 100543" d="M196.5,256a1.5,1.5,0,0,0-1.5,1.5V259h-1.5a1.5,1.5,0,0,0,0,3h3a1.5,1.5,0,0,0,1.5-1.5v-3A1.5,1.5,0,0,0,196.5,256Z" transform="translate(-143 -195)"/>
      <path id="Trazado_100544" data-name="Trazado 100544" d="M49.5,118a1.5,1.5,0,0,0,1.5-1.5V115h1.5a1.5,1.5,0,0,0,0-3h-3a1.5,1.5,0,0,0-1.5,1.5v3A1.5,1.5,0,0,0,49.5,118Z" transform="translate(-26 -78)"/>
      <path id="Trazado_100545" data-name="Trazado 100545" d="M49.5,166a1.5,1.5,0,0,0,1.5-1.5v-3a1.5,1.5,0,0,0-3,0v3A1.5,1.5,0,0,0,49.5,166Z" transform="translate(-26 -117)"/>
      <path id="Trazado_100546" data-name="Trazado 100546" d="M49.5,214a1.5,1.5,0,0,0,1.5-1.5v-3a1.5,1.5,0,1,0-3,0v3A1.5,1.5,0,0,0,49.5,214Z" transform="translate(-26 -156)"/>
      <path id="Trazado_100547" data-name="Trazado 100547" d="M250.5,192h-9a1.5,1.5,0,0,0,0,3h9a1.5,1.5,0,0,0,0-3Z" transform="translate(-182 -143)"/>
      <path id="Trazado_100548" data-name="Trazado 100548" d="M345.5,192h-24a1.5,1.5,0,0,0,0,3h24a1.5,1.5,0,1,0,0-3Z" transform="translate(-247 -143)"/>
      <path id="Trazado_100549" data-name="Trazado 100549" d="M358.5,224h-21a1.5,1.5,0,1,0,0,3h21a1.5,1.5,0,1,0,0-3Z" transform="translate(-260 -169)"/>
      <path id="Trazado_100550" data-name="Trazado 100550" d="M280.5,112h-39a1.5,1.5,0,0,0-1.5,1.5v9a1.5,1.5,0,0,0,1.5,1.5h39a1.5,1.5,0,0,0,1.5-1.5v-9A1.5,1.5,0,0,0,280.5,112Zm-1.5,9H243v-6h36Z" transform="translate(-182 -78)"/>
      <path id="Trazado_100551" data-name="Trazado 100551" d="M101,145.5a1.5,1.5,0,0,0-1.5-1.5h-18a1.5,1.5,0,0,0-1.5,1.5v18a1.5,1.5,0,0,0,1.5,1.5h18a1.5,1.5,0,0,0,1.5-1.5ZM98,162H83V147H98Z" transform="translate(-52 -104)"/>
    </g>
  </g>
</svg>
